<svg width="367" height="755" viewBox="0 0 367 755" fill="none" xmlns="http://www.w3.org/2000/svg">
<g clip-path="url(#clip0_1454_158)">
<path d="M267.649 151.659L267.615 151.735L264.983 156.561H264.965L263.238 155.575L263.076 155.488L262.335 155.132L261.682 154.835L261.39 154.708L260.769 154.469L259.669 154.077C258.845 153.796 258.007 153.559 257.157 153.368L255.71 153.097L254.951 152.994L254.204 152.918L253.937 152.883C251.639 144.92 248.574 127.033 257.916 104.686C268.781 78.6644 315.585 17.7252 329.141 0.315225C329.262 0.160066 329.435 0.0538831 329.627 0.0164803C329.82 -0.0209224 330.02 0.0130085 330.19 0.111945C330.36 0.210881 330.488 0.368068 330.55 0.554189C330.612 0.740309 330.604 0.942656 330.528 1.12349L267.649 151.659Z" fill="#85BF70"/>
<path d="M59.7005 199.16C59.5044 199.136 59.3238 199.041 59.1929 198.894C59.062 198.746 58.9897 198.555 58.9897 198.358C58.9897 198.161 59.062 197.971 59.1929 197.823C59.3238 197.675 59.5044 197.58 59.7005 197.556L221.754 176.65H221.841L227.333 176.497C227.285 177.74 227.336 178.984 227.487 180.219L227.649 181.431L227.673 181.542L227.896 182.637L227.963 182.937L228.191 183.846L228.364 184.424L228.552 185.042L228.983 186.24L229.359 187.142L229.683 187.867C223.926 193.838 209.936 205.435 185.861 208.536C157.853 212.169 81.5792 202.181 59.7005 199.16Z" fill="#85BF70"/>
<path d="M365.539 333.46L266.38 203.832L266.337 203.766L263.455 199.084C264.924 198.303 266.312 197.379 267.601 196.327L267.653 196.279L268.53 195.521L268.692 195.366L269.425 194.662L269.746 194.327L270.285 193.751L271.068 192.828L271.101 192.787L271.639 192.088L271.663 192.054L272.159 191.371C280.224 193.371 297.261 199.67 311.996 218.916C329.129 241.324 358.611 312.251 366.929 332.68C367.29 333.551 366.103 334.219 365.534 333.47" fill="#85BF70"/>
<path d="M250.37 203.264C252.126 203.259 253.873 203.004 255.558 202.507L273.356 755H227.438L245.236 202.513C246.903 203.006 248.631 203.259 250.37 203.264Z" fill="#85BF70"/>
<path d="M255.173 156.555C258.076 156.998 260.853 158.047 263.323 159.632C267.503 162.306 270.606 166.364 272.087 171.094C273.568 175.824 273.332 180.923 271.42 185.497C270.651 187.331 269.629 189.05 268.384 190.603C265.875 193.7 262.541 196.025 258.766 197.313C254.991 198.6 250.928 198.795 247.046 197.877C245.939 197.616 244.856 197.265 243.807 196.827C239.193 194.885 235.42 191.37 233.161 186.91C230.901 182.449 230.303 177.333 231.471 172.472C232.639 167.612 235.499 163.324 239.54 160.373C243.581 157.422 248.541 155.999 253.536 156.359L255.173 156.555Z" fill="#85BF70"/>
</g>
<g clip-path="url(#clip1_1454_158)">
<path d="M122.615 365.786L122.595 365.831L121.049 368.656H121.038L120.023 368.078L119.928 368.027L119.493 367.819L119.108 367.645L118.937 367.571L118.572 367.431L117.926 367.202C117.442 367.037 116.949 366.898 116.45 366.786L115.599 366.628L115.153 366.568L114.714 366.523L114.557 366.503C113.207 361.84 111.406 351.369 116.896 338.287C123.28 323.053 150.785 287.377 158.752 277.185C158.823 277.094 158.924 277.032 159.038 277.01C159.151 276.988 159.269 277.008 159.368 277.066C159.468 277.123 159.543 277.215 159.58 277.324C159.616 277.433 159.612 277.552 159.567 277.658L122.615 365.786Z" fill="#85BF70"/>
<path d="M0.41157 393.595C0.296314 393.58 0.190227 393.525 0.113295 393.438C0.0363625 393.352 -0.00610352 393.24 -0.00610352 393.125C-0.00610352 393.009 0.0363625 392.898 0.113295 392.811C0.190227 392.725 0.296314 392.669 0.41157 392.655L95.6444 380.416H95.6956L98.923 380.327C98.8946 381.054 98.9248 381.783 99.0134 382.506L99.1086 383.215L99.1228 383.28L99.2537 383.922L99.2929 384.097L99.4274 384.629L99.5285 384.967L99.6391 385.329L99.8925 386.031L100.114 386.558L100.304 386.983C96.9209 390.479 88.6995 397.268 74.5515 399.084C58.0921 401.21 13.2689 395.363 0.41157 393.595Z" fill="#85BF70"/>
<path d="M180.141 472.217L121.869 396.33L121.844 396.291L120.15 393.55C121.014 393.092 121.83 392.552 122.587 391.936L122.618 391.908L123.133 391.464L123.228 391.373L123.659 390.961L123.848 390.765L124.164 390.428L124.625 389.887L124.644 389.864L124.96 389.454L124.974 389.434L125.266 389.034C130.005 390.205 140.017 393.893 148.676 405.16C158.745 418.278 176.07 459.801 180.958 471.761C181.17 472.271 180.473 472.662 180.139 472.223" fill="#85BF70"/>
<path d="M112.461 395.997C113.493 395.994 114.52 395.845 115.51 395.554L125.969 719H98.9849L109.444 395.557C110.423 395.846 111.439 395.994 112.461 395.997Z" fill="#85BF70"/>
<path d="M115.284 368.652C116.99 368.912 118.621 369.525 120.073 370.454C122.529 372.019 124.353 374.394 125.223 377.163C126.093 379.933 125.955 382.918 124.831 385.595C124.379 386.669 123.779 387.676 123.047 388.585C121.573 390.398 119.614 391.759 117.395 392.513C115.176 393.266 112.789 393.381 110.507 392.843C109.857 392.691 109.22 392.485 108.604 392.228C105.893 391.091 103.675 389.034 102.348 386.423C101.02 383.811 100.668 380.816 101.355 377.971C102.041 375.125 103.722 372.615 106.097 370.887C108.472 369.16 111.386 368.327 114.321 368.537L115.284 368.652Z" fill="#85BF70"/>
</g>
<defs>
<clipPath id="clip0_1454_158">
<rect width="308" height="755" fill="white" transform="translate(59)"/>
</clipPath>
<clipPath id="clip1_1454_158">
<rect width="181" height="442" fill="white" transform="translate(0 277)"/>
</clipPath>
</defs>
</svg>
