<svg width="74" height="74" viewBox="0 0 74 74" fill="none" xmlns="http://www.w3.org/2000/svg">
<path d="M35.1301 68.5743C34.8642 68.5743 34.6214 68.5411 34.406 68.5122L34.3598 68.5064C34.2355 68.4891 34.1068 68.4717 33.9695 68.4659C32.8624 68.4081 31.9519 68.3156 31.1064 68.174C19.4615 66.2098 11.0078 56.2386 11.0078 44.4637C11.0078 32.7971 19.3574 22.8345 30.8621 20.775C31.8521 20.5987 32.8841 20.5322 33.7744 20.4816C33.9045 20.4729 34.1531 20.4671 34.4956 20.4642L34.8165 20.4613L34.7934 20.0147C34.7847 19.8587 34.7775 19.7112 34.7775 19.5681C34.7775 11.7692 41.1224 5.42432 48.9213 5.42432C56.7188 5.42432 63.0623 11.7692 63.0623 19.5681C63.0623 23.2551 61.1588 28.4236 57.4053 34.9318L57.3287 35.0648L57.388 35.2064C58.6165 38.1447 59.2394 41.2608 59.2394 44.4651C59.2394 56.2357 50.7872 66.2084 39.1438 68.1754C38.291 68.3171 37.3834 68.411 36.2893 68.4674C36.1433 68.4732 36.0103 68.492 35.8802 68.5108L35.8513 68.5151C35.6331 68.5426 35.3888 68.5743 35.1301 68.5743ZM44.3339 58.0106C41.6644 58.2751 38.9414 58.4268 36.2416 58.4615L35.9366 58.4658V66.4555L36.2936 66.4006C36.5928 66.3544 36.8544 66.298 37.0972 66.2272C40.0384 65.3629 42.7195 62.6009 44.6461 58.4499L44.8744 57.9585L44.3339 58.0106ZM25.6113 58.4658C27.5379 62.6095 30.216 65.3658 33.1544 66.2272C33.3957 66.2965 33.6602 66.3544 33.9637 66.4006L34.3193 66.4555V58.4687L34.0129 58.4658C31.3203 58.4369 28.5987 58.2895 25.9206 58.0294L25.3829 57.9773L25.6113 58.4658ZM16.5781 57.1853C19.3531 61.2105 23.4491 64.2601 28.1117 65.7748L28.4166 65.253C26.5074 63.4941 24.8438 60.9633 23.6066 57.9325L23.5387 57.7649L23.3595 57.7432C21.151 57.4671 18.9758 57.1188 16.8931 56.7069L16.1474 56.5595L16.5781 57.1853ZM53.3801 56.665C51.2699 57.087 49.089 57.4426 46.8964 57.7201L46.7172 57.7432L46.6493 57.9108C45.4106 60.9518 43.7442 63.4912 41.8306 65.253L42.1356 65.7748C46.8126 64.2543 50.9187 61.1888 53.6966 57.1434L54.1273 56.5161L53.3801 56.665ZM22.8435 47.1664C23.0661 50.2998 23.6904 53.3885 24.6487 56.0999L24.7137 56.2834L24.906 56.3051C27.8616 56.6303 30.9228 56.8124 34.0057 56.8471L34.3178 56.85V47.4815L34.0114 47.4786C30.3562 47.4439 26.7126 47.2271 23.1846 46.8369L22.816 46.7964L22.8435 47.1664ZM47.0626 46.8166C43.5288 47.2141 39.8881 47.4367 36.2416 47.4771L35.9366 47.48V56.8485L36.2502 56.8442C39.3215 56.8037 42.3827 56.6158 45.3499 56.282L45.5422 56.2603L45.6072 56.0782C46.564 53.3653 47.1869 50.2767 47.4081 47.1447L47.4341 46.7747L47.0626 46.8166ZM12.6511 45.5173C12.7971 48.6811 13.592 51.7177 15.0128 54.5433L15.0793 54.6748L15.2224 54.7066C17.6013 55.2327 20.0251 55.6677 22.4272 55.9987L22.9114 56.0652L22.7654 55.5998C21.9098 52.8783 21.3837 49.9342 21.2016 46.8484L21.1872 46.594L20.9342 46.5608C18.3197 46.2139 15.6588 45.7572 13.0255 45.2022L12.6338 45.1198L12.6511 45.5173ZM57.2261 45.1646C54.7257 45.6965 52.234 46.1359 49.8203 46.4712L49.6945 46.4885L49.5312 46.701C49.4503 46.8051 49.3433 46.886 49.2118 46.9424L49.0384 47.0175L49.0254 47.2054C48.8245 50.1553 48.3085 52.9693 47.4933 55.5709L47.3474 56.0377L47.8315 55.9698C50.264 55.6301 52.6806 55.1936 55.0162 54.6719H55.0205L55.1896 54.6329L55.2547 54.5042C56.6711 51.6772 57.4602 48.642 57.6004 45.4811L57.6178 45.0822L57.2261 45.1646ZM23.6933 36.1155C23.0646 38.7951 22.7467 41.6034 22.7467 44.4651C22.7467 44.5547 22.7481 44.6429 22.7495 44.731L22.7553 45.1574L23.027 45.1877C26.6317 45.5997 30.3273 45.8266 34.0085 45.8613L34.3207 45.8642V36.5188L34.0143 36.5159C30.6785 36.4797 27.3196 36.2644 24.0315 35.8785L23.7584 35.8467L23.6933 36.1155ZM41.0357 36.3323C39.4588 36.432 37.8459 36.4942 36.2416 36.5144L35.9366 36.5188V45.8642L36.2488 45.8613C39.7566 45.8208 43.2354 45.6141 46.5886 45.247L47.1176 45.1892L46.8054 44.7585C45.4323 42.8651 43.367 39.8921 41.3204 36.4841L41.2236 36.3222L41.0357 36.3323ZM14.9203 34.5849C13.592 37.2906 12.8332 40.1899 12.6656 43.2048L12.6511 43.4678L12.9098 43.5242C15.5475 44.0937 18.1968 44.559 20.7796 44.9117L21.1308 44.9594L21.1294 44.6038L21.1279 44.4637C21.1279 41.5485 21.4415 38.6896 22.0601 35.9652L22.1338 35.6386L21.8014 35.5909C19.6204 35.2801 17.4207 34.8856 15.2628 34.4187L15.0258 34.3681L14.9203 34.5849ZM48.9213 7.04307C42.0141 7.04307 36.3948 12.6624 36.3948 19.5696C36.3948 19.7965 36.4078 20.0306 36.4179 20.2084C36.428 20.3645 36.4439 20.5235 36.4598 20.6839C36.4829 20.9195 36.5118 21.1421 36.5465 21.3632C36.6043 21.7419 36.678 22.1307 36.7648 22.518C36.8096 22.7175 36.8602 22.9184 36.9122 23.1222C37.7086 26.2079 39.427 30.0264 42.0199 34.4751C42.4217 35.1645 42.8539 35.8828 43.3034 36.6127C44.3975 38.3847 45.5899 40.2 46.8458 42.0066C47.4529 42.8796 48.057 43.7265 48.6438 44.5258L48.8924 44.864L49.141 44.5258C49.2985 44.3133 49.4777 44.0676 49.6685 43.8046C51.1283 41.7898 53.3136 38.6448 55.4238 35.1024L55.6131 34.7829C55.7764 34.5054 55.9398 34.2279 56.1016 33.9461C56.2389 33.7091 56.3748 33.4706 56.5092 33.2307C56.5916 33.0847 56.6725 32.9387 56.7535 32.7928C59.8652 27.1835 61.4435 22.7348 61.4435 19.571C61.4435 12.6624 55.8256 7.04307 48.9213 7.04307ZM55.9369 37.3903C54.243 40.1335 52.5852 42.5269 51.4911 44.0517L51.0589 44.6544L51.7917 44.5359C53.633 44.2396 55.4975 43.887 57.3301 43.4895L57.5874 43.4331L57.573 43.1701C57.4617 41.2175 57.0989 39.2952 56.4933 37.4553L56.2852 36.8237L55.9369 37.3903ZM33.971 22.5325C33.6862 22.5686 33.3524 22.6192 33.033 22.7189C29.3315 23.8708 26.146 27.9524 24.2931 33.9158L24.1819 34.2728L24.5533 34.3147C27.6521 34.6688 30.8332 34.8653 34.0071 34.9L34.3193 34.9029V22.4877L33.971 22.5325ZM35.9366 27.1763V34.9015L36.2502 34.8971C37.5409 34.8798 38.7058 34.8451 39.8129 34.7873L40.3116 34.7613L40.0659 34.3262C38.5945 31.716 37.4065 29.2705 36.5335 27.0621L35.9366 27.1763ZM28.1218 23.1294C23.147 24.7481 18.8689 28.081 16.0751 32.5109L15.8381 32.8867L16.2731 32.9778C18.311 33.4027 20.333 33.7568 22.2842 34.0285L22.5472 34.0646L22.6224 33.8103C23.9116 29.4758 25.9191 25.9622 28.4253 23.6483L28.1218 23.1294Z" fill="#224A89"/>
<path d="M48.8677 11.855C44.5838 11.855 41.0977 15.3411 41.0977 19.625C41.0977 20.9951 41.4575 22.2829 42.0834 23.4016C42.1137 23.4551 42.1484 23.5071 42.1788 23.5591C42.6774 24.4046 43.3307 25.1475 44.101 25.7488C45.2573 26.6506 46.6722 27.2331 48.2158 27.3632C48.4312 27.3805 48.6465 27.3964 48.8677 27.3964C53.1516 27.3964 56.6377 23.9103 56.6377 19.6264C56.6377 15.3396 53.1516 11.855 48.8677 11.855ZM48.8677 25.9627C45.3729 25.9627 42.53 23.1197 42.53 19.625C42.53 16.1302 45.3729 13.2873 48.8677 13.2873C52.3624 13.2873 55.2054 16.1302 55.2054 19.625C55.2054 23.1197 52.3624 25.9627 48.8677 25.9627Z" fill="#EE8122"/>
</svg>
