<svg width="74" height="74" viewBox="0 0 74 74" fill="none" xmlns="http://www.w3.org/2000/svg">
<path d="M37.0329 65.9695C47.6516 62.8577 56.286 55.5343 60.3271 45.1425C62.8882 38.5591 62.099 30.9525 62.0846 24.0251C62.0759 19.5966 62.1149 15.1696 62.0903 10.7427C62.0903 10.7427 53.1207 8.03125 37.0329 8.03125C21.2949 8.03125 11.9755 10.7427 11.9755 10.7427C11.9495 15.1696 11.9899 19.5981 11.9813 24.0251C11.9668 30.9525 11.1777 38.5591 13.7388 45.1425C17.7799 55.5343 26.4142 62.8577 37.0329 65.9695Z" stroke="#224A89" stroke-width="1.61769" stroke-miterlimit="10" stroke-linecap="round" stroke-linejoin="round"/>
<path d="M25.2344 60.1789C28.7118 62.7457 32.6777 64.7085 36.979 65.9688C47.5977 62.857 56.232 55.5336 60.2731 45.1418C62.7461 38.7853 62.0971 31.4764 62.0364 24.7441C58.3407 31.2972 47.6411 47.2245 25.2344 60.1789Z" stroke="#224A89" stroke-width="1.61769" stroke-miterlimit="10" stroke-linecap="round" stroke-linejoin="round"/>
<path d="M20.7188 25.0204L25.4117 29.7133L36.2573 18.8662" stroke="#EE8122" stroke-width="1.61769" stroke-miterlimit="10" stroke-linecap="round" stroke-linejoin="round"/>
<path d="M25.2506 60.1789C47.6559 47.2246 58.357 31.2972 62.0527 24.7442L62.0483 23.2743C62.0454 19.0959 62.0772 14.9189 62.0527 10.7405C62.0527 10.7405 59.8977 10.0902 55.8161 9.42676C54.2581 12.592 39.4812 41.5705 16.625 50.9347C18.8869 54.5234 21.7804 57.5976 25.1437 60.0994L25.2506 60.1789Z" stroke="#224A89" stroke-width="1.61769" stroke-miterlimit="10" stroke-linecap="round" stroke-linejoin="round"/>
</svg>
