<svg width="74" height="74" viewBox="0 0 74 74" fill="none" xmlns="http://www.w3.org/2000/svg">
<path d="M68.6726 35.4403C67.7708 34.8737 66.866 34.4965 65.9627 34.3042C66.2994 32.7274 66.4714 31.1086 66.4714 29.4812C66.4714 28.033 66.3356 26.6166 66.0783 25.2407C66.0768 25.2306 66.0754 25.2204 66.0725 25.2103C64.065 14.5439 54.6805 6.44873 43.4403 6.44873C30.7403 6.44873 20.4092 16.7798 20.4092 29.4798C20.4092 31.5321 20.6867 33.5729 21.2229 35.54C21.2301 35.579 21.2403 35.618 21.2547 35.657C21.6608 37.1212 22.2115 38.5433 22.898 39.8976L16.014 46.3509L13.4645 43.706C13.1783 43.4097 12.7086 43.3952 12.405 43.6742L5.20159 50.3082C5.05128 50.4469 4.96311 50.6406 4.95733 50.8458C4.95155 51.0511 5.0296 51.2491 5.17268 51.3951L20.7171 67.3181C20.8587 67.4626 21.0524 67.545 21.2547 67.5464C21.2562 67.5464 21.2576 67.5464 21.259 67.5464C21.4599 67.5464 21.6536 67.4669 21.7953 67.3238L28.62 60.4991C28.912 60.2071 28.9163 59.7345 28.6302 59.4368L27.3106 58.0681H50.8317C50.982 58.0681 51.1294 58.0233 51.2551 57.9394C64.0115 49.3716 68.7854 36.8726 68.9819 36.345C69.1062 36.0112 68.9776 35.6325 68.6726 35.4403ZM64.9553 29.4812C64.9553 30.1229 64.9264 30.7632 64.87 31.4006C63.4854 30.9713 61.1599 31.3283 58.4138 31.7518C55.9683 32.129 52.6181 32.645 51.7624 32.0033C51.2652 31.6304 51.3549 31.4078 51.3838 31.3356C51.6786 30.6071 54.1154 29.4133 58.4167 29.9495C61.9172 30.3874 63.8482 29.1763 64.8975 27.9116C64.935 28.4305 64.9553 28.9537 64.9553 29.4812ZM43.4403 7.96631C53.9058 7.96631 62.6486 15.479 64.5636 25.3939C64.4032 26.0573 63.4088 29.0447 58.6031 28.4449C54.3626 27.9145 50.7334 28.8915 49.976 30.7676C49.8084 31.1809 49.5598 32.2476 50.8504 33.2159C51.4401 33.6582 52.3565 33.8201 53.4737 33.8201C54.945 33.8201 56.7632 33.5397 58.6421 33.2506C60.232 33.0063 61.7337 32.7751 62.9232 32.7303C64.435 32.6754 64.6648 32.9702 64.6662 32.9731C64.6662 32.9745 64.6677 32.9745 64.6677 32.976C64.6026 33.3735 64.5275 33.768 64.4407 34.1597C63.9118 34.1713 63.3842 34.245 62.861 34.3866C59.4255 35.316 57.2474 38.7674 56.7213 39.6837L51.0456 42.5873C50.2694 41.6681 49.1175 41.0741 47.8341 41.0538L40.3734 40.9411C39.4888 40.9281 38.6303 40.6651 37.8903 40.1823L36.1993 39.0796C35.1904 38.4219 34.0212 38.0736 32.8172 38.0736H27.2947C26.1644 38.0736 25.0718 38.38 24.1208 38.9495C23.8042 38.3034 23.5195 37.64 23.2695 36.9651C23.2738 36.9651 23.2782 36.9651 23.2825 36.9651C25.1036 36.9651 27.3886 35.0544 29.7965 33.0396C30.1174 32.7722 30.4354 32.5048 30.749 32.2461C32.5759 30.7415 34.1917 31.2113 37.1243 32.0654C38.6794 32.5178 40.4442 33.0324 42.6671 33.359C44.6833 33.6553 45.9234 33.3633 46.4567 32.4658C47.347 30.9685 45.6314 28.6805 44.6067 27.3147C44.4491 27.1051 44.254 26.8435 44.2136 26.7727C44.0069 26.3594 43.5458 26.1715 43.2163 26.0674C41.5123 25.524 36.7485 25.3982 34.079 26.8219C33.0022 27.3956 32.2709 26.8262 30.736 25.2855C29.7763 24.3215 28.688 23.2303 27.2687 22.7865C25.4721 22.2258 23.8563 22.9412 22.6885 23.7939C25.1903 14.6827 33.5457 7.96631 43.4403 7.96631ZM21.9253 29.4812C21.9253 28.429 22.0019 27.3956 22.1494 26.3839C22.6393 25.7885 24.6555 23.5583 26.8177 24.2347C27.88 24.5672 28.7863 25.4763 29.6636 26.3565C31.0482 27.7469 32.6178 29.3208 34.7944 28.1602C37.2096 26.8724 42.0904 27.1398 42.9258 27.572C43.0168 27.7208 43.1599 27.9131 43.3941 28.2253C45.1559 30.5739 45.3236 31.4064 45.1545 31.6911C45.1429 31.7099 44.8582 32.1478 42.8882 31.8588C40.7679 31.5466 39.0567 31.0494 37.5478 30.61C34.5776 29.7457 32.2304 29.0621 29.785 31.0754C29.4684 31.3356 29.1476 31.6058 28.8238 31.8761C26.8134 33.557 24.3116 35.6498 23.1264 35.4345C23.0007 35.4113 22.8388 35.3506 22.6783 35.1078C22.1826 33.281 21.9253 31.3876 21.9253 29.4812ZM21.2663 65.7123L6.803 50.8964L12.8863 45.2929L27.0201 59.9571L21.2663 65.7123ZM50.599 56.5548H25.9997C25.9534 56.5548 25.9072 56.5606 25.8624 56.5693L17.0676 47.445L24.0976 40.8544C24.9677 40.0392 26.1023 39.5897 27.2947 39.5897H32.8187C33.7278 39.5897 34.6109 39.8528 35.3726 40.3485L37.0636 41.4513C38.0449 42.0916 39.181 42.4385 40.3517 42.4558L47.8124 42.5685C49.3199 42.5917 50.5455 43.8361 50.5455 45.3435C50.5455 46.8741 49.3011 48.1185 47.7705 48.1185H35.5706C35.1514 48.1185 34.8118 48.4582 34.8118 48.8773C34.8118 49.2965 35.1514 49.6361 35.5706 49.6361H47.7705C50.1365 49.6361 52.0616 47.711 52.0616 45.345C52.0616 44.8391 51.972 44.3535 51.8087 43.9011L57.6203 40.9295C57.7591 40.8587 57.8732 40.7445 57.9469 40.6058C57.9672 40.5668 60.021 36.7222 63.2657 35.8493C64.5809 35.4952 65.941 35.6831 67.3169 36.4072C66.2156 38.9668 61.2798 49.2979 50.599 56.5548Z" fill="#224A89"/>
<path d="M41.2893 19.8663C43.2738 19.9963 44.5268 20.1481 45.2856 21.5891C45.5342 22.0617 45.7843 22.5574 46.0256 23.0358C47.4001 25.7573 48.487 27.908 50.019 27.9427C50.0306 27.9427 50.0436 27.9427 50.0552 27.9427C50.7706 27.9427 51.3993 27.47 51.924 26.5364C52.8678 24.8584 52.6539 23.6183 52.4645 22.5242C52.2694 21.3968 52.1017 20.4227 53.0571 18.7722C53.5109 17.9873 53.9994 17.2979 54.4301 16.688C55.3667 15.3641 56.1067 14.3177 55.6933 13.2829C55.3682 12.4663 54.4287 11.9575 52.5498 11.5817C50.2879 11.1293 48.3136 12.0211 46.5705 12.8088C44.3014 13.8335 42.5092 14.6429 40.373 12.8782C40.2054 12.7394 39.9842 12.6802 39.7689 12.7148C39.3873 12.777 36.0284 13.3696 35.3448 15.2673C35.1337 15.8541 35.0918 16.795 36.0978 17.9425C37.5662 19.622 39.5434 19.7521 41.2893 19.8663ZM36.7713 15.7818C37.0184 15.0938 38.5534 14.5114 39.6923 14.2714C42.4441 16.3354 44.9633 15.1979 47.1949 14.1905C48.8787 13.4303 50.47 12.712 52.2535 13.0689C54.0746 13.4332 54.2697 13.8017 54.2856 13.8436C54.394 14.1139 53.6988 15.0953 53.193 15.8122C52.7435 16.4466 52.2347 17.1679 51.7462 18.0119C50.5148 20.138 50.7576 21.5428 50.9715 22.7815C51.1449 23.7888 51.2822 24.5838 50.6029 25.792C50.3124 26.3095 50.1058 26.4251 50.0537 26.4251C50.0537 26.4251 50.0537 26.4251 50.0523 26.4251C50.0393 26.4251 49.7199 26.4063 49.0304 25.37C48.5015 24.5751 47.9551 23.4954 47.3785 22.3507C47.1342 21.8666 46.8813 21.3665 46.6269 20.8823C45.4345 18.6175 43.2853 18.4773 41.3876 18.353C39.7963 18.2489 38.2932 18.1507 37.2381 16.9453C36.8219 16.4683 36.6643 16.0781 36.7713 15.7818Z" fill="#EE8122"/>
</svg>
