<svg width="100" height="100" viewBox="0 0 100 100" fill="none" xmlns="http://www.w3.org/2000/svg">
<path d="M63.0153 15C63.2435 15 63.4701 15 63.6983 15C63.8078 15.03 63.9144 15.066 64.0255 15.0886C65.9993 15.5178 67.1415 17.0519 67.0214 19.1142C66.9209 20.8239 65.4514 22.2633 63.6007 22.4074C63.1549 22.4419 62.9628 22.6641 62.8037 23.0168C62.0532 24.6724 61.3117 26.3325 60.5327 27.9746C60.2851 28.4955 60.3796 28.7792 60.8765 29.0718C63.0439 30.3447 64.9921 31.9072 66.7482 33.7024C67.1235 34.0867 67.3907 34.1212 67.8364 33.8075C70.8474 31.6881 73.8673 29.5822 76.9098 27.5093C77.4997 27.1085 77.7443 26.6913 77.7308 25.9588C77.6813 23.4071 80.1759 21.6524 82.5894 22.4945C83.8473 22.9343 84.5692 23.8874 85 25.1017V26.7408C84.3576 29.2295 81.8405 30.2396 79.8922 29.3285C79.3774 29.0884 79.0232 29.1604 78.5894 29.4651C75.5919 31.568 72.5885 33.6619 69.5671 35.7303C69.0777 36.065 68.9922 36.2931 69.3719 36.787C70.9044 38.7803 72.1172 40.9627 73.0838 43.2833C75.1417 48.2216 75.8006 53.364 75.1702 58.649C74.6358 63.131 73.1604 67.3158 70.6913 71.1193C70.3701 71.6146 70.4466 71.7242 71.0215 71.7887C72.5135 71.9553 73.9949 72.2075 75.3368 72.9505C76.9863 73.8631 77.4216 75.22 76.6081 76.9101C76.4505 77.2373 76.2734 77.5571 76.1233 77.8873C75.5124 79.2337 75.7706 80.1628 77.0074 80.9928C77.3451 81.2195 77.7143 81.4101 78.0926 81.5572C79.7241 82.1921 81.4322 82.4068 83.1703 82.4023C83.8893 82.4008 84.5197 82.5614 85 83.1303V84.223C84.7673 84.6057 84.4837 84.9285 83.9959 84.948C81.3527 85.047 78.7545 84.8144 76.3559 83.5986C74.3747 82.5944 73.0718 81.0859 73.2204 78.6933C73.279 77.7417 73.6692 76.8951 74.133 76.0756C74.4932 75.4407 74.4362 75.2725 73.7533 75.0309C72.611 74.6256 71.4238 74.4125 70.2215 74.3149C69.2504 74.2369 68.4233 74.2038 67.5633 75.1134C59.5181 83.6091 49.6552 86.7116 38.2809 84.1254C26.018 81.3381 17.0993 71.2859 15.2936 58.7961C14.6167 54.1115 15.1105 49.5184 16.7735 45.1085C20.1627 36.1265 26.3152 29.8013 35.327 26.3746C39.3406 24.848 43.5178 24.3542 47.7955 24.7565C51.0586 25.0627 54.1927 25.8747 57.1871 27.2061C57.7635 27.4628 58.0141 27.3442 58.2603 26.7738C58.9507 25.1648 59.6907 23.5767 60.4367 21.9916C60.6318 21.5759 60.6228 21.2697 60.3451 20.8734C59.3245 19.4159 59.4415 17.5742 60.5823 16.2668C61.2277 15.5268 62.0817 15.1891 63.0153 15ZM26.9726 75.0069C28.9164 74.8042 30.9307 74.4605 32.9255 74.0072C41.6461 72.0259 49.6057 68.3529 56.8809 63.1745C62.1808 59.4025 66.8698 54.9911 70.7498 49.7511C72.1202 47.9004 72.0977 47.8808 71.2902 45.7224C71.2226 45.5438 71.2316 45.2601 70.9855 45.2421C70.7528 45.2241 70.6838 45.4913 70.5712 45.6519C66.4571 51.5088 61.3403 56.3435 55.5 60.4397C50.4808 63.961 45.0968 66.7754 39.3046 68.7972C34.4744 70.4829 29.5243 71.5921 24.4015 71.8488C24.2048 71.8593 23.9587 71.8097 23.8746 72.0559C23.8041 72.263 24.0082 72.3756 24.1148 72.5137C24.7257 73.3122 25.4461 74.0072 26.1576 74.7112C26.3602 74.9108 26.5824 75.0549 26.9741 75.0039L26.9726 75.0069ZM23.3583 66.127C22.6108 66.235 21.8168 66.0834 21.0213 66.1029C20.1612 66.124 20.1327 66.1405 20.5215 66.9405C20.7991 67.5124 21.1369 68.0557 21.4055 68.6321C21.6637 69.1875 22.0615 69.3391 22.6588 69.3316C25.8559 69.2896 29.0019 68.8438 32.1029 68.1218C41.4434 65.9483 49.8338 61.7876 57.3597 55.8661C61.7665 52.3988 65.66 48.4407 68.7535 43.7366C69.8252 42.1065 69.8177 42.102 68.7761 40.4614C68.3798 39.8385 68.3408 39.8355 67.952 40.5019C67.3096 41.6052 66.5666 42.6379 65.7741 43.636C62.8607 47.3105 59.428 50.4581 55.8287 53.433C50.9731 57.4452 45.6612 60.7054 39.7714 62.9749C34.509 65.0027 29.071 66.1675 23.3583 66.127ZM22.5508 63.5558C24.3895 63.5753 26.048 63.4582 27.6916 63.2496C33.5529 62.5036 39.0554 60.6153 44.2743 57.876C49.8113 54.9701 54.8126 51.3136 59.2824 46.9487C61.7605 44.5306 64.063 41.9504 65.7996 38.9199C66.6672 37.4054 66.6672 37.3784 65.4949 36.128C65.3854 36.0125 65.2668 35.9044 65.1647 35.7828C64.8645 35.4196 64.6844 35.5111 64.4788 35.8969C64.051 36.6984 63.6127 37.4984 63.1174 38.2595C60.4082 42.4247 56.9034 45.853 53.0699 48.9616C47.6454 53.3595 41.7061 56.8223 34.9503 58.7571C30.5599 60.0149 26.09 60.5177 21.5331 59.9699C20.5875 59.8558 19.6464 59.6952 18.7053 59.5436C18.306 59.479 18.0854 59.5271 18.195 60.0239C18.4006 60.956 18.6197 61.8836 18.8944 62.7993C19.0145 63.2 19.2231 63.4267 19.6629 63.4177C20.6866 63.3997 21.6982 63.6488 22.5508 63.5543V63.5558ZM46.0109 27.3337C45.7197 27.3337 45.5561 27.3562 45.4015 27.3307C44.5579 27.1881 44.1001 27.5423 43.7309 28.3244C42.0934 31.7977 40.9451 35.4256 40.1241 39.1676C39.4306 42.3226 39.0119 45.5168 38.7777 48.7349C38.6787 50.0948 38.6636 51.4607 38.6321 52.8236C38.6201 53.358 39.1815 54.1595 39.5567 54.2136C40.2757 54.3171 41.508 53.2799 41.52 52.5249C41.553 50.386 41.7962 48.2636 42.0904 46.1502C42.6562 42.0885 43.5823 38.1124 45.0983 34.2893C45.9644 32.1039 47.036 30.028 48.3794 28.0962C48.48 27.9521 48.6706 27.8035 48.5985 27.6219C48.504 27.3802 48.2413 27.4898 48.0507 27.4718C47.3272 27.4057 46.6083 27.2691 46.0094 27.3337H46.0109ZM24.9208 36.6909C24.9883 37.2778 25.0424 37.8662 25.1249 38.4501C25.191 38.9214 25.2885 39.3897 25.3786 39.858C26.5148 45.817 28.9479 51.1905 32.6403 55.9997C32.9224 56.3675 33.2121 56.5311 33.6864 56.372C34.5045 56.0973 35.342 55.8827 36.1645 55.62C36.936 55.3738 36.9435 55.3408 36.4062 54.6984C33.1371 50.7883 30.5809 46.4684 28.8608 41.6607C28.0788 39.4723 27.4799 37.2373 27.0747 34.9513C26.9906 34.4769 26.8721 34.2998 26.4698 34.7186C26.0285 35.1779 25.5767 35.6252 25.1279 36.0785C24.9598 36.2481 24.8472 36.4372 24.9208 36.6894V36.6909ZM44.1302 51.9515C45.0923 51.3451 45.9328 50.8213 46.7674 50.2884C46.985 50.1504 46.9835 49.9072 47.0135 49.6805C47.2987 47.5206 47.6139 45.3667 48.0927 43.2383C49.1224 38.6602 50.6894 34.2998 53.2515 30.3372C54.3067 28.7056 54.3082 28.7266 52.378 28.2358C51.8571 28.1037 51.5314 28.2193 51.2087 28.6366C49.6522 30.6479 48.4424 32.8544 47.5073 35.2094C45.3985 40.5185 44.4724 46.0721 44.1302 51.953V51.9515ZM36.0084 49.7676C36.3116 48.5758 36.2141 47.4756 36.3191 46.3919C36.6944 42.5118 37.4208 38.7052 38.5151 34.9648C39.1935 32.6487 40.016 30.3837 40.9826 28.1728C41.1508 27.787 41.2018 27.5949 40.6329 27.6999C39.8494 27.844 39.0764 28.0211 38.3019 28.2028C37.9147 28.2928 37.6805 28.494 37.5199 28.8692C36.6148 30.9856 35.8718 33.1531 35.3075 35.385C34.563 38.3225 34.1562 41.3155 33.8696 44.325C33.811 44.9449 33.5063 45.5963 33.82 46.2057C34.4429 47.4155 35.1394 48.5863 36.0084 49.7691V49.7676ZM49.8323 48.0715C50.9791 47.2609 51.8917 46.4459 52.8313 45.6639C53.2335 45.3291 53.4587 44.9299 53.5773 44.4135C54.5349 40.2468 55.9533 36.2601 58.2873 32.6442C59.317 31.0502 59.3155 31.0832 57.6179 30.2021C57.022 29.8929 56.7038 29.9409 56.2895 30.5053C52.4846 35.6942 50.8425 41.6682 49.8323 48.0715ZM36.2156 75.993C36.3672 76.1341 36.4227 76.2077 36.4963 76.2497C41.4765 79.1016 46.8394 80.7767 52.5311 81.4146C52.9649 81.4627 53.4061 81.3246 53.7003 80.9703C54.0636 80.535 54.3923 80.0697 54.7225 79.6074C54.9476 79.2922 54.8516 79.1151 54.4643 79.0641C54.0606 79.01 53.6598 78.926 53.2575 78.8539C49.1584 78.1079 45.2664 76.7615 41.5725 74.8358C41.2918 74.6887 41.0052 74.495 40.6734 74.5971C39.222 75.0429 37.7766 75.5037 36.2156 75.9945V75.993ZM27.507 57.4407C27.9377 57.4107 28.2109 57.3972 28.4811 57.3701C28.7513 57.3431 29.0214 57.3011 29.2916 57.2681C30.1817 57.16 30.2132 57.097 29.6984 56.375C27.1347 52.7741 25.2015 48.8625 23.8941 44.6387C23.4108 43.0746 23.0371 41.4866 22.7144 39.885C22.6859 39.7439 22.7354 39.5293 22.5102 39.5113C22.3541 39.4993 22.2986 39.6659 22.2296 39.7755C21.9519 40.2168 21.6802 40.664 21.407 41.1083C21.1414 41.5391 20.9462 41.9684 21.0468 42.5148C21.9699 47.5206 23.6855 52.2292 26.2371 56.6377C26.5779 57.226 26.9126 57.6628 27.507 57.4377V57.4407ZM58.2663 79.1076C59.5916 78.5312 60.7459 77.7327 61.8881 76.9086C62.3159 76.5994 62.562 76.2272 62.7242 75.7228C64.1696 71.2138 64.5148 66.6028 64.045 61.9137C64.018 61.648 63.9955 61.2352 63.8409 61.1617C63.5542 61.0251 63.3621 61.4033 63.1354 61.5699C62.9163 61.732 62.7332 61.9497 62.5005 62.0848C61.5999 62.6071 61.4588 63.3951 61.5654 64.3543C61.9421 67.733 61.4063 71.0112 60.3766 74.2233C59.8348 75.9135 59.0948 77.5195 58.2663 79.1091V79.1076ZM66.2965 72.6398C67.5047 71.3024 68.5464 69.8554 69.3764 68.2614C69.4935 68.0362 69.4965 67.7826 69.522 67.5334C69.7367 65.4455 69.6631 63.3651 69.3794 61.2893C69.1918 59.9173 68.9126 58.5619 68.5134 57.2351C68.4398 56.9889 68.3738 56.6121 67.9955 56.9859C67.4627 57.5127 66.9449 58.0546 66.418 58.5875C66.2124 58.7946 66.2499 59.0257 66.2934 59.2839C66.6372 61.3448 66.8458 63.4207 66.8683 65.5101C66.8923 67.8951 66.6402 70.2577 66.298 72.6428L66.2965 72.6398ZM44.4048 73.1666C44.4499 73.3798 44.5715 73.4068 44.6705 73.4533C48.0072 75.0114 51.4999 76.0425 55.1488 76.5229C56.5522 76.7075 56.5387 76.6535 57.121 75.3686C57.3357 74.8943 57.2126 74.7277 56.7443 74.6226C53.8564 73.9682 51.0721 73.003 48.3689 71.7992C48.1618 71.7062 47.9441 71.5891 47.716 71.6897C46.6038 72.179 45.496 72.6788 44.4033 73.1681L44.4048 73.1666ZM34.4594 29.5357C32.6087 30.2997 31.0778 31.1732 29.6203 32.1834C29.3607 32.3635 29.3186 32.6202 29.3682 32.9084C29.4957 33.6454 29.6023 34.3884 29.7524 35.1209C30.1652 37.1412 30.7025 39.1255 31.5281 41.0468C32.1074 37.1742 33.044 33.4037 34.4594 29.5357ZM19.1871 46.2042C18.6768 47.357 18.4982 48.4242 18.2595 49.4764C18.18 49.8261 18.2085 50.1443 18.318 50.4761C18.8419 52.0506 19.4107 53.6132 19.9031 55.1937C20.3759 56.7142 21.0783 57.6854 22.8179 57.4602C22.8825 57.4512 22.9515 57.4827 23.0191 57.4902C23.2157 57.5127 23.4589 57.6418 23.5909 57.4452C23.723 57.2501 23.5174 57.0624 23.4228 56.8928C22.066 54.4357 20.9808 51.863 20.0937 49.2047C19.78 48.2666 19.5188 47.3105 19.1871 46.2057V46.2042ZM50.9115 70.0581C53.2575 71.0457 55.497 71.7452 57.813 72.206C58.1822 72.2795 58.3053 72.1039 58.3713 71.7977C58.5274 71.0667 58.6941 70.3388 58.8472 69.6078C58.9357 69.1815 58.7706 68.9398 58.3308 68.8122C57.3072 68.5181 56.297 68.1818 55.2824 67.8591C55.0857 67.7961 54.8906 67.724 54.6925 67.8411C53.4842 68.5481 52.2774 69.2565 50.9115 70.0566V70.0581ZM29.3471 77.3874C33.8636 80.5696 38.7117 82.2011 44.1827 82.4323C44.0251 82.3287 43.9921 82.2942 43.9516 82.2822C40.0716 81.1129 36.4362 79.4228 33.0665 77.1668C32.8384 77.0137 32.6057 76.8636 32.3131 76.8921C31.372 76.9822 30.4444 77.1503 29.3456 77.3889L29.3471 77.3874ZM57.094 41.359C57.3387 41.308 57.4182 41.1279 57.5368 41.0033C59.4731 38.9634 61.0611 36.6759 62.3804 34.1963C62.7452 33.5118 62.6806 33.3677 61.8956 32.8724C61.3283 32.5136 61.2532 33.0675 61.0416 33.3227C60.7669 33.6529 60.5252 34.0146 60.2941 34.3794C58.9162 36.5528 57.8055 38.8463 57.094 41.359ZM72.6831 51.866C72.6185 51.8345 72.554 51.8045 72.4894 51.7729C72.0061 52.3658 71.5603 52.9932 71.0305 53.5426C70.4586 54.1355 70.2785 54.7134 70.6673 55.4879C70.8984 55.9472 70.978 56.4831 71.1281 56.9829C71.5378 58.3458 71.76 59.7507 72.0497 61.1497C72.8962 58.0891 72.9622 54.9881 72.6816 51.8645L72.6831 51.866ZM63.317 19.8467C63.8679 19.8632 64.4217 19.3289 64.4338 18.7705C64.4458 18.2166 63.9174 17.6733 63.3546 17.6568C62.7857 17.6418 62.2634 18.1491 62.2513 18.7285C62.2393 19.2989 62.7452 19.8287 63.317 19.8452V19.8467ZM80.2735 25.9753C80.2735 26.5472 80.7988 27.0695 81.3647 27.0605C81.9245 27.0515 82.4634 26.5111 82.4589 25.9618C82.4544 25.4019 81.9185 24.8796 81.3527 24.8871C80.7733 24.8946 80.2735 25.3989 80.2735 25.9768V25.9753Z" fill="#19B494"/>
</svg>
