<svg width="78" height="78" viewBox="0 0 78 78" fill="none" xmlns="http://www.w3.org/2000/svg">
<path d="M49.4115 70.1585H11.8258C9.68798 69.6201 8.37666 68.2568 7.81152 66.1458V64.2C8.09488 63.1075 8.57501 62.1283 9.44398 61.3743C9.63288 61.2106 9.66279 61.05 9.45342 60.8753C8.58446 60.148 8.13424 59.1704 7.81152 58.1172V56.1715C8.07756 55.0947 8.5451 54.1297 9.39518 53.3867C9.62029 53.1899 9.66909 53.0277 9.41092 52.8042C8.57659 52.0801 8.10747 51.1339 7.81152 50.0887V48.0201C8.47741 45.4195 10.5979 43.7949 13.7101 43.9476C15.5283 44.0358 17.3544 43.9571 19.1773 43.9681C19.5976 43.9712 19.8164 43.8484 19.8117 43.384C19.7975 41.5815 19.8054 39.7791 19.8023 37.9766C19.8023 37.8979 19.7991 37.8113 19.6984 37.7829C19.6622 37.7971 19.6149 37.8034 19.5897 37.8302C19.0136 38.3985 18.4437 38.9746 17.8644 39.5398C17.1356 40.2513 16.5814 40.2655 15.8793 39.5618C13.1859 36.8715 10.5003 34.1732 7.81152 31.4782C7.81152 31.1539 7.81152 30.8296 7.81152 30.5053C11.2008 27.1002 14.5901 23.6952 17.9778 20.2901C18.2469 20.0194 18.5791 19.8903 18.9459 19.8242C22.491 19.1834 26.0361 18.5443 29.5797 17.8957C29.9669 17.8249 30.3022 17.8957 30.6045 18.1397C30.9398 18.4089 30.9791 18.8041 31.0153 19.185C31.0594 19.6526 31.2782 19.7454 31.7064 19.6352C33.5482 19.1567 35.3948 18.6923 37.2429 18.2373C37.6302 18.1413 37.8222 17.9697 37.8427 17.5415C37.9104 16.1326 38.0316 16.0161 39.4547 15.7627C40.958 15.4935 41.8884 14.3049 41.8364 12.7197C41.7924 11.358 40.6904 10.1616 39.3335 10.0026C37.8742 9.83096 36.5219 10.7346 36.1331 12.1404C35.9725 12.7207 35.5832 13.0114 34.965 13.0125C34.8029 13.0125 34.6407 13.0015 34.4786 13.0125C34.041 13.0408 33.8835 12.8755 33.9024 12.408C34.0174 9.58224 37.0398 7.29803 39.9049 7.89939C42.293 8.39999 43.9254 10.2702 44.0277 12.8047C44.1112 14.8811 42.8502 16.9118 40.629 17.7068C40.47 17.7635 40.1993 17.7493 40.2071 17.9792C40.2166 18.2531 40.5157 18.2011 40.6888 18.2468C42.474 18.7033 44.2686 19.1205 46.0474 19.6006C46.6283 19.758 46.8408 19.6148 46.9211 19.0339C47.0565 18.0579 47.4863 17.7572 48.4717 17.9319C51.9381 18.5475 55.403 19.1834 58.8694 19.799C59.4203 19.8966 59.8265 20.1847 60.209 20.5688C63.285 23.6558 66.3689 26.7366 69.4559 29.8126C69.6968 30.0519 69.8715 30.3699 70.2084 30.5069V31.4797C70.0447 31.527 69.9408 31.6513 69.8258 31.7662C67.2803 34.3196 64.7364 36.8746 62.1846 39.4233C61.2873 40.319 60.7993 40.308 59.8863 39.3934C59.3338 38.8408 58.7922 38.2772 58.246 37.7184C58.194 37.742 58.1421 37.764 58.0901 37.7877V38.4898C58.0901 45.8634 58.0838 53.2371 58.1011 60.6108C58.1027 61.2924 57.9012 61.8025 57.4179 62.2795C54.9685 64.6991 52.541 67.1438 50.1026 69.5744C49.8885 69.787 49.6414 69.9664 49.4084 70.1616L49.4115 70.1585ZM28.9138 43.9633V43.9665C30.9618 43.9665 33.0083 43.9508 35.0563 43.9712C37.0729 43.9901 38.9053 45.27 39.6388 47.1275C40.4212 49.1095 39.9694 51.2898 38.444 52.7082C38.1229 53.0073 38.1276 53.149 38.4472 53.4528C40.5361 55.43 40.5472 58.7501 38.4708 60.7241C38.1355 61.0421 38.126 61.2043 38.4629 61.527C40.1127 63.1059 40.4984 65.5035 39.4153 67.4886C39.1508 67.9735 39.2579 68.0648 39.7585 68.0616C42.2316 68.049 44.7046 68.0427 47.1777 68.0648C47.7334 68.0695 47.927 67.89 47.9192 67.328C47.8924 65.4027 47.9066 63.4759 47.9113 61.5506C47.9145 60.4093 48.297 60.0299 49.4556 60.0268C51.321 60.022 53.1849 60.0268 55.0503 60.0252C55.9366 60.0252 55.9398 60.0236 55.9398 59.1531C55.9398 52.0785 55.8768 45.0023 55.9838 37.9293C56.0106 36.141 55.6186 34.8061 54.2081 33.6711C53.1093 32.7879 53.2117 32.7171 54.1845 31.6844C54.6284 31.2153 54.8898 31.2908 55.3006 31.7096C57.0449 33.4916 58.8253 35.2374 60.5758 37.0116C60.9143 37.3547 61.1472 37.4083 61.5156 37.0336C63.3779 35.1398 65.2575 33.2649 67.1481 31.3994C67.4787 31.072 67.4425 30.8674 67.1324 30.5588C64.357 27.8023 61.5927 25.0317 58.8269 22.2658C58.6364 22.0753 58.4365 21.9368 58.1562 21.8864C55.288 21.3716 52.4198 20.8506 49.5564 20.3153C49.1282 20.235 48.9361 20.3436 48.8401 20.7829C48.5048 22.3051 47.7696 23.6322 46.6677 24.7231C43.5492 27.8071 39.801 28.5847 35.6797 27.4056C32.3959 26.4658 30.0913 24.3438 29.1168 20.9859C28.939 20.372 28.7264 20.2209 28.1282 20.3358C25.4442 20.8474 22.7539 21.3275 20.0652 21.8124C19.6134 21.8943 19.2481 22.0784 18.9144 22.4153C16.232 25.1214 13.5385 27.8181 10.8293 30.499C10.4515 30.8737 10.4404 31.094 10.8261 31.4734C12.679 33.2901 14.5145 35.1241 16.3296 36.9785C16.72 37.3768 16.964 37.3925 17.3575 36.988C18.916 35.3933 20.4902 33.8143 22.0849 32.2542C23.3867 30.9807 22.9003 30.9382 24.3407 32.3235C24.6256 32.5974 24.6178 32.81 24.336 33.0807C23.6937 33.6994 23.0845 34.3527 22.4359 34.9651C22.1038 35.2799 21.9511 35.6152 21.9542 36.0828C21.9747 38.4551 21.9778 40.8259 21.9542 43.1983C21.9479 43.7729 22.1163 43.987 22.713 43.9775C24.7799 43.9476 26.8484 43.9665 28.9153 43.9665L28.9138 43.9633ZM23.8716 60.0205C27.4576 60.022 31.0437 60.0236 34.6297 60.0205C34.932 60.0205 35.2437 60.0205 35.5333 59.9543C37.0918 59.5923 37.9954 58.2589 37.8065 56.639C37.6427 55.2348 36.3566 54.158 34.7399 54.1549C27.5064 54.1407 20.2745 54.1454 13.041 54.1533C12.298 54.1533 11.5975 54.3406 11.0024 54.8239C10.0595 55.5906 9.67696 56.872 10.0548 57.9992C10.4578 59.1987 11.5361 60.0126 12.8081 60.0173C16.4949 60.0283 20.1832 60.022 23.87 60.022L23.8716 60.0205ZM23.8653 68.0506C27.5521 68.0506 31.2404 68.0585 34.9272 68.0474C36.4212 68.0427 37.6947 66.914 37.8128 65.5318C37.9576 63.8395 37.0083 62.5487 35.4074 62.2779C35.0705 62.2212 34.7242 62.1819 34.3826 62.1819C27.3726 62.1772 20.3627 62.1772 13.3527 62.1787C12.5735 62.1787 11.8195 62.2858 11.1567 62.7502C10.1476 63.4554 9.68011 64.7542 10.0249 65.9112C10.3995 67.1706 11.4731 68.0411 12.7435 68.0459C16.4508 68.0585 20.1596 68.0506 23.8669 68.0522L23.8653 68.0506ZM23.8779 51.9919C27.5049 51.9919 31.1318 51.9966 34.7572 51.9903C36.5266 51.9872 37.8049 50.7908 37.8238 49.1426C37.8458 47.403 36.5975 46.1279 34.7934 46.1248C27.5206 46.1122 20.2462 46.1169 12.9733 46.1248C12.2492 46.1248 11.5723 46.3247 10.9977 46.7938C10.0516 47.5683 9.67538 48.8435 10.0563 49.9706C10.4593 51.1654 11.5424 51.9809 12.8144 51.9856C16.5011 51.9982 20.1895 51.9903 23.8763 51.9919H23.8779ZM38.8722 25.7401C41.7672 25.7653 44.0498 24.6492 45.7688 22.3681C46.0648 21.9745 46.0128 21.7967 45.5264 21.6786C43.4626 21.1796 41.4035 20.6632 39.3429 20.1453C39.0359 20.0682 38.7478 20.0981 38.4472 20.1752C36.4668 20.6758 34.4833 21.1654 32.5014 21.6597C31.7898 21.8376 31.7599 21.8785 32.2007 22.4547C33.8914 24.6602 36.1315 25.7543 38.8706 25.7401H38.8722ZM54.3152 62.185C52.9976 62.185 51.7303 62.1803 50.4631 62.1882C50.1042 62.1913 50.0632 62.4589 50.0648 62.7439C50.0664 63.5121 50.0648 64.2803 50.0648 65.047C50.0648 65.4972 50.0648 65.9474 50.0648 66.4339C51.5068 64.9919 52.8732 63.6254 54.3152 62.1834V62.185Z" fill="#19B494"/>
<path d="M23.3117 58.1627C19.724 58.1627 16.1364 58.1501 12.5504 58.1753C11.9333 58.1801 11.7412 57.988 11.7617 57.3788C11.8152 55.8376 11.5917 56.0139 13.1297 56.0123C20.0814 56.0061 27.0331 56.0092 33.9848 56.0108C34.975 56.0108 34.9797 56.0124 34.9734 57.0167C34.9671 58.2745 35.0883 58.1612 33.8305 58.1627C30.3248 58.1675 26.8174 58.1643 23.3117 58.1627Z" fill="#19B494"/>
<path d="M23.3455 66.1913C19.7578 66.1913 16.1718 66.1913 12.5842 66.1913C11.7798 66.1913 11.7703 66.1866 11.775 65.3822C11.7861 63.8993 11.5956 64.0425 13.099 64.0425C20.0695 64.0378 27.0417 64.0409 34.0123 64.0425C34.9726 64.0425 34.9789 64.0457 34.9741 65.0185C34.9663 66.3283 35.1016 66.1913 33.8014 66.1929C30.3161 66.1992 26.8308 66.1945 23.3439 66.1945L23.3455 66.1913Z" fill="#19B494"/>
<path d="M23.8624 50.1325C20.1126 50.1325 16.3628 50.1325 12.6115 50.1325C11.7787 50.1325 11.7709 50.1278 11.7756 49.2856C11.7866 47.8247 11.6103 47.9822 13.0696 47.9822C20.407 47.9774 27.7459 47.979 35.0833 47.9806C36.0247 47.9806 36.0326 47.99 36.0389 48.9251C36.0441 49.7322 35.6537 50.1357 34.8676 50.1357C31.1982 50.1357 27.5303 50.1357 23.8608 50.1357L23.8624 50.1325Z" fill="#19B494"/>
</svg>
