<svg width="55" height="55" viewBox="0 0 55 55" fill="none" xmlns="http://www.w3.org/2000/svg">
<g clip-path="url(#clip0_1806_644)">
<path d="M27.4955 0.336914C12.5373 0.336914 0.332031 12.5421 0.332031 27.5004C0.332031 42.4587 12.5067 54.6639 27.4955 54.6639C42.4844 54.6639 54.6591 42.4893 54.6591 27.5004C54.6591 12.5116 42.4844 0.336914 27.4955 0.336914Z" fill="white"/>
<path d="M27.5 55C12.3276 55 0 42.6724 0 27.5C0 12.3276 12.3276 0 27.5 0C42.6724 0 55 12.3276 55 27.5C55 42.6724 42.6724 55 27.5 55ZM27.5 0.734149C12.7253 0.734149 0.734149 12.7253 0.734149 27.5C0.734149 42.2747 12.7558 54.2964 27.5306 54.2964C42.3053 54.2964 54.327 42.2747 54.327 27.5C54.327 12.7253 42.2747 0.734149 27.5 0.734149Z" fill="#4FA585"/>
<path d="M18.567 8.50395L18.3835 10.737L23.2166 6.54622L16.854 5.99561L18.3835 7.73921C10.6749 11.3488 5.75 18.9656 5.75 27.5001C5.75 31.8744 7.03476 36.1263 9.51251 39.7359C9.57369 39.8276 9.69605 39.8888 9.81841 39.8888C9.87959 39.8888 9.97136 39.8888 10.0325 39.8276C10.2161 39.7053 10.2467 39.4606 10.1243 39.3076C7.73832 35.8204 6.48415 31.752 6.48415 27.5001C6.48415 19.3021 11.1949 11.9606 18.5364 8.50395" fill="#4FA585"/>
<path d="M38.7554 45.2421C35.3905 47.3833 31.5057 48.4846 27.529 48.4846C25.1736 48.4846 22.8794 48.0869 20.7075 47.3222L22.39 45.8845L16.0273 45.4868L20.1875 50.3199L20.3405 47.9645C22.6653 48.7905 25.0819 49.2187 27.5596 49.2187C31.6892 49.2187 35.727 48.0563 39.2142 45.8539C39.3978 45.7315 39.4283 45.5174 39.3366 45.3338C39.2142 45.1503 39.0001 45.1197 38.8166 45.2115" fill="#4FA585"/>
<path d="M45.7899 33.0371L45.2699 39.3997L50.1948 35.3313L47.87 35.1478C48.7877 32.7006 49.2465 30.1311 49.2465 27.5004C49.2465 17.1611 41.905 8.19837 31.7799 6.17946C31.5658 6.14887 31.3822 6.27122 31.3211 6.48535C31.2905 6.69948 31.4128 6.88302 31.627 6.94419C41.385 8.90193 48.4818 17.5588 48.4818 27.531C48.4818 30.0393 48.0535 32.4559 47.197 34.7807L45.7899 33.0677V33.0371Z" fill="#4FA585"/>
<path d="M39.5205 39.3682H15.5077C15.2936 39.3682 15.1406 39.1847 15.1406 39.0011V30.3749C15.1406 30.3749 15.1406 30.1913 15.2324 30.1302L20.3408 23.8287C20.3408 23.8287 20.6162 23.6452 20.7691 23.7064C20.922 23.7675 21.0138 23.8899 21.0138 24.0734V29.3348L25.7246 23.8287C25.7246 23.8287 25.9999 23.6758 26.1529 23.7064C26.3058 23.7675 26.3976 23.8899 26.3976 24.0734V29.3654L31.139 23.8287C31.139 23.8287 31.4143 23.6758 31.5672 23.7064C31.7202 23.7675 31.8119 23.8899 31.8119 24.0734V30.0078H33.1579L34.5344 16.0284C34.5344 15.8448 34.7179 15.6919 34.9015 15.6919H37.6239C37.8075 15.6919 37.991 15.8448 37.991 16.0284L39.9182 39.0011C39.9182 39.0011 39.9182 39.2153 39.8264 39.2764C39.7652 39.3682 39.6429 39.3988 39.5511 39.3988M15.9054 38.6341H39.1228L37.2875 16.426H35.2685L33.4638 34.841C33.4638 35.0551 33.2802 35.208 33.0355 35.1774C32.8214 35.1774 32.6684 34.9633 32.699 34.7798L33.0967 30.742H31.4449C31.2307 30.742 31.0778 30.5584 31.0778 30.3749V25.0829L26.3364 30.6196C26.3364 30.6196 26.0611 30.7725 25.9081 30.742C25.7552 30.6808 25.6634 30.5584 25.6634 30.3749V25.1135L20.9526 30.6196C20.9526 30.6196 20.6773 30.7725 20.5244 30.742C20.3714 30.6808 20.2797 30.5584 20.2797 30.3749V25.1441L15.9054 30.5278V38.6646V38.6341Z" fill="#4FA585"/>
<path d="M29.7695 36.2787H17.2889C17.0748 36.2787 16.9219 36.0952 16.9219 35.9117V33.7704C16.9219 33.5563 17.1054 33.4033 17.2889 33.4033H29.7695C29.9836 33.4033 30.1366 33.5869 30.1366 33.7704V35.9117C30.1366 36.1258 29.953 36.2787 29.7695 36.2787ZM17.6866 35.514H29.4024V34.1375H17.6866V35.514Z" fill="#4FA585"/>
</g>
<defs>
<clipPath id="clip0_1806_644">
<rect width="55" height="55" fill="white"/>
</clipPath>
</defs>
</svg>
