<svg width="100" height="100" viewBox="0 0 100 100" fill="none" xmlns="http://www.w3.org/2000/svg">
<path d="M15 32.9032C15.3724 32.4432 15.8469 32.2972 16.442 32.3008C20.2203 32.3228 24.0023 32.3118 27.7807 32.3118C28.9197 32.3118 29.2373 32.644 29.2628 33.7648C29.2957 35.152 29.157 36.5392 29.376 37.9228C29.6498 39.6496 31.2232 41.0003 33.0156 41.0259C34.8044 41.0514 36.4289 39.6605 36.7027 37.8973C36.9181 36.5137 36.7757 35.1264 36.8123 33.7392C36.8378 32.655 37.1627 32.3118 38.2506 32.3118C45.4897 32.3118 52.7325 32.3118 59.9716 32.3118C60.8623 32.3118 60.8404 32.3118 60.8696 31.4064C60.9061 30.1579 60.7309 28.9021 61.001 27.6645C61.5121 25.3354 63.8193 22.791 67.4589 23.0136C70.0508 23.1743 72.5588 25.3866 72.9202 28.1172C73.0699 29.2599 72.9969 30.4354 72.9677 31.5963C72.9531 32.1767 73.1684 32.3301 73.7197 32.3264C76.9979 32.3045 80.2761 32.3155 83.5544 32.3191C84.6459 32.3191 85 32.6623 85 33.7319C85 44.8444 85 55.9533 85 67.0658C85 68.1354 84.6459 68.4823 83.5544 68.4823C79.7505 68.4823 75.9502 68.4823 72.1463 68.4823C71.0256 68.4823 70.7189 68.1427 70.6933 67.0001C70.6605 65.6384 70.7992 64.2694 70.5875 62.9114C70.31 61.1372 68.7147 59.7609 66.915 59.7682C65.108 59.7755 63.5272 61.1445 63.2498 62.9223C63.0381 64.284 63.1768 65.6494 63.1439 67.0111C63.1184 68.1427 62.8008 68.4823 61.6801 68.4823C54.4628 68.4823 47.2456 68.4823 40.0284 68.4823C39.0939 68.4823 39.1158 68.4823 39.0902 69.4168C39.0537 70.6434 39.2216 71.8737 38.9661 73.093C38.4733 75.4331 36.1478 77.9958 32.5411 77.7877C29.9382 77.6344 27.4375 75.4696 27.0469 72.7206C26.8863 71.5816 26.963 70.4025 26.9922 69.2416C27.0104 68.6319 26.806 68.4677 26.211 68.4713C22.9765 68.4969 19.7458 68.4713 16.5113 68.4932C15.9017 68.4969 15.387 68.3873 15.0037 67.8909V32.9032H15ZM56.8065 34.5898C55.1893 34.5898 53.5721 34.6153 51.9585 34.5752C51.3124 34.5606 51.0933 34.7358 51.1007 35.4112C51.1335 38.6676 51.1189 41.9203 51.1153 45.1766C51.1153 46.2645 50.7684 46.5894 49.6879 46.615C48.2787 46.6478 46.866 46.5055 45.4641 46.7318C43.763 47.0056 42.383 48.6484 42.4013 50.408C42.4196 52.1603 43.7703 53.7702 45.4313 54.0477C46.8368 54.2813 48.2495 54.1353 49.655 54.1681C50.7794 54.1937 51.1153 54.5113 51.1153 55.643C51.1153 58.8993 51.1335 62.1521 51.1007 65.4084C51.0933 66.0546 51.3051 66.2152 51.922 66.2079C54.6308 66.1787 57.3395 66.1787 60.0482 66.2079C60.6579 66.2152 60.9025 66.0619 60.8733 65.4121C60.8331 64.4374 60.7784 63.4407 60.928 62.4806C61.3624 59.7171 63.8339 57.5888 66.4441 57.4391C70.0508 57.2347 72.4055 59.8412 72.8654 62.2214C73.0699 63.2838 72.964 64.3534 72.9604 65.4194C72.9604 66.0035 73.11 66.2152 73.727 66.2079C76.4795 66.1787 79.2357 66.1824 81.9919 66.2079C82.5578 66.2116 82.733 66.0363 82.733 65.4668C82.7184 55.4276 82.7184 45.3884 82.733 35.3491C82.733 34.7431 82.5468 34.5752 81.9518 34.5788C78.6735 34.6044 75.3953 34.5934 72.1171 34.5898C71.0402 34.5898 70.7189 34.2393 70.6933 33.1478C70.6532 31.5817 70.8175 30.0083 70.5802 28.4458C70.3137 26.6862 68.6673 25.2953 66.8858 25.3281C65.0861 25.361 63.5199 26.7081 63.2535 28.4385C63.0235 29.9352 63.1731 31.4393 63.1439 32.9361C63.1184 34.3123 62.8665 34.5898 61.5194 34.5898C59.9497 34.5898 58.3763 34.5898 56.8065 34.5898ZM17.2342 50.3751C17.2342 55.3838 17.2451 60.3925 17.2196 65.3975C17.2196 66.029 17.4057 66.2116 18.0336 66.2043C21.3119 66.1751 24.5901 66.1897 27.8683 66.1933C28.8978 66.1933 29.2336 66.5547 29.2628 67.5952C29.3066 69.1868 29.1351 70.7822 29.3797 72.3665C29.6425 74.0823 31.2524 75.4477 33.0339 75.4513C34.8008 75.4586 36.4289 74.086 36.7027 72.3775C36.794 71.8116 36.7794 71.2421 36.8305 70.6799C36.9583 69.3 36.2099 67.6134 37.2065 66.6022C38.2323 65.5581 39.9408 66.2663 41.3426 66.2152C43.5914 66.1276 45.8475 66.1787 48.1035 66.2006C48.6511 66.2079 48.8628 66.0582 48.8592 65.4741C48.8336 62.696 48.8373 59.9215 48.8592 57.1434C48.8628 56.6068 48.6949 56.4242 48.1546 56.4352C47.1544 56.4571 46.1359 56.5301 45.1538 56.3804C42.3977 55.9642 40.2438 53.4855 40.0905 50.8826C39.8824 47.3195 42.394 44.9722 44.7815 44.4575C45.9095 44.2129 47.0485 44.3589 48.1838 44.3406C48.6876 44.3333 48.8592 44.1764 48.8555 43.6689C48.8373 40.8689 48.8336 38.0688 48.8555 35.2688C48.8592 34.7139 48.6657 34.5715 48.14 34.5752C45.3619 34.5934 42.5875 34.6007 39.8094 34.5752C39.2143 34.5679 39.0793 34.7979 39.0902 35.3382C39.1121 36.3165 39.1778 37.3095 39.0391 38.2696C38.6339 41.0149 36.1515 43.187 33.5523 43.344C29.9199 43.5594 27.5726 40.9565 27.1017 38.5982C26.89 37.5359 26.9958 36.4662 26.9995 35.4002C26.9995 34.7906 26.8498 34.5679 26.2 34.5752C23.4913 34.608 20.7825 34.608 18.0738 34.5752C17.4167 34.5679 17.2232 34.7614 17.2269 35.4185C17.2524 40.4053 17.2415 45.3884 17.2415 50.3751H17.2342Z" fill="#19B494"/>
</svg>
