<svg width="70" height="70" viewBox="0 0 70 70" fill="none" xmlns="http://www.w3.org/2000/svg">
<g clip-path="url(#clip0_2102_7927)">
<path d="M64.0718 69.9972H63.1173C62.7501 69.6377 62.6497 69.1933 62.6574 68.6909C62.6767 67.5315 62.6458 66.3682 62.669 65.2088C62.6806 64.6561 62.4951 64.4319 61.9231 64.4397C60.3541 64.4667 58.7812 64.4629 57.2121 64.4397C56.6556 64.4319 56.4276 64.6252 56.4392 65.1894C56.4624 66.3489 56.4392 67.5121 56.4431 68.6716C56.4431 69.1933 56.3349 69.6687 55.8788 69.9933H54.9243C54.5764 69.6262 54.4566 69.1894 54.4644 68.687C54.4837 67.5083 54.4528 66.3295 54.476 65.1508C54.4876 64.6175 54.2711 64.4319 53.7494 64.4397C52.1611 64.459 50.5727 64.4629 48.9882 64.4397C48.4046 64.4319 48.2462 64.687 48.2539 65.2204C48.2732 66.3759 48.2539 67.5353 48.2578 68.6909C48.2578 69.2126 48.1534 69.6841 47.6858 69.9972H46.7313C46.3718 69.6068 46.2675 69.1392 46.2752 68.6175C46.2945 67.4851 46.2636 66.3489 46.2868 65.2165C46.2984 64.6754 46.1322 64.4319 45.5487 64.4397C43.9603 64.4667 42.3719 64.4629 40.7836 64.4397C40.2541 64.4319 40.0532 64.6368 40.0648 65.1624C40.0841 66.3643 40.0648 67.5662 40.0686 68.7682C40.0686 69.2745 39.9411 69.7112 39.4889 69.9972H38.6696C38.2136 69.7112 38.0861 69.2745 38.0899 68.7682C38.0938 67.5624 38.0745 66.3605 38.0938 65.1546C38.1015 64.6213 37.889 64.4319 37.3634 64.4397C35.775 64.459 34.1828 64.459 32.5944 64.4397C32.0611 64.4319 31.864 64.6368 31.8756 65.1624C31.8949 66.3643 31.8756 67.5701 31.8833 68.7759C31.8833 69.2822 31.7635 69.7189 31.2959 69.9972H30.4766C30.0051 69.6841 29.9047 69.2126 29.9047 68.6909C29.9047 67.5353 29.8892 66.3759 29.9085 65.2204C29.9163 64.687 29.7617 64.4281 29.1742 64.4397C27.5859 64.4667 25.9975 64.4667 24.413 64.4397C23.8256 64.4281 23.6749 64.687 23.6826 65.2204C23.7058 66.3759 23.6749 67.5353 23.6942 68.6909C23.7019 69.1933 23.5821 69.63 23.2343 69.9972H22.2797C21.8237 69.6725 21.7155 69.1972 21.7194 68.6754C21.7194 67.516 21.7078 66.3527 21.7194 65.1933C21.7271 64.6909 21.5725 64.4358 21.016 64.4435C19.4006 64.4629 17.7813 64.4629 16.1659 64.4435C15.6596 64.4397 15.4819 64.6484 15.4896 65.1392C15.5089 66.3218 15.4819 67.5083 15.5012 68.6909C15.5089 69.1933 15.4046 69.6377 15.0413 69.9972H14.0867C13.6037 69.6493 13.5457 69.1353 13.5418 68.602C13.538 67.4464 13.5264 66.287 13.538 65.1315C13.5418 64.6445 13.3409 64.4397 12.8462 64.4435C11.2346 64.459 9.62696 64.4629 8.0154 64.4435C7.48209 64.4358 7.28885 64.6406 7.30045 65.1662C7.32364 66.3682 7.29272 67.5701 7.31204 68.772C7.31977 69.2551 7.20383 69.6648 6.84829 70.001H5.89372C5.52272 69.7073 5.41065 69.3247 5.41451 68.8609C5.42997 67.6358 5.40292 66.4146 5.4261 65.1894C5.4377 64.629 5.22128 64.4281 4.66477 64.4397C3.55562 64.4706 2.44261 64.4281 1.33346 64.4551C0.722852 64.4706 0.27069 64.2889 0.0194896 63.7131V63.3034C0.282284 62.7315 0.734446 62.546 1.34892 62.5614C2.43875 62.5923 3.53244 62.546 4.62613 62.5769C5.21355 62.5962 5.44156 62.3952 5.42997 61.7962C5.40292 60.2039 5.40292 58.6116 5.42997 57.0155C5.4377 56.4281 5.23674 56.1962 4.63772 56.2116C3.5479 56.2426 2.45421 56.2194 1.36052 56.2116C0.74604 56.2116 0.239773 56.0184 0.0233543 55.3769V54.9672C0.313201 54.4223 0.773092 54.229 1.37597 54.2368C2.48899 54.2561 3.602 54.2213 4.71501 54.2484C5.2522 54.26 5.4377 54.0358 5.42997 53.5179C5.41065 51.972 5.41065 50.43 5.42997 48.8841C5.4377 48.316 5.19809 48.1227 4.65318 48.1305C3.56335 48.1498 2.47353 48.1343 1.3837 48.1227C0.780821 48.115 0.255232 47.9566 0.0233543 47.315V46.9054C0.301607 46.3527 0.753769 46.1556 1.36438 46.1672C2.47739 46.1904 3.59427 46.1556 4.70728 46.1788C5.2406 46.1904 5.43383 45.9778 5.42997 45.4561C5.41065 43.887 5.40292 42.3179 5.42997 40.7488C5.44156 40.1343 5.1865 39.9643 4.61453 39.9797C3.50152 40.0107 2.38464 39.9681 1.27163 39.9952C0.676476 40.0107 0.262961 39.7981 0.0194896 39.2532V38.8435C0.286149 38.2793 0.73831 38.086 1.34892 38.1015C2.46193 38.1285 3.57881 38.0899 4.69182 38.1169C5.21741 38.1285 5.42997 37.9392 5.4261 37.4058C5.40678 35.8136 5.40678 34.2213 5.4261 32.629C5.43383 32.0957 5.21741 31.9063 4.69182 31.9179C3.57881 31.9411 2.46193 31.9024 1.34892 31.9334C0.73831 31.9488 0.286149 31.7594 0.0194896 31.1913V30.7817C0.259097 30.2367 0.672612 30.0242 1.26776 30.0396C2.38078 30.0667 3.49765 30.0242 4.61067 30.0551C5.18263 30.0706 5.4377 29.9005 5.4261 29.286C5.39905 27.7169 5.40292 26.1478 5.4261 24.5788C5.43383 24.0532 5.2406 23.8445 4.70342 23.8561C3.59041 23.8792 2.47353 23.8445 1.36052 23.8677C0.749904 23.8792 0.297743 23.686 0.0194896 23.1295V22.7198C0.247503 22.0744 0.776957 21.9198 1.37984 21.9121C2.46966 21.9005 3.55949 21.8889 4.64931 21.9044C5.19036 21.9121 5.43383 21.7189 5.4261 21.1507C5.40678 19.6048 5.40292 18.0628 5.4261 16.5169C5.43383 15.9333 5.17877 15.7749 4.64158 15.7865C3.55176 15.8135 2.46193 15.7788 1.37211 15.7981C0.769228 15.8097 0.309337 15.6126 0.0194896 15.0676V14.658C0.235909 14.0126 0.742175 13.8232 1.35665 13.8232C2.47353 13.8193 3.58654 13.8039 4.70342 13.8232C5.23674 13.8309 5.42997 13.6145 5.4261 13.0928C5.41065 11.4541 5.40678 9.81546 5.4261 8.17681C5.43383 7.64348 5.21741 7.45411 4.69182 7.4657C3.57881 7.48889 2.46193 7.45024 1.34506 7.48116C0.730581 7.49662 0.27842 7.30725 0.015625 6.73913V6.32947C0.259097 5.78841 0.672612 5.57198 1.26776 5.58744C2.31508 5.61449 3.36239 5.59517 4.40971 5.59517C5.077 5.59517 5.41193 5.27053 5.41451 4.62126C5.41451 3.48116 5.41065 2.34492 5.41838 1.20483C5.41451 0.381638 5.73141 -0.00483588 6.36521 0.0106231C6.96809 0.026082 7.28113 0.416421 7.28886 1.1971C7.30045 2.42608 7.30818 3.65507 7.28886 4.88406C7.28113 5.41353 7.47436 5.61836 8.00768 5.60676C9.39508 5.58358 10.7863 5.59903 12.1737 5.59903C13.0755 5.59903 13.5264 5.15717 13.5264 4.27343C13.5264 3.22609 13.5264 2.17874 13.5496 1.1314C13.5611 0.628981 13.7119 0.172942 14.28 0.026082C14.9485 -0.143966 15.4703 0.312073 15.4819 1.1198C15.5012 2.37198 15.5051 3.62415 15.4819 4.87633C15.4741 5.40193 15.6635 5.61063 16.2007 5.6029C17.7697 5.58358 19.3426 5.57585 20.9117 5.6029C21.503 5.61449 21.731 5.4058 21.7155 4.81063C21.6885 3.76328 21.7078 2.71594 21.7116 1.6686C21.7116 1.44058 21.7116 1.21256 21.7387 0.988402C21.8276 0.327532 22.1831 -0.0164301 22.7396 0.0028936C23.2884 0.0183525 23.6556 0.397097 23.671 1.0541C23.6942 2.32947 23.6981 3.60483 23.6787 4.88019C23.671 5.4058 23.8642 5.61449 24.3976 5.60676C25.6961 5.58358 26.9946 5.60676 28.2892 5.59903C30.067 5.58744 29.8853 5.81932 29.8969 3.99517C29.9008 3.04058 29.8815 2.08212 29.9124 1.12753C29.9394 0.381638 30.3259 -0.00870062 30.9288 0.0106231C31.4969 0.0299468 31.8331 0.42415 31.8718 1.1314C31.8833 1.33623 31.8756 1.54106 31.8756 1.74589C31.8756 2.79323 31.8911 3.84058 31.8718 4.88792C31.8602 5.41353 32.0611 5.61836 32.5944 5.61063C34.1867 5.5913 35.7828 5.5913 37.375 5.61063C37.9122 5.61836 38.1015 5.40193 38.0938 4.88019C38.0745 3.67439 38.0783 2.4686 38.0938 1.25893C38.1054 0.443474 38.4378 0.026082 39.0484 0.0106231C39.6899 -0.00870062 40.057 0.42415 40.0648 1.26666C40.0802 2.44927 40.0918 3.63575 40.0648 4.81836C40.0493 5.40966 40.2657 5.62222 40.8609 5.61063C42.341 5.57971 43.8212 5.6029 45.3013 5.59903C45.9532 5.59903 46.2804 5.26667 46.283 4.60193C46.283 3.41932 46.2714 2.23285 46.2984 1.05024C46.3139 0.393232 46.6887 0.0183525 47.2375 0.00675834C47.794 -0.00870062 48.1573 0.34299 48.2385 0.996131C48.2655 1.22029 48.2616 1.45217 48.2616 1.67633C48.2616 2.74686 48.2771 3.81739 48.2616 4.88792C48.25 5.41739 48.4626 5.61449 48.9921 5.60676C50.3331 5.58358 51.678 5.6029 53.0229 5.59903C54.6267 5.59517 54.476 5.75749 54.4798 4.1227C54.4837 3.07536 54.4644 2.02802 54.4991 0.980672C54.5185 0.420285 54.8122 0.0299468 55.4305 0.00675834C56.0102 -0.0125654 56.3039 0.335261 56.4044 0.860865C56.4508 1.10434 56.4547 1.35942 56.4547 1.60676C56.4585 2.67729 56.4778 3.74782 56.4508 4.81836C56.4353 5.41739 56.6749 5.61449 57.2585 5.6029C58.7618 5.57585 60.2652 5.59517 61.7647 5.5913C62.6574 5.5913 62.6728 5.57585 62.6728 4.66377C62.6767 3.43478 62.6612 2.20579 62.6883 0.976808C62.6999 0.408691 63.0013 0.0222173 63.6158 0.00675834C64.1916 -0.00870062 64.4931 0.319802 64.5742 0.86473C64.6129 1.13526 64.6283 1.40966 64.6322 1.68019C64.6399 2.65797 64.6322 3.63961 64.6361 4.61739C64.6361 5.55652 64.6747 5.5913 65.5829 5.59517C66.723 5.59517 67.8592 5.58744 68.9992 5.6029C69.7181 5.61063 70.0002 5.88116 70.0079 6.51111C70.0156 7.17585 69.7297 7.46184 68.9761 7.46957C67.7935 7.48503 66.607 7.49662 65.4245 7.46957C64.8216 7.45411 64.6206 7.69372 64.6283 8.27343C64.6515 9.84252 64.6515 11.4155 64.6283 12.9845C64.6206 13.5913 64.8293 13.8502 65.4592 13.8348C66.5723 13.8039 67.6891 13.8155 68.806 13.8348C69.7103 13.8502 70.0195 14.1285 70.0079 14.8551C70.0002 15.5507 69.7026 15.7942 68.8176 15.8019C67.6775 15.8097 66.5413 15.8251 65.4013 15.8019C64.8448 15.7903 64.6206 16.0029 64.6283 16.5594C64.6477 18.086 64.6477 19.6087 64.6283 21.1353C64.6206 21.742 64.9027 21.9237 65.4631 21.9198C66.6225 21.9044 67.7857 21.8966 68.9451 21.943C69.8031 21.9739 70.0427 22.2638 70.004 23.0174C69.9731 23.6358 69.6794 23.8677 68.8717 23.8715C67.7123 23.8792 66.5491 23.8947 65.3897 23.8715C64.8216 23.8599 64.6245 24.0957 64.6283 24.6406C64.6477 26.2097 64.6438 27.7826 64.6283 29.3517C64.6245 29.8812 64.8448 30.0783 65.3704 30.0667C66.464 30.0435 67.5539 30.059 68.6476 30.0628C69.7722 30.0628 70.0118 30.2329 70.004 31.0136C69.9963 31.7594 69.7297 31.9372 68.605 31.9411C67.5114 31.9411 66.4177 31.9565 65.3278 31.9372C64.8332 31.9295 64.6245 32.1343 64.6283 32.6251C64.6399 34.2174 64.6399 35.8136 64.6283 37.4058C64.6245 37.9276 64.8254 38.144 65.3588 38.1324C66.5645 38.1092 67.7703 38.1169 68.9799 38.1324C69.7528 38.1401 70.0079 38.3913 70.0079 39.0831C70.0079 39.7749 69.7683 39.9952 68.9606 40.0029C67.8205 40.0145 66.6843 40.0029 65.5443 40.0068C64.6902 40.0068 64.6361 40.057 64.6322 40.8841C64.6245 42.3643 64.6515 43.8445 64.6206 45.3247C64.609 45.9585 64.81 46.229 65.4824 46.2058C66.6418 46.1633 67.8051 46.1826 68.9645 46.202C69.7838 46.2136 70.0736 46.5614 70.0002 47.3575C69.9383 48.0532 69.4128 48.115 68.9104 48.1305C67.751 48.1653 66.5877 48.1691 65.4283 48.1498C64.8409 48.1421 64.6168 48.3817 64.6245 48.9614C64.6438 50.4648 64.6477 51.9682 64.6245 53.4677C64.6168 54.0551 64.8332 54.2793 65.4283 54.2677C66.6109 54.2406 67.7973 54.2445 68.9799 54.2677C69.7876 54.2831 70.0852 54.6542 70.0002 55.4426C69.9306 56.1189 69.4205 56.2078 68.9065 56.2194C67.7471 56.2464 66.5838 56.2503 65.4245 56.2271C64.8293 56.2155 64.6168 56.4551 64.6245 57.0348C64.6438 58.6039 64.6477 60.1769 64.6245 61.746C64.6129 62.3527 64.8139 62.6117 65.4515 62.5885C66.5413 62.5498 67.635 62.5769 68.7287 62.5807C69.6987 62.5807 69.9963 62.8049 70.004 63.5044C70.0118 64.2194 69.7103 64.4551 68.7635 64.4551C67.6698 64.459 66.5761 64.4899 65.4863 64.4435C64.81 64.4165 64.609 64.6909 64.6245 65.3247C64.6554 66.4377 64.6322 67.5547 64.6245 68.6716C64.6245 69.1856 64.5395 69.6725 64.0834 70.0049L64.0718 69.9972ZM7.29272 34.9904C7.29272 35.172 7.28113 35.3575 7.29272 35.5353C7.34682 36.1498 7.13427 36.7913 7.64827 37.3479C9.4685 39.3227 11.2733 41.3131 13.0472 43.3266C13.4993 43.8406 13.7505 43.7479 14.1524 43.2918C15.9495 41.2628 17.7736 39.2648 19.5822 37.2474C20.4788 36.2503 20.9349 36.2464 21.8392 37.2512C23.6633 39.2841 25.5028 41.3015 27.3115 43.3498C27.6902 43.7788 27.926 43.8097 28.3202 43.3653C30.1481 41.3053 31.9993 39.2686 33.8543 37.2281C34.7702 36.2232 35.1451 36.2155 36.0533 37.2203C37.9044 39.2609 39.7517 41.3015 41.5758 43.3653C41.9623 43.8058 42.1826 43.8097 42.5729 43.3653C44.4241 41.2667 46.3061 39.1913 48.1882 37.1198C48.9611 36.2696 49.4326 36.2735 50.2094 37.1276C52.076 39.1836 53.9504 41.2319 55.7861 43.315C56.2344 43.8213 56.4856 43.7517 56.8914 43.2918C58.1628 41.8348 59.3724 40.3005 60.7908 38.9981C62.3366 37.5759 62.9472 35.9643 62.6728 33.9198C62.6071 33.4251 62.526 33.0116 62.1782 32.6329C60.385 30.6657 58.5957 28.6947 56.8334 26.6966C56.4199 26.2251 56.188 26.2406 55.7822 26.7005C53.9426 28.7797 52.076 30.8358 50.2055 32.8879C49.394 33.7807 48.9611 33.7768 48.1418 32.8764C46.2868 30.8396 44.4473 28.7913 42.6038 26.7469C42.0512 26.1324 42.055 26.1324 41.4869 26.7662C39.6628 28.7991 37.8349 30.828 36.003 32.8532C35.1644 33.7807 34.7123 33.7807 33.893 32.8725C32.0457 30.828 30.1868 28.7952 28.3665 26.7353C27.9414 26.2561 27.6864 26.2445 27.2613 26.7314C25.4565 28.7797 23.613 30.7971 21.7889 32.8261C20.9271 33.7846 20.4518 33.7768 19.5784 32.8029C17.7543 30.7701 15.9147 28.7527 14.1099 26.7044C13.6964 26.2367 13.4529 26.2561 13.051 26.7121C11.5477 28.4203 10.0559 30.144 8.46757 31.771C7.55551 32.7024 7.0106 33.6648 7.29658 34.9826L7.29272 34.9904ZM7.35455 39.887V55.6435C9.13615 53.6648 10.8289 51.7943 12.5177 49.9199C13.3061 49.0464 13.8008 49.0232 14.5891 49.8889C16.4596 51.9411 18.3262 53.9972 20.1658 56.0764C20.5832 56.5479 20.8228 56.5247 21.2247 56.0687C23.0372 54.0242 24.8729 52.0029 26.7125 49.9856C27.6052 49.0039 28.0458 49.0155 28.9192 49.9856C30.7471 52.0145 32.5906 54.0281 34.3992 56.0764C34.8437 56.5788 35.0871 56.5208 35.5045 56.0455C37.3093 53.9933 39.145 51.9759 40.9807 49.9508C41.827 49.0155 42.314 49.0271 43.1526 49.9624C44.9767 51.9914 46.8201 54.0126 48.6249 56.0609C49.0462 56.5401 49.309 56.5595 49.7379 56.0687C51.5427 54.0203 53.3861 52.0029 55.2102 49.9701C56.0527 49.031 56.5281 49.0116 57.3783 49.943C58.9242 51.6435 60.4545 53.3595 62.0004 55.0638C62.1704 55.2493 62.2941 55.516 62.611 55.5624V40.0532C62.3173 40.0493 62.2245 40.2619 62.097 40.401C60.5241 42.1363 58.9551 43.8793 57.386 45.6223C56.5822 46.515 56.1107 46.5421 55.3107 45.6648C53.4557 43.6281 51.6161 41.5797 49.7727 39.5353C49.2085 38.9092 49.2046 38.9015 48.6133 39.5508C46.7815 41.5759 44.9535 43.6049 43.1256 45.6339C42.3333 46.515 41.8386 46.5189 41.0502 45.6455C39.172 43.5701 37.29 41.4986 35.4272 39.4078C35.0678 39.002 34.8591 38.9788 34.4804 39.4078C32.6408 41.487 30.7742 43.543 28.9076 45.5952C28.0419 46.5421 27.5859 46.5227 26.7395 45.5798C24.9 43.5314 23.0411 41.4986 21.2208 39.431C20.7957 38.9479 20.5677 39.0136 20.1735 39.4619C18.3224 41.5604 16.4442 43.6358 14.5621 45.7112C13.851 46.4918 13.3409 46.4918 12.622 45.7189C11.9689 45.0194 11.3428 44.3005 10.7013 43.5894C9.62309 42.3952 8.54099 41.2049 7.35455 39.8909V39.887ZM7.3275 30.0474C7.68691 29.8812 7.8299 29.6377 8.01154 29.4367C9.46078 27.8329 10.8984 26.2174 12.3515 24.6174C13.4027 23.458 13.7737 23.4696 14.8017 24.6174C16.5949 26.6193 18.3997 28.6058 20.1813 30.6155C20.5407 31.0213 20.7648 31.1256 21.1822 30.6541C22.9986 28.5865 24.8575 26.5498 26.697 24.5015C27.582 23.5198 28.0303 23.5005 28.9153 24.4783C30.7665 26.5189 32.6176 28.5556 34.4379 30.6232C34.8321 31.0715 35.0485 31.0638 35.4311 30.6309C37.259 28.571 39.1141 26.5343 40.9536 24.486C41.8154 23.5276 42.2715 23.5082 43.1217 24.4435C44.9574 26.4648 46.7854 28.4937 48.6211 30.5189C49.1853 31.1411 49.1969 31.1411 49.7843 30.4918C51.6316 28.4512 53.475 26.4029 55.3262 24.3662C56.0643 23.5546 56.5822 23.5585 57.3087 24.3662C58.6961 25.9044 60.0797 27.4425 61.4671 28.9807C61.8188 29.371 62.182 29.7575 62.5917 30.1981V14.3604C62.2864 14.6966 62.0854 14.9092 61.8922 15.1256C60.3695 16.8145 58.8507 18.515 57.3165 20.1923C56.5397 21.0425 56.0721 21.0155 55.303 20.1614C53.4441 18.0976 51.5736 16.0454 49.7341 13.9662C49.3244 13.5063 49.0809 13.514 48.6713 13.9739C46.8356 16.057 44.969 18.1131 43.1062 20.173C42.3488 21.0077 41.8232 21.0077 41.0734 20.1768C39.2261 18.1324 37.3866 16.0879 35.5432 14.0396C34.9789 13.4097 34.9673 13.3981 34.4031 14.0203C32.5713 16.0454 30.7471 18.0783 28.9192 20.1073C28.0999 21.0155 27.6168 21.0348 26.7975 20.1343C24.9425 18.0976 23.0875 16.0647 21.2711 13.9932C20.8266 13.487 20.5793 13.5333 20.1658 14.001C18.3224 16.0763 16.4519 18.1324 14.5853 20.1846C13.8317 21.0116 13.3215 20.9923 12.5602 20.1498C10.9564 18.3759 9.35643 16.6019 7.74875 14.8358C7.64054 14.7198 7.58257 14.4957 7.33523 14.5575V30.0435L7.3275 30.0474ZM34.9751 62.5691C42.5343 62.5691 50.0935 62.5691 57.6488 62.5691C59.0826 62.5691 60.5164 62.5575 61.9502 62.573C62.4255 62.5769 62.6728 62.4339 62.6612 61.9121C62.6381 60.9807 62.6458 60.0455 62.6612 59.1102C62.6612 58.7662 62.526 58.5034 62.3018 58.2561C60.4816 56.2503 58.6536 54.2522 56.8566 52.2232C56.4199 51.7286 56.1571 51.7633 55.7397 52.2387C53.9311 54.287 52.0915 56.3083 50.2674 58.3372C49.4365 59.2609 48.9264 59.2532 48.0877 58.3141C46.2791 56.2967 44.4627 54.287 42.6502 52.2735C42.086 51.6474 42.055 51.6435 41.5024 52.2503C39.6667 54.2715 37.8387 56.3044 36.0069 58.3295C35.1606 59.2687 34.7084 59.2764 33.8466 58.3179C31.9993 56.2735 30.1443 54.2406 28.3279 52.1653C27.9066 51.6822 27.7057 51.7208 27.3038 52.1769C25.4526 54.2754 23.5667 56.3469 21.6807 58.4145C20.9387 59.23 20.444 59.2223 19.6982 58.403C17.7852 56.2967 15.8761 54.1865 13.9747 52.0686C13.6887 51.7517 13.507 51.6628 13.1785 52.0377C11.8568 53.545 10.6047 55.1257 9.14001 56.486C7.62121 57.8928 7.0106 59.4658 7.26567 61.4986C7.39706 62.5498 7.28885 62.5653 8.3323 62.5653C17.2094 62.5653 26.0903 62.5653 34.9673 62.5653L34.9751 62.5691ZM34.9751 7.48116C27.1878 7.48116 19.4045 7.48116 11.6172 7.48116C10.4578 7.48116 9.2946 7.51208 8.13521 7.46957C7.4589 7.44251 7.25021 7.69759 7.28499 8.34686C7.3275 9.16232 7.31204 9.98551 7.28499 10.8048C7.2734 11.2454 7.41252 11.5816 7.70623 11.9063C9.5458 13.9275 11.3776 15.9527 13.1901 17.9971C13.5032 18.3488 13.6732 18.3333 13.9785 17.9894C15.8722 15.8638 17.7813 13.7536 19.6943 11.6512C20.4595 10.8087 20.9619 10.8203 21.7232 11.6589C23.5899 13.715 25.4603 15.7672 27.3038 17.8464C27.7134 18.3063 27.9608 18.3063 28.3704 17.8425C30.1906 15.7749 32.0457 13.7382 33.8891 11.6937C34.7045 10.7855 35.1953 10.7894 36.0108 11.6937C37.8387 13.7266 39.6628 15.7556 41.4947 17.7846C42.055 18.4068 42.0821 18.4106 42.6425 17.7884C44.4589 15.7788 46.2752 13.7691 48.0839 11.7517C48.9573 10.7816 49.4249 10.7701 50.306 11.7478C52.1495 13.7923 54.0045 15.8329 55.8209 17.9005C56.2228 18.3604 56.4353 18.3063 56.8063 17.8812C58.0778 16.4242 59.3029 14.9053 60.7096 13.5874C62.2168 12.1768 62.9588 10.6271 62.6728 8.54396C62.5299 7.50049 62.6458 7.48116 61.6023 7.48116C52.7253 7.48116 43.8444 7.48116 34.9673 7.48116H34.9751Z" fill="#19B494"/>
</g>
<defs>
<clipPath id="clip0_2102_7927">
<rect width="70" height="69.9981" fill="white"/>
</clipPath>
</defs>
</svg>
