<svg width="55" height="55" viewBox="0 0 55 55" fill="none" xmlns="http://www.w3.org/2000/svg">
<g clip-path="url(#clip0_1806_567)">
<path d="M55 27.488C55 12.3023 42.6737 0 27.488 0C12.3023 0 0 12.3023 0 27.488C0 42.6737 12.3023 54.976 27.488 54.976C42.6737 54.976 54.976 42.6737 54.976 27.488" fill="white"/>
<path d="M46.9783 40.1745C46.8101 40.0304 46.6179 39.9583 46.4016 39.9583C46.1373 39.9583 45.897 40.0784 45.7288 40.2706V40.3187C45.6087 40.4629 45.5366 40.6551 45.5366 40.8233C45.5366 41.1116 45.6808 41.4 45.9211 41.5682H45.9451C46.1133 41.7123 46.3055 41.7844 46.5218 41.7844C46.7861 41.7844 47.0264 41.6643 47.1946 41.472V41.424C47.3147 41.2798 47.3627 41.1116 47.3627 40.9434C47.3627 40.6311 47.2186 40.3668 46.9783 40.1745ZM45.5847 42.1448C45.1522 41.9045 44.8638 41.424 44.8638 40.9194C44.8638 40.6791 44.9359 40.4388 45.0561 40.2226C45.0561 40.1986 45.1041 40.1505 45.1281 40.1265C45.3444 39.8141 45.7048 39.5979 46.0893 39.5979C46.1133 39.5979 46.1373 39.5979 46.1613 39.5979L44.8398 38.6608L45.2243 38.1081L48.5882 40.4388L48.2037 40.9915L47.7712 40.7031C47.8433 40.8473 47.8673 41.0155 47.8673 41.1597C47.8673 41.424 47.7953 41.6643 47.6271 41.8565C47.2426 42.4091 46.4016 42.6494 45.5606 42.0968L45.5847 42.1448ZM43.0137 42.7936L43.4702 42.289L43.9748 42.7455C43.9027 42.6014 43.8547 42.4091 43.8547 42.2409C43.8547 41.9526 43.9748 41.6883 44.167 41.472L44.6716 41.9286L44.6236 41.9766C44.1911 42.4091 44.2391 43.0098 44.8158 43.5144L45.6568 44.2593L45.2002 44.7639L42.9897 42.7455L43.0137 42.7936ZM43.2059 45.1723L43.0617 45.0282C42.8455 45.1003 42.6533 45.2204 42.461 45.3646C42.1246 45.6529 42.0285 45.9653 42.2208 46.2055C42.413 46.4458 42.6773 46.3978 42.9656 46.1575C43.1819 46.0374 43.326 45.8211 43.326 45.5568C43.326 45.4367 43.302 45.3165 43.2299 45.2204C43.2299 45.2204 43.2299 45.1964 43.2059 45.1723ZM41.8123 46.6621C41.3798 46.1575 41.572 45.5808 42.1487 45.1243C42.3409 44.9321 42.5812 44.7879 42.8455 44.6918L42.7974 44.6437C42.5091 44.3314 42.1967 44.3314 41.8123 44.6437C41.596 44.836 41.4278 45.0762 41.3077 45.3405L40.8512 45.0522C40.9953 44.6918 41.2356 44.3794 41.548 44.1632C41.7883 43.9229 42.1006 43.7787 42.437 43.7787C42.461 43.7787 42.4851 43.7787 42.5091 43.7787C42.8695 43.7787 43.1819 43.995 43.3501 44.2833L44.4794 45.6289L43.9267 45.9653L43.6865 45.6769C43.6865 45.6769 43.6865 45.701 43.6865 45.725C43.6865 46.0854 43.5183 46.4218 43.2299 46.614C43.0617 46.8062 42.7974 46.9264 42.5331 46.9264C42.3169 46.9264 42.0766 46.8543 41.9084 46.6861C41.8844 46.6621 41.8603 46.6381 41.8123 46.59V46.6621ZM40.1784 46.9985C40.0342 46.7101 39.7219 46.5179 39.3855 46.5179C39.2653 46.5179 39.1212 46.5419 39.001 46.614H38.953C38.6887 46.7822 38.5205 47.0706 38.5205 47.3829C38.5205 47.5271 38.5685 47.6713 38.6406 47.7914L38.7127 47.9115C38.8809 48.1999 39.1692 48.3921 39.5056 48.3921C39.6498 48.3921 39.7939 48.3681 39.9141 48.296C40.1544 48.1278 40.2985 47.8395 40.2985 47.5511C40.2985 47.3829 40.2505 47.1907 40.1544 47.0465L40.1784 46.9985ZM38.112 48.272C37.9438 48.0317 37.8477 47.7193 37.8477 47.431C37.8477 46.9744 38.0639 46.5419 38.4484 46.2536L38.4964 46.2055C38.7127 46.0854 38.9289 46.0374 39.1692 46.0374C39.3134 46.0374 39.4816 46.0614 39.6257 46.1094L38.7848 44.7639L39.3374 44.3794L41.4999 47.8875L40.9473 48.272L40.6589 47.8395C40.6589 48.2479 40.4427 48.6083 40.1063 48.8246C39.5537 49.2571 38.6646 49.1129 38.136 48.272H38.112ZM34.3156 48.272L34.9643 48.0317L35.1565 48.4642C35.2286 48.1038 35.4689 47.7914 35.8053 47.6232C35.9495 47.5511 36.0936 47.5271 36.2378 47.5271C36.6222 47.5271 36.9827 47.7433 37.1509 48.1038C37.1749 48.1518 37.1989 48.2239 37.2229 48.272L37.9198 50.05L37.271 50.2903L36.6222 48.7285C36.43 48.296 36.1657 48.1278 35.7813 48.296C35.517 48.3921 35.3488 48.6324 35.3488 48.8967C35.3488 48.9688 35.3488 49.0408 35.3968 49.1129C35.3968 49.161 35.4208 49.185 35.4449 49.2331L36.0456 50.7709L35.3968 51.0111L34.3156 48.296V48.272ZM33.4265 50.4825L33.3785 50.2903C33.3785 50.2903 33.2343 50.2903 33.1622 50.2903C32.994 50.2903 32.8499 50.2903 32.6817 50.3624C32.2732 50.4585 32.0329 50.6988 32.129 51.0111C32.1771 51.2995 32.4654 51.3956 32.7778 51.3475C33.2343 51.2034 33.5226 50.891 33.4265 50.5066V50.4825ZM31.4562 51.1313C31.3121 50.4825 31.7446 50.05 32.4414 49.9059C32.6096 49.8578 32.7537 49.8338 32.9219 49.8338C33.0181 49.8338 33.1382 49.8338 33.2343 49.8578V49.7617C33.1382 49.3292 32.8018 49.209 32.3453 49.3052C32.0569 49.3772 31.7926 49.4974 31.5523 49.6896L31.264 49.2331C31.5523 48.9928 31.9128 48.8246 32.2972 48.7765C32.4174 48.7525 32.5615 48.7285 32.6817 48.7285C32.8979 48.7285 33.1142 48.7765 33.3304 48.8727C33.6188 49.0649 33.811 49.3772 33.835 49.7136L34.2675 51.4436L33.6188 51.5878L33.5226 51.2034C33.3544 51.5398 33.0421 51.78 32.6817 51.8521C32.5856 51.8761 32.4894 51.9002 32.3933 51.9002C31.9608 51.9002 31.5764 51.6118 31.4562 51.1793V51.1313ZM29.2937 51.3956L29.1496 49.8578L28.7651 49.9059L28.717 49.3532L29.1015 49.3052L29.0054 48.5122L29.6541 48.4161L29.7503 49.209L30.5432 49.1129L30.5912 49.6656L29.7983 49.7617L29.9425 51.2034C29.9905 51.4917 30.1347 51.5878 30.375 51.5398C30.5191 51.5398 30.6633 51.4917 30.8075 51.3956L30.8555 51.9482C30.6633 52.0684 30.4711 52.1405 30.2548 52.1885C29.7983 52.2366 29.4139 52.0443 29.3177 51.3956H29.2937ZM25.1849 51.6839L25.6174 51.2274C25.9538 51.5398 26.3863 51.732 26.8429 51.78C27.2754 51.78 27.5397 51.5878 27.5397 51.3235C27.5397 51.0592 27.3955 50.891 26.6506 50.7228C25.8097 50.4825 25.3291 50.2663 25.3772 49.4974C25.4252 48.8486 25.9538 48.3681 26.6026 48.3681C26.6506 48.3681 26.6747 48.3681 26.7227 48.3681H26.7708C27.2754 48.3681 27.7559 48.5603 28.1404 48.8727L27.7559 49.3772C27.4676 49.1129 27.0831 48.9688 26.6747 48.9447C26.2422 48.9447 26.0259 49.137 26.0259 49.4013C26.0259 49.6656 26.2181 49.8338 26.963 50.05C27.804 50.2903 28.2365 50.5546 28.1884 51.2274C28.1884 51.9723 27.5877 52.4048 26.7468 52.3567C26.1701 52.2846 25.6415 52.0443 25.233 51.6599L25.1849 51.6839ZM22.5659 47.6232L23.2146 47.7674L22.3256 51.78L21.6769 51.6359L22.5659 47.6232ZM20.3313 50.1942L20.3793 50.002C20.2111 49.8578 19.9949 49.7377 19.7786 49.6656C19.3702 49.5214 19.0818 49.6175 18.9377 49.9059C18.8416 50.1942 19.0338 50.4104 19.3702 50.5066C19.4663 50.5546 19.5864 50.5786 19.6825 50.5786C19.9709 50.5786 20.2112 50.4345 20.3553 50.1702L20.3313 50.1942ZM18.3129 49.7377C18.5532 49.137 19.1059 48.9928 19.8027 49.2331C20.067 49.3052 20.3073 49.4253 20.4995 49.6175L20.5475 49.5695C20.5475 49.5695 20.5956 49.4253 20.5956 49.3292C20.5956 49.0889 20.4514 48.8727 20.2112 48.7765L20.067 48.7285C19.8748 48.6564 19.6585 48.6083 19.4663 48.6083C19.3942 48.6083 19.3221 48.6083 19.226 48.6083V48.0557C19.226 48.0557 19.4182 48.0557 19.4903 48.0557C19.7786 48.0557 20.067 48.1038 20.3313 48.1999C20.6917 48.296 20.98 48.5363 21.1723 48.8486C21.2444 48.9928 21.2684 49.161 21.2684 49.3292C21.2684 49.4974 21.2444 49.6656 21.1723 49.8097L20.6196 51.4917L20.0189 51.2514L20.1631 50.867C19.9709 50.9871 19.7546 51.0592 19.5384 51.0592C19.3942 51.0592 19.226 51.0352 19.0818 50.9631C18.4811 50.7228 18.0967 50.2663 18.2889 49.6896L18.3129 49.7377ZM17.2797 48.5603C17.3759 48.4161 17.4239 48.2479 17.4239 48.0797C17.4239 47.7674 17.2797 47.479 17.0154 47.3108C16.8953 47.2628 16.7511 47.2388 16.631 47.2388C16.2706 47.2388 15.9582 47.431 15.79 47.7433C15.6939 47.8875 15.6458 48.0557 15.6458 48.2239C15.6458 48.5363 15.814 48.8246 16.0783 48.9928H16.1264C16.2465 49.0649 16.3907 49.0889 16.5349 49.0889C16.8232 49.0889 17.1115 48.9207 17.2557 48.6564C17.2557 48.6324 17.2797 48.6083 17.3038 48.5843L17.2797 48.5603ZM15.3094 48.6564L15.0692 49.0889L14.4685 48.7525L16.3907 45.1003L16.9914 45.4367L16.2465 46.8783C16.4147 46.7822 16.631 46.7101 16.8232 46.7101C17.0154 46.7101 17.2317 46.7582 17.3999 46.8783C17.8564 47.1426 18.1447 47.5992 18.1447 48.1278C18.1447 48.3681 18.0727 48.6083 17.9525 48.8246C17.9525 48.8246 17.9525 48.8727 17.9045 48.8967C17.6882 49.4253 17.1836 49.7617 16.607 49.7617C16.4147 49.7617 16.2465 49.7377 16.0783 49.6656L15.9342 49.5935C15.5738 49.4013 15.3335 49.0649 15.2854 48.6564H15.3094ZM13.9158 46.59C14.06 46.4218 14.1321 46.2296 14.1321 46.0133C14.1321 45.749 14.0119 45.4847 13.8197 45.3165H13.7717C13.6035 45.1723 13.4112 45.1003 13.219 45.1003C12.9307 45.1003 12.6423 45.2444 12.4741 45.4847C12.33 45.6529 12.2579 45.8451 12.2579 46.0614C12.2579 46.3257 12.378 46.59 12.5703 46.7582H12.6183C12.7865 46.9024 12.9787 46.9744 13.171 46.9744C13.4593 46.9744 13.7476 46.8303 13.9158 46.59ZM11.9455 45.0522C12.2339 44.6678 12.6904 44.4275 13.171 44.4275C13.4833 44.4275 13.7957 44.5236 14.06 44.7158L14.1321 44.7639C14.5406 45.0522 14.7568 45.5328 14.7568 46.0374C14.7568 46.3737 14.6607 46.7101 14.4444 46.9744C14.1321 47.3589 13.6755 47.5751 13.195 47.5751C12.8586 47.5751 12.5222 47.455 12.2339 47.2628C11.8254 46.9744 11.5851 46.5179 11.5851 46.0133C11.5851 45.701 11.6812 45.3886 11.8734 45.1243L11.9215 45.0522H11.9455ZM12.6904 42.0968L13.1469 42.5533L10.2876 45.5087L9.83107 45.0522L12.6904 42.0968ZM8.24523 40.0784C8.60565 39.7661 9.06218 39.5979 9.51871 39.5979C10.0954 39.5979 10.6721 39.8622 11.0325 40.3187L11.1046 40.3908C11.4409 40.7993 11.6332 41.3038 11.6332 41.8325C11.6332 41.8565 11.6332 41.9045 11.6332 41.9286H10.9123C10.9123 41.9286 10.9123 41.8565 10.9123 41.8084C10.9123 41.448 10.7922 41.0876 10.5759 40.8233C10.3357 40.535 9.95121 40.3668 9.56676 40.3668C9.2544 40.3668 8.94204 40.4869 8.70176 40.6791C8.34134 40.9194 8.10106 41.3279 8.10106 41.7604C8.10106 42.0007 8.17314 42.2409 8.31731 42.4572C8.34134 42.5052 8.38939 42.5533 8.41342 42.6014C8.62967 42.8657 8.91801 43.0579 9.2544 43.154L9.80704 42.6975L9.20635 41.9045L9.66288 41.5201L10.6961 42.8416L9.39857 43.8748C8.79787 43.7547 8.26925 43.4183 7.90884 42.9377C7.59647 42.5773 7.40425 42.1208 7.40425 41.6402C7.40425 41.1116 7.6205 40.607 8.02897 40.2466C8.10106 40.1986 8.17314 40.1265 8.24523 40.0784ZM41.9805 14.3685L42.3169 14.7529C42.7494 15.2575 43.2059 15.0893 43.8066 14.5607C44.4073 14.0561 44.6956 13.5756 44.2631 13.071L43.9748 12.7346L41.9565 14.3685H41.9805ZM43.5663 10.524L45.3444 12.6385C46.2334 13.7197 46.5218 14.7529 44.96 16.0505C43.5183 17.2759 42.389 16.8434 41.4519 15.7621L39.7219 13.7438L43.5663 10.524ZM38.6166 7.064L42.0766 9.39471L41.4278 10.3799L39.4575 9.05832L39.0731 9.61097L40.9473 10.8844L40.2985 11.8696L38.4243 10.5961L38.0399 11.1488L40.0582 12.4943L39.4095 13.4795L35.9495 11.1007L38.6166 7.03997V7.064ZM37.3191 6.41525L35.3488 11.0046L33.6188 10.2597L35.589 5.67038L37.3191 6.41525ZM30.5912 4.25273L34.652 5.23788L34.3636 6.41525L32.129 5.91066L31.9368 6.70358L34.0993 7.20817L33.859 8.38554L31.6965 7.88095L31.264 9.61097L29.4379 9.17846L30.5672 4.27676L30.5912 4.25273ZM29.2457 4.20467L29.0054 9.20249L27.1312 9.10638L27.3715 4.10856L29.2457 4.20467ZM26.6266 5.47816L25.0408 5.67038L25.4733 9.17846L23.6952 9.41874L23.2627 5.91066L21.6769 6.10288L21.4846 4.66121L26.4344 4.01245L26.6266 5.50218V5.47816ZM18.8175 8.00109L19.25 7.80887C19.5864 7.6647 19.8988 7.47248 19.7066 7.01595C19.5143 6.55942 19.25 6.67955 18.9136 6.82372L18.4811 7.01595L18.8175 8.00109ZM16.3907 6.72761L19.0578 5.5983C20.043 5.16579 20.8359 5.30996 21.1723 6.199C21.4606 6.89581 21.1723 7.28025 20.6677 7.68873C20.7638 7.6647 20.8359 7.64067 20.932 7.64067C21.1482 7.64067 21.3885 7.71276 21.5567 7.85692C21.9892 8.24137 22.2535 9.08235 22.686 9.44277L20.8599 10.1876C20.6196 9.77916 20.3553 9.39471 20.067 9.01027C19.9709 8.89013 19.8267 8.81804 19.6585 8.81804C19.6105 8.81804 19.5864 8.81804 19.5384 8.81804L19.2981 8.91415L19.8507 10.5L18.2649 11.1968L16.3907 6.65553V6.72761ZM11.6091 10.0435L14.925 7.61665L15.6218 8.55374L13.7476 9.94736L14.1801 10.5L16.0063 9.20249L16.7031 10.1396L14.8769 11.4611L15.2614 12.0138L17.1836 10.6201L17.8804 11.5572L14.4685 14.0321L11.6091 10.0675V10.0435ZM13.9399 14.2484C13.7476 14.6809 13.5074 15.0893 13.243 15.4738C12.2098 16.7953 10.6721 17.2038 9.30246 16.0264C7.95689 14.8491 8.2212 13.3113 9.2544 12.0618C9.54274 11.7014 9.8551 11.389 10.2395 11.1247L11.2727 12.0138C10.9844 12.182 10.7441 12.3742 10.5279 12.6145C10.2636 12.8547 10.1194 13.1911 10.1194 13.5516C10.1194 13.912 10.2395 14.2003 10.4798 14.4406L10.5519 14.5127C10.7922 14.7289 11.0805 14.8731 11.4169 14.8731C11.7533 14.8731 12.0416 14.7529 12.2819 14.5127C12.33 14.4646 12.378 14.3925 12.4261 14.3445C12.6423 14.0561 12.8346 13.7438 12.9307 13.4074L13.9158 14.2484H13.9399ZM42.2928 31.092C42.2928 31.092 42.2928 30.9718 42.2928 30.9238C42.2928 30.5393 41.9805 30.251 41.6201 30.251C41.6201 30.251 41.596 30.251 41.572 30.251C41.2837 30.251 41.1155 30.3471 41.0674 30.4432C40.9473 30.5874 40.8752 30.7796 40.8752 30.9718C40.8752 31.0199 40.8752 31.0679 40.8752 31.092V31.7407H42.3169L42.2688 31.092H42.2928ZM44.5274 31.14V34.9845H42.2928V33.3025H40.8512V34.9845H38.6166V31.5725C38.6166 30.8757 38.6166 29.8906 39.4095 29.1457C39.9862 28.6411 40.707 28.3528 41.4759 28.3528C41.524 28.3528 41.572 28.3528 41.596 28.3528C41.6441 28.3528 41.6921 28.3528 41.7162 28.3528C42.4851 28.3528 43.254 28.6411 43.8306 29.1457C44.2872 29.6022 44.5515 30.227 44.5515 30.8757C44.5515 30.9718 44.5515 31.0679 44.5515 31.164M19.3461 33.3506H16.2946V32.4616H19.0098V30.8277H16.2946V30.1308H19.25V28.4969H14.06V34.9605H19.2981V33.3746H19.3461V33.3506ZM47.4589 33.1103V28.4729H45.2243V34.9845H49.8617V33.1584L47.4829 33.1103H47.4589ZM27.78 34.9845H30.0146V30.299H31.6004V28.4729H26.1701V30.299H27.7559V34.9845H27.78ZM20.4274 34.3838C21.0521 34.8884 21.821 35.1767 22.638 35.1767C22.638 35.1767 22.662 35.1767 22.686 35.1767C22.7341 35.1767 22.7821 35.1767 22.8062 35.1767C23.5751 35.1767 24.3199 34.8884 24.8726 34.3838C25.6174 33.6389 25.6174 32.6538 25.6174 31.957V28.4969H23.3828V32.5096C23.3828 32.5096 23.3828 32.6057 23.3828 32.6298C23.3828 32.822 23.3108 33.0142 23.1906 33.1584C23.0464 33.2785 22.8783 33.3506 22.686 33.3506C22.686 33.3506 22.662 33.3506 22.638 33.3506C22.2535 33.3506 21.9652 33.0382 21.9652 32.6778C21.9652 32.6298 21.9652 32.5577 21.9652 32.5096V28.4969H19.7306V32.3895C19.7786 33.0382 19.7786 33.735 20.4274 34.4078M35.6852 30.8036V30.6595C35.6852 30.275 35.4929 30.2029 34.9403 30.2029H34.3396V31.3322H34.9403C35.4929 31.3322 35.6852 31.1881 35.6852 30.8277M38.4003 35.0325H35.7813C35.7813 35.0325 34.652 33.1103 34.6039 33.0142H34.3636V35.0325H32.0329V28.521H35.2527C35.2527 28.521 35.4449 28.521 35.541 28.521C35.9735 28.521 36.43 28.5931 36.8385 28.7132C37.5593 29.0496 38.0159 29.7704 38.0159 30.5633C38.0159 30.5633 38.0159 30.6114 38.0159 30.6354V30.8277C38.0159 30.8277 38.0159 30.8517 38.0159 30.8757C38.0159 31.3563 37.8236 31.8368 37.5113 32.1972C37.3431 32.3895 37.1028 32.5336 36.8625 32.6298C36.9586 32.7739 38.4003 35.0566 38.4003 35.0566M11.2727 28.545V31.8128L9.39857 28.545H7.11591V35.0085H9.23037V31.7888L11.1046 35.0085H13.4353V28.545H11.2727ZM28.2125 26.0221H29.2937C29.4859 26.0221 29.5821 26.0221 29.6782 25.8779C29.7503 25.8058 29.7743 25.7097 29.7743 25.6136V25.4934C29.7743 25.1571 29.5821 25.0609 29.2697 25.0609H28.2365V25.998L28.2125 26.0221ZM28.2125 23.6913H29.1015C29.1015 23.6913 29.1496 23.6913 29.1736 23.6913C29.2937 23.6913 29.4139 23.6433 29.4859 23.5472C29.558 23.4751 29.5821 23.403 29.5821 23.3069V23.2108C29.5821 22.8744 29.3898 22.7783 29.0775 22.7783H28.2365V23.6673L28.2125 23.6913ZM25.6895 26.7429V21.0723H29.7983C29.7983 21.0723 29.9184 21.0723 29.9665 21.0723C30.5672 21.0723 31.1198 21.2886 31.5764 21.697C31.9128 22.0334 32.081 22.49 32.081 22.9465C32.081 22.9465 32.081 22.9705 32.081 22.9945C32.081 23.4751 31.8887 23.9316 31.5764 24.268C31.5283 24.3161 31.4322 24.3641 31.3842 24.4122C31.5283 24.4843 31.6725 24.5804 31.8167 24.7005C32.153 25.0369 32.3212 25.4694 32.3212 25.926V26.1903L25.6895 26.7429ZM21.0041 24.0758H21.6528C22.2055 24.0758 22.4458 23.9316 22.4458 23.5232V23.379C22.4458 22.9945 22.2535 22.8744 21.6528 22.8744H21.0041V24.0998V24.0758ZM18.4811 27.3436V21.0242H21.9412C21.9412 21.0242 22.0613 21.0242 22.1094 21.0242C22.6139 21.0242 23.1185 21.0963 23.6231 21.2645C24.392 21.6009 24.8966 22.3698 24.8966 23.2108C24.8966 23.2348 24.8966 23.2829 24.8966 23.3069V23.4991C24.8966 23.4991 24.8966 23.5472 24.8966 23.5952C24.8966 24.0998 24.7044 24.6044 24.344 24.9648C24.1517 25.1571 23.9115 25.3253 23.6471 25.4214C23.6952 25.4694 24.1037 26.1662 24.5362 26.815L21.9171 27.0553C21.5807 26.5026 21.2684 25.926 21.2203 25.8779H20.932V27.1514L18.5052 27.3436H18.4811ZM13.6275 24.5323H15.1653V23.8836C15.1653 23.8836 15.1653 23.7875 15.1653 23.7394C15.1653 23.5472 15.0932 23.3309 14.9731 23.1868C14.8289 23.0666 14.6607 22.9945 14.4925 22.9945C14.4925 22.9945 14.4444 22.9945 14.4204 22.9945C14.4204 22.9945 14.3964 22.9945 14.3724 22.9945C14.1801 22.9945 13.9879 23.0666 13.8437 23.1868C13.6996 23.355 13.6035 23.5712 13.6035 23.8115C13.6035 23.8355 13.6035 23.8595 13.6035 23.8836V24.5323H13.6275ZM11.2487 27.9443V24.292C11.2487 23.5472 11.2487 22.4659 12.0897 21.673C12.6904 21.1204 13.4833 20.832 14.3003 20.832C14.3483 20.832 14.4204 20.832 14.4685 20.832C14.4925 20.832 14.5406 20.832 14.5646 20.832C15.4296 20.832 16.2465 21.1204 16.8953 21.673C17.5921 22.3218 17.5921 23.1147 17.6402 23.8355V27.3917L15.2133 27.6319V26.2383H13.6755V27.7761L11.2487 27.9683V27.9443ZM9.8551 27.1033C10.3116 26.5747 10.5759 25.926 10.648 25.2291H8.31731V25.2772C8.19717 25.8298 7.71661 26.2143 7.13994 26.2143C6.87563 26.2143 6.61133 26.1182 6.39507 25.926C6.13077 25.5896 5.96257 25.1811 5.96257 24.7486C5.96257 24.7005 5.96257 24.6765 5.96257 24.6284V24.4843C5.96257 24.4843 5.96257 24.3882 5.96257 24.3401C5.96257 23.9316 6.10674 23.5232 6.39507 23.2108C6.5873 23.0186 6.85161 22.9225 7.11591 22.9225C7.11591 22.9225 7.13994 22.9225 7.16397 22.9225C7.90884 22.9225 8.14912 23.5232 8.34134 23.8595V23.9076H10.6721C10.5759 23.2348 10.3116 22.5861 9.87913 22.0334C9.18232 21.3126 8.2212 20.9041 7.21202 20.9041C7.188 20.9041 7.16397 20.9041 7.11591 20.9041C4.73714 20.9041 3.60783 22.7783 3.51172 24.5083V24.6525C3.55977 26.3825 4.73714 28.3047 7.11591 28.3047C8.14912 28.2567 9.13426 27.8242 9.87913 27.0793M43.1338 25.2051V24.268L43.6384 25.1571L47.5309 24.8207V21.0242H45.2963V24.0758L43.4702 21.0242H40.7551V25.4214L43.1338 25.1811V25.2051ZM32.994 26.0941C32.8018 25.5896 32.7057 25.0369 32.7057 24.5083C32.7057 22.6341 33.8831 20.7599 36.4541 20.7599C39.025 20.7599 40.1544 22.5861 40.1544 24.4122C40.1544 24.7726 40.1063 25.109 40.0102 25.4454L37.3431 25.7337C37.5593 25.3733 37.6795 24.9648 37.6795 24.5564C37.6795 24.5564 37.6795 24.5323 37.6795 24.5083C37.6795 23.8595 37.4392 22.9225 36.5021 22.8744H36.406C35.4208 22.9225 35.1806 23.8595 35.1806 24.5083C35.1806 24.5564 35.1806 24.6044 35.1806 24.6525C35.1806 25.109 35.3488 25.5415 35.6611 25.8779L32.994 26.1182V26.0941Z" fill="#2AAC69"/>
</g>
<defs>
<clipPath id="clip0_1806_567">
<rect width="55" height="55" fill="white"/>
</clipPath>
</defs>
</svg>
