<svg width="49" height="43" viewBox="0 0 49 43" fill="none" xmlns="http://www.w3.org/2000/svg">
<g clip-path="url(#clip0_1806_579)">
<path d="M18.3514 31.3719H30.045L35.63 21.5109L30.045 11.6281H18.6787L12.7446 21.5109L18.3296 31.3719H18.3514ZM21.3185 36.6078H32.6848L44.3783 16.7549L35.8045 1.15627H12.4392L10.1921 5.2141H33.012C33.2084 5.2141 33.4047 5.32319 33.5138 5.49772L39.7969 15.9477C39.906 16.1223 39.906 16.3404 39.7969 16.5368L30.9177 32.2227C30.8086 32.3973 30.6122 32.5063 30.4159 32.5063H19.0496L21.3621 36.5642L21.3185 36.6078ZM12.4392 41.8437H17.3479L5.30528 21.7945C5.19619 21.62 5.19619 21.38 5.30528 21.2055L11.5884 10.7555C11.6975 10.5809 11.8938 10.4718 12.0902 10.4718H30.3941C30.6122 10.4718 30.7868 10.5809 30.8958 10.7773L36.3063 20.3546L38.597 16.2968L32.663 6.414H9.55946L1.24744 21.4891L12.4392 41.8219V41.8437ZM18.7005 41.8437H35.8045L46.9963 21.5109L45.0328 17.9548L33.5138 37.4805C33.4047 37.655 33.2084 37.7641 33.012 37.7641H20.9912C20.7731 37.7641 20.5985 37.655 20.4894 37.4805L11.6102 21.7945C11.5011 21.62 11.5011 21.38 11.6102 21.2055L17.3479 11.6281H12.4392L6.50517 21.5109L18.7005 41.8437ZM36.1536 43H12.0902C11.872 43 11.6756 42.8909 11.5884 42.6946L0.0693553 21.7727C-0.0179101 21.5982 -0.0179101 21.38 0.0693553 21.2055L11.5884 0.305429C11.6975 0.109082 11.8938 0 12.0902 0H36.1318C36.3499 0 36.5463 0.109082 36.6335 0.305429L48.1307 21.2273C48.218 21.4018 48.218 21.62 48.1307 21.7945L36.6335 42.7164C36.5245 42.8909 36.3281 43.0218 36.1318 43.0218L36.1536 43Z" fill="#BFA162"/>
</g>
<defs>
<clipPath id="clip0_1806_579">
<rect width="48.2141" height="43" fill="white"/>
</clipPath>
</defs>
</svg>
