<svg width="52" height="52" viewBox="0 0 52 52" fill="none" xmlns="http://www.w3.org/2000/svg">
<g clip-path="url(#clip0_1806_572)">
<path d="M22.412 28.2403H22.6264C22.991 28.3261 23.377 28.369 23.7415 28.4333C23.8059 28.755 23.8487 29.0981 23.8916 29.4412C23.8916 29.4841 23.8916 29.527 23.8916 29.5484C23.8916 29.6127 23.8916 29.6985 23.9131 29.7629C23.9774 30.3418 24.0203 30.9423 24.0632 31.5213C24.0632 31.7357 24.0632 31.9287 24.0632 32.1431C23.9774 32.1431 23.8702 32.1431 23.763 32.1431C23.3555 32.1431 22.9481 32.1217 22.5621 32.0788C22.1547 32.0574 21.7472 31.993 21.3398 31.9501C21.0396 31.9072 20.7608 31.8644 20.482 31.8215C20.4392 31.8215 20.3963 31.8215 20.3534 31.8C20.3534 31.7571 20.3534 31.7143 20.3319 31.6714C20.2247 30.9852 20.1389 30.299 20.0746 29.5913C20.0317 29.0981 20.0103 28.5834 20.0103 28.0902C20.8251 28.0902 21.6186 28.1546 22.412 28.2403ZM42.3549 43.5299C41.7973 43.3369 41.2612 43.1439 40.7466 42.9294C41.5614 45.2025 41.9903 47.6042 42.0118 50.0917C36.5864 50.0274 31.4828 48.0545 27.4513 44.4305C27.1297 44.1517 26.8294 43.8515 26.5292 43.5727C26.3791 43.4226 26.229 43.2725 26.1004 43.101C23.7201 40.592 21.9831 37.6328 20.9967 34.4162C21.1254 34.2446 21.2755 34.0731 21.4041 33.8801C21.7687 33.923 22.1332 33.9659 22.4978 33.9873C23.1196 34.0302 23.7415 34.0731 24.3634 34.0731C24.5993 34.0731 24.8352 34.0731 25.071 34.0731H25.9717L25.9931 33.151C26.036 31.7786 25.9717 30.4491 25.7787 29.1195C25.7787 29.0552 25.7787 28.9694 25.7573 28.9265C25.7144 28.6049 25.65 28.2832 25.5857 27.9401C25.5428 27.7042 25.4999 27.4684 25.457 27.2325C25.4356 27.1038 25.3927 26.9751 25.3713 26.8465C25.2426 26.825 25.1139 26.7821 24.9853 26.7607C24.4277 26.632 23.8702 26.5248 23.3126 26.4605C23.2483 26.4605 23.1625 26.4605 23.0982 26.439C21.7687 26.246 20.4177 26.1817 19.0667 26.2032H18.1661L18.1447 27.1252C18.1018 28.369 18.1447 29.5913 18.3162 30.7922C18.1447 30.9208 17.9517 31.0495 17.7801 31.1996C14.8637 30.299 12.1618 28.7979 9.8244 26.7393C9.8244 26.7393 9.80296 26.7821 9.78152 26.7821C9.60996 26.9323 9.4813 27.0609 9.33119 27.211C8.98809 27.5541 8.73076 27.8329 8.51632 28.0902C10.7894 30.0845 13.3627 31.607 16.1289 32.6149C15.893 32.8293 15.6572 33.0438 15.4427 33.2797C13.3841 35.3383 11.7329 37.6971 10.5535 40.2489C10.189 41.0209 9.86729 41.8358 9.60996 42.6507C8.70932 45.3097 8.28044 48.1618 8.36622 51.0781V51.9788L9.28831 52.0002C9.52419 52.0002 9.76007 52.0002 9.97451 52.0002C15.7 52.0002 21.0825 50.0274 25.4356 46.3819C25.1568 46.1246 24.8566 45.8458 24.5778 45.567C24.4063 45.3955 24.2347 45.2239 24.0846 45.0524C20.1604 48.2904 15.3569 50.0488 10.2533 50.0917C10.2962 47.1539 10.8966 44.3018 12.0117 41.6857C12.462 40.6564 12.9767 39.6485 13.5771 38.6835C14.4777 37.2253 15.5499 35.8744 16.7937 34.6306C17.1582 34.2661 17.5228 33.923 17.8873 33.6013C18.016 33.4941 18.1232 33.3869 18.2519 33.2797C18.4449 33.3225 18.6379 33.3869 18.8309 33.4298C18.8737 33.6228 18.9166 33.8158 18.981 33.9873C18.5735 34.502 18.1232 34.9737 17.63 35.4669C17.0939 36.003 16.5149 36.5177 15.9359 36.9895C15.3784 37.6971 14.8423 38.4262 14.3705 39.1767C14.006 39.7557 13.6843 40.3776 13.3627 40.9995C15.3998 39.9058 17.2655 38.512 18.9595 36.8179C19.1954 36.582 19.4098 36.3461 19.6243 36.1317C20.7394 39.1982 22.4763 42.0073 24.7923 44.452C24.9424 44.6235 25.0925 44.7736 25.2426 44.9237C25.5428 45.2239 25.843 45.5027 26.1432 45.7815C30.6036 49.8129 36.2862 52.0217 42.3334 52.0217C42.5693 52.0217 42.8052 52.0217 43.0196 52.0217H43.9203L43.9417 51.0996C44.006 48.5906 43.7058 46.1246 43.0196 43.7872C42.8052 43.7229 42.5907 43.6585 42.3763 43.5942L42.3549 43.5299Z" fill="#6B5F00"/>
<path d="M43.534 9.84109C43.3625 10.3772 43.1695 10.9133 42.9336 11.4494C45.2067 10.6345 47.6084 10.2056 50.0959 10.1842C50.0315 15.2879 48.2731 20.1127 45.0565 24.0155H45.078C45.2495 24.2085 45.3996 24.3586 45.5712 24.5302C45.85 24.809 46.1287 25.0877 46.3861 25.3879C50.1816 20.8633 52.1545 15.2021 51.9829 9.21922V8.31857L51.0608 8.29713C48.5519 8.2328 46.0859 8.55446 43.727 9.21922C43.6627 9.43366 43.5984 9.6481 43.534 9.86254" fill="#6B5F00"/>
<path d="M29.5972 32.1001C29.2112 32.1216 28.8038 32.143 28.4178 32.1644C28.3106 32.1644 28.2034 32.1644 28.0961 32.1644C28.0961 31.95 28.0961 31.7356 28.0961 31.5211C28.1176 30.9421 28.1605 30.3417 28.2248 29.7627C28.2248 29.6984 28.2248 29.6126 28.2462 29.5483C28.2891 29.1837 28.3535 28.7977 28.4178 28.4332C28.7823 28.3689 29.1683 28.3045 29.5329 28.2616C29.5972 28.2616 29.683 28.2616 29.7473 28.2402C30.3263 28.1759 30.9267 28.133 31.5057 28.1115C31.7202 28.1115 31.9132 28.1115 32.1276 28.1115C32.1276 28.1973 32.1276 28.3045 32.1276 28.4118C32.1276 28.8192 32.1062 29.2266 32.0633 29.6341C32.0418 30.02 31.9989 30.3846 31.956 30.7706C31.9132 31.0922 31.8703 31.3925 31.8059 31.7141C31.8059 31.757 31.8059 31.7999 31.7845 31.8428C31.7416 31.8428 31.6987 31.8428 31.6558 31.8642C30.9696 31.9929 30.262 32.0572 29.5758 32.1216M32.149 24.1015C31.3342 24.1015 30.5407 24.0372 29.7473 23.9514C29.6615 23.9514 29.5972 23.9514 29.5329 23.93H29.4257C29.0826 23.8656 28.7609 23.8227 28.4392 23.7584C28.3749 23.4368 28.332 23.0937 28.2891 22.7506C28.2891 22.7077 28.2891 22.6648 28.2891 22.6433C28.2891 22.579 28.2891 22.4932 28.2677 22.4289C28.1819 21.6355 28.1176 20.842 28.1176 20.0272C28.6108 20.0272 29.1254 20.0486 29.6187 20.0915C30.0046 20.1129 30.3692 20.1558 30.7552 20.1987C31.0768 20.2416 31.3985 20.2845 31.7202 20.3488C31.7631 20.3488 31.8059 20.3488 31.8488 20.3703C31.8488 20.4132 31.8488 20.456 31.8703 20.4989C31.9989 21.1851 32.0847 21.8713 32.1276 22.579C32.1705 23.0722 32.1919 23.5869 32.1919 24.1015H32.149ZM44.8867 25.2166C44.7366 25.0665 44.5865 24.9164 44.415 24.7448C41.9918 22.4289 39.1612 20.6919 36.1162 19.5768C36.3521 19.3624 36.5879 19.148 36.8024 18.9121C38.861 16.8535 40.5122 14.4946 41.6916 11.9428C42.0561 11.1708 42.3778 10.3774 42.6351 9.56253C43.5358 6.88204 43.9647 4.05144 43.8789 1.11362V0.212971L42.9568 0.191527C36.9954 0.0414195 31.3342 1.99282 26.8095 5.78839C27.1097 6.04572 27.3885 6.32449 27.6673 6.60327C27.8388 6.77482 27.9889 6.92492 28.1605 7.09648C28.1605 7.09648 28.1605 7.09648 28.1819 7.11792C32.0847 3.90133 36.9096 2.14293 42.0133 2.07859C41.9704 5.01641 41.3699 7.86846 40.2549 10.5061C39.826 11.5354 39.2899 12.5432 38.7109 13.4868C37.8102 14.945 36.738 16.3174 35.4943 17.5611C35.1297 17.9257 34.7652 18.2688 34.4007 18.5904C34.2934 18.6976 34.1648 18.8049 34.0361 18.8906C33.8431 18.8478 33.6501 18.8049 33.4571 18.7405C33.4142 18.5475 33.3713 18.3545 33.3285 18.1615C33.4357 18.0329 33.5429 17.9042 33.6501 17.797C33.9718 17.411 34.3149 17.0465 34.6794 16.7034C35.2155 16.1673 35.7731 15.6526 36.3735 15.1808C36.9525 14.4732 37.4671 13.7441 37.9389 12.9721C38.3035 12.3931 38.6466 11.7927 38.9468 11.1708C36.9096 12.2645 35.0225 13.6583 33.3499 15.3524C33.114 15.5883 32.8996 15.8027 32.6851 16.0386C31.5701 12.9721 29.8331 10.163 27.5172 7.71835C27.367 7.5468 27.2169 7.39669 27.0454 7.24658C26.7452 6.94637 26.445 6.6676 26.1447 6.38883C21.47 2.20726 15.5085 0.0199756 9.20403 0.170083H8.30338L8.28194 1.09217C8.21761 3.60111 8.51782 6.06717 9.20403 8.426C9.41847 8.49033 9.63291 8.55466 9.84735 8.619C10.4049 8.81199 10.941 9.00499 11.4556 9.21943C10.6408 6.94637 10.2119 4.54465 10.1904 2.05715C15.6158 2.12148 20.7194 4.11577 24.7509 7.71835C25.0511 7.99712 25.3728 8.29734 25.673 8.57611C25.8231 8.72622 25.9732 8.87632 26.1233 9.02643C28.5036 11.5354 30.2191 14.4946 31.227 17.7112C31.0983 17.8828 30.9696 18.0543 30.841 18.2259C29.6401 18.0758 28.4178 18.0329 27.174 18.0543H26.2734L26.252 18.9764C26.2091 20.3488 26.2734 21.6784 26.4664 23.0079C26.4664 23.0722 26.4664 23.1365 26.4878 23.2009C26.5736 23.7799 26.6808 24.3374 26.7881 24.8949C26.8095 25.0236 26.8309 25.1523 26.8738 25.2809C27.0025 25.3238 27.1312 25.3453 27.2598 25.3667C27.4957 25.431 27.7316 25.4739 27.9675 25.5168C28.2891 25.5812 28.6108 25.6455 28.9325 25.6884C28.9968 25.6884 29.0611 25.6884 29.1254 25.7098C30.2191 25.8599 31.3342 25.9457 32.4493 25.9457C32.6851 25.9457 32.921 25.9457 33.1569 25.9457H34.0576L34.079 25.0236C34.1219 23.7799 34.079 22.5576 33.9074 21.3567C34.079 21.228 34.272 21.0994 34.4435 20.9493C37.6387 21.9357 40.598 23.6726 43.1069 26.0529C43.257 26.1816 43.4071 26.3531 43.5787 26.5032C43.8789 26.8035 44.1576 27.1037 44.4364 27.4253C48.0604 31.4568 50.0333 36.539 50.0976 41.9858C47.1598 41.9429 44.3292 41.3424 41.6916 40.2274C40.6623 39.7985 39.6544 39.2624 38.6894 38.662C37.2313 37.7613 35.8803 36.6891 34.6365 35.4454C34.1648 34.9736 33.7144 34.4804 33.2856 33.9657C33.2856 33.9657 33.2856 33.9228 33.2856 33.9014C33.3285 33.7298 33.3713 33.5583 33.4142 33.3867C33.5858 33.3439 33.7573 33.301 33.9289 33.2581C33.9289 33.2581 33.9718 33.2581 33.9932 33.2581C34.4864 33.687 34.9796 34.1158 35.4514 34.609C35.9875 35.1451 36.4807 35.7027 36.9525 36.2817C37.6601 36.8607 38.4107 37.3753 39.1612 37.8685C39.7616 38.2331 40.3621 38.5762 40.9839 38.8764C39.8903 36.8392 38.475 34.9522 36.7809 33.2795C36.545 33.0436 36.3306 32.8292 36.0947 32.6148C38.861 31.6069 41.4343 30.0844 43.7073 28.0686C43.45 27.7684 43.1712 27.4682 42.871 27.1894C42.7209 27.0393 42.5922 26.9107 42.4636 26.782C42.4421 26.7606 42.4207 26.7391 42.3778 26.7177C40.019 28.7763 37.317 30.2559 34.4007 31.178C34.2291 31.0494 34.0576 30.9207 33.8646 30.7706C33.9074 30.406 33.9503 30.0415 33.9718 29.6769C34.0361 28.8192 34.0576 27.9614 34.0361 27.1037V26.203L33.114 26.1816C31.7416 26.1387 30.3906 26.2245 29.0826 26.4175C29.0182 26.4175 28.9539 26.4175 28.8681 26.4389C28.5465 26.4818 28.2248 26.5461 27.8817 26.6105C27.6458 26.6533 27.4099 26.6962 27.174 26.7606C27.0454 26.782 26.9167 26.8249 26.7881 26.8463C26.7666 26.975 26.7237 27.1037 26.7023 27.2323C26.6594 27.4682 26.5951 27.7041 26.5736 27.94C26.5093 28.2616 26.445 28.5833 26.4021 28.905C26.4021 28.9693 26.4021 29.0336 26.3806 29.098C26.1876 30.406 26.1233 31.757 26.1662 33.1294V34.0301L27.0883 34.0515C27.3242 34.0515 27.56 34.0515 27.7959 34.0515C28.4178 34.0515 29.0397 34.0301 29.6615 33.9657C30.0261 33.9657 30.3906 33.9014 30.7552 33.8585C30.8839 34.0301 31.0125 34.2231 31.1412 34.3946C30.2405 37.311 28.7395 40.0129 26.6808 42.3718C26.6808 42.3718 26.7023 42.4146 26.7237 42.4361C26.8738 42.6076 27.0025 42.7363 27.1312 42.8864C27.4099 43.1652 27.7101 43.444 28.0104 43.7013C30.0046 41.4282 31.5272 38.8549 32.535 36.0887C32.7495 36.3246 32.9639 36.5604 33.1998 36.7749C35.2584 38.8335 37.6172 40.4847 40.1691 41.6427C40.9411 42.0072 41.7559 42.3289 42.5708 42.6076C45.0368 43.4225 47.6316 43.8728 50.3121 43.8728C50.5479 43.8728 50.7838 43.8728 50.9983 43.8728H51.8989L51.9204 42.9507C52.0919 36.6462 49.8832 30.7063 45.7016 26.0744C45.4228 25.7741 45.1441 25.4739 44.8439 25.1737L44.8867 25.2166Z" fill="#6B5F00"/>
<path d="M22.5823 20.0699C23.0755 20.027 23.5901 20.0056 24.0833 20.0056C24.0833 20.8205 24.019 21.6139 23.9332 22.4073C23.9332 22.4716 23.9332 22.5574 23.9118 22.6218C23.8689 22.9863 23.8046 23.3723 23.7402 23.7368C23.4186 23.8012 23.0755 23.8441 22.7538 23.8869C22.7109 23.8869 22.668 23.8869 22.6252 23.8869C22.5608 23.8869 22.475 23.8869 22.4107 23.9084C21.8317 23.9727 21.2742 24.0156 20.6952 24.0371C20.4593 24.0371 20.2449 24.0371 20.009 24.0585C20.009 23.9513 20.009 23.8226 20.009 23.7154C20.009 23.3294 20.0304 22.922 20.0733 22.536C20.0948 22.15 20.1377 21.7426 20.202 21.3566C20.2449 21.0563 20.2878 20.7561 20.3307 20.4559C20.3307 20.413 20.3307 20.3701 20.3521 20.3273C20.395 20.3273 20.4379 20.3273 20.4808 20.3058C21.167 20.1771 21.8746 20.0914 22.5608 20.0485M8.64371 42.3502C8.81526 41.8141 9.00826 41.278 9.24414 40.7419C6.97108 41.5568 4.56936 41.9856 2.08186 42.0071C2.14619 36.5818 4.11904 31.4995 7.74306 27.4681C8.02183 27.1464 8.3006 26.8462 8.60082 26.546C8.75093 26.3959 8.90104 26.2458 9.07259 26.0957C11.5815 23.7154 14.5408 21.9784 17.7359 20.992C17.9075 21.1207 18.079 21.2493 18.272 21.378C18.2291 21.7426 18.1863 22.1071 18.1648 22.4716C18.1005 23.3294 18.079 24.1872 18.1005 25.0449V25.9456L19.0226 25.967C19.2585 25.967 19.4943 25.967 19.7302 25.967C20.8453 25.967 21.9604 25.8812 23.054 25.7311C23.1184 25.7311 23.1827 25.7311 23.247 25.7097C23.826 25.6239 24.3836 25.5167 24.9411 25.4095C25.0698 25.388 25.1984 25.3451 25.3271 25.3237C25.3485 25.195 25.3914 25.0664 25.4129 24.9377C25.4343 24.7876 25.4772 24.6589 25.4986 24.5088C25.4986 24.423 25.5415 24.3373 25.563 24.2515C25.6273 23.9298 25.6702 23.6082 25.7345 23.2865C25.7345 23.2222 25.7345 23.1579 25.756 23.0935C25.949 21.7854 26.0133 20.4345 25.9704 19.0621V18.1614L25.0483 18.14C23.8046 18.0971 22.5823 18.14 21.3814 18.3115C21.2527 18.14 21.1241 17.9684 20.974 17.7969C21.8746 14.8805 23.3757 12.1786 25.4343 9.81972C25.4343 9.81972 25.4129 9.77684 25.3914 9.75539C25.2628 9.60528 25.1127 9.45518 24.9625 9.32651C24.6838 9.04774 24.3836 8.76897 24.0833 8.4902C22.0891 10.7418 20.5451 13.3151 19.5372 16.1028C19.3228 15.8669 19.1084 15.631 18.8725 15.4166C16.8138 13.358 14.455 11.7282 11.9032 10.5488C11.1312 10.1843 10.3163 9.86261 9.50147 9.58384C6.82097 8.6832 3.99037 8.25432 1.074 8.34009H0.21624L0.194796 9.26218C0.0232441 15.245 2.01753 20.9062 5.79166 25.4309C6.04899 25.1521 6.32776 24.8734 6.60653 24.5732C6.75664 24.423 6.90675 24.2729 7.0783 24.1014L7.14263 24.0371C3.9046 20.0914 2.12475 15.2665 2.08186 10.1628C5.01968 10.2057 7.85028 10.8061 10.4879 11.9212C11.5172 12.3501 12.5251 12.8862 13.49 13.4866C14.9482 14.3873 16.2992 15.4595 17.5429 16.7032C17.9075 17.0678 18.2506 17.4323 18.5723 17.8183C18.6795 17.947 18.7867 18.0542 18.8939 18.1829C18.8939 18.1829 18.8939 18.2257 18.8939 18.2472C18.851 18.4187 18.8081 18.5903 18.7652 18.7618C18.5723 18.8047 18.3793 18.8476 18.1863 18.912C17.6716 18.5045 17.1998 18.0542 16.7281 17.5824C16.192 17.0463 15.6773 16.4888 15.2056 15.8884C14.4979 15.3094 13.7688 14.7947 13.0183 14.323C12.4393 13.9584 11.8174 13.6153 11.1955 13.3151C12.2892 15.3523 13.7045 17.2393 15.3985 18.912C15.613 19.1264 15.8489 19.3623 16.0848 19.5767C13.0397 20.6918 10.2091 22.4502 7.78595 24.7447C7.6144 24.8948 7.46429 25.0449 7.31418 25.2165C7.01397 25.5167 6.7352 25.8169 6.45643 26.1171C2.21053 30.7276 0.00180016 36.6675 0.173352 42.972V43.8727L1.09544 43.8941C1.33132 43.8941 1.56721 43.8941 1.78165 43.8941C4.0547 43.8941 6.28487 43.5939 8.40782 42.972C8.47216 42.7576 8.53649 42.5432 8.60082 42.3287L8.64371 42.3502Z" fill="#6B5F00"/>
</g>
<defs>
<clipPath id="clip0_1806_572">
<rect width="51.83" height="51.83" fill="white" transform="translate(0.171875 0.169922)"/>
</clipPath>
</defs>
</svg>
