<svg width="74" height="74" viewBox="0 0 74 74" fill="none" xmlns="http://www.w3.org/2000/svg">
<path d="M46.1902 59.4529C46.1584 59.4529 46.1266 59.4514 46.0934 59.4485C45.5384 59.3965 45.1308 58.9036 45.1843 58.3486L45.3042 57.084C45.7696 53.5733 47.4129 50.3402 50.0593 47.6981C53.5194 44.2424 55.4243 39.6579 55.4243 34.7857C55.4243 29.6057 53.2 24.6439 49.3222 21.1738C45.3476 17.6183 40.2052 15.9851 34.8344 16.5834C26.4877 17.5099 19.6846 24.1829 18.6584 32.4501C17.9343 38.279 19.9404 43.9389 24.1651 47.9785C26.8635 50.5598 28.4837 54.1182 28.7265 58.0003L28.7554 58.3674C28.7987 58.9239 28.3825 59.4095 27.826 59.4529C27.2595 59.4933 26.784 59.0785 26.7406 58.5235L26.7117 58.142C26.4993 54.7527 25.0987 51.667 22.7675 49.4383C18.0774 44.952 15.8487 38.6693 16.6538 32.2015C17.7941 23.018 25.3459 15.605 34.6118 14.5759C40.4668 13.9197 46.3246 15.7813 50.6707 19.6692C54.9763 23.5224 57.4449 29.0319 57.4449 34.7871C57.4449 40.1984 55.3289 45.2917 51.4873 49.129C49.1574 51.4559 47.7136 54.2859 47.3103 57.3152L47.1933 58.5423C47.1441 59.0612 46.7047 59.4529 46.1902 59.4529Z" fill="#224A89"/>
<path d="M36.9673 10.2904C36.4094 10.2904 35.957 9.8395 35.957 9.28017V4.66384C35.957 4.10595 36.408 3.65356 36.9673 3.65356C37.5252 3.65356 37.9776 4.1045 37.9776 4.66384V9.28161C37.9761 9.83806 37.5252 10.2904 36.9673 10.2904Z" fill="#EE8122"/>
<path d="M67.9722 40.4944H63.9947C63.4368 40.4944 62.9844 40.0435 62.9844 39.4841C62.9844 38.9263 63.4353 38.4739 63.9947 38.4739H67.9722C68.53 38.4739 68.9824 38.9248 68.9824 39.4841C68.9824 40.0435 68.53 40.4944 67.9722 40.4944Z" fill="#EE8122"/>
<path d="M59.8465 20.6893C59.5777 20.6893 59.3089 20.5823 59.1094 20.3713C58.7279 19.9637 58.7481 19.3249 59.1542 18.9433L62.3686 15.9284C62.7762 15.5483 63.415 15.5685 63.7966 15.9732C64.1781 16.3808 64.1579 17.0196 63.7518 17.4012L60.5374 20.4161C60.3423 20.5982 60.0937 20.6893 59.8465 20.6893Z" fill="#EE8122"/>
<path d="M13.7486 20.8639C13.4927 20.8639 13.2369 20.7671 13.0389 20.5734L10.3362 17.9112C9.93871 17.5195 9.93437 16.8807 10.3261 16.4832C10.7163 16.0857 11.3551 16.08 11.754 16.4731L14.4568 19.1353C14.8542 19.527 14.8586 20.1659 14.4669 20.5633C14.2703 20.7628 14.0087 20.8639 13.7486 20.8639Z" fill="#EE8122"/>
<path d="M10.0503 40.5337H6.07277C5.51488 40.5337 5.0625 40.0828 5.0625 39.5235C5.0625 38.9641 5.51344 38.5132 6.07277 38.5132H10.0503C10.6082 38.5132 11.0606 38.9641 11.0606 39.5235C11.0606 40.0828 10.6082 40.5337 10.0503 40.5337Z" fill="#EE8122"/>
<path d="M46.0537 65.252H27.8775C27.3196 65.252 26.8672 64.8011 26.8672 64.2417C26.8672 63.6838 27.3181 63.2314 27.8775 63.2314H46.0537C46.6116 63.2314 47.064 63.6824 47.064 64.2417C47.064 64.8011 46.6131 65.252 46.0537 65.252Z" fill="#224A89"/>
<path d="M40.9866 70.3431H32.9087C32.3508 70.3431 31.8984 69.8921 31.8984 69.3328C31.8984 68.7749 32.3494 68.3225 32.9087 68.3225H40.9866C41.5445 68.3225 41.9968 68.7734 41.9968 69.3328C41.9968 69.8907 41.5445 70.3431 40.9866 70.3431Z" fill="#224A89"/>
<path d="M31.1679 49.827C28.7716 49.827 26.7958 48.1837 26.6686 46.0851L26.6585 45.916L26.5053 45.8423C24.6033 44.9274 23.4225 43.1786 23.4225 41.278C23.4225 40.9572 23.4572 40.6334 23.528 40.3169L23.5684 40.1304L23.4138 40.0191L23.3589 39.9801C23.3329 39.9628 23.3068 39.944 23.2823 39.9252C23.2346 39.8891 23.1898 39.8428 23.1507 39.7922L23.132 39.7677L23.1088 39.7474C21.7314 38.5796 20.9727 36.89 20.9727 34.988C20.9727 32.8504 21.9092 31.0264 23.6089 29.8528L23.7506 29.7545L23.7318 29.5825C23.713 29.4091 23.7029 29.2415 23.7029 29.0854C23.7029 27.3062 24.7811 25.6123 26.5154 24.6642L26.6629 24.5832L26.6658 24.4156C26.7091 22.275 28.7311 20.5334 31.1708 20.5334C33.6553 20.5334 35.6773 22.3068 35.6773 24.4878V29.5132C35.6773 30.126 35.4981 30.7186 35.1584 31.2244L34.8231 31.7274C34.6497 31.9875 34.68 32.3388 34.8968 32.5599L34.9806 32.6452C35.4287 33.1033 35.6758 33.7118 35.6758 34.3593V40.671C35.6758 41.1393 35.5414 41.5931 35.2871 41.9819C35.0992 42.2709 35.089 42.6525 35.2596 42.9531L35.3593 43.128C35.566 43.4908 35.6758 43.9027 35.6758 44.3204V45.8683C35.6744 48.0536 33.6524 49.827 31.1679 49.827ZM28.2469 43.9967C28.4551 43.9967 28.6545 44.0863 28.7918 44.2438C29.0534 44.543 29.0231 44.9997 28.7239 45.2613L28.1038 45.8033L28.1082 45.9406C28.1515 47.3136 29.4957 48.3875 31.1679 48.3875C32.8575 48.3875 34.2334 47.2602 34.2334 45.8741V44.3262C34.2334 44.1571 34.1901 43.9923 34.1062 43.8478L34.0065 43.6729C33.9848 43.6353 33.966 43.5963 33.9458 43.5587L33.8388 43.3477L33.6105 43.4113C33.5469 43.4286 33.4833 43.4373 33.4197 43.4373C33.1249 43.4373 32.8633 43.261 32.752 42.9864C32.6031 42.6178 32.7809 42.1972 33.1494 42.0484C33.4703 41.9183 33.7464 41.6957 33.9458 41.4081L33.9805 41.3633L33.9906 41.3445C34.0181 41.2954 34.047 41.2477 34.0773 41.2014C34.1785 41.0468 34.232 40.8647 34.232 40.6768V34.3651C34.232 34.102 34.1279 33.8448 33.9487 33.6583L33.9126 33.6208L33.8851 33.5947C33.6351 33.3404 33.2997 33.2002 32.9543 33.2002C32.8719 33.2002 32.7896 33.2088 32.7115 33.2247C32.6667 33.2334 32.619 33.2377 32.5713 33.2377C32.2273 33.2377 31.9281 32.9964 31.8588 32.6654C31.8197 32.4775 31.8559 32.2853 31.9614 32.1234C32.0669 31.9615 32.2288 31.8517 32.4181 31.8127C32.5872 31.778 32.765 31.7592 32.9456 31.7592C32.9818 31.7592 33.0179 31.7592 33.054 31.7606L33.2838 31.7693L33.3446 31.5467C33.4053 31.3241 33.4978 31.116 33.6221 30.9296L33.9574 30.4266C34.138 30.1578 34.2334 29.8413 34.2334 29.5146V24.4893C34.2334 23.1032 32.8589 21.9759 31.1679 21.9759C29.4783 21.9759 28.1038 23.1032 28.1038 24.4893C28.1038 24.6352 28.1241 24.7697 28.1429 24.8694C28.153 24.9156 28.1573 24.9604 28.1573 25.0081L28.1588 25.0255C28.1588 25.024 28.1588 25.024 28.1588 25.024C28.1588 25.024 28.1588 25.0269 28.1588 25.0313C28.1617 25.5198 28.3683 25.9924 28.7918 26.478C28.919 26.6225 28.9811 26.809 28.9696 27.0012C28.9566 27.1934 28.8699 27.3683 28.7253 27.4955C28.5938 27.6111 28.4247 27.6747 28.2498 27.6747C28.0417 27.6747 27.8451 27.5851 27.7078 27.429C27.4274 27.1082 27.202 26.7714 27.0401 26.4303L26.8854 26.1051L26.6007 26.3248C25.748 26.9839 25.2204 27.9089 25.1496 28.8628L25.1222 29.24L25.4936 29.1677C25.8477 29.0984 26.209 29.0637 26.5675 29.0637C27.0502 29.0637 27.5301 29.1273 27.9926 29.2516C28.2137 29.3108 28.4406 29.3889 28.6646 29.4799C28.8438 29.5522 28.9826 29.6909 29.0577 29.8673C29.1329 30.045 29.1329 30.2402 29.0606 30.4179C28.9508 30.6911 28.6877 30.8674 28.3929 30.8674C28.3004 30.8674 28.2093 30.8501 28.1241 30.814C27.9564 30.746 27.7859 30.6882 27.6168 30.6434C27.2684 30.548 26.9086 30.5003 26.5501 30.5003C25.6309 30.5003 24.7391 30.8111 23.9688 31.4008L23.9529 31.4138C22.9441 32.3113 22.4107 33.5485 22.4107 34.9895C22.4107 36.747 23.2057 38.2024 24.6481 39.0884L24.6597 39.0956L24.6712 39.1014C25.0788 39.3008 25.5138 39.4034 25.9648 39.4034C26.3622 39.4034 26.686 39.7272 26.686 40.1247C26.686 40.5221 26.3622 40.8459 25.9648 40.8459C25.7162 40.8459 25.4632 40.8242 25.2118 40.7808L24.8996 40.7274L24.875 41.0439C24.8692 41.1234 24.8634 41.2029 24.8634 41.2809C24.8634 42.6092 25.7205 43.8536 27.1008 44.53L27.2728 44.6152L27.7729 44.1773C27.9058 44.0602 28.0735 43.9967 28.2469 43.9967Z" fill="#EE8122"/>
<path d="M42.8566 49.8268C40.3721 49.8268 38.3516 48.0534 38.3516 45.8725V44.3245C38.3516 43.9039 38.4614 43.492 38.6681 43.1307L38.7693 42.9558C38.9412 42.6552 38.9297 42.2736 38.7404 41.986C38.4874 41.5972 38.353 41.1434 38.353 40.6751V34.3634C38.353 33.7159 38.6002 33.1075 39.0482 32.6493L39.1291 32.5655C39.3474 32.3429 39.3792 31.9902 39.2057 31.7301L38.8704 31.2271C38.5322 30.7227 38.3545 30.1301 38.3545 29.5159V24.4905C38.3545 22.3095 40.375 20.5361 42.8595 20.5361C45.3006 20.5361 47.3212 22.2777 47.3645 24.4182L47.3674 24.5859L47.5149 24.6668C49.2492 25.615 50.326 27.3089 50.326 29.088C50.326 29.2543 50.3159 29.4205 50.2971 29.5838L50.2769 29.7558L50.4199 29.8541C52.1196 31.0291 53.0562 32.8531 53.0562 34.9893C53.0562 36.8898 52.2974 38.5809 50.9186 39.7487L50.8954 39.7689L50.8767 39.7935C50.8376 39.8441 50.7943 39.8889 50.7466 39.925C50.7206 39.9452 50.6946 39.9626 50.6685 39.9799L50.6107 40.0204L50.4561 40.1317L50.4965 40.3181C50.5659 40.6346 50.602 40.9569 50.602 41.2793C50.602 43.1798 49.4212 44.9287 47.5206 45.8436L47.3674 45.9173L47.3573 46.0864C47.2301 48.1835 45.2529 49.8268 42.8566 49.8268ZM40.0787 43.5571C40.0599 43.5961 40.0397 43.6351 40.018 43.6727L39.9183 43.8476C39.8359 43.9907 39.7925 44.1554 39.7925 44.3245V45.8725C39.7925 47.2585 41.167 48.3859 42.8566 48.3859C44.5288 48.3859 45.8744 47.312 45.9178 45.9389L45.9221 45.8016L45.3006 45.2596C45.1561 45.1325 45.0694 44.9576 45.0564 44.7653C45.0434 44.5731 45.1055 44.3867 45.2327 44.2421C45.37 44.0846 45.5666 43.995 45.7761 43.995C45.951 43.995 46.1187 44.0586 46.2502 44.1728L46.7503 44.6107L46.9223 44.5254C48.3026 43.849 49.1596 42.6032 49.1596 41.2764C49.1596 41.1969 49.1538 41.1188 49.1481 41.0393L49.1235 40.7228L48.8113 40.7763C48.5613 40.8196 48.3083 40.8413 48.0597 40.8413C47.6623 40.8413 47.3385 40.5176 47.3385 40.1201C47.3385 39.7227 47.6623 39.3989 48.0597 39.3989C48.5092 39.3989 48.9428 39.2977 49.349 39.0983L49.3605 39.0925L49.3721 39.0853C50.816 38.2007 51.6109 36.7439 51.6109 34.9849C51.6109 33.5468 51.0804 32.3125 50.076 31.415L50.0601 31.4005C49.2897 30.8094 48.3922 30.4958 47.4672 30.4958C46.9309 30.4958 46.4034 30.5998 45.9019 30.8065C45.8123 30.8441 45.7198 30.8629 45.6258 30.8629C45.3339 30.8629 45.0723 30.6866 44.961 30.4148C44.8873 30.2356 44.8887 30.0391 44.9624 29.8627C45.0361 29.685 45.1749 29.5477 45.3527 29.4754C46.0204 29.2022 46.7257 29.0635 47.4527 29.0635C47.8111 29.0635 48.1739 29.0982 48.528 29.1675L48.898 29.2398L48.8706 28.864C48.8012 27.9087 48.2722 26.9822 47.4195 26.3217L47.1347 26.102L46.9801 26.4272C46.8182 26.7698 46.5942 27.1051 46.3124 27.4259C46.1765 27.582 45.9785 27.6716 45.7704 27.6716C45.5926 27.6716 45.4293 27.6095 45.2949 27.4924C45.1503 27.3652 45.0636 27.1903 45.0506 26.9981C45.0376 26.8059 45.1012 26.6209 45.2284 26.4749C45.6518 25.9907 45.86 25.5181 45.8614 25.0296L45.8629 25.005C45.8643 24.9573 45.8686 24.914 45.8773 24.8735C45.899 24.7579 45.9192 24.6278 45.9192 24.4862C45.9192 23.1001 44.5447 21.9728 42.8537 21.9728C41.1641 21.9728 39.7896 23.1001 39.7896 24.4862V29.5115C39.7896 29.8382 39.8836 30.1532 40.0628 30.4221L40.3996 30.9265C40.5239 31.1129 40.6164 31.3196 40.6771 31.5422L40.7378 31.7648L40.9676 31.7561C41.0037 31.7546 41.0384 31.7546 41.0745 31.7546C41.2552 31.7546 41.433 31.772 41.6035 31.8081C41.7914 31.8471 41.9547 31.957 42.0602 32.1174C42.1657 32.2778 42.2033 32.4715 42.1643 32.6594C42.0964 32.9918 41.7986 33.2346 41.4575 33.2346C41.4084 33.2346 41.3593 33.2303 41.3101 33.2202C41.2306 33.2043 41.1482 33.1956 41.0673 33.1956C40.7219 33.1956 40.3866 33.3358 40.1466 33.5815L40.1105 33.6133L40.0773 33.648C39.8923 33.8373 39.7896 34.0888 39.7896 34.3577V40.6693C39.7896 40.8572 39.8431 41.0393 39.9443 41.194C39.9746 41.2417 40.0036 41.2894 40.031 41.3385L40.0411 41.3559L40.0672 41.3905C40.2738 41.6883 40.5499 41.9109 40.8707 42.0409C41.2393 42.1898 41.4171 42.6118 41.2682 42.9789C41.1569 43.2521 40.8953 43.4299 40.6005 43.4299C40.5383 43.4299 40.4733 43.4212 40.4097 43.4039L40.1813 43.3403L40.0787 43.5571Z" fill="#EE8122"/>
</svg>
