<svg width="78" height="78" viewBox="0 0 78 78" fill="none" xmlns="http://www.w3.org/2000/svg">
<path d="M1 20.6623C1.40428 20.167 1.91953 20.0098 2.56558 20.0138C6.6678 20.0373 10.774 20.0256 14.8762 20.0256C16.1128 20.0256 16.4576 20.3832 16.4854 21.5899C16.521 23.0834 16.3704 24.577 16.6082 26.0667C16.9055 27.9258 18.6138 29.38 20.5598 29.4075C22.502 29.4351 24.2657 27.9376 24.563 26.0391C24.7968 24.5495 24.6422 23.0559 24.6819 21.5624C24.7096 20.395 25.0624 20.0256 26.2435 20.0256C34.1031 20.0256 41.9667 20.0256 49.8263 20.0256C50.7934 20.0256 50.7696 20.0256 50.8013 19.0508C50.8409 17.7066 50.6507 16.3545 50.944 15.0221C51.4989 12.5145 54.0038 9.77493 57.9554 10.0147C60.7695 10.1876 63.4924 12.5695 63.8848 15.5095C64.0473 16.7397 63.968 18.0053 63.9363 19.2552C63.9205 19.8801 64.1543 20.0452 64.7528 20.0413C68.312 20.0177 71.8712 20.0295 75.4305 20.0334C76.6155 20.0334 77 20.4029 77 21.5545C77 33.5188 77 45.4792 77 57.4435C77 58.5951 76.6155 58.9685 75.4305 58.9685C71.3005 58.9685 67.1745 58.9685 63.0445 58.9685C61.8277 58.9685 61.4948 58.603 61.4671 57.3727C61.4314 55.9067 61.582 54.4327 61.3521 52.9706C61.0509 51.0604 59.3189 49.5786 57.3648 49.5865C55.4029 49.5944 53.6867 51.0683 53.3855 52.9824C53.1556 54.4485 53.3062 55.9184 53.2706 57.3845C53.2428 58.603 52.898 58.9685 51.6812 58.9685C43.8454 58.9685 36.0095 58.9685 28.1737 58.9685C27.1591 58.9685 27.1828 58.9685 27.1551 59.9747C27.1155 61.2953 27.2978 62.6199 27.0203 63.9326C26.4853 66.4521 23.9605 69.2112 20.0446 68.9872C17.2186 68.8221 14.5036 66.4914 14.0795 63.5317C13.9051 62.3054 13.9884 61.0359 14.0201 59.786C14.0399 59.1296 13.8179 58.9528 13.1719 58.9567C9.66023 58.9842 6.15254 58.9567 2.64089 58.9803C1.97898 58.9842 1.42013 58.8663 1.00396 58.3318V20.6623H1ZM46.3899 22.4782C44.6341 22.4782 42.8783 22.5057 41.1264 22.4624C40.4249 22.4467 40.1871 22.6354 40.195 23.3625C40.2307 26.8685 40.2148 30.3705 40.2108 33.8765C40.2108 35.0477 39.8343 35.3976 38.6611 35.4251C37.1312 35.4604 35.5973 35.3072 34.0754 35.5508C32.2284 35.8456 30.7302 37.6143 30.75 39.5088C30.7698 41.3954 32.2363 43.1288 34.0397 43.4275C35.5656 43.679 37.0995 43.5218 38.6255 43.5572C39.8462 43.5847 40.2108 43.9266 40.2108 45.1451C40.2108 48.651 40.2307 52.1531 40.195 55.659C40.1871 56.3547 40.4169 56.5277 41.0868 56.5198C44.0277 56.4884 46.9686 56.4884 49.9095 56.5198C50.5714 56.5277 50.837 56.3626 50.8053 55.663C50.7617 54.6135 50.7022 53.5405 50.8647 52.5068C51.3364 49.5315 54.0197 47.24 56.8536 47.0789C60.7695 46.8588 63.3259 49.6651 63.8253 52.2278C64.0473 53.3715 63.9324 54.5231 63.9284 55.6708C63.9284 56.2997 64.0909 56.5277 64.7607 56.5198C67.7492 56.4884 70.7416 56.4923 73.7341 56.5198C74.3484 56.5237 74.5387 56.3351 74.5387 55.7219C74.5228 44.9132 74.5228 34.1044 74.5387 23.2957C74.5387 22.6432 74.3365 22.4624 73.6905 22.4664C70.1313 22.4939 66.572 22.4821 63.0128 22.4782C61.8436 22.4782 61.4948 22.1008 61.4671 20.9256C61.4235 19.2395 61.6018 17.5454 61.3442 15.8632C61.0549 13.9687 59.2673 12.4712 57.3331 12.5066C55.3791 12.542 53.6788 13.9923 53.3895 15.8553C53.1398 17.4668 53.3023 19.0862 53.2706 20.6977C53.2428 22.1794 52.9693 22.4782 51.5068 22.4782C49.8025 22.4782 48.0942 22.4782 46.3899 22.4782ZM3.42566 39.4734C3.42566 44.866 3.43755 50.2586 3.4098 55.6473C3.4098 56.3272 3.61194 56.5237 4.29366 56.5159C7.85288 56.4844 11.4121 56.5002 14.9713 56.5041C16.089 56.5041 16.4537 56.8932 16.4854 58.0134C16.5329 59.7271 16.3466 61.4447 16.6122 63.1505C16.8976 64.9978 18.6455 66.4678 20.5797 66.4717C22.498 66.4796 24.2657 65.0017 24.563 63.1623C24.6621 62.5531 24.6462 61.9399 24.7017 61.3346C24.8404 59.8489 24.0279 58.033 25.1099 56.9443C26.2237 55.8202 28.0786 56.5827 29.6006 56.5277C32.0421 56.4333 34.4915 56.4884 36.941 56.5119C37.5355 56.5198 37.7654 56.3587 37.7614 55.7298C37.7337 52.7387 37.7376 49.7516 37.7614 46.7605C37.7654 46.1827 37.583 45.9862 36.9965 45.998C35.9105 46.0216 34.8046 46.1002 33.7385 45.939C30.746 45.491 28.4076 42.8222 28.2411 40.0198C28.0152 36.1836 30.7421 33.6564 33.3342 33.1022C34.5589 32.8388 35.7955 32.996 37.0282 32.9764C37.5751 32.9685 37.7614 32.7995 37.7574 32.2532C37.7376 29.2385 37.7337 26.2239 37.7574 23.2092C37.7614 22.6118 37.5513 22.4585 36.9806 22.4624C33.9644 22.4821 30.9521 22.4899 27.9359 22.4624C27.2899 22.4546 27.1432 22.7022 27.1551 23.2839C27.1789 24.3373 27.2502 25.4063 27.0996 26.4401C26.6597 29.3958 23.9645 31.7344 21.1425 31.9034C17.1988 32.1353 14.6503 29.3329 14.139 26.7938C13.9091 25.65 14.024 24.4984 14.028 23.3507C14.028 22.6943 13.8655 22.4546 13.16 22.4624C10.2191 22.4978 7.27817 22.4978 4.33726 22.4624C3.62383 22.4546 3.41377 22.6629 3.41773 23.3704C3.44548 28.7394 3.43359 34.1044 3.43359 39.4734H3.42566Z" fill="#19B494"/>
</svg>
