<svg width="61" height="57" viewBox="0 0 61 57" fill="none" xmlns="http://www.w3.org/2000/svg">
<g clip-path="url(#clip0_1806_552)">
<path d="M16.112 43.7412C13.737 45.5167 11.0161 46.1854 9.26372 46.439C8.75644 46.5082 8.64114 47.223 9.10231 47.4536C14.913 50.2898 21.1618 49.9439 24.9433 49.3213C26.788 49.0216 28.4712 50.4281 28.4712 52.3189V43.7412H16.112Z" fill="#90C14A"/>
<path d="M44.6795 43.7412C47.0545 45.5167 49.7754 46.1854 51.5278 46.439C52.0351 46.5082 52.1504 47.223 51.6892 47.4536C45.8786 50.2898 39.6298 49.9439 35.8482 49.3213C34.0036 49.0216 32.3203 50.4281 32.3203 52.3189V43.7412H44.7026H44.6795Z" fill="#9CC650"/>
<path d="M59.9204 26.6091C59.9204 16.0945 51.3888 7.56299 40.8742 7.56299C30.3597 7.56299 21.8281 16.0945 21.8281 26.6091C21.8281 37.1237 30.3597 45.6552 40.8742 45.6552C51.3888 45.6552 59.9204 37.1237 59.9204 26.6091Z" fill="#E3E9F7"/>
<path d="M40.8742 7.56299C43.4337 7.56299 45.8779 8.07027 48.1145 8.9926C51.0199 12.5666 52.7723 17.1091 52.7723 22.0897C52.7723 33.5266 43.5029 42.796 32.066 42.796C31.6509 42.796 31.2359 42.796 30.7978 42.7499C25.4022 39.3834 21.8281 33.4113 21.8281 26.6091C21.8281 16.0945 30.3597 7.56299 40.8742 7.56299Z" fill="#D5DCED"/>
<path d="M38.9637 26.6091C38.9637 16.0945 30.4322 7.56299 19.9176 7.56299C9.40303 7.56299 0.894531 16.0715 0.894531 26.6091C0.894531 37.1467 9.42608 45.6552 19.9406 45.6552C30.4552 45.6552 38.9868 37.1237 38.9868 26.6091" fill="#D5DCED"/>
<path d="M19.9449 7.56299C17.3855 7.56299 14.9413 8.07027 12.7046 8.9926C9.7993 12.5666 8.04688 17.1091 8.04688 22.0897C8.04688 33.5266 17.3163 42.796 28.7532 42.796C29.1682 42.796 29.5833 42.796 29.9983 42.7499C35.394 39.3834 38.968 33.4113 38.968 26.6091C38.968 16.0945 30.4364 7.56299 19.9219 7.56299" fill="#C7CFE2"/>
<path d="M49.4555 19.9217C49.4555 9.40718 40.924 0.898682 30.4094 0.898682C19.8948 0.898682 11.3633 9.40718 11.3633 19.9217C11.3633 30.4363 19.8948 38.9679 30.4094 38.9679C40.924 38.9679 49.4555 30.4363 49.4555 19.9217Z" fill="#E3E9F7"/>
<path d="M39.9325 33.2727C29.4179 33.2727 20.8863 24.7411 20.8863 14.2266C20.8863 9.31515 22.7541 4.86491 25.8208 1.47534C17.5198 3.52753 11.3633 10.9984 11.3633 19.945C11.3633 30.4596 19.8948 38.9911 30.4094 38.9911C36.0126 38.9911 41.0393 36.5469 44.521 32.6962C43.0453 33.0652 41.5235 33.2727 39.9325 33.2727Z" fill="#D5DCED"/>
<path d="M52.2714 27.2779C52.3175 26.6784 51.6027 26.3556 51.1646 26.7476C49.4121 28.3386 46.7835 29.9757 39.9352 31.3592C34.8393 32.3738 32.4643 35.5789 31.3575 38.3459C31.1961 38.7378 30.8272 38.9684 30.4121 38.9684C29.9971 38.9684 29.6051 38.7148 29.4667 38.3459C28.3599 35.5789 26.008 32.3738 20.8891 31.3592C14.0408 29.9988 11.4121 28.3386 9.6597 26.7476C9.2216 26.3556 8.50679 26.6784 8.55291 27.2779C8.82961 31.8434 10.9279 44.5024 25.2471 46.3701C27.1148 46.6238 28.4983 48.2379 28.4983 50.1286V56.1007H32.3029V50.1286C32.3029 48.2379 33.6864 46.6007 35.5541 46.3701C49.8964 44.5024 51.9716 31.8204 52.2483 27.2779" fill="#B1CF69"/>
<path d="M39.9352 37.0777C46.599 33.7342 51.0954 29.676 52.0869 26.7937C51.8563 26.5631 51.4643 26.4939 51.1646 26.7476C49.4121 28.3386 46.7835 29.9757 39.9352 31.3592C34.8393 32.3738 32.4643 35.5789 31.3575 38.3459C31.1961 38.7378 30.8272 38.9684 30.4121 38.9684C29.9971 38.9684 29.6051 38.7148 29.4667 38.3459C28.3599 35.5789 26.008 32.3738 20.8891 31.3592C14.0408 29.9988 11.4121 28.3386 9.6597 26.7476C9.2216 26.3556 8.50679 26.6784 8.55291 27.2779C8.82961 31.8434 10.9279 44.5024 25.2471 46.3701C27.1379 46.6238 28.5214 48.2379 28.5214 50.1286V56.1007H30.4121V48.4915C30.4121 42.773 33.4558 40.3058 39.9352 37.0546" fill="#9CC650"/>
<path d="M26.6036 42.7959C23.8597 40.9743 13.2068 41.7583 9.01017 26.6321C8.75653 26.7243 8.54901 26.9549 8.57207 27.3008C8.84876 31.8663 10.9471 44.5253 25.2662 46.393C27.134 46.6466 28.5175 48.2607 28.5175 50.1515C28.5175 47.5459 28.3791 43.9719 26.6036 42.7959Z" fill="#90C14A"/>
<path d="M43.8752 44.502C47.8873 42.0579 50.1009 38.53 51.3461 35.4863C53.3983 30.4596 53.2138 25.8018 53.2138 25.5943C53.2138 25.2484 52.9832 24.9256 52.6373 24.8103C52.3145 24.672 51.9225 24.7642 51.6919 25.0178L51.5997 25.1101C50.8388 25.871 50.0779 26.6319 48.9019 27.3698C49.8473 25.0178 50.3315 22.5045 50.3315 19.945C50.3315 18.2618 50.124 16.5785 49.7089 14.9644C49.5936 14.4802 49.1094 14.2035 48.6252 14.3188C48.141 14.4341 47.8643 14.9183 47.9796 15.4025C48.3485 16.8783 48.556 18.4001 48.556 19.945C48.556 22.9887 47.7951 26.0093 46.3194 28.661C44.7283 29.3067 42.63 29.9062 39.7478 30.4826C34.4674 31.5433 31.9541 34.8406 30.7781 37.4232C30.6398 37.746 30.5014 38.0457 30.4092 38.3455C30.2939 38.0457 30.1786 37.746 30.0402 37.4232C28.8643 34.8406 26.3509 31.5433 21.0706 30.4826C18.1883 29.9062 16.09 29.2836 14.499 28.661C13.0463 26.0093 12.2623 22.9887 12.2623 19.945C12.2393 9.91467 20.4019 1.77511 30.4092 1.77511C33.8218 1.77511 37.1652 2.74355 40.0475 4.5421C42.8606 6.29452 45.1203 8.80787 46.6191 11.7593C46.8497 12.1974 47.38 12.3819 47.8181 12.1513C48.2563 11.9207 48.4407 11.3904 48.2101 10.9523C48.0026 10.5142 47.772 10.0991 47.5184 9.68409C50.4699 10.8601 53.1215 12.797 55.1046 15.3103C57.6871 18.5385 59.0245 22.4584 59.0245 26.5858C59.0245 35.5785 52.4529 43.0494 43.8521 44.479M50.1701 47.1076C44.7514 49.3443 39.1252 48.9292 35.9662 48.3989C35.1131 48.2605 34.2368 48.3989 33.4759 48.7909C33.891 47.9608 34.6749 47.3613 35.6434 47.2229C36.9808 47.0385 38.2259 46.7848 39.3788 46.4389C39.8631 46.4851 40.3473 46.4851 40.8546 46.4851C42.63 46.4851 44.3594 46.2545 45.9966 45.8164C47.4953 46.462 48.948 46.877 50.147 47.1076H50.1701ZM25.1058 47.246C26.0512 47.3613 26.8582 47.9838 27.2732 48.8139C26.5123 48.422 25.6592 48.2836 24.783 48.422C21.647 48.9523 15.9978 49.3673 10.5791 47.1307C11.7781 46.9001 13.2308 46.5081 14.7296 45.8394C16.3667 46.2775 18.0961 46.5081 19.8715 46.5081C20.3558 46.5081 20.8631 46.5081 21.3473 46.462C22.5232 46.8079 23.7684 47.0846 25.0827 47.246H25.1058ZM60.7769 26.5858C60.7769 22.0433 59.2781 17.7545 56.465 14.2035C53.7672 10.7909 49.9626 8.34671 45.766 7.26297C44.4055 5.60278 42.7915 4.17316 40.9468 3.02025C37.7878 1.03724 34.1216 -0.0234375 30.3631 -0.0234375C24.1834 -0.0234375 18.6264 2.81273 14.9832 7.26297C10.7866 8.32365 7.00504 10.7678 4.28417 14.1804C1.44801 17.7314 -0.0507812 22.0203 -0.0507812 26.5858C-0.0507812 34.7945 4.95286 41.8734 12.0779 44.9171C9.56451 45.678 7.53538 45.678 7.51233 45.678C7.12034 45.678 6.7514 45.9547 6.65917 46.3237C6.54388 46.7156 6.70529 47.1307 7.05116 47.3152C13.6458 51.2812 21.1628 50.797 25.0597 50.1513C25.6822 50.036 26.3279 50.2205 26.8121 50.6355C27.2963 51.0506 27.573 51.6501 27.573 52.2727V56.0773C27.573 56.5615 27.965 56.9766 28.4723 56.9766C28.9796 56.9766 29.3715 56.5846 29.3715 56.0773V50.1052C29.3715 47.7533 27.6422 45.7472 25.3364 45.4474C21.7393 44.9863 18.6725 43.7642 16.2283 41.8042C15.8364 41.5045 15.283 41.5737 14.9832 41.9426C14.6834 42.3346 14.7296 42.888 15.1215 43.1877C15.6749 43.6258 16.2745 44.0409 16.897 44.4329C8.31936 43.0033 1.74776 35.5093 1.74776 26.5397C1.74776 22.3892 3.1082 18.4923 5.69072 15.2411C7.69679 12.7278 10.3254 10.7909 13.2769 9.63797C11.4783 12.6355 10.4407 16.1404 10.4407 19.8758C10.4407 22.4353 10.9249 24.9487 11.8703 27.3006C10.6944 26.5627 9.93344 25.8018 9.17252 25.0409L9.08029 24.9487C8.82665 24.695 8.45771 24.6258 8.1349 24.7411C7.81208 24.8795 7.5815 25.1792 7.55844 25.5251C7.55844 25.871 7.25868 34.0336 12.2854 40.3746C12.5851 40.7666 13.1616 40.8127 13.5305 40.513C13.9225 40.2132 13.9686 39.6368 13.6689 39.2678C10.533 35.3249 9.65674 30.4365 9.42616 27.7156C11.2708 29.2605 14.107 30.8516 20.6555 32.1659C24.2757 32.8807 26.8582 34.8637 28.3339 38.0227C29.4407 40.4438 29.4638 42.6804 29.4638 42.7035C29.4638 43.1877 29.8558 43.6028 30.3631 43.6028C30.8703 43.6028 31.2623 43.2108 31.2623 42.7035C31.2623 42.7035 31.2623 40.4899 32.3691 38.0688C33.8218 34.8637 36.4043 32.8807 40.0706 32.1428C46.6191 30.8285 49.4553 29.2375 51.2999 27.6926C51.1616 29.422 50.7466 32.0506 49.6398 34.7253C48.533 37.4462 46.965 39.6829 44.9589 41.4122C42.4456 43.5567 39.2405 44.9171 35.4128 45.4244C33.107 45.7241 31.3776 47.7302 31.3776 50.0821V56.0542C31.3776 56.5385 31.7696 56.9535 32.2769 56.9535C32.7842 56.9535 33.1762 56.5615 33.1762 56.0542V52.2496C33.1762 51.627 33.4529 51.0275 33.9371 50.6125C34.4213 50.1974 35.0669 50.036 35.6895 50.1283C39.5864 50.7739 47.1033 51.2581 53.698 47.2921C54.0439 47.0846 54.2053 46.6695 54.09 46.3006C53.9747 45.9086 53.6288 45.655 53.2368 45.655C53.2138 45.655 51.1847 45.655 48.6713 44.894C55.7963 41.8503 60.7999 34.7715 60.7999 26.5627L60.7769 26.5858Z" fill="#030304"/>
</g>
<defs>
<clipPath id="clip0_1806_552">
<rect width="60.8046" height="57" fill="white"/>
</clipPath>
</defs>
</svg>
