<svg width="44" height="44" viewBox="0 0 44 44" fill="none" xmlns="http://www.w3.org/2000/svg">
<g clip-path="url(#clip0_1787_555)">
<path d="M16.9414 15C16.9411 15.5305 16.7302 16.0391 16.3549 16.4139C15.9797 16.7888 15.4708 16.9993 14.9404 16.999C14.41 16.9988 13.9014 16.7878 13.5265 16.4125C13.1516 16.0373 12.9411 15.5285 12.9414 14.998C12.9417 14.4676 13.1526 13.959 13.5279 13.5841C13.9032 13.2092 14.412 12.9988 14.9424 12.999C15.4728 12.9993 15.9814 13.2103 16.3563 13.5855C16.7312 13.9608 16.9417 14.4696 16.9414 15ZM17.0014 18.48H13.0014V31H17.0014V18.48ZM23.3214 18.48H19.3414V31H23.2814V24.43C23.2814 20.77 28.0514 20.43 28.0514 24.43V31H32.0014V23.07C32.0014 16.9 24.9414 17.13 23.2814 20.16L23.3214 18.48Z" fill="#0072B1"/>
</g>
<rect x="0.5" y="0.5" width="43" height="43" stroke="#F0EDED"/>
<defs>
<clipPath id="clip0_1787_555">
<rect width="24" height="24" fill="white" transform="translate(10 10)"/>
</clipPath>
</defs>
</svg>
