<svg width="168" height="168" viewBox="0 0 168 168" fill="none" xmlns="http://www.w3.org/2000/svg">
<rect width="168" height="168" rx="84" fill="white"/>
<g clip-path="url(#clip0_2485_7086)">
<path d="M43.7827 125.264L45.7944 123.279L46.645 124.141L41.7305 128.993L38.7305 125.953L39.5244 125.169L41.6765 127.349L43.0158 126.028L41.2093 124.2L41.9816 123.436L43.7881 125.264H43.7827Z" fill="#020031"/>
<path d="M39.8517 116.152C41.0047 117.756 40.6105 119.717 38.8985 120.948C37.1946 122.174 35.1964 121.923 34.0433 120.319C32.8903 118.715 33.2738 116.738 34.983 115.507C36.6869 114.281 38.6905 114.54 39.849 116.152H39.8517ZM34.9884 119.639C35.7283 120.667 36.9624 120.781 38.1586 119.919C39.3548 119.058 39.641 117.851 38.9012 116.825C38.1613 115.796 36.9111 115.693 35.731 116.544C34.5348 117.405 34.2486 118.612 34.9884 119.639Z" fill="#020031"/>
<path d="M29.9646 113.695L29.4326 112.609L33.3048 110.714C34.1959 110.276 34.4524 109.553 34.0204 108.67C33.5883 107.787 32.8458 107.538 31.9628 107.97L28.0906 109.866L27.5586 108.78L31.4983 106.852C32.9511 106.142 34.3336 106.645 35.0708 108.157C35.8053 109.661 35.3624 111.054 33.9016 111.77L29.9619 113.698L29.9646 113.695Z" fill="#020031"/>
<path d="M32.4026 102.31L25.7842 104.295L25.4386 103.145L29.1974 98.6324L24.507 100.039L24.1641 98.8997L30.7825 96.915L31.1254 98.0546L27.3693 102.575L32.0597 101.168L32.4026 102.308V102.31Z" fill="#020031"/>
<path d="M30.0288 93.2718L23.1755 94.1332L22.873 91.7326C22.6192 89.7074 23.8397 88.1358 25.8839 87.8793C27.901 87.6255 29.4699 88.819 29.7183 90.8064L30.0288 93.2718ZM24.1314 92.7938L28.7732 92.2106L28.6274 91.0575C28.4545 89.6885 27.4689 88.9648 26.0432 89.143C24.5904 89.324 23.8154 90.2907 23.9937 91.7056L24.1287 92.7938H24.1314Z" fill="#020031"/>
<path d="M29.2171 84.1082L22.3125 83.9084L22.4367 79.6204L23.5519 79.6528L23.4628 82.7311L25.2396 82.7824L25.3206 80.0227L26.3872 80.0551L26.3062 82.8121L28.1397 82.8661L28.2288 79.7878L29.3441 79.8202L29.2198 84.1082H29.2171Z" fill="#020031"/>
<path d="M29.6873 76.3077L22.8906 75.0574L23.3281 72.6785C23.698 70.6695 25.3371 69.5407 27.365 69.9134C29.3632 70.2806 30.5 71.8927 30.1355 73.8639L29.6846 76.3077H29.6873ZM24.2084 74.0691L28.8097 74.917L29.0203 73.7748C29.2687 72.4165 28.5477 71.4309 27.1355 71.169C25.6935 70.9044 24.6647 71.5876 24.4082 72.9917L24.2084 74.0691Z" fill="#020031"/>
<path d="M33.0162 63.3435L27.7695 58.2022L28.2853 57.0762L35.6058 57.6783L35.0765 58.8395L33.3915 58.6828L32.3195 61.0294L33.5401 62.2013L33.0162 63.3435ZM31.5391 60.2787L32.3168 58.5775L29.9595 58.3723C29.7731 58.348 29.5544 58.3237 29.4194 58.2805C29.5274 58.3615 29.6921 58.4992 29.838 58.6369L31.5418 60.2787H31.5391Z" fill="#020031"/>
<path d="M32.3916 49.4498C33.1531 48.2752 34.2872 47.9538 35.3538 48.5992L34.6949 49.6145C34.1792 49.3148 33.6553 49.4795 33.2854 50.052C32.8803 50.6784 32.9181 51.2779 33.4015 51.5911C33.8146 51.8585 34.1873 51.7856 34.6139 51.3751L35.4024 50.592C36.2584 49.7387 37.082 49.5848 37.9461 50.1465C39.0235 50.8459 39.1774 52.1393 38.3484 53.4165C37.5464 54.6533 36.3637 55.034 35.3079 54.3859L35.9668 53.3706C36.4636 53.6812 37.0145 53.4759 37.4357 52.8252C37.8732 52.1501 37.857 51.5317 37.3736 51.2185C36.9848 50.9674 36.6256 51.016 36.2152 51.4237L35.4132 52.2095C34.5626 53.0547 33.6634 53.2032 32.775 52.628C31.7597 51.9692 31.6004 50.6703 32.3916 49.4498Z" fill="#020031"/>
<path d="M44.3628 45.3944L41.4141 38.668L42.3106 37.8147L48.8777 41.1064L47.9515 41.9839L46.4474 41.209L44.5761 42.9858L45.2728 44.5276L44.3601 45.3944H44.3628ZM44.136 42.0001L45.4942 40.7121L43.3826 39.6428C43.2179 39.551 43.0261 39.4457 42.9154 39.3566C42.9856 39.4727 43.0882 39.6617 43.1693 39.8453L44.136 42.0028V42.0001Z" fill="#020031"/>
<path d="M51.4453 30.5623L52.5578 29.9763L55.2311 32.6901C55.4984 32.9764 55.7712 33.2707 56.1465 33.7567C55.9602 33.16 55.8846 32.7927 55.8063 32.385L55.0637 28.6505L56.2437 28.0294L58.8927 30.7567C59.1735 31.0456 59.4517 31.3481 59.8243 31.8152C59.6407 31.1861 59.5516 30.8134 59.4814 30.457L58.7604 26.7009L59.8459 26.1284L61.215 33.2194L60.1781 33.7675L56.5273 30.0087L57.5453 35.1582L56.4922 35.7144L51.4453 30.565V30.5623Z" fill="#020031"/>
<path d="M66.0206 31.2572L63.9062 24.682L67.9918 23.3696L68.332 24.4308L65.3995 25.3732L65.9423 27.0636L68.5697 26.2184L68.8964 27.2337L66.269 28.0789L66.8307 29.8233L69.7632 28.8809L70.1034 29.9421L66.0179 31.2545L66.0206 31.2572Z" fill="#020031"/>
<path d="M72.8828 29.2053L74.2222 21.9821L75.4427 21.7795L79.0287 28.19L77.7703 28.398L76.9603 26.9128L74.4139 27.3313L74.1222 28.9974L72.8828 29.2026V29.2053ZM74.6029 26.2674L76.4499 25.9623L75.305 23.8912C75.2213 23.7237 75.1214 23.5293 75.0782 23.3916C75.0728 23.5266 75.0484 23.74 75.016 23.9371L74.6056 26.2647L74.6029 26.2674Z" fill="#020031"/>
<path d="M80.2969 21.1458L81.5822 21.1161L83.1835 25.0585C83.3455 25.4717 83.4859 25.874 83.6506 26.4276C83.8073 25.82 83.9396 25.3907 84.0638 25.0369L85.4652 21.0297L86.7209 21L84.3068 27.9667L83.0593 27.9938L80.2969 21.1458Z" fill="#020031"/>
<path d="M91.1887 28.3163L89.9844 28.1921L90.6892 21.3198L91.8935 21.444L91.1887 28.3163Z" fill="#020031"/>
<path d="M94.957 28.8033L96.5421 22.0796L97.7113 22.355L99.742 27.8636L100.865 23.0976L102.024 23.3703L100.439 30.0941L99.2802 29.8213L97.2388 24.31L96.1155 29.076L94.957 28.8033Z" fill="#020031"/>
<path d="M106.098 28.4552C105.496 29.8729 105.987 30.9935 107.162 31.493C108.266 31.9602 109.195 31.6362 109.627 30.6182L109.638 30.5911L107.715 29.7757L108.131 28.7928L111.091 30.0457L109.576 33.6209L108.636 33.2239L108.877 32.4625C108.323 32.8027 107.456 32.8351 106.595 32.4706C104.813 31.7145 104.116 29.8918 104.945 27.9341C105.763 26.0034 107.607 25.1636 109.522 25.9737C110.975 26.5893 111.739 27.9098 111.372 29.2815L110.197 28.7847C110.313 27.9503 109.816 27.3319 109.052 27.0052C107.791 26.4705 106.681 27.0781 106.098 28.4525V28.4552Z" fill="#020031"/>
<path d="M118.574 34.9084C119.883 33.21 121.825 32.9048 123.426 34.1416C124.719 35.1407 125.103 36.6393 124.382 37.9598L123.372 37.1794C123.674 36.399 123.418 35.6024 122.691 35.0435C121.682 34.2631 120.48 34.5061 119.578 35.6726C118.684 36.831 118.749 38.0759 119.751 38.8509C120.491 39.4233 121.36 39.4719 122.008 39.0048L123.005 39.7717C121.906 40.7627 120.315 40.7519 119.022 39.7528C117.429 38.5241 117.25 36.6177 118.574 34.9057V34.9084Z" fill="#020031"/>
<path d="M125.913 46.0787C124.577 44.6232 124.736 42.6304 126.286 41.2046C127.83 39.7843 129.845 39.7978 131.181 41.2532C132.518 42.7087 132.372 44.715 130.82 46.1408C129.275 47.5611 127.255 47.5422 125.913 46.0787ZM130.325 42.039C129.469 41.1074 128.23 41.1398 127.144 42.1389C126.059 43.1353 125.919 44.3667 126.775 45.301C127.631 46.2353 128.883 46.1867 129.955 45.2011C131.041 44.2047 131.181 42.9733 130.323 42.039H130.325Z" fill="#020031"/>
<path d="M130.266 51.1058L136.114 47.4307L136.738 48.4244L133.268 53.239L139.112 52.2021L139.746 53.2093L133.898 56.8844L133.274 55.8934L135.075 54.762C136.252 54.0221 136.595 53.8061 137.046 53.6008L132.375 54.4595L131.78 53.5144L134.581 49.6908C134.265 49.9689 133.717 50.3227 132.988 50.7817L130.889 52.0995L130.266 51.1085V51.1058Z" fill="#020031"/>
<path d="M138.185 60.4382L135.984 61.3509L135.52 60.2329L141.9 57.5894L142.945 60.1114C143.477 61.3941 142.983 62.5714 141.736 63.0898C140.504 63.6002 139.295 63.1195 138.765 61.845L138.182 60.4382H138.185ZM141.371 59.1177L139.178 60.025L139.664 61.1942C139.983 61.9611 140.564 62.2014 141.26 61.9125C141.957 61.6236 142.17 61.0457 141.863 60.3031L141.371 59.115V59.1177Z" fill="#020031"/>
<path d="M138.175 66.9719L145.487 67.6848L145.792 68.8837L139.711 73.0071L139.395 71.7703L140.805 70.836L140.167 68.3356L138.482 68.1898L138.172 66.9719H138.175ZM141.248 68.4328L141.709 70.2474L143.675 68.9269C143.834 68.827 144.021 68.7136 144.153 68.6596C144.018 68.665 143.802 68.6596 143.602 68.6434L141.248 68.4328Z" fill="#020031"/>
<path d="M140.203 76.0465L147.086 75.4443L147.191 76.6406L142.596 80.2968L147.472 79.8701L147.575 81.0555L140.692 81.6577L140.589 80.4723L145.182 76.808L140.306 77.2346L140.203 76.0492V76.0465Z" fill="#020031"/>
<path d="M147.61 85.218L147.513 86.5655L144.907 87.7428C144.71 87.8319 144.556 87.8886 144.38 87.9507C144.545 88.0479 144.653 88.0938 144.872 88.2316L147.28 89.7599L147.186 91.0696L143.179 88.4476L140.465 88.2505L140.551 87.0434L143.265 87.2405L147.61 85.2153V85.218Z" fill="#020031"/>
<path d="M141.629 99.0893L140.751 102.003L139.773 101.709L140.651 98.7949L141.629 99.0893Z" fill="#020031"/>
<path d="M139.917 111.297L140.875 111.811L139.614 114.171L133.52 110.914L134.068 109.888L139.204 112.634L139.917 111.3V111.297Z" fill="#020031"/>
<path d="M130.307 115.974L131.107 114.848L131.944 117.47C132.003 117.306 132.084 117.141 132.184 117.003C133.01 115.839 134.385 115.634 135.524 116.442C136.726 117.295 136.931 118.785 136.078 119.987C135.214 121.205 133.675 121.48 132.519 120.659C131.841 120.179 131.506 119.604 131.099 118.364L130.305 115.972L130.307 115.974ZM135.2 119.366C135.659 118.718 135.505 117.924 134.82 117.438C134.142 116.957 133.348 117.079 132.889 117.724C132.414 118.394 132.565 119.174 133.245 119.658C133.931 120.144 134.73 120.028 135.203 119.366H135.2Z" fill="#020031"/>
<path d="M128.816 128.393L128.003 127.628L125.5 121.834L126.361 120.918L128.835 126.745L131.406 124.013L132.218 124.777L128.819 128.393H128.816Z" fill="#020031"/>
<path d="M125.42 130.017L126.114 130.854L124.057 132.563L119.645 127.246L120.538 126.504L124.257 130.986L125.42 130.02V130.017Z" fill="#020031"/>
<path d="M69.8789 55.8816H86.537C96.9115 70.4227 94.0006 91.3148 109.43 104.854H90.5388C79.816 90.313 79.816 65.446 69.8789 55.8816Z" fill="#ED8222"/>
<path d="M56.0391 66.0698H73.6855C79.4182 76.1095 79.564 99.6425 96.5245 114.991H76.699C66.8726 102.065 63.5027 75.0996 56.0391 66.0698Z" fill="#234B8A"/>
</g>
<rect x="80.0625" y="132.562" width="10.5" height="5.25" rx="2.625" fill="#19B494"/>
<defs>
<clipPath id="clip0_2485_7086">
<rect width="125.294" height="111.562" fill="white" transform="translate(22.3125 21)"/>
</clipPath>
</defs>
</svg>
