<svg width="55" height="55" viewBox="0 0 55 55" fill="none" xmlns="http://www.w3.org/2000/svg">
<g clip-path="url(#clip0_1806_627)">
<path d="M48.5701 35.4824C48.3211 35.4824 48.122 35.2832 48.122 35.0343C48.122 34.9098 48.1717 34.7853 48.2713 34.7106L50.4371 32.6444L47.5992 34.2874C47.5992 34.2874 47.4498 34.3372 47.3751 34.3372C47.1262 34.3372 46.927 34.1381 46.927 33.8891C46.927 33.7646 46.9768 33.6402 47.0764 33.5406L50.2629 30.7275L46.454 32.9182C46.454 32.9182 46.3047 32.968 46.23 32.968C45.981 32.968 45.7819 32.7689 45.7819 32.5199C45.7819 32.3955 45.8317 32.271 45.9312 32.1714L47.6987 30.6528L45.5827 31.8727C45.5827 31.8727 45.4334 31.9225 45.3587 31.9225C45.1097 31.9225 44.9106 31.7233 44.9106 31.4744C44.9106 31.325 44.9853 31.2005 45.0848 31.1258L46.9021 29.6322L44.7363 30.8769C44.7363 30.8769 44.5869 30.9516 44.5123 30.9516C44.2633 30.9516 44.0642 30.7524 44.0642 30.5035C44.0642 30.3541 44.1388 30.2296 44.2384 30.1301L46.0806 28.6862L43.9646 29.906C43.9646 29.906 43.8152 29.9807 43.7405 29.9807C43.4916 29.9807 43.2924 29.7815 43.2924 29.5326C43.2924 29.4579 43.2924 29.3583 43.3671 29.2837L43.5663 28.96C43.3422 28.9351 43.168 28.736 43.168 28.5119C43.168 28.3377 43.2675 28.1883 43.392 28.1136L44.5621 27.4415C44.5621 27.4415 44.7114 27.3668 44.7861 27.3668C45.035 27.3668 45.2342 27.5659 45.2342 27.8149C45.2342 27.8896 45.2342 27.9891 45.1595 28.0638L45.0599 28.2132L51.2089 24.6533C51.2089 24.6533 51.3582 24.5786 51.4329 24.5786C51.6819 24.5786 51.881 24.7778 51.881 25.0267C51.881 25.1761 51.8063 25.3006 51.7067 25.4001L49.8646 26.844L51.3333 25.9976C51.3333 25.9976 51.4827 25.9229 51.5574 25.9229C51.8063 25.9229 52.0055 26.1221 52.0055 26.371C52.0055 26.4955 51.9557 26.6448 51.8312 26.7195L50.0139 28.2132L51.4578 27.3917C51.4578 27.3917 51.6072 27.3419 51.6819 27.3419C51.9308 27.3419 52.1299 27.541 52.1299 27.79C52.1299 27.9145 52.0802 28.0389 51.9806 28.1385L50.2131 29.6571L53.6983 27.6406C53.6983 27.6406 53.8477 27.5908 53.9223 27.5908C54.1713 27.5908 54.3704 27.79 54.3704 28.0389C54.3704 28.1634 54.3207 28.2879 54.2211 28.3875L51.0595 31.2005L53.2751 29.906C53.2751 29.906 53.4245 29.8313 53.524 29.8313C53.773 29.8313 53.9721 30.0305 53.9721 30.2794C53.9721 30.4039 53.9223 30.5284 53.8228 30.6031L50.6363 33.6402C50.6363 33.6402 50.6861 33.69 50.711 33.7398C50.7608 33.8144 50.7608 33.8891 50.7608 33.9638C50.7608 34.1381 50.6861 34.2874 50.5367 34.3621L48.7941 35.3579C48.7941 35.3579 48.6447 35.4077 48.5701 35.4077V35.4824Z" fill="#75C9DC"/>
<path d="M46.1335 27.8399C45.8846 27.8399 45.6854 27.6407 45.6854 27.3918C45.6854 27.2673 45.7352 27.1428 45.8348 27.0432L47.0297 26.0226L46.258 26.4707C46.258 26.4707 46.1086 26.5205 46.034 26.5205C45.785 26.5205 45.5859 26.3213 45.5859 26.0724C45.5859 25.9479 45.6357 25.8234 45.7352 25.7238L46.9302 24.7032L46.1584 25.1513C46.1584 25.1513 46.0091 25.2011 45.9344 25.2011C45.6854 25.2011 45.4863 25.0019 45.4863 24.753C45.4863 24.6285 45.5361 24.5289 45.6108 24.4293L47.8264 22.0893L45.7103 23.3091C45.7103 23.3091 45.561 23.3589 45.4863 23.3589C45.2373 23.3589 45.0382 23.1597 45.0382 22.9108C45.0382 22.7863 45.088 22.6369 45.2124 22.5622L45.3867 22.4129C45.3867 22.4129 45.312 22.4129 45.2622 22.4129C45.0133 22.4129 44.8141 22.2137 44.8141 21.9648C44.8141 21.8403 44.8639 21.6909 44.9884 21.6163L45.2622 21.3922L45.1378 21.4669C45.1378 21.4669 44.9884 21.5167 44.9137 21.5167C44.6648 21.5167 44.4656 21.3175 44.4656 21.0686C44.4656 20.9441 44.5154 20.8196 44.615 20.7201L45.3618 20.0728L44.7146 20.4462C44.7146 20.4462 44.5652 20.5209 44.4905 20.5209C44.2416 20.5209 44.0424 20.3218 44.0424 20.0728C44.0424 19.9483 44.0922 19.8239 44.1669 19.7492L45.7601 18.131L44.0424 19.1268C44.0424 19.1268 43.893 19.2015 43.8184 19.2015C43.5694 19.2015 43.3703 19.0023 43.3703 18.7534C43.3703 18.6289 43.4201 18.5045 43.5196 18.4049L44.615 17.3842L43.3952 18.0813C43.3952 18.0813 43.2458 18.131 43.1711 18.131C42.9222 18.131 42.723 17.9319 42.723 17.6829C42.723 17.5585 42.7728 17.434 42.8724 17.3593L43.7935 16.5129L42.7479 17.1104C42.7479 17.1104 42.5985 17.1602 42.5239 17.1602C42.2749 17.1602 42.0758 16.961 42.0758 16.7121C42.0758 16.6125 42.1255 16.488 42.1753 16.4133L43.9926 14.2973L41.553 15.7163C41.553 15.7163 41.4036 15.7661 41.3289 15.7661C41.08 15.7661 40.8808 15.5669 40.8808 15.318C40.8808 15.1935 40.9306 15.0939 41.0053 14.9944L42.4741 13.4758L40.4825 14.6458C40.4825 14.6458 40.3331 14.7205 40.2336 14.7205C39.9846 14.7205 39.7855 14.5214 39.7855 14.2724C39.7855 14.1479 39.8353 14.0235 39.9348 13.9239L41.1049 12.8036L39.4121 13.7745C39.4121 13.7745 39.2627 13.8492 39.188 13.8492C38.9391 13.8492 38.7399 13.6501 38.7399 13.4011C38.7399 13.2766 38.7897 13.1771 38.8644 13.1024L40.5074 11.31L37.9433 12.7788C37.9433 12.7788 37.7939 12.8285 37.7192 12.8285C37.4703 12.8285 37.2711 12.6294 37.2711 12.3804C37.2711 12.256 37.3209 12.1315 37.4205 12.0319L38.1922 11.3598L36.8479 12.1315C36.8479 12.1315 36.6986 12.1813 36.6239 12.1813C36.3749 12.1813 36.1758 11.9821 36.1758 11.7332C36.1758 11.6087 36.2256 11.4842 36.3251 11.4096L38.0429 9.86611C38.0429 9.86611 37.9682 9.81632 37.9433 9.79142C37.8437 9.71674 37.7939 9.56737 37.7939 9.4429C37.7939 9.39311 37.7939 9.31843 37.8188 9.26864L38.6154 7.32688C38.6154 7.32688 38.5656 7.17751 38.5656 7.07793C38.5656 6.90367 38.6403 6.75431 38.7897 6.67962L39.0386 6.53026C39.0386 6.53026 39.188 6.48047 39.2627 6.48047C39.5116 6.48047 39.7108 6.67962 39.7108 6.92857C39.7108 6.97836 39.7108 7.05304 39.6859 7.10283L39.1631 8.37244L40.6319 7.52603C40.6319 7.52603 40.7812 7.47624 40.8559 7.47624C41.1049 7.47624 41.304 7.6754 41.304 7.92434C41.304 8.04882 41.2542 8.17329 41.1547 8.24797L40.1838 9.11927L41.7521 8.22308C41.7521 8.22308 41.9015 8.17329 41.9762 8.17329C42.2251 8.17329 42.4243 8.37244 42.4243 8.62139C42.4243 8.74586 42.3745 8.87033 42.2749 8.96991L41.5032 9.64206L42.6483 8.96991C42.6483 8.96991 42.7977 8.92012 42.8724 8.92012C43.1213 8.92012 43.3205 9.11928 43.3205 9.36822C43.3205 9.49269 43.2707 9.59227 43.196 9.66695L41.553 11.4593L43.9428 10.0902C43.9428 10.0902 44.1171 9.99058 44.2167 9.99058C44.4656 9.99058 44.6648 10.1897 44.6648 10.4387C44.6648 10.588 44.5901 10.7125 44.4905 10.8121L43.3205 11.9323L44.9137 11.0112C44.9137 11.0112 45.0631 10.9615 45.1378 10.9615C45.3867 10.9615 45.5859 11.1606 45.5859 11.4096C45.5859 11.534 45.5361 11.6336 45.4614 11.7332L43.9926 13.2517L45.8846 12.1564C45.8846 12.1564 46.034 12.1066 46.1086 12.1066C46.3576 12.1066 46.5567 12.3058 46.5567 12.5547C46.5567 12.6543 46.507 12.7788 46.4572 12.8534L44.6399 14.9695L47.0546 13.5754C47.0546 13.5754 47.204 13.5256 47.2787 13.5256C47.5276 13.5256 47.7268 13.7247 47.7268 13.9737C47.7268 14.0982 47.677 14.2226 47.5774 14.2973L46.6563 15.1437L47.6521 14.5711C47.6521 14.5711 47.8015 14.4965 47.8761 14.4965C48.1251 14.4965 48.3242 14.6956 48.3242 14.9446C48.3242 15.069 48.2745 15.1935 48.1749 15.2931L47.0795 16.3138L48.2994 15.6167C48.2994 15.6167 48.4487 15.5669 48.5234 15.5669C48.7723 15.5669 48.9715 15.7661 48.9715 16.015C48.9715 16.1395 48.9217 16.2391 48.847 16.3386L47.2538 17.9319L49.0213 16.9112C49.0213 16.9112 49.1707 16.8614 49.2453 16.8614C49.4943 16.8614 49.6934 17.0606 49.6934 17.3095C49.6934 17.434 49.6437 17.5585 49.5441 17.6581L48.7972 18.3053L49.4445 17.9319C49.4445 17.9319 49.5939 17.8572 49.6685 17.8572C49.9175 17.8572 50.1166 18.0564 50.1166 18.3053C50.1166 18.4298 50.0669 18.5791 49.9424 18.6538L49.6685 18.8779L49.793 18.8032C49.793 18.8032 49.9424 18.7534 50.0171 18.7534C50.266 18.7534 50.4652 18.9526 50.4652 19.2015C50.4652 19.326 50.4154 19.4753 50.2909 19.55L50.1664 19.6496C50.1664 19.6496 50.2909 19.5998 50.3656 19.5998C50.6145 19.5998 50.8137 19.799 50.8137 20.0479C50.8137 20.1724 50.7639 20.272 50.6892 20.3715L48.4736 22.7116L50.6145 21.4669C50.6145 21.4669 50.7639 21.4171 50.8386 21.4171C51.0875 21.4171 51.2867 21.6163 51.2867 21.8652C51.2867 21.9897 51.2369 22.1142 51.1373 22.2137L49.9424 23.2344L50.9133 22.6867C50.9133 22.6867 51.0626 22.6369 51.1373 22.6369C51.3863 22.6369 51.5854 22.8361 51.5854 23.085C51.5854 23.2095 51.5356 23.334 51.436 23.4336L50.2411 24.4542L51.1373 23.9314C51.1373 23.9314 51.2867 23.8817 51.3614 23.8817C51.6103 23.8817 51.8095 24.0808 51.8095 24.3298C51.8095 24.4791 51.7348 24.6534 51.5854 24.7281L46.4074 27.7154C46.4074 27.7154 46.258 27.7652 46.1833 27.7652L46.1335 27.8399Z" fill="#75C9DC"/>
<path d="M28.1056 12.2307C27.8566 12.2307 27.6575 12.0315 27.6575 11.7826C27.6575 11.6581 27.7073 11.5337 27.8068 11.4341L30.8191 8.82016L28.1056 10.3885C28.1056 10.3885 27.9562 10.4632 27.8815 10.4632C27.6326 10.4632 27.4334 10.264 27.4334 10.0151C27.4334 9.86573 27.5081 9.74126 27.6077 9.66657L28.9769 8.57122L26.3132 10.1147C26.3132 10.1147 26.1638 10.1645 26.0891 10.1645C25.8402 10.1645 25.641 9.96531 25.641 9.71636C25.641 9.59189 25.6908 9.44252 25.8153 9.36784L28.2549 7.35139L21.4339 11.2847C21.4339 11.2847 21.2845 11.3594 21.2098 11.3594C20.9609 11.3594 20.7617 11.1602 20.7617 10.9113C20.7617 10.737 20.8613 10.5877 20.9858 10.513L32.487 3.81639C32.487 3.81639 32.6363 3.7666 32.711 3.7666C32.96 3.7666 33.1591 3.96576 33.1591 4.2147C33.1591 4.33917 33.1093 4.48854 32.9849 4.56322L30.5452 6.57967L33.6072 4.81217C33.6072 4.81217 33.7566 4.76238 33.8313 4.76238C34.0802 4.76238 34.2794 4.96153 34.2794 5.21048C34.2794 5.35984 34.2047 5.48432 34.1051 5.559L32.7359 6.65435L34.5283 5.60879C34.5283 5.60879 34.6777 5.5341 34.7524 5.5341C35.0013 5.5341 35.2005 5.73326 35.2005 5.9822C35.2005 6.10667 35.1507 6.23115 35.0511 6.33072L32.0389 8.91974L33.5823 8.02354C33.5823 8.02354 33.7317 7.97375 33.8064 7.97375C34.0553 7.97375 34.2545 8.17291 34.2545 8.42185C34.2545 8.57122 34.1798 8.74548 34.0304 8.82016L28.2798 12.1311C28.2798 12.1311 28.1305 12.1809 28.0558 12.1809L28.1056 12.2307Z" fill="#356E92"/>
<path d="M27.9403 3.99097C27.6913 3.99097 27.4922 3.79181 27.4922 3.54287C27.4922 3.46818 27.4922 3.3935 27.542 3.31882L28.015 2.4973C27.7909 2.4973 27.5918 2.27325 27.5918 2.0492C27.5918 1.87494 27.6913 1.72558 27.8158 1.65089L28.9361 1.00364C28.9361 1.00364 29.0854 0.928955 29.1601 0.928955C29.4091 0.928955 29.6082 1.12811 29.6082 1.37705C29.6082 1.45174 29.6082 1.52642 29.5584 1.6011L29.1601 2.27325L30.0812 1.75047C30.0812 1.75047 30.2306 1.67579 30.3053 1.67579C30.5542 1.67579 30.7534 1.87494 30.7534 2.12389C30.7534 2.29815 30.6538 2.44751 30.5293 2.5222L28.1145 3.91628C28.1145 3.91628 27.9652 3.96607 27.8905 3.96607L27.9403 3.99097Z" fill="#356E92"/>
<path d="M11.3539 19.8738C11.105 19.8738 10.9058 19.6746 10.9058 19.4257C10.9058 19.3261 10.9307 19.2265 11.0054 19.1519L12.4742 17.3097L10.3582 18.5295C10.3582 18.5295 10.2088 18.6042 10.1092 18.6042C9.86028 18.6042 9.66112 18.405 9.66112 18.1561C9.66112 18.0067 9.73581 17.8574 9.88517 17.7578L17.2788 12.9781L9.08855 17.708C9.08855 17.708 8.93919 17.7827 8.83961 17.7827C8.59067 17.7827 8.39151 17.5835 8.39151 17.3346C8.39151 17.1852 8.46619 17.0358 8.61556 16.9363L16.283 11.9574L7.24637 17.1852C7.24637 17.1852 7.097 17.235 7.02232 17.235C6.77337 17.235 6.57422 17.0358 6.57422 16.7869C6.57422 16.6375 6.6489 16.4882 6.77337 16.4135L12.3497 12.754L8.71514 14.8451C8.71514 14.8451 8.56577 14.8949 8.49109 14.8949C8.24214 14.8949 8.04299 14.6958 8.04299 14.4468C8.04299 14.2975 8.11767 14.1481 8.24214 14.0734L10.408 12.6544C10.408 12.6544 10.3333 12.6544 10.2835 12.6544C10.0345 12.6544 9.83539 12.4553 9.83539 12.2063C9.83539 12.057 9.91007 11.9076 10.0345 11.8329L13.2957 9.49284C13.2957 9.49284 13.1961 9.39326 13.1712 9.34347C13.1214 9.26879 13.1214 9.1941 13.1214 9.11942C13.1214 8.94516 13.221 8.79579 13.3455 8.72111L18.6231 5.68399C18.6231 5.68399 18.7725 5.60931 18.8472 5.60931C19.0961 5.60931 19.2953 5.80847 19.2953 6.05741C19.2953 6.20678 19.2206 6.35614 19.0961 6.43083L18.0007 7.20255L23.129 4.24012C23.129 4.24012 23.2784 4.19033 23.353 4.19033C23.602 4.19033 23.8011 4.38949 23.8011 4.63843C23.8011 4.7878 23.7265 4.93716 23.602 5.01184L21.6602 6.28146L25.8425 3.8667C25.8425 3.8667 25.9918 3.81691 26.0665 3.81691C26.3155 3.81691 26.5146 4.01607 26.5146 4.26501C26.5146 4.41438 26.4399 4.56375 26.3155 4.63843L20.7391 8.29791L30.8712 2.39793C30.8712 2.39793 31.0205 2.34814 31.0952 2.34814C31.3441 2.34814 31.5433 2.5473 31.5433 2.79624C31.5433 2.94561 31.4686 3.09498 31.3441 3.16966L23.6767 8.14854L31.9914 3.34392C31.9914 3.34392 32.1408 3.26924 32.2403 3.26924C32.4893 3.26924 32.6884 3.46839 32.6884 3.71734C32.6884 3.8667 32.6138 4.01607 32.4644 4.11565L14.7396 15.6418C14.7396 15.6418 14.7396 15.6666 14.7396 15.6915C14.7396 15.7911 14.7147 15.8907 14.64 15.9654L12.3497 18.878C12.3497 18.878 12.3995 19.0025 12.3995 19.0772C12.3995 19.2514 12.3248 19.4008 12.1755 19.4755L11.6029 19.7991C11.6029 19.7991 11.4535 19.8738 11.3788 19.8738H11.3539Z" fill="#356E92"/>
<path d="M28.4051 51.9377C28.1562 51.9377 27.957 51.7386 27.957 51.4896C27.957 51.3154 28.0317 51.166 28.1811 51.0913L47.8228 39.7644C47.8228 39.7644 47.9721 39.7146 48.0468 39.7146C48.2958 39.7146 48.4949 39.9138 48.4949 40.1627C48.4949 40.3121 48.4202 40.4614 48.2958 40.5361L41.1013 45.6395L45.184 43.2994C45.184 43.2994 45.3333 43.2496 45.408 43.2496C45.6569 43.2496 45.8561 43.4488 45.8561 43.6977C45.8561 43.8471 45.7814 43.9715 45.6569 44.0711L42.7692 46.0876C42.7692 46.0876 42.8439 46.1623 42.8688 46.212C42.9186 46.2867 42.9186 46.3614 42.9186 46.4361C42.9186 46.6103 42.8439 46.7597 42.6945 46.8344L37.0186 50.1205C37.0186 50.1205 36.8692 50.1702 36.7945 50.1702C36.5456 50.1702 36.3464 49.9711 36.3464 49.7221C36.3464 49.5728 36.4211 49.4483 36.5456 49.3487L33.0604 51.3403C32.9857 51.3901 32.911 51.3901 32.8363 51.3901C32.5874 51.3901 32.3882 51.1909 32.3882 50.942C32.3882 50.7926 32.4629 50.6432 32.5874 50.5686L39.7819 45.4652L28.6292 51.888C28.6292 51.888 28.4798 51.9377 28.4051 51.9377Z" fill="#2AA4DB"/>
<path d="M39.2567 42.5274C39.0077 42.5274 38.8086 42.3282 38.8086 42.0793C38.8086 41.9299 38.8833 41.8054 38.9829 41.7058L41.8208 39.5151C41.7461 39.4405 41.6963 39.316 41.6963 39.2164C41.6963 39.1168 41.7212 39.0172 41.7959 38.9426L43.5883 36.478C43.5883 36.478 43.5883 36.4033 43.5883 36.3535C43.5883 36.1793 43.6879 36.0299 43.8124 35.9552L44.1858 35.7312C44.1858 35.7312 44.3352 35.6814 44.4098 35.6814C44.6588 35.6814 44.8579 35.8806 44.8579 36.1295C44.8579 36.2291 44.833 36.3287 44.7584 36.4033L43.7875 37.7227L45.2065 36.9012C45.2065 36.9012 45.3558 36.8514 45.4305 36.8514C45.6794 36.8514 45.8786 37.0506 45.8786 37.2995C45.8786 37.4489 45.8039 37.5734 45.7043 37.6481L44.8081 38.3451L46.0529 37.6232C46.0529 37.6232 46.2022 37.5485 46.3018 37.5485C46.5508 37.5485 46.7499 37.7476 46.7499 37.9966C46.7499 38.1708 46.6503 38.3202 46.501 38.3949L39.4807 42.4527C39.4807 42.4527 39.3314 42.5025 39.2567 42.5025V42.5274Z" fill="#2AA4DB"/>
<path d="M26.3648 54.5763C26.1158 54.5763 25.9167 54.3771 25.9167 54.1282C25.9167 53.9788 25.9913 53.8295 26.1158 53.7548L36.1731 47.0831L25.1698 53.4312C25.1698 53.4312 25.0205 53.4809 24.9458 53.4809C24.6968 53.4809 24.4977 53.2818 24.4977 53.0328C24.4977 52.8835 24.5724 52.7341 24.6968 52.6594L30.1487 49.1742L24.1989 52.6096C24.1989 52.6096 24.0496 52.6594 23.9749 52.6594C23.7259 52.6594 23.5268 52.4603 23.5268 52.2113C23.5268 52.062 23.6015 51.9375 23.7011 51.8379L26.8626 49.4481L23.0787 51.6388C23.0787 51.6388 22.9293 51.7134 22.8546 51.7134C22.6057 51.7134 22.4065 51.5143 22.4065 51.2653C22.4065 51.1409 22.4563 51.0164 22.5559 50.9168L25.1947 48.4523L21.7344 50.4438C21.7344 50.4438 21.585 50.4936 21.5103 50.4936C21.2614 50.4936 21.0622 50.2945 21.0622 50.0455C21.0622 49.921 21.112 49.7966 21.2116 49.697L24.1989 47.0582L20.9378 48.9502C20.9378 48.9502 20.7884 49 20.7137 49C20.4648 49 20.2656 48.8008 20.2656 48.5519C20.2656 48.4274 20.3154 48.278 20.4399 48.2033L24.7715 44.6185C24.7715 44.6185 24.7217 44.4941 24.7217 44.4194C24.7217 44.27 24.7964 44.1207 24.9458 44.0211L26.7133 43.0004C26.7133 43.0004 26.8626 42.9257 26.9373 42.9257C27.1863 42.9257 27.3854 43.1249 27.3854 43.3738C27.3854 43.4983 27.3356 43.6477 27.2112 43.7223L25.1947 45.3903L27.6593 43.9713C27.6593 43.9713 27.8086 43.9215 27.8833 43.9215C28.1323 43.9215 28.3314 44.1207 28.3314 44.3696C28.3314 44.4941 28.2816 44.6185 28.182 44.7181L25.1947 47.3569L28.182 45.6392C28.182 45.6392 28.3314 45.5645 28.4061 45.5645C28.655 45.5645 28.8542 45.7637 28.8542 46.0126C28.8542 46.1371 28.8044 46.2616 28.7048 46.3611L26.066 48.8257L32.9369 44.8675C32.9369 44.8675 33.0862 44.8177 33.1609 44.8177C33.4099 44.8177 33.609 45.0168 33.609 45.2658C33.609 45.4152 33.5343 45.5396 33.4348 45.6392L30.2732 48.0291L47.3009 38.1958C47.3009 38.1958 47.4503 38.146 47.525 38.146C47.7739 38.146 47.9731 38.3452 47.9731 38.5941C47.9731 38.7435 47.8984 38.8928 47.7739 38.9675L42.2972 42.4527L48.2718 38.9924C48.2718 38.9924 48.4212 38.9426 48.4959 38.9426C48.7448 38.9426 48.944 39.1418 48.944 39.3907C48.944 39.5401 48.8693 39.6895 48.7448 39.7641L28.2567 53.3814C28.2567 53.3814 28.1571 53.5805 28.0576 53.6552L26.5888 54.5016C26.5888 54.5016 26.4394 54.5514 26.3648 54.5514V54.5763Z" fill="#2AA4DB"/>
<path d="M10.0848 28.2632C9.83587 28.2632 9.63672 28.0641 9.63672 27.8151C9.63672 27.6408 9.7114 27.4915 9.86077 27.4168L12.1013 26.1223C12.1013 26.1223 12.2506 26.0476 12.3253 26.0476C12.5743 26.0476 12.7734 26.2468 12.7734 26.4957C12.7734 26.67 12.6738 26.8193 12.5494 26.894L10.3089 28.1885C10.3089 28.1885 10.1595 28.2383 10.0848 28.2383V28.2632Z" fill="#4D88A9"/>
<path d="M16.7055 49.1243C16.4566 49.1243 16.2574 48.9251 16.2574 48.6762C16.2574 48.6264 16.2574 48.5517 16.2823 48.5019L16.6557 47.531L15.5106 48.1783C15.5106 48.1783 15.3612 48.2281 15.2865 48.2281C15.0376 48.2281 14.8384 48.0289 14.8384 47.78C14.8384 47.6555 14.8882 47.531 14.9878 47.4563L16.4068 46.0623L14.1912 47.3319C14.1912 47.3319 14.0418 47.3817 13.9671 47.3817C13.7182 47.3817 13.519 47.1825 13.519 46.9336C13.519 46.8091 13.5688 46.6846 13.6684 46.585L14.2908 46.0374L13.3199 46.585C13.3199 46.585 13.1705 46.6348 13.0958 46.6348C12.8469 46.6348 12.6477 46.4357 12.6477 46.1867C12.6477 46.0623 12.6975 45.9378 12.7971 45.8631L13.6186 45.1163L12.3988 45.8133C12.3988 45.8133 12.2494 45.8631 12.1747 45.8631C11.9258 45.8631 11.7266 45.6639 11.7266 45.415C11.7266 45.2905 11.7764 45.191 11.8511 45.1163L13.5688 43.1745L11.1043 44.5935C11.1043 44.5935 10.9549 44.6433 10.8802 44.6433C10.6313 44.6433 10.4321 44.4441 10.4321 44.1952C10.4321 44.0707 10.4819 43.9213 10.6064 43.8467L10.8055 43.6724L10.5068 43.8467C10.5068 43.8467 10.3574 43.8964 10.2828 43.8964C10.0338 43.8964 9.83466 43.6973 9.83466 43.4483C9.83466 43.3239 9.88445 43.1745 10.0089 43.0998L10.0587 43.05L9.93424 43.1247C9.93424 43.1247 9.78487 43.1745 9.71019 43.1745C9.46124 43.1745 9.26209 42.9754 9.26209 42.7264C9.26209 42.6019 9.31188 42.4775 9.41146 42.4028L10.3574 41.5315L9.16251 42.2285C9.16251 42.2285 9.01315 42.2783 8.93846 42.2783C8.68952 42.2783 8.49036 42.0792 8.49036 41.8302C8.49036 41.7057 8.54015 41.6062 8.61484 41.5066L10.2081 39.8636L8.341 40.934C8.341 40.934 8.19163 40.9838 8.11695 40.9838C7.868 40.9838 7.66885 40.7846 7.66885 40.5357C7.66885 40.4112 7.71864 40.3117 7.79332 40.2121L9.53593 38.345L7.49459 39.5399C7.49459 39.5399 7.34522 39.5897 7.27054 39.5897C7.02159 39.5897 6.82244 39.3906 6.82244 39.1416C6.82244 39.0171 6.87223 38.9176 6.94691 38.818L8.7891 36.8513L6.77265 38.0214C6.77265 38.0214 6.62328 38.0712 6.5486 38.0712C6.29966 38.0712 6.1005 37.872 6.1005 37.6231C6.1005 37.4986 6.15029 37.399 6.22497 37.2994L7.94269 35.5568L6.17518 36.5775C6.17518 36.5775 6.02582 36.6273 5.95113 36.6273C5.70219 36.6273 5.50304 36.4281 5.50304 36.1792C5.50304 36.0547 5.55282 35.9551 5.62751 35.8556L7.56927 33.8889L5.62751 35.0091C5.62751 35.0091 5.47814 35.0589 5.40346 35.0589C5.15451 35.0589 4.95536 34.8598 4.95536 34.6108C4.95536 34.4864 5.00515 34.3619 5.10473 34.2623L6.07561 33.4159L5.32877 33.8391C5.32877 33.8391 5.17941 33.9138 5.10473 33.9138C4.85578 33.9138 4.65663 33.7146 4.65663 33.4657C4.65663 33.3412 4.70642 33.2168 4.80599 33.1421L6.89712 31.1007L4.95536 32.221C4.95536 32.221 4.80599 32.2708 4.73131 32.2708C4.48237 32.2708 4.28321 32.0716 4.28321 31.8227C4.28321 31.6982 4.333 31.5737 4.43258 31.4741L7.868 28.5615L4.7562 30.3539C4.7562 30.3539 4.60684 30.4037 4.53215 30.4037C4.28321 30.4037 4.08406 30.2045 4.08406 29.9556C4.08406 29.8062 4.15874 29.6817 4.25832 29.6071L5.77687 28.4121L4.63173 29.0594C4.63173 29.0594 4.48237 29.1092 4.40768 29.1092C4.15874 29.1092 3.95958 28.91 3.95958 28.6611C3.95958 28.5366 4.00937 28.4121 4.10895 28.3375L6.74776 25.9227L2.9887 28.0885C2.9887 28.0885 2.83934 28.1383 2.76465 28.1383C2.51571 28.1383 2.31655 27.9391 2.31655 27.6902C2.31655 27.5657 2.36634 27.4164 2.49081 27.3417L4.40768 25.7982L1.91824 27.2421C1.91824 27.2421 1.76888 27.3168 1.69419 27.3168C1.44525 27.3168 1.24609 27.1176 1.24609 26.8687C1.24609 26.7442 1.29588 26.5948 1.42035 26.5202L4.13384 24.2299L3.76043 24.4539C3.76043 24.4539 3.61106 24.5286 3.51148 24.5286C3.26254 24.5286 3.06338 24.3295 3.06338 24.0805C3.06338 23.956 3.11317 23.8316 3.21275 23.732L5.47814 21.5911C5.47814 21.5911 5.42835 21.4168 5.42835 21.3421C5.42835 21.1679 5.52793 21.0185 5.6524 20.9438L7.04649 20.1472C7.04649 20.1472 7.19585 20.0725 7.29543 20.0725C7.54438 20.0725 7.74353 20.2717 7.74353 20.5206C7.74353 20.6451 7.69374 20.7696 7.59416 20.8691L6.69797 21.7155L8.09205 20.9189C8.09205 20.9189 8.24142 20.8691 8.3161 20.8691C8.56505 20.8691 8.7642 21.0683 8.7642 21.3172C8.7642 21.4417 8.71441 21.5911 8.61484 21.6658L5.90135 23.956L9.11272 22.1139C9.11272 22.1139 9.26209 22.0392 9.33677 22.0392C9.58572 22.0392 9.78487 22.2383 9.78487 22.4873C9.78487 22.6366 9.71019 22.7611 9.61061 22.8358L7.69374 24.3792L9.95913 23.0598C9.95913 23.0598 10.1085 23.01 10.1832 23.01C10.4321 23.01 10.6313 23.2092 10.6313 23.4581C10.6313 23.5826 10.5815 23.7071 10.4819 23.7818L7.84311 26.1965L11.0545 24.3295C11.0545 24.3295 11.2039 24.2548 11.2785 24.2548C11.5275 24.2548 11.7266 24.4539 11.7266 24.7029C11.7266 24.8522 11.652 24.9767 11.5524 25.0763L10.0338 26.2712L11.8262 25.2257C11.8262 25.2257 11.9756 25.1759 12.0503 25.1759C12.2992 25.1759 12.4984 25.375 12.4984 25.624C12.4984 25.7484 12.4486 25.8729 12.349 25.9725L8.91357 28.8851L9.6604 28.4619C9.6604 28.4619 9.80977 28.3872 9.88445 28.3872C10.1334 28.3872 10.3325 28.5864 10.3325 28.8353C10.3325 28.9598 10.2828 29.0843 10.1832 29.159L8.09205 31.2003L9.78487 30.2294C9.78487 30.2294 9.93424 30.1796 10.0089 30.1796C10.2579 30.1796 10.457 30.3788 10.457 30.6277C10.457 30.7522 10.4072 30.8767 10.3077 30.9763L9.33677 31.8227L10.0587 31.3995C10.0587 31.3995 10.2081 31.3497 10.2828 31.3497C10.5317 31.3497 10.7309 31.5488 10.7309 31.7978C10.7309 31.9222 10.6811 32.0218 10.6064 32.1214L8.66462 34.0881L10.4819 33.0425C10.4819 33.0425 10.6313 32.9927 10.706 32.9927C10.9549 32.9927 11.1541 33.1919 11.1541 33.4408C11.1541 33.5653 11.1043 33.6648 11.0296 33.7644L9.31188 35.507L11.0794 34.4864C11.0794 34.4864 11.2287 34.4366 11.3034 34.4366C11.5524 34.4366 11.7515 34.6357 11.7515 34.8847C11.7515 35.0091 11.7017 35.1087 11.6271 35.2083L9.78487 37.175L11.7764 36.0298C11.7764 36.0298 11.9258 35.9551 12.0005 35.9551C12.2494 35.9551 12.4486 36.1543 12.4486 36.4032C12.4486 36.5277 12.3988 36.6273 12.3241 36.702L10.5815 38.569L12.6477 37.3741C12.6477 37.3741 12.7971 37.3243 12.8718 37.3243C13.1207 37.3243 13.3199 37.5235 13.3199 37.7724C13.3199 37.8969 13.2701 37.9965 13.1954 38.0961L11.6022 39.7391L13.519 38.6188C13.519 38.6188 13.6684 38.569 13.7431 38.569C13.992 38.569 14.1912 38.7682 14.1912 39.0171C14.1912 39.1416 14.1414 39.2661 14.0418 39.3408L13.0958 40.2121L14.3157 39.515C14.3157 39.515 14.465 39.4652 14.5397 39.4652C14.7886 39.4652 14.9878 39.6644 14.9878 39.9133C14.9878 40.0378 14.938 40.1872 14.8135 40.2619L14.7638 40.3117L14.9131 40.237C14.9131 40.237 15.0625 40.1623 15.1372 40.1623C15.3861 40.1623 15.5853 40.3614 15.5853 40.6104C15.5853 40.7349 15.5355 40.8842 15.411 40.9589L15.2119 41.1332L15.6351 40.8842C15.6351 40.8842 15.7844 40.8344 15.8591 40.8344C16.108 40.8344 16.3072 41.0336 16.3072 41.2825C16.3072 41.3821 16.2574 41.5066 16.1827 41.5813L14.465 43.523L17.0042 42.0543C17.0042 42.0543 17.1536 42.0045 17.2283 42.0045C17.4772 42.0045 17.6764 42.2036 17.6764 42.4526C17.6764 42.577 17.6266 42.7015 17.527 42.7762L16.7055 43.523L18.0996 42.7264C18.0996 42.7264 18.249 42.6766 18.3237 42.6766C18.5726 42.6766 18.7717 42.8758 18.7717 43.1247C18.7717 43.2492 18.722 43.3737 18.6224 43.4732L18 44.0209L19.1701 43.3488C19.1701 43.3488 19.3194 43.299 19.3941 43.299C19.6431 43.299 19.8422 43.4981 19.8422 43.7471C19.8422 43.8716 19.7924 43.996 19.6928 44.0707L17.8009 45.9378C17.9751 46.0125 18.0996 46.1867 18.0996 46.361C18.0996 46.4108 18.0996 46.4855 18.0747 46.5353L17.4523 48.1534C17.4523 48.1534 17.5021 48.3276 17.5021 48.4023C17.5021 48.5766 17.4026 48.726 17.2781 48.8006L17.0291 48.95C17.0291 48.95 16.8798 48.9998 16.8051 48.9998L16.7055 49.1243Z" fill="#4D88A9"/>
<path d="M39.3845 7.70048C46.5043 11.9823 50.9106 19.6747 50.9604 27.9894C50.9604 28.1388 51.2591 28.1886 51.3587 28.1886H52.8773C54.1718 28.3877 53.5494 29.5329 53.0266 30.1552L51.284 32.1717L49.5912 34.1383C49.1929 34.6113 49.1182 34.8354 48.5208 34.3126C47.3756 33.1426 46.3052 31.8978 45.3343 30.6033C44.9609 30.2299 44.6123 29.8316 44.2887 29.4084C43.4423 27.9396 45.0107 28.1886 45.882 28.1886C46.2056 28.1886 46.8031 28.0392 46.8031 27.6409C46.7284 20.7949 42.8946 14.5215 36.8453 11.3102C38.0651 10.414 38.9613 9.14435 39.3845 7.70048ZM35.4761 11.7832C41.3761 14.7954 45.2098 20.7949 45.4588 27.4168C45.3592 27.4168 45.2845 27.4168 45.1849 27.4168C44.8115 27.4168 44.4381 27.4666 44.0896 27.5413C43.3427 27.6658 42.795 28.3379 42.795 29.0848C42.795 29.3088 42.8448 29.508 42.9195 29.7071C43.2432 30.205 43.6166 30.6531 44.0647 31.0763C44.7617 31.8729 45.4339 32.6696 46.1309 33.4662C47.1267 34.6113 48.222 36.2792 49.9646 35.1092C50.3878 34.7607 50.7862 34.3375 51.1098 33.8894L53.1262 31.5493C53.649 30.9518 54.2216 30.3793 54.6946 29.732C54.8937 29.4831 55.0182 29.1843 55.0182 28.8607C55.0182 28.1637 54.4705 27.5662 53.7735 27.4915C53.7486 27.4915 53.6988 27.4915 53.6739 27.4915H53.649C53.649 27.4915 53.5743 27.4915 53.5245 27.4915H52.3296C52.1802 18.6789 47.2263 10.6131 39.4343 6.50555C39.1854 6.35618 38.2394 6.50555 38.2394 6.90386C38.2394 8.97009 36.9698 10.165 35.5259 11.4097C35.3765 11.5342 35.3267 11.7334 35.5259 11.8578L35.4761 11.7832Z" fill="#262726"/>
<path d="M27.4584 4.36425C27.7074 4.36425 28.5538 4.26467 28.5538 3.91615C28.5538 3.39337 28.28 1.52629 29.1762 1.87481C29.7736 2.27312 30.3462 2.74612 30.8192 3.29379L33.2588 5.40982C33.7816 5.85792 34.6031 6.33091 34.5036 7.12753C34.4289 7.79968 33.6323 8.27267 33.1593 8.67098L30.6947 10.787C30.4707 10.9862 29.5247 12.0815 29.1762 12.0815C28.977 12.0815 28.6534 11.484 28.6036 11.2849C28.5787 11.1355 28.5538 11.0111 28.5538 10.8617C28.5538 10.8119 28.5538 10.7621 28.5538 10.7123C28.5538 10.2891 28.5538 9.84102 28.5538 9.39292C28.5538 9.31824 28.3546 9.29334 28.3297 9.29334C21.4838 9.29334 15.1108 12.8532 11.526 18.7034L11.1775 18.2802C10.2564 17.2596 8.9619 16.6621 7.59271 16.5874C11.4762 9.19377 19.1188 4.51362 27.4584 4.36425ZM9.90789 18.7532L10.9286 19.9233C11.1277 20.1722 12.0737 19.8237 12.1982 19.5747C14.364 15.1933 18.2724 11.8824 22.9526 10.4634C24.1475 10.1646 25.3424 9.9406 26.5871 9.86591C27.2842 9.79123 27.1597 9.66676 27.2344 10.2144C27.2842 10.563 27.1846 10.9364 27.2344 11.3098C27.4087 12.9528 29.3504 12.7537 30.3711 11.9819C32.1137 10.6625 33.7816 9.21866 35.35 7.7001C36.2462 6.85369 35.7732 6.03218 35.0014 5.36003L31.7403 2.57186C30.8939 1.82502 30.147 0.90393 28.9023 1.12798C27.2842 1.42671 27.2344 2.54696 27.2344 3.86636C18.3969 4.23978 10.4058 9.21866 6.19862 16.9857C6.12394 17.1102 6.34799 17.1351 6.42267 17.1351C7.76697 17.1351 9.03659 17.7325 9.90789 18.7532Z" fill="#262726"/>
<path d="M44.3138 36.9759L44.6375 37.3742C45.5337 38.37 46.7535 38.9923 48.0978 39.1417C44.1147 46.4606 36.4721 51.0412 28.1574 51.1657C27.9333 51.1657 27.2363 51.2902 27.2363 51.6387C27.2363 52.1615 27.4852 54.0036 26.6139 53.7298C26.116 53.5804 25.5186 52.7838 25.1202 52.4602L22.6557 50.3442C22.2574 50.0205 21.5355 49.5724 21.3114 49.0497C20.9878 48.2779 21.9338 47.7054 22.4317 47.307L24.8713 45.191C25.2696 44.8425 25.9667 43.9463 26.4894 43.7969C27.4603 43.548 27.2114 45.664 27.2114 46.1619C27.2114 46.386 27.4105 46.4855 27.6346 46.4855C34.4805 46.4855 40.8037 42.851 44.2889 36.9759H44.3138ZM28.2569 43.4733C27.5599 42.6269 26.2654 42.9007 25.4937 43.4733C24.0747 44.5687 22.7304 45.8383 21.3861 47.0083C20.938 47.4066 20.2658 47.8298 20.0418 48.4024C19.7182 49.2239 20.2658 49.7965 20.8384 50.2944C22.3321 51.564 23.776 52.9083 25.2945 54.1281C25.6679 54.4517 26.1658 54.6509 26.6637 54.6509C27.1118 54.6509 27.535 54.5015 27.8835 54.2526C28.6553 53.7049 28.6055 52.7589 28.5806 51.8876C37.3932 51.5391 45.3843 46.5602 49.5665 38.7683C49.7159 38.4944 49.4421 38.3451 49.1931 38.3451C47.9235 38.3451 46.7037 37.7725 45.8573 36.8016C45.5337 36.4033 45.1851 36.0299 44.8615 35.6316C44.5877 35.3328 43.791 35.532 43.6417 35.8805C40.7788 41.6311 35.0033 45.3653 28.5806 45.6391C28.6304 45.44 28.6304 45.2159 28.6304 45.0168C28.6304 44.4691 28.5059 43.9463 28.232 43.4733H28.2569Z" fill="#262726"/>
<path d="M2.21906 26.0724C2.56758 25.5247 3.01568 25.0019 3.48867 24.5538C4.18572 23.7323 4.90765 22.9108 5.6047 22.0892C5.87854 21.7656 6.37642 20.8943 6.77473 20.9192C7.19794 20.9441 7.7954 21.915 8.04435 22.2137L10.1604 24.6783C10.6334 25.1513 11.0566 25.6491 11.4549 26.1968C11.7785 26.6947 11.7785 27.3669 11.2059 27.5411C11.0068 27.566 10.8076 27.5909 10.6334 27.5909C10.4591 27.5909 10.2848 27.5909 10.1106 27.5411C10.0608 27.5411 10.0359 27.5411 9.98611 27.5411C9.98611 27.5411 9.98611 27.5411 9.96122 27.5411H9.88653C9.48822 27.566 8.96544 27.7403 8.96544 28.0141C8.99033 32.7938 10.8823 37.3993 14.2182 40.8347C15.0397 41.6811 15.9608 42.4529 16.9316 43.125C17.3797 43.4237 17.8278 43.7225 18.3008 43.9963C18.3008 43.9963 18.9481 44.3697 19.0975 44.3199C19.0228 44.3946 18.8236 44.5191 18.7987 44.544C18.2262 45.0419 17.6785 45.5647 17.1806 46.1372C16.7823 46.6849 16.5333 47.3322 16.384 47.9794C9.26417 43.6727 4.85787 35.9803 4.80808 27.6656C4.80808 27.5411 4.48445 27.5411 4.43466 27.5411C3.56336 27.5411 1.47223 27.6656 2.19416 26.0972L2.21906 26.0724ZM3.53846 28.1137C3.66293 36.9263 8.56713 44.9672 16.3591 49.0748C16.6329 49.2241 17.6287 49.0748 17.6287 48.6516C17.6287 46.5604 18.9481 45.3655 20.4169 44.0959C20.4667 44.0461 20.5164 43.9465 20.4169 43.8967C14.4422 40.8596 10.5587 34.8103 10.3346 28.0888C10.4093 28.0888 10.5089 28.0888 10.6085 28.0888C11.0815 28.0888 11.5794 27.9892 12.0275 27.8399C12.6249 27.6656 13.0232 27.1179 13.0232 26.5204C13.0232 26.2217 12.9237 25.923 12.7245 25.674C11.6789 24.1804 10.2848 22.8361 9.08991 21.442C8.64181 20.9192 8.2684 20.3217 7.54646 20.2222C7.44688 20.2222 7.3473 20.2222 7.24773 20.2222C6.52579 20.2222 5.85364 20.5209 5.38065 21.0686C4.06124 22.4876 2.84142 24.031 1.5718 25.4998C1.04902 26.0972 0.451557 26.8192 1.09881 27.6158C1.62159 28.288 2.71695 28.1635 3.56336 28.1386L3.53846 28.1137Z" fill="#262726"/>
</g>
<defs>
<clipPath id="clip0_1806_627">
<rect width="54.22" height="53.7221" fill="white" transform="translate(0.78125 0.928955)"/>
</clipPath>
</defs>
</svg>
