<svg width="69" height="13" viewBox="0 0 69 13" fill="none" xmlns="http://www.w3.org/2000/svg">
<g clip-path="url(#clip0_1806_585)">
<path fill-rule="evenodd" clip-rule="evenodd" d="M17.1295 9.37004C17.0495 9.34004 16.9495 9.31004 16.8095 9.31004H16.1195V10.14H16.8095C16.9695 10.14 17.0895 10.11 17.1795 10.05C17.2795 9.98004 17.3295 9.87004 17.3295 9.72004C17.3295 9.55004 17.2595 9.43004 17.1295 9.37004ZM15.7695 9.04004H16.9295C17.1595 9.04004 17.3395 9.10004 17.4895 9.22004C17.6295 9.33004 17.6895 9.50004 17.6895 9.72004C17.6895 9.90004 17.6295 10.07 17.4995 10.21C17.3895 10.36 17.1795 10.43 16.9295 10.43H16.1195V11.44H15.7695V9.05004V9.04004Z" fill="#6A8923"/>
<path fill-rule="evenodd" clip-rule="evenodd" d="M18.0998 9.67988H18.3898V9.96988C18.4098 9.90988 18.4798 9.84988 18.5698 9.76988C18.6598 9.68988 18.7698 9.62988 18.8898 9.62988H18.9198L18.9998 9.63988V9.95988H18.9398L18.8798 9.94988C18.7198 9.94988 18.6098 9.99988 18.5198 10.0999C18.4298 10.1899 18.3998 10.2999 18.3998 10.4299V11.4299H18.0898V9.67988H18.0998Z" fill="#6A8923"/>
<path fill-rule="evenodd" clip-rule="evenodd" d="M20.5597 10.4199C20.5397 10.2999 20.5097 10.1899 20.4697 10.0999C20.3897 9.9599 20.2397 9.8999 20.0397 9.8999C19.8897 9.8999 19.7797 9.9499 19.6797 10.0499C19.5797 10.1399 19.5297 10.2699 19.5197 10.4199H20.5597ZM20.4397 9.7299C20.5597 9.7899 20.6597 9.8699 20.7197 9.9599C20.7797 10.0499 20.8297 10.1499 20.8397 10.2699C20.8497 10.3499 20.8597 10.4699 20.8597 10.6599H19.4997C19.4997 10.8399 19.5497 10.9799 19.6397 11.0899C19.7197 11.1899 19.8397 11.2499 20.0297 11.2499C20.1897 11.2499 20.3197 11.1899 20.4297 11.0899C20.4897 11.0299 20.5197 10.9699 20.5397 10.8899H20.8597C20.8497 10.9499 20.8297 11.0299 20.7797 11.1099L20.6197 11.2999C20.5197 11.3899 20.3997 11.4499 20.2697 11.4699C20.1997 11.4899 20.1097 11.4999 20.0097 11.4999C19.7797 11.4999 19.5897 11.4199 19.4197 11.2499C19.2597 11.0999 19.1797 10.8599 19.1797 10.5899C19.1797 10.3199 19.2597 10.0899 19.4197 9.9099C19.5897 9.7399 19.7897 9.6499 20.0697 9.6499C20.1897 9.6599 20.3197 9.6799 20.4397 9.7399" fill="#6A8923"/>
<path fill-rule="evenodd" clip-rule="evenodd" d="M21.2605 9.67989H21.5705V9.92989C21.6505 9.83989 21.7205 9.77989 21.7705 9.73989C21.8705 9.66989 22.0005 9.63989 22.1205 9.63989C22.2705 9.63989 22.3905 9.66989 22.4805 9.73989C22.5305 9.76989 22.5705 9.82989 22.6205 9.90989C22.6905 9.80989 22.7705 9.73989 22.8705 9.70989C22.9605 9.65989 23.0605 9.63989 23.1905 9.63989C23.4405 9.63989 23.6105 9.71989 23.7005 9.89989C23.7505 9.98989 23.7805 10.1199 23.7805 10.2599V11.4299H23.4505V10.2199C23.4505 10.1099 23.4205 10.0299 23.3605 9.97989C23.2905 9.92989 23.2205 9.90989 23.1305 9.90989C23.0105 9.90989 22.8905 9.95989 22.8005 10.0199C22.7105 10.0999 22.6605 10.2399 22.6605 10.4199V11.4399H22.3405V10.2899C22.3405 10.1699 22.3305 10.0899 22.2905 10.0299C22.2305 9.94989 22.1505 9.90989 22.0205 9.90989C21.9005 9.90989 21.7905 9.95989 21.7005 10.0299C21.6105 10.1199 21.5505 10.2699 21.5505 10.4899V11.4199H21.2305V9.66989" fill="#6A8923"/>
<path fill-rule="evenodd" clip-rule="evenodd" d="M24.2305 9.04004H24.5505V9.37004H24.2305V9.04004ZM24.2305 9.70004H24.5505V11.43H24.2305V9.70004Z" fill="#6A8923"/>
<path fill-rule="evenodd" clip-rule="evenodd" d="M25.3295 9.67993V10.8399C25.3295 10.9199 25.3395 10.9999 25.3795 11.0599C25.4395 11.1699 25.5395 11.2199 25.6895 11.2199C25.9095 11.2199 26.0595 11.1299 26.1295 10.9499C26.1595 10.8499 26.1995 10.7199 26.1995 10.5399V9.68993H26.5095V11.4399H26.2195V11.1799L26.0695 11.3499C25.9595 11.4399 25.8095 11.4899 25.6395 11.4899C25.3795 11.4899 25.1995 11.4099 25.0995 11.2399C25.0495 11.1499 25.0195 11.0199 25.0195 10.8799V9.68993H25.3495" fill="#6A8923"/>
<path fill-rule="evenodd" clip-rule="evenodd" d="M27.0088 9.67989H27.3188V9.92989C27.3888 9.83989 27.4588 9.77989 27.5088 9.73989C27.6088 9.66989 27.7388 9.63989 27.8688 9.63989C28.0188 9.63989 28.1287 9.66989 28.2188 9.73989C28.2687 9.76989 28.3188 9.82989 28.3688 9.90989C28.4388 9.80989 28.5188 9.73989 28.6088 9.70989C28.6988 9.65989 28.8088 9.63989 28.9288 9.63989C29.1788 9.63989 29.3488 9.71989 29.4388 9.89989C29.4988 9.98989 29.5088 10.1199 29.5088 10.2599V11.4299H29.1788V10.2199C29.1788 10.1099 29.1588 10.0299 29.0888 9.97989C29.0188 9.92989 28.9488 9.90989 28.8588 9.90989C28.7388 9.90989 28.6288 9.95989 28.5388 10.0199C28.4488 10.0999 28.3988 10.2399 28.3988 10.4199V11.4399H28.0788V10.2899C28.0788 10.1699 28.0688 10.0899 28.0288 10.0299C27.9788 9.94989 27.8888 9.90989 27.7688 9.90989C27.6488 9.90989 27.5388 9.95989 27.4388 10.0299C27.3388 10.1199 27.2888 10.2699 27.2888 10.4899V11.4199H26.9688V9.66989" fill="#6A8923"/>
<path d="M31.3005 9.04004H30.9805V11.43H31.3005V9.04004Z" fill="#6A8923"/>
<path fill-rule="evenodd" clip-rule="evenodd" d="M31.7617 9.04004H32.0817V9.37004H31.7617V9.04004ZM31.7617 9.70004H32.0817V11.43H31.7617V9.70004Z" fill="#6A8923"/>
<path fill-rule="evenodd" clip-rule="evenodd" d="M32.5513 9.67989H32.8413V9.92989C32.9313 9.81989 33.0313 9.74989 33.1213 9.70989C33.2213 9.65989 33.3413 9.63989 33.4513 9.63989C33.7113 9.63989 33.8913 9.71989 33.9813 9.89989C34.0413 9.99989 34.0613 10.1299 34.0613 10.3099V11.4299H33.7413V10.3299C33.7413 10.2199 33.7212 10.1399 33.6912 10.0699C33.6312 9.96989 33.5313 9.90989 33.3813 9.89989C33.3013 9.89989 33.2413 9.90989 33.2013 9.92989C33.1113 9.94989 33.0313 9.99989 32.9713 10.0699L32.8713 10.2499C32.8613 10.3199 32.8512 10.4099 32.8512 10.5099V11.4299H32.5312V9.66989L32.5513 9.67989Z" fill="#6A8923"/>
<path fill-rule="evenodd" clip-rule="evenodd" d="M35.8192 10.4199C35.8092 10.2999 35.7892 10.1899 35.7292 10.0999C35.6492 9.9599 35.4992 9.8999 35.2992 9.8999C35.1492 9.8999 35.0292 9.9499 34.9392 10.0499C34.8392 10.1399 34.7892 10.2699 34.7792 10.4199H35.8192ZM35.7092 9.7299C35.8292 9.7899 35.9292 9.8699 35.9892 9.9599C36.0592 10.0499 36.0892 10.1499 36.1292 10.2699C36.1392 10.3499 36.1492 10.4699 36.1492 10.6599H34.7792C34.7892 10.8399 34.8392 10.9799 34.9192 11.0899C35.0092 11.1899 35.1392 11.2499 35.3192 11.2499C35.4792 11.2499 35.5992 11.1899 35.7092 11.0899C35.7692 11.0299 35.7992 10.9699 35.8192 10.8899H36.1292C36.1192 10.9499 36.0992 11.0299 36.0492 11.1099L35.8892 11.2999C35.7892 11.3899 35.6692 11.4499 35.5392 11.4699C35.4592 11.4899 35.3692 11.4999 35.2792 11.4999C35.0492 11.4999 34.8492 11.4199 34.6892 11.2499C34.5292 11.0999 34.4492 10.8599 34.4492 10.5899C34.4492 10.3199 34.5292 10.0899 34.6992 9.9099C34.8592 9.7399 35.0692 9.6499 35.3292 9.6499C35.4692 9.6599 35.5892 9.6799 35.7192 9.7399" fill="#6A8923"/>
<path fill-rule="evenodd" clip-rule="evenodd" d="M36.52 9.67989H36.81V9.92989C36.89 9.81989 36.99 9.74989 37.09 9.70989C37.19 9.65989 37.31 9.63989 37.42 9.63989C37.68 9.63989 37.86 9.71989 37.95 9.89989C38.01 9.99989 38.03 10.1299 38.03 10.3099V11.4299H37.71V10.3299C37.71 10.2199 37.69 10.1399 37.66 10.0699C37.6 9.96989 37.5 9.90989 37.35 9.89989C37.27 9.89989 37.21 9.90989 37.17 9.92989C37.08 9.94989 37.01 9.99989 36.94 10.0699L36.84 10.2499C36.82 10.3199 36.82 10.4099 36.82 10.5099V11.4299H36.5V9.66989L36.52 9.67989Z" fill="#6A8923"/>
<path fill-rule="evenodd" clip-rule="evenodd" d="M39.6503 9.15C39.7303 9.05 39.8703 9 40.0803 9H40.2003V9.27H40.0903C40.0003 9.27 39.9403 9.29 39.9203 9.34C39.9003 9.39 39.9003 9.51 39.9003 9.69H40.2103V9.93H39.8903V11.44H39.5803V9.93H39.3203V9.69H39.5803V9.41C39.5803 9.3 39.6003 9.21 39.6503 9.15Z" fill="#6A8923"/>
<path fill-rule="evenodd" clip-rule="evenodd" d="M40.4883 9.04004H40.8083V9.37004H40.4883V9.04004ZM40.4883 9.70004H40.8083V11.43H40.4883V9.70004Z" fill="#6A8923"/>
<path fill-rule="evenodd" clip-rule="evenodd" d="M42.4495 11.03C42.5295 10.92 42.5695 10.74 42.5695 10.53C42.5695 10.35 42.5195 10.19 42.4495 10.08C42.3595 9.96003 42.2495 9.90003 42.0795 9.90003C41.9395 9.90003 41.8195 9.95003 41.7195 10.05C41.6095 10.15 41.5495 10.31 41.5495 10.54C41.5495 10.7 41.5695 10.83 41.6095 10.94C41.6995 11.13 41.8495 11.23 42.0695 11.23C42.2395 11.23 42.3795 11.17 42.4595 11.04M41.2695 9.03003H41.5795V9.90003C41.6495 9.82003 41.7295 9.75003 41.8295 9.71003C41.9195 9.66003 42.0195 9.64003 42.1395 9.64003C42.3795 9.64003 42.5595 9.72003 42.7095 9.87003C42.8595 10.02 42.9295 10.23 42.9295 10.53C42.9295 10.8 42.8495 11.04 42.7095 11.22C42.5595 11.4 42.3695 11.49 42.1195 11.49C41.9695 11.49 41.8595 11.47 41.7595 11.39C41.6995 11.36 41.6395 11.3 41.5795 11.21V11.44H41.2895V9.04003L41.2695 9.03003Z" fill="#6A8923"/>
<path fill-rule="evenodd" clip-rule="evenodd" d="M44.5519 10.4199C44.5419 10.2999 44.5019 10.1899 44.4619 10.0999C44.3819 9.9599 44.2319 9.8999 44.0419 9.8999C43.8919 9.8999 43.7719 9.9499 43.6819 10.0499C43.5819 10.1399 43.5319 10.2699 43.5219 10.4199H44.5519ZM44.4419 9.7299C44.5619 9.7899 44.6619 9.8699 44.7219 9.9599C44.7919 10.0499 44.8319 10.1499 44.8419 10.2699C44.8619 10.3499 44.8719 10.4699 44.8719 10.6599H43.5019C43.5119 10.8399 43.5519 10.9799 43.6419 11.0899C43.7219 11.1899 43.8619 11.2499 44.0319 11.2499C44.2019 11.2499 44.3219 11.1899 44.4319 11.0899C44.4919 11.0299 44.5219 10.9699 44.5419 10.8899H44.8519C44.8419 10.9499 44.8219 11.0299 44.7719 11.1099L44.6119 11.2999C44.5119 11.3899 44.3919 11.4499 44.2619 11.4699C44.1919 11.4899 44.1019 11.4999 44.0019 11.4999C43.7719 11.4999 43.5719 11.4199 43.4119 11.2499C43.2519 11.0999 43.1719 10.8599 43.1719 10.5899C43.1719 10.3199 43.2619 10.0899 43.4119 9.9099C43.5719 9.7399 43.7819 9.6499 44.0519 9.6499C44.1919 9.6599 44.3119 9.6799 44.4519 9.7399" fill="#6A8923"/>
<path fill-rule="evenodd" clip-rule="evenodd" d="M45.26 9.67988H45.55V9.96988C45.57 9.90988 45.63 9.84988 45.73 9.76988C45.82 9.68988 45.93 9.62988 46.06 9.62988H46.09L46.16 9.63988V9.95988H46.11L46.05 9.94988C45.89 9.94988 45.78 9.99988 45.69 10.0999C45.61 10.1899 45.57 10.2999 45.57 10.4299V11.4299H45.25V9.67988H45.26Z" fill="#6A8923"/>
<path fill-rule="evenodd" clip-rule="evenodd" d="M28.6989 4.60993C28.6989 4.96993 28.7889 5.25993 28.9689 5.44993C29.1489 5.63993 29.3889 5.73993 29.6489 5.73993C29.9089 5.73993 30.1489 5.63993 30.3289 5.44993C30.5089 5.25993 30.5989 4.96993 30.5989 4.60993C30.5989 4.24993 30.5089 3.97993 30.3289 3.77993C30.1489 3.57993 29.9189 3.49993 29.6489 3.49993C29.3789 3.49993 29.1489 3.59993 28.9689 3.77993C28.7889 3.95993 28.6989 4.23993 28.6989 4.60993ZM27.6289 4.54993C27.6289 4.22993 27.7189 3.91993 27.8889 3.60993C28.0589 3.31993 28.2989 3.07993 28.6189 2.91993C28.9289 2.76993 29.2789 2.67993 29.6589 2.67993C30.2489 2.67993 30.7389 2.85993 31.1189 3.20993C31.4889 3.56993 31.6889 4.02993 31.6889 4.57993C31.6889 5.12993 31.4989 5.59993 31.1189 5.95993C30.7289 6.31993 30.2489 6.49993 29.6789 6.49993C29.3289 6.49993 28.9789 6.41993 28.6589 6.26993C28.3289 6.11993 28.0789 5.89993 27.9089 5.59993C27.7189 5.31993 27.6289 4.96993 27.6289 4.52993" fill="#6A8923"/>
<path fill-rule="evenodd" clip-rule="evenodd" d="M33.1706 4.56996C33.1706 4.98996 33.2606 5.29996 33.4306 5.48996C33.6106 5.67996 33.8206 5.77996 34.0806 5.77996C34.3206 5.77996 34.5206 5.68996 34.6806 5.50996C34.8406 5.32996 34.9206 5.02996 34.9206 4.60996C34.9206 4.21996 34.8406 3.93996 34.6706 3.74996C34.5106 3.55996 34.3106 3.46996 34.0606 3.46996C33.8106 3.46996 33.6006 3.56996 33.4206 3.74996C33.2506 3.93996 33.1706 4.19996 33.1706 4.56996ZM32.1406 2.78996H33.1206V3.31996C33.2406 3.13996 33.4106 2.98996 33.6306 2.87996C33.8506 2.75996 34.0806 2.70996 34.3406 2.70996C34.7906 2.70996 35.1906 2.87996 35.5106 3.20996C35.8306 3.54996 35.9906 4.01996 35.9906 4.59996C35.9906 5.21996 35.8306 5.69996 35.5006 6.03996C35.1806 6.37996 34.8006 6.54996 34.3306 6.54996C34.1106 6.54996 33.9206 6.49996 33.7406 6.42996C33.5706 6.34996 33.3906 6.20996 33.1806 6.00996V7.85996H32.1406V2.78996Z" fill="#6A8923"/>
<path fill-rule="evenodd" clip-rule="evenodd" d="M51.3516 6.55012V1.37012H55.0716V2.36012H52.4516V3.56012H54.7116V4.41012H52.4516V6.55012H51.3516Z" fill="#6A8923"/>
<path fill-rule="evenodd" clip-rule="evenodd" d="M15.75 6.55V1.5H19.75V2.35H16.85V3.47H19.56V4.32H16.85V5.7H19.85V6.55H15.75Z" fill="#6A8923"/>
<path fill-rule="evenodd" clip-rule="evenodd" d="M23.1 6.54989V6.00989C22.95 6.19989 22.77 6.35989 22.53 6.46989C22.3 6.58989 22.05 6.64989 21.79 6.64989C21.53 6.64989 21.29 6.59989 21.09 6.48989C20.87 6.38989 20.73 6.22989 20.64 6.03989C20.54 5.84989 20.5 5.57989 20.5 5.21989V2.89989H21.53V4.58989C21.53 5.09989 21.55 5.41989 21.59 5.53989C21.62 5.64989 21.69 5.73989 21.79 5.81989C21.89 5.88989 22.03 5.91989 22.18 5.91989C22.36 5.91989 22.52 5.86989 22.66 5.77989C22.81 5.68989 22.9 5.57989 22.94 5.43989C23 5.29989 23.02 4.97989 23.02 4.43989V2.88989H24.05V6.55989H23.1" fill="#6A8923"/>
<path fill-rule="evenodd" clip-rule="evenodd" d="M48.8892 6.56995H47.8192V4.63995C47.8192 4.22995 47.7992 3.96995 47.7492 3.84995C47.6992 3.73995 47.6392 3.62995 47.5292 3.56995C47.4292 3.50995 47.2992 3.46995 47.1592 3.46995C46.9692 3.46995 46.8092 3.51995 46.6592 3.61995C46.5092 3.70995 46.4092 3.83995 46.3492 3.98995C46.2892 4.14995 46.2692 4.43995 46.2692 4.84995V6.55995H45.1992V2.77995H46.1792V3.33995C46.5292 2.91995 46.9892 2.69995 47.5192 2.69995C47.7592 2.69995 47.9692 2.74995 48.1692 2.80995C48.3592 2.88995 48.5092 2.98995 48.6092 3.11995C48.7092 3.22995 48.7792 3.38995 48.8092 3.53995C48.8592 3.69995 48.8692 3.92995 48.8692 4.20995V6.56995" fill="#6A8923"/>
<path fill-rule="evenodd" clip-rule="evenodd" d="M57.4403 6.5201V5.9401H57.1703L57.0803 5.9501C56.7703 5.9501 56.6303 5.7601 56.6303 5.3901V1.3501H55.8203V5.4201C55.8203 6.2001 56.1703 6.5901 56.8703 6.5901C57.1003 6.5901 57.2903 6.5701 57.4403 6.5201Z" fill="#6A8923"/>
<path fill-rule="evenodd" clip-rule="evenodd" d="M39.1287 4.31998C39.1187 4.03998 39.0487 3.81998 38.8887 3.66998C38.7387 3.51998 38.5687 3.43998 38.3587 3.43998C38.1487 3.43998 37.9487 3.52998 37.7987 3.67998C37.6487 3.82998 37.5788 4.03998 37.5788 4.29998H39.1187L39.1287 4.31998ZM39.0687 5.30998H40.0987C39.9587 5.66998 39.7587 6.09998 39.4587 6.28998C39.1787 6.46998 38.8087 6.56998 38.3787 6.56998C37.6987 6.56998 37.1987 6.34998 36.8587 5.93998C36.5987 5.60998 36.4688 5.18998 36.4688 4.67998C36.4688 4.06998 36.6387 3.58998 36.9787 3.24998C37.3087 2.90998 37.7387 2.72998 38.2587 2.72998C38.8387 2.72998 39.2987 2.90998 39.6287 3.26998C39.9687 3.62998 40.1287 4.18998 40.1187 4.92998H37.5287C37.5387 5.21998 37.6187 5.43998 37.7787 5.59998C37.9387 5.75998 38.1387 5.83998 38.3687 5.83998C38.5287 5.83998 38.6587 5.78998 38.7787 5.71998C38.9187 5.64998 38.9987 5.49998 39.0487 5.31998" fill="#6A8923"/>
<path fill-rule="evenodd" clip-rule="evenodd" d="M42.9986 4.70995C42.8586 4.73995 42.6586 4.79995 42.3786 4.85995C42.0986 4.91995 41.8986 4.96995 41.8086 5.02995C41.6686 5.11995 41.6086 5.22995 41.6086 5.36995C41.6086 5.50995 41.6586 5.62995 41.7686 5.72995C41.8686 5.82995 42.0186 5.87995 42.1786 5.87995C42.3586 5.87995 42.5386 5.81995 42.7086 5.70995C42.8286 5.61995 42.9086 5.51995 42.9586 5.38995C42.9786 5.30995 42.9886 5.14995 42.9886 4.92995V4.70995H42.9986ZM43.0786 6.05995C42.9086 6.22995 42.7186 6.33995 42.5086 6.42995C42.3186 6.50995 42.0886 6.53995 41.8586 6.53995C41.4586 6.53995 41.1486 6.43995 40.9086 6.22995C40.6786 6.02995 40.5586 5.76995 40.5586 5.45995C40.5586 5.25995 40.6086 5.05995 40.7186 4.89995C40.8186 4.73995 40.9686 4.61995 41.1586 4.52995C41.3486 4.44995 41.6086 4.36995 41.9786 4.30995C42.4686 4.21995 42.7986 4.13995 42.9886 4.06995V3.96995C42.9886 3.78995 42.9386 3.64995 42.8386 3.55995C42.7386 3.47995 42.5486 3.44995 42.2786 3.44995C42.0986 3.44995 41.9486 3.47995 41.8486 3.54995C41.7486 3.61995 41.6686 3.72995 41.5986 3.90995H40.6586C40.6586 3.47995 40.9386 3.12995 41.1986 2.95995C41.4586 2.78995 41.8386 2.69995 42.3486 2.69995C42.8086 2.69995 43.1586 2.75995 43.3786 2.84995C43.5986 2.94995 43.7686 3.08995 43.8586 3.24995C43.9486 3.40995 43.9986 3.69995 43.9986 4.11995V5.24995L43.9886 5.46995C43.9886 5.68995 44.0386 5.79995 44.1086 5.86995C44.1886 5.94995 44.2486 5.92995 44.2986 5.92995H44.5686V6.53995C44.3286 6.60995 44.0386 6.59995 43.8586 6.58995C43.6686 6.58995 43.5186 6.53995 43.3686 6.47995C43.2286 6.40995 43.1386 6.27995 43.0786 6.05995Z" fill="#6A8923"/>
<path fill-rule="evenodd" clip-rule="evenodd" d="M60.1097 4.70995C59.9697 4.73995 59.7697 4.79995 59.4897 4.85995C59.2097 4.91995 59.0097 4.96995 58.9197 5.02995C58.7797 5.11995 58.7197 5.22995 58.7197 5.36995C58.7197 5.50995 58.7697 5.62995 58.8797 5.72995C58.9797 5.82995 59.1297 5.87995 59.2897 5.87995C59.4697 5.87995 59.6597 5.81995 59.8197 5.70995C59.9597 5.61995 60.0397 5.51995 60.0697 5.38995C60.0897 5.30995 60.0997 5.14995 60.0997 4.92995V4.70995H60.1097ZM60.1997 6.05995C60.0197 6.22995 59.8297 6.33995 59.6297 6.42995C59.4297 6.50995 59.2097 6.53995 58.9797 6.53995C58.5697 6.53995 58.2497 6.43995 58.0197 6.22995C57.7897 6.02995 57.6797 5.76995 57.6797 5.45995C57.6797 5.25995 57.7397 5.05995 57.8397 4.89995C57.9397 4.73995 58.0997 4.61995 58.2797 4.52995C58.4697 4.44995 58.7397 4.36995 59.1097 4.30995C59.5897 4.21995 59.9297 4.13995 60.1097 4.06995V3.96995C60.1097 3.78995 60.0597 3.64995 59.9597 3.55995C59.8597 3.47995 59.6797 3.44995 59.3997 3.44995C59.2097 3.44995 59.0597 3.47995 58.9697 3.54995C58.8697 3.61995 58.7897 3.72995 58.7197 3.90995H57.7897C57.7897 3.47995 58.0697 3.12995 58.3297 2.95995C58.5797 2.78995 58.9697 2.69995 59.4797 2.69995C59.9397 2.69995 60.2997 2.75995 60.5197 2.84995C60.7497 2.94995 60.9097 3.08995 60.9997 3.24995C61.0997 3.40995 61.1397 3.69995 61.1397 4.11995V5.24995L61.1297 5.46995C61.1297 5.68995 61.1597 5.79995 61.2397 5.86995C61.3197 5.94995 61.3797 5.92995 61.4397 5.92995H61.6997V6.53995C61.4597 6.60995 61.1697 6.59995 60.9897 6.58995C60.7997 6.58995 60.6497 6.53995 60.4997 6.47995C60.3497 6.40995 60.2597 6.27995 60.1897 6.05995" fill="#6A8923"/>
<path fill-rule="evenodd" clip-rule="evenodd" d="M25.8581 6.54989H24.8281V2.88989H25.7781V3.40989C25.9481 3.16989 26.1381 3.09989 26.2681 3.01989C26.4081 2.93989 26.5481 2.90989 26.7181 2.90989C26.9581 2.90989 27.1281 2.87989 27.3581 2.99989V3.73989C27.1881 3.63989 26.7581 3.62989 26.6081 3.62989C26.4581 3.62989 26.2781 3.72989 26.1781 3.79989C26.0781 3.87989 25.9281 4.07989 25.8581 4.27989C25.7981 4.46989 25.8481 4.80989 25.8481 5.43989V6.55989" fill="#6A8923"/>
<path fill-rule="evenodd" clip-rule="evenodd" d="M61.9883 6.54996L63.4583 4.56996L62.0383 2.70996H63.3683L64.0983 3.77996L64.8683 2.70996H66.1383L64.7383 4.53996L66.2583 6.54996H64.9383L64.0983 5.36996L63.2583 6.54996H61.9883Z" fill="#6A8923"/>
<path fill-rule="evenodd" clip-rule="evenodd" d="M67.4008 5.83005C67.4808 5.83005 67.5508 5.84005 67.5808 5.85005C67.6508 5.87005 67.6908 5.93005 67.6908 6.02005L67.6208 6.14005L67.5208 6.17005L67.6408 6.24005L67.6708 6.34005V6.46005H67.5708V6.38005C67.5708 6.30005 67.5508 6.26005 67.5008 6.23005L67.3608 6.21005H67.2608V6.47005H67.1508V5.82005H67.3908L67.4008 5.83005ZM67.5408 5.91005L67.3908 5.89005H67.2908V6.13005H67.5308L67.6008 6.02005L67.5408 5.92005V5.91005ZM67.8708 6.56005C67.7508 6.67005 67.6008 6.73005 67.4308 6.73005C67.2508 6.73005 67.1008 6.67005 66.9808 6.56005C66.8608 6.45005 66.8008 6.31005 66.8008 6.14005C66.8008 5.98005 66.8608 5.85005 66.9808 5.72005C67.1008 5.62005 67.2508 5.55005 67.4308 5.55005C67.6008 5.55005 67.7508 5.62005 67.8708 5.72005C67.9908 5.84005 68.0408 5.98005 68.0408 6.14005C68.0408 6.31005 67.9808 6.45005 67.8708 6.56005ZM67.0308 5.79005C66.9208 5.89005 66.8708 6.01005 66.8708 6.15005C66.8708 6.29005 66.9208 6.41005 67.0308 6.51005C67.1308 6.61005 67.2608 6.66005 67.4208 6.66005C67.5708 6.66005 67.6908 6.60005 67.8108 6.51005C67.9108 6.41005 67.9708 6.29005 67.9708 6.15005C67.9708 6.01005 67.9108 5.89005 67.8108 5.79005C67.7008 5.69005 67.5708 5.64005 67.4208 5.64005C67.2708 5.64005 67.1508 5.69005 67.0308 5.79005Z" fill="#6A8923"/>
<path d="M13.89 0H0V12.84H13.89V0Z" fill="#6A8923"/>
<path fill-rule="evenodd" clip-rule="evenodd" d="M1.96922 3.27011C1.96922 3.27011 1.67922 8.16011 2.10922 11.4001H2.37922C2.37922 11.4001 1.95922 7.36011 2.22922 3.22011C2.22922 3.22011 2.55922 3.19011 2.57922 2.63011C2.57922 2.63011 2.56922 2.48011 2.65922 2.43011C2.65922 2.43011 2.47922 2.31011 2.34922 2.43011C2.34922 2.43011 2.36922 2.28011 2.17922 2.17011C2.17922 2.17011 2.03922 2.15011 2.03922 1.86011C2.03922 1.86011 2.00922 2.06011 1.94922 2.17011C1.88922 2.27011 1.74922 2.29011 1.75922 2.57011C1.75922 2.57011 1.61922 2.48011 1.44922 2.60011C1.44922 2.60011 1.58922 2.61011 1.60922 2.76011C1.59922 2.75011 1.60922 3.18011 1.95922 3.27011" fill="white"/>
<path fill-rule="evenodd" clip-rule="evenodd" d="M3.55859 11.3999C3.56859 11.3099 3.56859 6.11991 3.56859 6.02991C3.56859 6.02991 3.89859 5.99991 3.91859 5.43991C3.91859 5.43991 3.90859 5.28991 3.99859 5.23991C3.99859 5.23991 3.81859 5.11991 3.68859 5.22991C3.68859 5.22991 3.70859 5.07991 3.51859 4.96991C3.51859 4.96991 3.37859 4.94991 3.37859 4.65991C3.37859 4.65991 3.35859 4.85991 3.28859 4.96991C3.22859 5.06991 3.06859 5.10991 3.09859 5.36991C3.09859 5.36991 2.97859 5.26991 2.80859 5.38991C2.80859 5.38991 2.94859 5.39991 2.96859 5.55991C2.96859 5.55991 2.97859 5.97991 3.32859 6.06991C3.32859 6.06991 3.33859 11.2699 3.32859 11.4099H3.55859V11.3999Z" fill="white"/>
<path fill-rule="evenodd" clip-rule="evenodd" d="M4.77984 2.4C4.77984 2.4 5.12984 7.76 4.80984 11.39H4.53984C4.53984 11.39 4.78984 7.35 4.51984 2.36C4.51984 2.36 4.18984 2.33 4.16984 1.77C4.16984 1.77 4.18984 1.62 4.08984 1.57C4.08984 1.57 4.26984 1.45 4.39984 1.57C4.39984 1.57 4.37984 1.42 4.56984 1.31C4.56984 1.31 4.70984 1.29 4.70984 1C4.70984 1 4.73984 1.22 4.80984 1.31C4.85984 1.41 5.00984 1.45 4.99984 1.7C4.99984 1.7 5.11984 1.61 5.30984 1.73C5.30984 1.73 5.16984 1.74 5.14984 1.89C5.13984 1.89 5.13984 2.31 4.78984 2.4" fill="white"/>
<path fill-rule="evenodd" clip-rule="evenodd" d="M5.98875 4.9C5.98875 4.9 5.79875 7.77 6.09875 11.4H6.36875C6.36875 11.4 6.07875 8.57 6.22875 4.86C6.22875 4.86 6.55875 4.83 6.56875 4.27C6.56875 4.27 6.55875 4.12 6.64875 4.07C6.64875 4.07 6.47875 3.95 6.35875 4.07C6.35875 4.07 6.37875 3.92 6.18875 3.81C6.18875 3.81 6.04875 3.79 6.04875 3.5C6.04875 3.5 6.01875 3.72 5.94875 3.81C5.89875 3.91 5.74875 3.95 5.75875 4.2C5.75875 4.2 5.63875 4.11 5.46875 4.23C5.46875 4.23 5.60875 4.24 5.61875 4.4C5.62875 4.4 5.62875 4.82 5.98875 4.91" fill="white"/>
<path fill-rule="evenodd" clip-rule="evenodd" d="M7.60187 3.27011C7.60187 3.27011 7.89187 8.16011 7.46187 11.4001H7.19187C7.19187 11.4001 7.61188 7.36011 7.34188 3.22011C7.34188 3.22011 7.01187 3.19011 7.00187 2.63011C7.00187 2.63011 7.01188 2.48011 6.92188 2.43011C6.92188 2.43011 7.10187 2.31011 7.23187 2.43011C7.23187 2.43011 7.21187 2.28011 7.41187 2.17011C7.41187 2.17011 7.55188 2.15011 7.55188 1.86011C7.55188 1.86011 7.58187 2.06011 7.64187 2.17011C7.70187 2.27011 7.84187 2.29011 7.83187 2.57011C7.83187 2.57011 7.95187 2.48011 8.12187 2.60011C8.12187 2.60011 7.98187 2.60011 7.97187 2.76011C7.96187 2.75011 7.96187 3.18011 7.60187 3.27011Z" fill="white"/>
<path fill-rule="evenodd" clip-rule="evenodd" d="M9.07078 11.3999C9.07078 11.3099 9.08078 5.34989 9.08078 5.24989C9.08078 5.24989 9.41078 5.21989 9.43078 4.65989C9.43078 4.65989 9.42078 4.49989 9.50078 4.45989C9.50078 4.45989 9.33078 4.31989 9.19078 4.45989C9.19078 4.45989 9.21078 4.30989 9.02078 4.19989C9.02078 4.19989 8.88078 4.17989 8.88078 3.88989C8.88078 3.88989 8.85078 4.08989 8.78078 4.19989C8.72078 4.29989 8.58078 4.31989 8.59078 4.59989C8.59078 4.59989 8.47078 4.49989 8.30078 4.61989C8.30078 4.61989 8.44078 4.62989 8.45078 4.78989C8.45078 4.78989 8.45078 5.20989 8.81078 5.29989V11.3999H9.07078Z" fill="white"/>
<path fill-rule="evenodd" clip-rule="evenodd" d="M10.2817 2.84997C10.2817 2.84997 10.0817 7.76997 10.3817 11.4H10.6517C10.6517 11.4 10.2617 7.80997 10.5417 2.80997C10.5417 2.80997 10.8717 2.77997 10.8917 2.21997C10.8917 2.21997 10.8817 2.06997 10.9617 2.01997C10.9617 2.01997 10.7817 1.89997 10.6517 2.01997C10.6517 2.01997 10.6717 1.86997 10.4817 1.75997C10.4817 1.75997 10.3417 1.73997 10.3417 1.46997C10.3417 1.46997 10.3117 1.66997 10.2417 1.75997C10.1917 1.85997 10.0417 1.89997 10.0517 2.15997C10.0517 2.15997 9.93172 2.05997 9.76172 2.18997C9.76172 2.18997 9.90172 2.18997 9.92172 2.34997C9.92172 2.33997 9.93172 2.76997 10.2817 2.85997" fill="white"/>
<path fill-rule="evenodd" clip-rule="evenodd" d="M11.7889 4.92004C11.7889 4.92004 11.9889 7.77004 11.6789 11.39H11.4089C11.4089 11.39 11.6989 8.58004 11.5489 4.88004C11.5489 4.88004 11.2189 4.85004 11.1989 4.29004C11.1989 4.29004 11.2089 4.14004 11.1289 4.09004C11.1289 4.09004 11.3089 3.97004 11.4389 4.09004C11.4389 4.09004 11.4189 3.94004 11.6089 3.83004C11.6089 3.83004 11.7489 3.81004 11.7489 3.54004C11.7489 3.54004 11.7789 3.74004 11.8389 3.83004C11.8889 3.93004 12.0389 3.97004 12.0289 4.23004C12.0289 4.23004 12.1489 4.13004 12.3189 4.25004C12.3189 4.25004 12.1789 4.26004 12.1589 4.41004C12.1589 4.41004 12.1489 4.83004 11.7989 4.92004" fill="white"/>
</g>
<defs>
<clipPath id="clip0_1806_585">
<rect width="68.03" height="12.84" fill="white"/>
</clipPath>
</defs>
</svg>
