<svg width="49" height="48" viewBox="0 0 49 48" fill="none" xmlns="http://www.w3.org/2000/svg">
<g clip-path="url(#clip0_1806_582)">
<path d="M21.6778 8.44465C21.4793 8.44465 21.2588 8.40055 21.0825 8.29031C20.4871 7.95958 20.2887 7.20992 20.6194 6.63666L21.5234 5.04915C21.5234 5.04915 21.6116 4.89481 21.6557 4.82866C21.8101 4.60818 22.0305 4.45384 22.2731 4.34359C22.2731 4.34359 22.3172 4.34359 22.3392 4.32154C22.5156 4.2554 22.692 4.23335 22.8684 4.23335H23.0007C23.4196 4.27745 23.8385 4.32154 24.2795 4.38769C24.3236 4.38769 24.3677 4.38769 24.4118 4.38769C26.1316 4.67432 27.7412 5.1153 29.1302 5.73266C29.7476 5.99724 30.0342 6.72485 29.7476 7.34221C29.483 7.95958 28.7554 8.24621 28.138 7.95958C26.9474 7.43041 25.5804 7.05558 24.1031 6.81305H24.0811C24.0811 6.81305 24.0149 6.81305 23.9708 6.81305C23.7724 6.791 23.5519 6.7469 23.3535 6.72485L22.7361 7.80524C22.5156 8.20211 22.0967 8.4226 21.6778 8.4226V8.44465ZM13.2993 11.9504C12.9465 11.9504 12.6158 11.796 12.3512 11.5094L10.2786 9.01791C10.2786 9.01791 10.1243 8.81948 10.0802 8.68718C9.99196 8.4667 9.94787 8.24621 9.99196 8.00367C10.014 7.76114 10.1243 7.5186 10.3006 7.32017C10.3888 7.20992 10.5211 7.09968 10.6314 7.03353C10.9842 6.81305 11.3149 6.59256 11.6677 6.39412C13.5418 5.35783 15.5923 4.65227 17.7311 4.32154C18.3925 4.2113 19.0099 4.67432 19.1201 5.33578C19.2304 5.99724 18.7673 6.61461 18.1059 6.72485C16.2758 7.01148 14.556 7.58475 12.9685 8.44465L14.2033 9.94396C14.6442 10.4511 14.556 11.2228 14.0489 11.6638C13.8284 11.8622 13.5418 11.9504 13.2772 11.9504H13.2993ZM34.9731 15.2577C34.3999 15.2577 33.8927 14.8388 33.7825 14.2435C33.6282 13.4056 33.2533 12.5457 32.6801 11.6858C32.6801 11.6858 32.658 11.6638 32.658 11.6417C32.5919 11.5315 32.5257 11.4433 32.4375 11.3551L29.042 12.0827C28.3806 12.215 27.7412 11.7961 27.5868 11.1346C27.4545 10.4731 27.8734 9.83372 28.5349 9.67937L32.5257 8.81948C32.5257 8.81948 32.6139 8.81948 32.658 8.81948C32.8124 8.81948 32.9667 8.81948 33.121 8.81948C33.2092 8.81948 33.2754 8.84153 33.3415 8.86357C33.562 8.95177 33.7605 9.08406 33.9148 9.26045C34.1573 9.52503 34.3778 9.81167 34.5763 10.0983C34.5983 10.1203 34.6203 10.1644 34.6424 10.1865C35.4362 11.333 35.9653 12.5457 36.1858 13.7584C36.3181 14.4198 35.8551 15.0593 35.2157 15.1695C35.1495 15.1695 35.0613 15.1695 34.9952 15.1695L34.9731 15.2577ZM12.1307 17.9035C12.1307 17.9035 12.0425 17.9035 11.9984 17.9035L6.99334 17.3744H6.94924C6.72876 17.3523 6.50827 17.2641 6.33188 17.1539C6.28778 17.1318 6.26573 17.1098 6.22164 17.0657C5.95705 16.8452 5.78066 16.5145 5.73657 16.1837C5.69247 15.831 5.67042 15.4782 5.67042 15.1254C5.67042 13.4277 6.13344 11.8622 7.03744 10.429C7.41227 9.85576 8.16192 9.70142 8.71314 10.0542C9.2864 10.429 9.44075 11.1787 9.08797 11.7299C8.42651 12.7441 8.11782 13.8245 8.09578 15.0152L12.263 15.4561C12.9244 15.5223 13.4095 16.1176 13.3434 16.8011C13.2772 17.4185 12.748 17.8815 12.1307 17.8815V17.9035ZM20.9722 13.2072C20.0462 13.2072 19.2745 13.4277 18.635 13.8686C17.9956 14.3096 17.9074 14.6844 17.9074 14.949V15.0152C17.9074 15.2577 18.0177 15.6105 18.635 16.0294C18.8335 16.1837 19.076 16.294 19.2965 16.3822C19.7816 16.5806 20.3328 16.6688 20.9502 16.6688C21.2368 16.6688 21.5234 16.6468 21.788 16.6027C22.3613 16.5145 22.8463 16.316 23.2653 16.0294C23.8606 15.6105 23.9708 15.2577 23.9929 15.0372V14.949C23.9929 14.6844 23.9047 14.3096 23.2653 13.8686C22.6259 13.4277 21.8762 13.2072 20.9281 13.2072H20.9722ZM20.9722 19.1383C20.0462 19.1383 19.1863 18.9839 18.4146 18.6752C17.9956 18.5209 17.6208 18.3004 17.268 18.0579C15.9231 17.1318 15.5703 16.0073 15.5041 15.2356C15.5041 15.1474 15.5041 15.0593 15.5041 14.949C15.5041 14.1112 15.8128 12.8764 17.268 11.8622C18.3043 11.1346 19.5611 10.7818 20.9722 10.7818C22.4054 10.7818 23.6621 11.1566 24.6764 11.8622C26.1316 12.8764 26.4403 14.1112 26.4403 14.949C26.4403 15.0593 26.4403 15.1475 26.4403 15.2577C26.3741 16.0073 26.0214 17.1098 24.6764 18.0358C23.9488 18.5429 23.1109 18.8737 22.2069 19.028C21.8101 19.0942 21.3911 19.1383 20.9722 19.1383ZM33.0108 17.9476C33.0108 17.9476 33.0108 17.9917 32.9887 17.9917V17.9476H33.0108ZM33.4959 19.491C33.4959 19.491 33.54 19.491 33.562 19.5131H33.4959V19.491ZM29.6594 24.0331C29.2184 24.0331 28.8215 23.8126 28.579 23.3937C28.2483 22.7983 28.4688 22.0707 29.0641 21.74C29.7476 21.3652 30.365 20.9463 30.9162 20.4832C31.4674 20.0202 31.9525 19.491 32.3714 18.9398L29.3507 17.5287C28.7334 17.2421 28.4908 16.5145 28.7554 15.9192C29.042 15.3018 29.7696 15.0593 30.365 15.3238L34.5322 17.2862C34.7967 17.3964 35.0393 17.639 35.1936 17.9476C35.1936 17.9697 35.2157 18.0138 35.2377 18.0358C35.37 18.4107 35.3259 18.8075 35.1275 19.1603C34.9952 19.3808 34.8408 19.6454 34.6865 19.8879L34.5763 20.0423C33.9809 20.9022 33.2754 21.6518 32.5037 22.3353C31.8422 22.9086 31.0705 23.4157 30.2547 23.8787C30.0783 23.989 29.8799 24.0331 29.6594 24.0331ZM13.4316 24.452C13.2331 24.452 13.0567 24.4079 12.8803 24.3418C12.8583 24.3418 12.8362 24.3418 12.8142 24.3197C12.4394 24.1433 12.0425 23.9449 11.6677 23.7244C10.918 23.3275 10.2345 22.8645 9.63918 22.4015C9.13206 22.0046 8.66904 21.5857 8.25012 21.1447C7.78709 20.6596 7.80914 19.8879 8.31626 19.4249C8.80133 18.9619 9.57304 18.9839 10.0361 19.491C10.3447 19.8218 10.7196 20.1746 11.1164 20.4832C11.6236 20.8581 12.1968 21.2549 12.8362 21.5857C13.0126 21.6739 13.189 21.7841 13.3654 21.8723L15.5703 20.4612C16.1435 20.0864 16.8932 20.2627 17.268 20.836C17.6429 21.4093 17.4665 22.1589 16.8932 22.5338L14.2253 24.2536C13.9828 24.4079 13.7402 24.474 13.4977 24.474H13.4536L13.4316 24.452ZM20.7738 26.0836C19.8036 26.0836 18.8555 26.0175 17.9295 25.8852C17.268 25.797 16.805 25.1796 16.8932 24.4961C16.9814 23.8346 17.5988 23.3716 18.2823 23.4598C20.0682 23.7244 21.9644 23.6803 23.8826 23.3937C23.9708 23.3937 24.0811 23.3716 24.1693 23.3496L24.0149 21.8944C23.9488 21.2329 24.4339 20.6155 25.0953 20.5494C25.7568 20.4832 26.3741 20.9683 26.4403 21.6298L26.7049 24.0772C26.7049 24.0772 26.7049 24.1433 26.7049 24.1874C26.7049 24.5181 26.6167 24.8268 26.3962 25.0694C26.3741 25.1135 26.33 25.1355 26.308 25.1576C26.2198 25.2458 26.0875 25.3339 25.9773 25.4001C25.845 25.4662 25.7347 25.4883 25.6024 25.5324C25.1615 25.6206 24.7425 25.7308 24.2795 25.797C23.0889 25.9954 21.9203 26.0836 20.7738 26.0836ZM7.63275 24.9591C7.63275 24.9591 7.6548 24.9591 7.67685 24.9812L7.743 25.0253C11.381 27.7152 15.8349 29.0602 20.9943 29.0602C26.1537 29.0602 30.5854 27.6932 34.2014 25.0253L34.3337 24.9371C35.7889 23.8567 36.9575 22.6661 37.7954 21.4093C38.9419 19.6895 39.5152 17.8374 39.5152 15.7428C39.5152 12.1047 37.7733 9.03996 34.2014 6.41617C30.5854 3.77033 26.1537 2.42536 20.9943 2.42536C15.8349 2.42536 11.381 3.77033 7.743 6.41617C4.21521 9.03996 2.47336 12.0827 2.47336 15.7428C2.47336 17.8153 3.02458 19.6674 4.17111 21.4093C5.00896 22.6661 6.15549 23.8567 7.63275 24.9371V24.9591ZM9.04387 28.7294C9.63918 29.7437 10.5211 30.6697 11.7118 31.5517C14.2474 33.4258 17.3783 34.3739 20.9722 34.3739C24.5661 34.3739 27.6971 33.4258 30.2106 31.5517C31.4012 30.6918 32.2832 29.7437 32.9006 28.7294C29.4389 30.5815 25.4481 31.5076 20.9943 31.5076C16.5404 31.5076 12.5276 30.5595 9.04387 28.7294ZM3.31121 24.2977C2.73794 25.5985 2.45131 26.9435 2.45131 28.4428C2.45131 32.0808 4.17111 35.1236 7.72095 37.7253C11.359 40.3932 15.8128 41.7602 20.9722 41.7602C26.1316 41.7602 30.5634 40.3932 34.1794 37.7253C37.7513 35.1236 39.4931 32.0808 39.4931 28.4428C39.4931 26.9876 39.2065 25.5985 38.6332 24.2977C37.9277 25.0914 37.1339 25.8411 36.2079 26.5687C35.833 29.2586 34.2896 31.5737 31.6658 33.514C28.7333 35.6968 25.1174 36.7993 20.9943 36.7993C16.8712 36.7993 13.2552 35.6968 10.2786 33.514C7.67685 31.5958 6.15549 29.2807 5.75861 26.6128C4.83257 25.8852 4.03882 25.1355 3.33326 24.3418L3.31121 24.2977ZM42.7784 47.978C42.4476 47.978 42.139 47.8457 41.8964 47.6031C41.4334 47.1181 41.4554 46.3463 41.9405 45.8833C43.1091 44.7588 44.0351 43.5682 44.6966 42.3335C46.1077 39.6435 46.3282 36.7111 45.3581 33.3376C44.6966 31.0005 43.528 28.8176 41.8523 26.7892C41.9185 27.3183 41.9626 27.8695 41.9626 28.4208C41.9626 32.8305 39.8459 36.6229 35.6566 39.6656C31.6217 42.6422 26.6828 44.1635 21.0163 44.1635C15.3277 44.1635 10.3888 42.6422 6.33188 39.6656C2.09853 36.6229 0.00390625 32.8525 0.00390625 28.4428C0.00390625 26.1497 0.577172 24.0331 1.70166 22.0928C0.577172 20.1525 0.00390625 18.0138 0.00390625 15.7428C0.00390625 11.333 2.09853 7.54065 6.26573 4.47588C10.3227 1.49931 15.2616 0 20.9502 0C26.6387 0 31.5556 1.49931 35.5905 4.45384C39.7577 7.5186 41.8964 11.333 41.8964 15.7428C41.8964 17.9256 41.3673 19.9982 40.3089 21.8723C44.0351 25.0253 46.5046 28.6633 47.6511 32.6762C48.7977 36.6008 48.511 40.2389 46.8133 43.458C46.0416 44.9352 44.9612 46.3243 43.5942 47.6252C43.3516 47.8457 43.065 47.9559 42.7563 47.9559L42.7784 47.978Z" fill="#FCC000"/>
</g>
<defs>
<clipPath id="clip0_1806_582">
<rect width="48.3307" height="48" fill="white"/>
</clipPath>
</defs>
</svg>
