<svg width="80" height="80" viewBox="0 0 80 80" fill="none" xmlns="http://www.w3.org/2000/svg">
<g clip-path="url(#clip0_2102_7901)">
<path d="M53.3529 79.9467H5.16598C2.42524 79.2564 0.74407 77.5086 0.0195312 74.8022V72.3076C0.38281 70.907 0.998365 69.6516 2.11242 68.6849C2.35461 68.475 2.39295 68.2691 2.12453 68.0451C1.01047 67.1127 0.433265 65.8594 0.0195312 64.5091V62.0146C0.36061 60.6341 0.960019 59.3969 2.04985 58.4443C2.33846 58.1921 2.40102 57.9842 2.07004 57.6976C1.00038 56.7692 0.398956 55.5562 0.0195312 54.2161V51.5642C0.873236 48.23 3.59177 46.1472 7.58178 46.343C9.91282 46.456 12.2539 46.3551 14.591 46.3692C15.1299 46.3732 15.4104 46.2158 15.4044 45.6204C15.3862 43.3096 15.3963 40.9987 15.3923 38.6878C15.3923 38.5869 15.3882 38.4759 15.2591 38.4396C15.2127 38.4577 15.1521 38.4658 15.1198 38.5001C14.3811 39.2287 13.6506 39.9674 12.9078 40.6919C11.9734 41.6041 11.263 41.6223 10.3629 40.7202C6.90972 37.271 3.46664 33.8117 0.0195312 30.3565C0.0195312 29.9407 0.0195312 29.525 0.0195312 29.1092C4.36475 24.7438 8.70996 20.3783 13.0532 16.0129C13.3983 15.6657 13.8241 15.5002 14.2944 15.4155C18.8394 14.5941 23.3844 13.7746 27.9274 12.9431C28.4239 12.8523 28.8538 12.9431 29.2413 13.256C29.6711 13.6011 29.7216 14.1077 29.768 14.5961C29.8245 15.1955 30.1051 15.3146 30.654 15.1733C33.0153 14.5597 35.3827 13.9644 37.7521 13.3811C38.2486 13.258 38.4948 13.038 38.521 12.489C38.6078 10.6827 38.7632 10.5334 40.5877 10.2084C42.5151 9.8633 43.7078 8.33953 43.6412 6.30716C43.5847 4.56139 42.172 3.02752 40.4323 2.82368C38.5614 2.60369 36.8277 3.76216 36.3292 5.56445C36.1234 6.30851 35.6242 6.68121 34.8317 6.68255C34.6238 6.68255 34.416 6.66843 34.2081 6.68255C33.647 6.71888 33.4452 6.50697 33.4694 5.90755C33.6167 2.28481 37.4917 -0.643654 41.1649 0.127313C44.2265 0.769113 46.3194 3.16678 46.4506 6.41615C46.5575 9.0782 44.9409 11.6817 42.0933 12.7009C41.8894 12.7736 41.5423 12.7554 41.5524 13.0501C41.5645 13.4013 41.9479 13.3347 42.1699 13.3932C44.4586 13.9785 46.7594 14.5133 49.0399 15.1289C49.7847 15.3307 50.0571 15.147 50.1601 14.4023C50.3336 13.151 50.8846 12.7655 52.148 12.9896C56.5921 13.7787 61.0342 14.5941 65.4783 15.3832C66.1847 15.5083 66.7054 15.8777 67.1958 16.3701C71.1394 20.3279 75.0931 24.2776 79.0508 28.2212C79.3596 28.528 79.5836 28.9357 80.0155 29.1112V30.3585C79.8056 30.4191 79.6724 30.5785 79.5251 30.7258C76.2616 33.9994 73.0002 37.275 69.7287 40.5426C68.5783 41.6909 67.9526 41.6768 66.7821 40.5042C66.0737 39.7958 65.3794 39.0733 64.6791 38.3568C64.6125 38.3871 64.5459 38.4153 64.4793 38.4456V39.3457C64.4793 48.7992 64.4712 58.2526 64.4934 67.706C64.4954 68.5799 64.2371 69.2338 63.6175 69.8454C60.4772 72.9474 57.3651 76.0817 54.2389 79.1979C53.9644 79.4704 53.6475 79.7004 53.3488 79.9507L53.3529 79.9467ZM27.0737 46.3632V46.3672C29.6994 46.3672 32.3231 46.347 34.9488 46.3733C37.5341 46.3975 39.8833 48.0383 40.8238 50.4198C41.8268 52.9608 41.2476 55.756 39.292 57.5745C38.8802 57.9579 38.8863 58.1396 39.296 58.5291C41.9742 61.064 41.9883 65.3205 39.3263 67.8513C38.8964 68.259 38.8843 68.4669 39.3162 68.8807C41.4313 70.9049 41.9257 73.9787 40.5372 76.5237C40.1981 77.1453 40.3354 77.2624 40.9772 77.2584C44.1478 77.2422 47.3184 77.2341 50.489 77.2624C51.2015 77.2685 51.4497 77.0384 51.4396 76.3179C51.4053 73.8496 51.4235 71.3792 51.4295 68.9109C51.4335 67.4477 51.924 66.9613 53.4094 66.9573C55.801 66.9512 58.1905 66.9573 60.5821 66.9553C61.7184 66.9553 61.7224 66.9532 61.7224 65.8371C61.7224 56.7672 61.6417 47.6952 61.7789 38.6272C61.8132 36.3345 61.3107 34.6231 59.5024 33.1679C58.0937 32.0357 58.2248 31.9449 59.4721 30.6209C60.0412 30.0195 60.3763 30.1163 60.903 30.6532C63.1392 32.9378 65.4218 35.1761 67.666 37.4506C68.1 37.8906 68.3987 37.9592 68.8709 37.4789C71.2585 35.0509 73.6682 32.6472 76.0921 30.2556C76.5159 29.8358 76.4695 29.5734 76.0719 29.1779C72.5138 25.6439 68.9698 22.0918 65.4238 18.5458C65.1796 18.3016 64.9233 18.124 64.564 18.0594C60.8869 17.3994 57.2097 16.7314 53.5385 16.0452C52.9896 15.9422 52.7434 16.0815 52.6203 16.6446C52.1904 18.5962 51.2479 20.2976 49.8351 21.6962C45.837 25.65 41.0317 26.647 35.748 25.1353C31.538 23.9304 28.5833 21.2098 27.334 16.9049C27.106 16.1178 26.8335 15.9241 26.0666 16.0714C22.6256 16.7273 19.1764 17.3429 15.7293 17.9645C15.1501 18.0695 14.6819 18.3056 14.254 18.7375C10.815 22.2069 7.3618 25.6641 3.88845 29.1012C3.40408 29.5815 3.38995 29.8641 3.88441 30.3504C6.25985 32.6795 8.61309 35.0307 10.9401 37.4082C11.4406 37.9188 11.7534 37.939 12.258 37.4203C14.256 35.3759 16.2742 33.3516 18.3187 31.3515C19.9877 29.7187 19.3641 29.6642 21.2108 31.4403C21.5761 31.7915 21.566 32.0639 21.2047 32.4111C20.3813 33.2042 19.6002 34.0418 18.7687 34.8269C18.3429 35.2305 18.1471 35.6604 18.1512 36.2599C18.1774 39.3013 18.1814 42.3408 18.1512 45.3823C18.1431 46.119 18.359 46.3934 19.124 46.3813C21.7739 46.343 24.4258 46.3672 27.0757 46.3672L27.0737 46.3632ZM20.6094 66.9492C25.2068 66.9512 29.8043 66.9532 34.4018 66.9492C34.7893 66.9492 35.1889 66.9492 35.5603 66.8644C37.5583 66.4002 38.7168 64.6908 38.4746 62.614C38.2647 60.8137 36.6158 59.4333 34.5431 59.4292C25.2694 59.4111 15.9977 59.4171 6.72404 59.4272C5.77144 59.4272 4.87334 59.6674 4.11045 60.287C2.90154 61.2699 2.41112 62.9127 2.89549 64.3578C3.41215 65.8957 4.79463 66.9391 6.42534 66.9452C11.152 66.9593 15.8807 66.9512 20.6073 66.9512L20.6094 66.9492ZM20.6013 77.2442C25.3279 77.2442 30.0566 77.2543 34.7833 77.2402C36.6986 77.2341 38.3313 75.7871 38.4827 74.0151C38.6683 71.8455 37.4514 70.1905 35.3988 69.8434C34.9669 69.7707 34.5229 69.7202 34.085 69.7202C25.0979 69.7142 16.1108 69.7142 7.12365 69.7162C6.12463 69.7162 5.15791 69.8534 4.30824 70.4488C3.01456 71.353 2.41515 73.018 2.85714 74.5014C3.33748 76.116 4.7139 77.2321 6.3426 77.2382C11.0955 77.2543 15.8504 77.2442 20.6033 77.2463L20.6013 77.2442ZM20.6174 56.6562C25.2674 56.6562 29.9174 56.6622 34.5653 56.6542C36.8338 56.6501 38.4726 55.1163 38.4968 53.0032C38.525 50.773 36.9246 49.1382 34.6117 49.1342C25.2876 49.1181 15.9614 49.1241 6.63726 49.1342C5.70888 49.1342 4.84105 49.3905 4.1044 49.992C2.89145 50.9849 2.4091 52.6197 2.89751 54.0648C3.41417 55.5966 4.8027 56.642 6.43342 56.6481C11.1601 56.6642 15.8888 56.6542 20.6154 56.6562H20.6174ZM39.8409 23C43.5524 23.0323 46.4788 21.6014 48.6827 18.677C49.0621 18.1724 48.9955 17.9443 48.3719 17.793C45.726 17.1532 43.0862 16.4912 40.4444 15.8272C40.0508 15.7283 39.6815 15.7666 39.296 15.8655C36.7571 16.5073 34.2141 17.135 31.6732 17.7687C30.761 17.9968 30.7226 18.0493 31.2877 18.788C33.4553 21.6155 36.3272 23.0182 39.8389 23H39.8409ZM59.6396 69.7243C57.9504 69.7243 56.3257 69.7182 54.701 69.7283C54.2409 69.7323 54.1884 70.0754 54.1904 70.4408C54.1924 71.4257 54.1904 72.4106 54.1904 73.3934C54.1904 73.9706 54.1904 74.5479 54.1904 75.1715C56.0391 73.3228 57.7909 71.571 59.6396 69.7223V69.7243Z" fill="#19B494"/>
<path d="M19.8915 64.5675C15.292 64.5675 10.6925 64.5514 6.09502 64.5837C5.30388 64.5897 5.05766 64.3435 5.0839 63.5625C5.15252 61.5866 4.86593 61.8126 6.83773 61.8106C15.7502 61.8026 24.6626 61.8066 33.575 61.8086C34.8445 61.8086 34.8505 61.8106 34.8425 63.0983C34.8344 64.7108 34.9898 64.5655 33.3772 64.5675C28.8827 64.5736 24.3861 64.5696 19.8915 64.5675Z" fill="#19B494"/>
<path d="M19.9348 74.8605C15.3353 74.8605 10.7378 74.8605 6.13833 74.8605C5.10702 74.8605 5.09491 74.8545 5.10097 73.8232C5.11509 71.922 4.87089 72.1056 6.79828 72.1056C15.7349 72.0996 24.6736 72.1036 33.6103 72.1056C34.8414 72.1056 34.8494 72.1097 34.8434 73.357C34.8333 75.0361 35.0069 74.8605 33.3398 74.8626C28.8715 74.8706 24.4032 74.8646 19.9328 74.8646L19.9348 74.8605Z" fill="#19B494"/>
<path d="M20.5956 54.2723C15.7883 54.2723 10.9809 54.2723 6.17146 54.2723C5.10383 54.2723 5.09374 54.2662 5.09979 53.1865C5.11392 51.3136 4.88788 51.5154 6.75876 51.5154C16.1657 51.5093 25.5746 51.5113 34.9815 51.5134C36.1884 51.5134 36.1985 51.5255 36.2065 52.7243C36.2133 53.759 35.7127 54.2763 34.705 54.2763C30.0005 54.2763 25.2981 54.2763 20.5936 54.2763L20.5956 54.2723Z" fill="#19B494"/>
</g>
<defs>
<clipPath id="clip0_2102_7901">
<rect width="80" height="79.9465" fill="white"/>
</clipPath>
</defs>
</svg>
