<svg width="78" height="78" viewBox="0 0 78 78" fill="none" xmlns="http://www.w3.org/2000/svg">
<g clip-path="url(#clip0_1395_4197)">
<path d="M53.5033 0C53.7575 0 54.01 0 54.2642 0C54.3863 0.0334492 54.505 0.0735883 54.6288 0.0986752C56.828 0.576999 58.1008 2.28626 57.967 4.58422C57.8549 6.48915 56.2176 8.09304 54.1555 8.2536C53.6588 8.29207 53.4447 8.53959 53.2674 8.93262C52.4312 10.7773 51.605 12.6271 50.7371 14.4568C50.4611 15.0371 50.5665 15.3532 51.12 15.6793C53.535 17.0976 55.7058 18.8386 57.6626 20.8389C58.0807 21.267 58.3784 21.3055 58.8751 20.9559C62.23 18.5944 65.5949 16.248 68.9849 13.9383C69.6422 13.4917 69.9148 13.0268 69.8997 12.2106C69.8446 9.36746 72.6241 7.41235 75.3134 8.3506C76.7149 8.84063 77.5193 9.90265 77.9993 11.2557V13.082C77.2835 15.8549 74.4788 16.9805 72.308 15.9653C71.7344 15.6977 71.3397 15.778 70.8564 16.1175C67.5165 18.4606 64.17 20.7937 60.8034 23.0984C60.2582 23.4713 60.1629 23.7255 60.586 24.2758C62.2935 26.4968 63.6449 28.9286 64.7219 31.5142C67.0148 37.0166 67.749 42.7464 67.0466 48.6352C66.4512 53.6292 64.8072 58.292 62.056 62.53C61.6982 63.0819 61.7834 63.204 62.424 63.2759C64.0864 63.4616 65.7371 63.7425 67.2322 64.5704C69.0702 65.5873 69.5552 67.0992 68.6488 68.9824C68.4732 69.347 68.2758 69.7032 68.1086 70.0711C67.4279 71.5713 67.7155 72.6066 69.0936 73.5315C69.4699 73.784 69.8813 73.9964 70.3028 74.1603C72.1207 74.8678 74.0239 75.1069 75.9606 75.1019C76.7617 75.1002 77.4641 75.2792 77.9993 75.913V77.1306C77.7401 77.5571 77.424 77.9166 76.8805 77.9384C73.9353 78.0488 71.0403 77.7895 68.3678 76.4348C66.1602 75.316 64.7085 73.6351 64.8741 70.9692C64.9393 69.9089 65.3741 68.9656 65.8909 68.0525C66.2923 67.345 66.2288 67.1577 65.4678 66.8884C64.1951 66.4369 62.8722 66.1994 61.5326 66.0907C60.4505 66.0037 59.529 65.9669 58.5707 66.9804C49.6065 76.4466 38.617 79.9035 25.9433 77.0219C12.2796 73.9161 2.34199 62.7156 0.33006 48.7991C-0.424205 43.5793 0.126024 38.4616 1.97907 33.5479C5.75542 23.5399 12.6107 16.4921 22.652 12.6739C27.124 10.973 31.7784 10.4228 36.5448 10.871C40.1807 11.2122 43.6727 12.117 47.0092 13.6005C47.6514 13.8864 47.9307 13.7543 48.205 13.1188C48.9743 11.3259 49.7988 9.55645 50.63 7.79033C50.8474 7.32706 50.8374 6.98587 50.528 6.54434C49.3907 4.92038 49.5212 2.86827 50.7922 1.41156C51.5114 0.587034 52.463 0.21073 53.5033 0ZM13.3432 66.8617C15.509 66.6359 17.7534 66.2529 19.9761 65.7478C29.6929 63.5402 38.5618 59.4477 46.668 53.6777C52.5734 49.4748 57.798 44.5594 62.1213 38.7208C63.6482 36.6587 63.6231 36.6369 62.7233 34.2319C62.6481 34.0329 62.6581 33.7168 62.3838 33.6968C62.1246 33.6767 62.0477 33.9744 61.9223 34.1533C57.3381 40.6793 51.6368 46.0663 45.1294 50.6304C39.5368 54.554 33.5378 57.6899 27.0839 59.9427C21.702 61.8209 16.1864 63.0568 10.4784 63.3428C10.2593 63.3545 9.98499 63.2993 9.89133 63.5736C9.81273 63.8044 10.0402 63.9299 10.1589 64.0837C10.8396 64.9735 11.6424 65.7478 12.4351 66.5322C12.6609 66.7546 12.9084 66.9152 13.3449 66.8583L13.3432 66.8617ZM9.31602 56.9674C8.48315 57.0878 7.59843 56.9189 6.71205 56.9406C5.75375 56.964 5.72197 56.9824 6.15513 57.8739C6.46453 58.5111 6.84082 59.1165 7.14019 59.7587C7.42785 60.3775 7.87104 60.5465 8.53667 60.5381C12.0989 60.4913 15.6043 59.9945 19.0596 59.1901C29.4671 56.7684 38.816 52.1323 47.2015 45.5344C52.1118 41.6711 56.4501 37.2608 59.8969 32.0193C61.0911 30.203 61.0827 30.198 59.922 28.37C59.4805 27.6759 59.437 27.6726 59.0039 28.4151C58.2881 29.6444 57.4602 30.795 56.5772 31.9072C53.331 36.0014 49.5061 39.5086 45.4957 42.8234C40.0854 47.2939 34.1666 50.9265 27.604 53.4552C21.7405 55.7147 15.6813 57.0126 9.31602 56.9674ZM8.41625 54.1025C10.465 54.1242 12.313 53.9938 14.1443 53.7613C20.6751 52.9301 26.8063 50.8261 32.6213 47.7739C38.7909 44.536 44.3634 40.4619 49.3439 35.5984C52.1051 32.904 54.6706 30.0291 56.6056 26.6524C57.5723 24.9648 57.5723 24.9347 56.2661 23.5416C56.144 23.4128 56.0119 23.2924 55.8982 23.1569C55.5637 22.7522 55.363 22.8542 55.1339 23.284C54.6572 24.1771 54.1689 25.0685 53.617 25.9165C50.5982 30.5576 46.6931 34.3775 42.4217 37.8411C36.3776 42.7414 29.7598 46.5998 22.2322 48.7556C17.3403 50.1571 12.3598 50.7174 7.28234 50.107C6.22871 49.9798 5.1801 49.8009 4.13149 49.632C3.68662 49.5601 3.44078 49.6136 3.56286 50.1672C3.79199 51.2058 4.03616 52.2393 4.34222 53.2595C4.47601 53.7061 4.70848 53.9586 5.1985 53.9486C6.3391 53.9285 7.46631 54.2062 8.41625 54.1008V54.1025ZM34.5563 13.7426C34.2319 13.7426 34.0496 13.7677 33.8773 13.7393C32.9374 13.5804 32.4273 13.9751 32.0159 14.8464C30.1913 18.7165 28.9119 22.7589 27.997 26.9283C27.2244 30.4438 26.7578 34.0028 26.4969 37.5886C26.3865 39.1038 26.3698 40.6258 26.3346 42.1444C26.3213 42.7398 26.9468 43.6329 27.3649 43.6931C28.166 43.8085 29.539 42.6528 29.5524 41.8115C29.5892 39.4283 29.8601 37.0634 30.1879 34.7086C30.8184 30.1829 31.8503 25.7526 33.5395 21.4928C34.5045 19.0577 35.6986 16.7447 37.1954 14.5922C37.3075 14.4317 37.5199 14.2661 37.4396 14.0637C37.3342 13.7945 37.0415 13.9166 36.8291 13.8965C36.023 13.8229 35.2219 13.6707 34.5546 13.7426H34.5563ZM11.057 24.1687C11.1323 24.8227 11.1925 25.4783 11.2845 26.1289C11.3581 26.654 11.4668 27.1758 11.5671 27.6976C12.8331 34.3373 15.5441 40.3247 19.6583 45.6833C19.9727 46.093 20.2955 46.2753 20.824 46.0981C21.7355 45.792 22.6687 45.5528 23.5852 45.2602C24.4448 44.9859 24.4532 44.9491 23.8544 44.2333C20.2119 39.8765 17.3637 35.0632 15.4471 29.7063C14.5758 27.2678 13.9085 24.7775 13.4569 22.2304C13.3633 21.7019 13.2312 21.5045 12.783 21.9711C12.2913 22.4829 11.7879 22.9813 11.2878 23.4864C11.1005 23.6754 10.9751 23.8861 11.057 24.1671V24.1687ZM32.4608 41.1727C33.5328 40.497 34.4693 39.9133 35.3992 39.3196C35.6417 39.1657 35.64 38.8948 35.6735 38.6422C35.9912 36.2356 36.3425 33.8356 36.876 31.464C38.0233 26.363 39.7693 21.5045 42.6241 17.0892C43.7998 15.2712 43.8015 15.2947 41.6507 14.7478C41.0704 14.6006 40.7075 14.7294 40.3479 15.1943C38.6136 17.4354 37.2656 19.8939 36.2237 22.518C33.874 28.4335 32.8421 34.6216 32.4608 41.1743V41.1727ZM23.4112 38.7392C23.7491 37.4113 23.6404 36.1854 23.7574 34.9779C24.1755 30.6546 24.985 26.4132 26.2042 22.2454C26.9601 19.6648 27.8766 17.1411 28.9537 14.6775C29.141 14.2477 29.1978 14.0336 28.564 14.1507C27.691 14.3113 26.8297 14.5086 25.9667 14.711C25.5352 14.8113 25.2743 15.0354 25.0954 15.4535C24.0869 17.8117 23.2591 20.2268 22.6302 22.7137C21.8007 25.9867 21.3475 29.3216 21.028 32.6749C20.9628 33.3656 20.6233 34.0915 20.9728 34.7705C21.6669 36.1185 22.4429 37.423 23.4112 38.7409V38.7392ZM38.8143 36.8493C40.092 35.9462 41.1089 35.0381 42.1558 34.1667C42.604 33.7938 42.8549 33.3489 42.987 32.7736C44.054 28.1308 45.6345 23.6887 48.2351 19.6598C49.3824 17.8836 49.3807 17.9204 47.4892 16.9387C46.8252 16.5942 46.4707 16.6477 46.0091 17.2765C41.7695 23.0582 39.9399 29.7146 38.8143 36.8493ZM23.642 67.9605C23.811 68.1177 23.8728 68.1996 23.9548 68.2465C29.5039 71.4241 35.4795 73.2906 41.8213 74.0014C42.3047 74.0549 42.7964 73.9011 43.1242 73.5064C43.5289 73.0214 43.8951 72.5029 44.2631 71.9878C44.5139 71.6366 44.4069 71.4392 43.9754 71.3823C43.5255 71.3221 43.079 71.2285 42.6308 71.1482C38.0634 70.317 33.7268 68.8168 29.6109 66.671C29.2982 66.5071 28.9788 66.2914 28.6092 66.4051C26.9919 66.9018 25.3814 67.4153 23.642 67.9622V67.9605ZM13.9386 47.2889C14.4186 47.2554 14.723 47.2404 15.024 47.2103C15.3251 47.1801 15.6261 47.1333 15.9271 47.0965C16.9189 46.9761 16.954 46.9059 16.3804 46.1014C13.5238 42.0892 11.3698 37.7307 9.91307 33.0244C9.37455 31.2817 8.95812 29.5123 8.59855 27.7277C8.56677 27.5705 8.62196 27.3314 8.3711 27.3113C8.19716 27.2979 8.13528 27.4836 8.05835 27.6057C7.74895 28.0974 7.44624 28.5958 7.14186 29.0908C6.84584 29.5708 6.62843 30.0491 6.74048 30.6579C7.76902 36.2356 9.68061 41.4821 12.5237 46.3941C12.9034 47.0497 13.2763 47.5364 13.9386 47.2855V47.2889ZM48.2117 71.4308C49.6884 70.7886 50.9745 69.8989 52.2473 68.9807C52.7239 68.6362 52.9982 68.2214 53.1788 67.6594C54.7893 62.6354 55.174 57.4976 54.6505 52.2728C54.6204 51.9768 54.5953 51.5168 54.4231 51.4349C54.1037 51.2827 53.8896 51.7042 53.637 51.8898C53.3929 52.0704 53.1888 52.3129 52.9296 52.4635C51.9262 53.0455 51.7689 53.9235 51.8877 54.9922C52.3075 58.7569 51.7104 62.4096 50.5631 65.9887C49.9594 67.8718 49.1349 69.6614 48.2117 71.4325V71.4308ZM57.1592 64.2242C58.5055 62.734 59.6661 61.1218 60.591 59.3456C60.7215 59.0948 60.7248 58.8121 60.7532 58.5345C60.9924 56.2081 60.9104 53.8901 60.5943 51.5771C60.3853 50.0484 60.0742 48.5382 59.6294 47.0597C59.5474 46.7854 59.4738 46.3657 59.0524 46.7821C58.4587 47.3691 57.8817 47.9729 57.2946 48.5666C57.0655 48.7974 57.1073 49.055 57.1558 49.3426C57.5388 51.6389 57.7713 53.9519 57.7964 56.28C57.8231 58.9376 57.5422 61.57 57.1609 64.2275L57.1592 64.2242ZM32.7668 64.8112C32.817 65.0487 32.9524 65.0788 33.0628 65.1307C36.7806 66.8667 40.6724 68.0157 44.7381 68.5509C46.3018 68.7566 46.2867 68.6964 46.9356 67.2647C47.1748 66.7362 47.0376 66.5506 46.5158 66.4335C43.2981 65.7043 40.1957 64.6289 37.1837 63.2876C36.9529 63.1839 36.7104 63.0535 36.4562 63.1655C35.2169 63.7108 33.9827 64.2677 32.7651 64.8129L32.7668 64.8112ZM21.6853 16.1961C19.6232 17.0474 17.9173 18.0208 16.2934 19.1463C16.0041 19.347 15.9572 19.633 16.0124 19.9541C16.1546 20.7753 16.2733 21.6032 16.4406 22.4194C16.9005 24.6705 17.4992 26.8815 18.419 29.0222C19.0646 24.7073 20.1082 20.5061 21.6853 16.1961ZM4.66834 34.7688C4.09971 36.0533 3.90069 37.2424 3.63478 38.4148C3.54614 38.8045 3.57792 39.159 3.7 39.5286C4.28368 41.283 4.91753 43.0241 5.46609 44.7852C5.9929 46.4794 6.7756 47.5615 8.71394 47.3106C8.78586 47.3006 8.86279 47.3357 8.93805 47.344C9.15714 47.3691 9.42807 47.513 9.57524 47.2939C9.72242 47.0765 9.4933 46.8674 9.38793 46.6784C7.87606 43.9406 6.66689 41.074 5.67849 38.1121C5.32895 37.0668 5.03795 36.0014 4.66834 34.7705V34.7688ZM40.0168 61.3476C42.6308 62.4481 45.1261 63.2274 47.7066 63.7409C48.118 63.8228 48.2552 63.6271 48.3288 63.286C48.5027 62.4715 48.6883 61.6603 48.8589 60.8458C48.9576 60.3709 48.7736 60.1016 48.2836 59.9594C47.143 59.6316 46.0175 59.257 44.8869 58.8974C44.6678 58.8272 44.4504 58.7469 44.2296 58.8773C42.8833 59.6651 41.5387 60.4545 40.0168 61.3459V61.3476ZM15.989 69.5142C21.0213 73.0598 26.4233 74.8778 32.5193 75.1353C32.3437 75.0199 32.3069 74.9815 32.2617 74.9681C27.9385 73.6653 23.8879 71.7821 20.1333 69.2683C19.8791 69.0978 19.6198 68.9305 19.2937 68.9623C18.2451 69.0626 17.2116 69.25 15.9873 69.5159L15.989 69.5142ZM46.9055 29.3701C47.1781 29.3132 47.2668 29.1125 47.3989 28.9737C49.5563 26.7009 51.3258 24.152 52.7958 21.3891C53.2022 20.6265 53.1303 20.4659 52.2556 19.914C51.6234 19.5143 51.5398 20.1314 51.304 20.4157C50.998 20.7837 50.7287 21.1867 50.4711 21.5932C48.9358 24.0149 47.6983 26.5704 46.9055 29.3701ZM64.2754 41.0773C64.2034 41.0422 64.1315 41.0088 64.0596 40.9736C63.5211 41.6343 63.0244 42.3334 62.434 42.9455C61.7968 43.6061 61.5961 44.25 62.0293 45.113C62.2868 45.6248 62.3755 46.2218 62.5427 46.7788C62.9993 48.2974 63.2468 49.8628 63.5696 51.4215C64.5128 48.0114 64.5864 44.5561 64.2737 41.0757L64.2754 41.0773ZM53.8394 5.40038C54.4532 5.41878 55.0703 4.82338 55.0837 4.20122C55.0971 3.58409 54.5084 2.97865 53.8812 2.96026C53.2474 2.94353 52.6654 3.50882 52.652 4.1544C52.6386 4.78993 53.2022 5.38031 53.8394 5.39871V5.40038ZM72.7328 12.229C72.7328 12.8662 73.3182 13.4483 73.9487 13.4382C74.5725 13.4282 75.1729 12.8261 75.1679 12.214C75.1629 11.5902 74.5658 11.0081 73.9353 11.0165C73.2897 11.0249 72.7328 11.5868 72.7328 12.2307V12.229Z" fill="#19B494"/>
</g>
<defs>
<clipPath id="clip0_1395_4197">
<rect width="78" height="78" fill="white"/>
</clipPath>
</defs>
</svg>
