<svg width="293" height="45" viewBox="0 0 293 45" fill="none" xmlns="http://www.w3.org/2000/svg">
<path d="M9.4743 0H20.2772C27.006 9.43022 25.1174 22.9808 35.1244 31.7622H22.8725C15.918 22.332 15.918 6.20334 9.4743 0Z" fill="#EE8222"/>
<path d="M0.494141 6.60742H11.9384C15.6562 13.1181 15.7512 28.3817 26.75 38.3355H13.8923C7.51987 29.9525 5.33435 12.4636 0.494141 6.60742Z" fill="#214A89"/>
<path d="M206.942 40.612L207.708 42.8202H208.724L206.253 35.7973H205.095L202.63 42.7974H203.593L204.365 40.5893L206.942 40.612ZM204.567 39.9007L205.267 37.8746C205.415 37.4635 205.535 37.0433 205.624 36.6169H205.653C205.784 37.0153 205.879 37.4478 206.039 37.9088L206.776 39.9007H204.567ZM210.719 37.7835H209.787V42.8202H210.719V37.7835ZM210.238 36.8616C210.396 36.8616 210.547 36.8016 210.658 36.6949C210.77 36.5882 210.832 36.4434 210.832 36.2925C210.832 36.1415 210.77 35.9968 210.658 35.8901C210.547 35.7833 210.396 35.7234 210.238 35.7234C210.157 35.7179 210.075 35.7286 209.998 35.7547C209.921 35.7808 209.851 35.8219 209.791 35.8753C209.731 35.9287 209.684 35.9933 209.652 36.0651C209.619 36.1369 209.603 36.2143 209.603 36.2925C209.603 36.3697 209.619 36.4461 209.651 36.517C209.682 36.588 209.729 36.6521 209.787 36.7053C209.845 36.7585 209.914 36.7998 209.99 36.8267C210.065 36.8536 210.146 36.8654 210.226 36.8616H210.238ZM212.287 42.8202H213.22V40.1454C213.22 39.9633 213.249 39.8437 213.249 39.6901C213.283 39.3839 213.432 39.0999 213.668 38.8907C213.904 38.6815 214.211 38.5611 214.532 38.5519H214.882V37.6925C214.787 37.6925 214.722 37.6583 214.627 37.6583C214.288 37.6764 213.964 37.796 213.699 38.0002C213.435 38.2044 213.244 38.483 213.154 38.7966H213.119L213.089 37.812H212.287C212.317 38.273 212.317 38.7966 212.317 39.3828L212.287 42.8202ZM214.627 44.9999C215.226 45.0086 215.807 44.8061 216.26 44.4308C216.741 43.9698 216.902 43.3267 216.902 42.3422V37.7892H215.94V42.0292C215.94 43.2243 215.815 43.6227 215.554 43.9015C215.42 44.0301 215.26 44.1317 215.085 44.2001C214.909 44.2686 214.721 44.3025 214.532 44.2999L214.627 44.9999ZM216.409 36.8616C216.491 36.8679 216.573 36.8578 216.651 36.8321C216.728 36.8063 216.799 36.7654 216.86 36.7119C216.92 36.6584 216.968 36.5935 217.001 36.5213C217.034 36.4491 217.05 36.3712 217.05 36.2925C217.05 36.1415 216.988 35.9968 216.876 35.8901C216.765 35.7833 216.614 35.7234 216.456 35.7234C216.374 35.7171 216.292 35.7271 216.214 35.7529C216.137 35.7787 216.065 35.8196 216.005 35.8731C215.945 35.9265 215.897 35.9914 215.864 36.0636C215.831 36.1358 215.815 36.2137 215.815 36.2925C215.815 36.3702 215.831 36.4471 215.863 36.5184C215.895 36.5898 215.942 36.6541 216.001 36.7075C216.06 36.7608 216.13 36.802 216.206 36.8285C216.282 36.855 216.363 36.8662 216.444 36.8616H216.409ZM222.692 40.4584C222.692 40.3616 222.722 40.2137 222.722 40.0259C222.722 39.1039 222.276 37.6583 220.542 37.6583C219.034 37.6583 218.078 38.8592 218.078 40.3958C218.05 40.7303 218.099 41.0665 218.219 41.3816C218.339 41.6967 218.529 41.9833 218.775 42.2219C219.021 42.4605 219.318 42.6456 219.646 42.7645C219.973 42.8835 220.323 42.9335 220.673 42.9113C221.257 42.9203 221.837 42.8237 222.383 42.6267L222.223 41.9779C221.763 42.1483 221.273 42.2314 220.78 42.2226C220.538 42.2365 220.297 42.2005 220.071 42.117C219.846 42.0335 219.642 41.9046 219.473 41.7389C219.304 41.5732 219.174 41.3746 219.092 41.1566C219.01 40.9387 218.978 40.7063 218.998 40.4755L222.692 40.4584ZM219.004 39.8096C219.099 39.1665 219.521 38.3071 220.477 38.3071C221.54 38.3071 221.789 39.2291 221.789 39.8096H219.004ZM224.1 36.8616V37.7835H223.298V38.4893H224.1V41.221C224.043 41.6926 224.182 42.1665 224.486 42.5414C224.617 42.6709 224.777 42.7712 224.953 42.8351C225.13 42.899 225.319 42.925 225.507 42.9113C225.791 42.9142 226.074 42.8739 226.345 42.7918L226.315 42.1145C226.12 42.1574 225.921 42.1784 225.721 42.1771C225.21 42.1771 225.02 41.8072 225.02 41.1926V38.4893H226.398V37.7835H225.02V36.5827L224.1 36.8616ZM231.571 42.8202L232.628 39.1665C232.864 38.4208 233.044 37.6601 233.168 36.8901H233.204C233.32 37.6569 233.48 38.4169 233.685 39.1665L234.617 42.8202H235.574L237.664 35.8201H236.696L235.734 39.3543C235.514 40.2137 235.289 41.0104 235.14 41.7787C235.009 41.0389 234.819 40.2137 234.629 39.3828L233.721 35.7973H232.759L231.767 39.3315C231.513 40.1262 231.315 40.9361 231.173 41.756H231.143C231.012 41.0787 230.822 40.2194 230.597 39.3315L229.747 35.7973H228.756L230.615 42.7974L231.571 42.8202ZM240.289 42.9113C240.648 42.9183 241.005 42.8526 241.336 42.7185C241.667 42.5843 241.965 42.3848 242.21 42.1329C242.455 41.8809 242.641 41.5823 242.758 41.2565C242.874 40.9307 242.917 40.585 242.884 40.2421C242.884 38.7397 241.893 37.6583 240.384 37.6583C240.027 37.6602 239.674 37.733 239.348 37.8721C239.022 38.0112 238.729 38.2136 238.488 38.4665C238.248 38.7195 238.065 39.0175 237.95 39.3417C237.836 39.6659 237.793 40.0093 237.824 40.3503C237.824 41.9267 238.882 42.9113 240.295 42.9113H240.289ZM240.289 42.2397C239.363 42.2397 238.721 41.4088 238.721 40.3047C238.721 39.3543 239.202 38.3697 240.325 38.3697C241.447 38.3697 241.893 39.4397 241.893 40.2706C241.928 41.4088 241.221 42.2397 240.325 42.2397H240.289ZM243.336 37.7835L245.325 42.8202H246.216L248.271 37.7835H247.327L246.299 40.6291C246.135 41.0518 245.996 41.4832 245.884 41.921H245.818C245.722 41.4789 245.583 41.0464 245.402 40.6291L244.375 37.7835H243.336ZM253.272 40.4584C253.272 40.3616 253.301 40.2137 253.301 40.0259C253.301 39.1039 252.856 37.6583 251.157 37.6583C249.619 37.6583 248.687 38.8592 248.687 40.3958C248.657 40.7284 248.702 41.0633 248.82 41.3775C248.938 41.6918 249.125 41.9781 249.368 42.2168C249.612 42.4556 249.906 42.6412 250.231 42.761C250.556 42.8809 250.905 42.9321 251.252 42.9113C251.86 42.915 252.464 42.8128 253.034 42.6096L252.844 41.9608C252.382 42.1306 251.89 42.2136 251.395 42.2056C251.153 42.2204 250.911 42.185 250.685 42.1019C250.459 42.0188 250.255 41.8898 250.085 41.7239C249.916 41.558 249.786 41.359 249.705 41.1406C249.623 40.9222 249.592 40.6895 249.613 40.4584H253.272ZM249.619 39.8096C249.618 39.431 249.766 39.0659 250.033 38.7873C250.301 38.5087 250.668 38.3373 251.062 38.3071C252.119 38.3071 252.375 39.2291 252.375 39.8096H249.619ZM254.489 42.8202H255.421V39.7811C255.423 39.6367 255.445 39.4931 255.487 39.3543C255.577 39.094 255.747 38.866 255.975 38.7004C256.203 38.5347 256.478 38.4393 256.764 38.4267C257.666 38.4267 257.981 39.1039 257.981 39.9007V42.8202H258.943V39.8096C258.943 38.1023 257.821 37.6583 257.084 37.6583C256.733 37.6548 256.388 37.7416 256.084 37.9098C255.78 38.078 255.528 38.3214 255.356 38.6145H255.32V37.7835H254.453C254.489 38.2161 254.519 38.6145 254.519 39.138L254.489 42.8202ZM262.803 42.8202H263.766V39.6559H266.521V38.8876H263.766V36.5827H266.735V35.7973H262.827L262.803 42.8202ZM271.266 39.7186C271.266 38.7397 270.886 37.6583 269.247 37.6583C268.636 37.6587 268.037 37.818 267.513 38.1193L267.739 38.7397C268.145 38.4704 268.629 38.3292 269.122 38.3356C269.285 38.3209 269.449 38.3412 269.602 38.3951C269.755 38.449 269.893 38.535 270.007 38.6469C270.121 38.7587 270.208 38.8936 270.26 39.0417C270.312 39.1897 270.33 39.3471 270.31 39.5023V39.6275C268.291 39.599 267.169 40.2706 267.169 41.4714C267.166 41.6694 267.207 41.8657 267.288 42.0478C267.369 42.2299 267.489 42.3939 267.64 42.5293C267.791 42.6647 267.969 42.7685 268.164 42.8343C268.359 42.9001 268.566 42.9263 268.772 42.9113C269.081 42.9195 269.387 42.8573 269.666 42.7296C269.945 42.602 270.188 42.4126 270.376 42.1771H270.405L270.471 42.8202H271.338C271.281 42.4129 271.259 42.0017 271.272 41.5909L271.266 39.7186ZM270.334 41.1299C270.328 41.2251 270.308 41.319 270.275 41.4088C270.185 41.6628 270.011 41.8817 269.78 42.0318C269.548 42.182 269.271 42.255 268.992 42.2397C268.871 42.2512 268.749 42.2369 268.635 42.1978C268.521 42.1587 268.417 42.0958 268.331 42.0136C268.245 41.9313 268.18 41.8319 268.139 41.7224C268.098 41.6129 268.083 41.4961 268.095 41.3804C268.095 40.3958 269.283 40.2421 270.334 40.2421V41.1299ZM272.775 41.4999C272.775 41.9608 272.775 42.4503 272.739 42.8202H273.571L273.606 41.995H273.642C273.816 42.2953 274.077 42.5412 274.392 42.7037C274.708 42.8661 275.066 42.9382 275.424 42.9113C276.611 42.9113 277.764 42.0235 277.764 40.2421C277.764 38.7055 276.867 37.6583 275.554 37.6583C275.197 37.6388 274.842 37.7147 274.527 37.8775C274.213 38.0403 273.951 38.2836 273.773 38.5803H273.743V35.4502H272.781L272.775 41.4999ZM273.737 39.9007C273.74 39.7661 273.76 39.6324 273.796 39.5023C273.87 39.1881 274.052 38.9074 274.315 38.7066C274.577 38.5058 274.904 38.397 275.24 38.3982C276.237 38.3982 276.784 39.2576 276.784 40.2706C276.784 41.4088 276.19 42.2056 275.21 42.2056C274.878 42.2093 274.554 42.1049 274.292 41.9096C274.03 41.7142 273.845 41.4393 273.767 41.1299C273.741 41.0199 273.731 40.9069 273.737 40.7942V39.9007ZM278.928 42.8202H279.89V40.1454C279.874 39.994 279.874 39.8415 279.89 39.6901C279.92 39.3825 280.068 39.0965 280.305 38.8865C280.541 38.6766 280.85 38.5575 281.172 38.5519H281.493V37.6925C281.428 37.6925 281.333 37.6583 281.238 37.6583C280.901 37.6727 280.578 37.7914 280.318 37.9967C280.058 38.2019 279.874 38.4827 279.795 38.7966L279.729 37.812H278.898C278.898 38.273 278.957 38.7966 278.957 39.3828L278.928 42.8202ZM283.483 37.7835H282.515V42.8202H283.483V37.7835ZM282.996 36.8616C283.153 36.8616 283.304 36.8016 283.416 36.6949C283.527 36.5882 283.59 36.4434 283.59 36.2925C283.59 36.1415 283.527 35.9968 283.416 35.8901C283.304 35.7833 283.153 35.7234 282.996 35.7234C282.834 35.7196 282.678 35.7774 282.561 35.8842C282.444 35.9909 282.376 36.1378 282.372 36.2925C282.368 36.4472 282.429 36.5971 282.54 36.7091C282.651 36.8212 282.805 36.8863 282.966 36.8901L282.996 36.8616ZM288.644 41.9836C288.264 42.1229 287.862 42.1962 287.456 42.1999C287.203 42.2075 286.951 42.1633 286.717 42.0702C286.483 41.9772 286.272 41.8374 286.099 41.6602C285.926 41.483 285.794 41.2725 285.713 41.0427C285.631 40.8129 285.602 40.5691 285.627 40.3275C285.605 40.0825 285.637 39.8359 285.721 39.6035C285.805 39.3712 285.939 39.1584 286.114 38.9787C286.29 38.7991 286.502 38.6566 286.738 38.5605C286.974 38.4644 287.229 38.4169 287.486 38.421C287.875 38.4131 288.26 38.4972 288.608 38.6657L288.798 37.96C288.388 37.7738 287.939 37.6785 287.486 37.6811C287.11 37.6641 286.736 37.7223 286.385 37.8521C286.035 37.982 285.717 38.1805 285.451 38.435C285.186 38.6895 284.979 38.9944 284.843 39.3301C284.708 39.6658 284.647 40.0249 284.665 40.3844C284.638 40.7229 284.687 41.063 284.808 41.3818C284.93 41.7006 285.122 41.9906 285.371 42.2323C285.62 42.474 285.92 42.6617 286.251 42.7827C286.582 42.9038 286.936 42.9554 287.29 42.934C287.807 42.9461 288.321 42.853 288.798 42.6609L288.644 41.9836ZM289.54 42.5983C289.992 42.8322 290.5 42.9481 291.013 42.934C292.201 42.934 292.967 42.3251 292.967 41.4316C292.967 40.6633 292.486 40.2364 291.589 39.9234C290.912 39.6787 290.598 39.4966 290.598 39.0641C290.603 38.9625 290.629 38.8629 290.676 38.7716C290.723 38.6803 290.788 38.599 290.869 38.5329C290.95 38.4668 291.044 38.4172 291.145 38.3872C291.246 38.3572 291.353 38.3474 291.459 38.3584C291.845 38.3637 292.223 38.4699 292.551 38.6657L292.777 38.0226C292.393 37.7912 291.948 37.6725 291.494 37.6811C291.275 37.66 291.053 37.6821 290.842 37.746C290.632 37.81 290.437 37.9144 290.271 38.0529C290.104 38.1915 289.968 38.3612 289.872 38.5517C289.776 38.7422 289.722 38.9495 289.713 39.1608C289.713 39.7698 290.164 40.2649 291.096 40.6007C291.797 40.8511 292.059 41.0958 292.059 41.5226C292.059 41.9495 291.738 42.2625 291.061 42.2625C290.615 42.2414 290.179 42.1268 289.784 41.9267L289.54 42.5983Z" fill="#EA7E25"/>
<path d="M41.7815 31.0567L36.6205 17.2045H39.7622L43.4503 27.4485L46.978 17.2045H50.0841L44.9231 31.0567H41.7815ZM50.7908 26.5721L53.6415 26.2932C53.7247 27.0551 54.089 27.7635 54.6689 28.2908C55.2654 28.7507 56.0188 28.982 56.7831 28.9396C57.535 28.9866 58.281 28.7858 58.8974 28.3705C59.1152 28.2126 59.2922 28.0089 59.4147 27.775C59.5373 27.5411 59.6021 27.2834 59.6041 27.0217C59.6175 26.7198 59.5138 26.4238 59.3131 26.1908C59.0205 25.9037 58.6568 25.6923 58.256 25.5761C57.9056 25.4851 57.1395 25.2688 55.9161 25.007C54.7307 24.793 53.6129 24.3197 52.6497 23.6241C52.2291 23.2804 51.8937 22.8514 51.6677 22.368C51.4417 21.8847 51.3308 21.3592 51.3431 20.8297C51.3328 20.1225 51.5393 19.428 51.937 18.8321C52.3772 18.2076 52.9957 17.7176 53.7187 17.4207C54.6313 17.0932 55.601 16.9367 56.5753 16.9597C58.3569 16.9597 59.7467 17.324 60.6434 18.098C61.1058 18.4838 61.4746 18.9618 61.7239 19.4986C61.9732 20.0354 62.097 20.6179 62.0866 21.2053L59.1706 21.2964C59.1141 20.7059 58.8279 20.1574 58.3688 19.7598C57.8392 19.393 57.1912 19.2176 56.5396 19.2647C55.8368 19.2299 55.1411 19.4135 54.556 19.7882C54.4091 19.8813 54.2902 20.0096 54.211 20.1604C54.1318 20.3111 54.0952 20.4791 54.1047 20.6476C54.099 20.808 54.1339 20.9672 54.2062 21.1119C54.2786 21.2566 54.3864 21.3823 54.5204 21.4785C55.3487 21.9552 56.2635 22.2776 57.2167 22.4289C58.299 22.6368 59.3516 22.9673 60.3524 23.4135C61.0055 23.7323 61.5511 24.2216 61.9262 24.8249C62.2443 25.3385 62.4441 25.9113 62.5122 26.505C62.5804 27.0986 62.5152 27.6994 62.3212 28.2669C62.1271 28.8345 61.8087 29.3557 61.3872 29.7956C60.9657 30.2356 60.4509 30.584 59.8773 30.8177C58.8736 31.1763 57.8062 31.3426 56.7356 31.3071C54.9064 31.3071 53.495 30.9087 52.5012 30.112C51.4931 29.1758 50.8836 27.9144 50.7908 26.5721ZM64.9551 31.0567V17.2045H69.3499L71.9452 26.6347L74.5048 17.2045H78.8937V31.0567H76.2034L76.1677 20.1525L73.3171 31.0567H70.5258L67.6751 20.1525V31.0567H64.9551ZM89.4115 31.0567L86.0144 17.2045H89.0314L91.1754 26.7257L93.836 17.2045H97.2984L99.8343 26.8794L102.014 17.2045H104.983L101.485 31.0567H98.3792L95.5226 20.7045L92.6363 31.0567H89.4115ZM112.169 27.8924L114.931 28.325C114.65 29.2201 114.062 29.9982 113.262 30.5331C112.411 31.0745 111.402 31.3434 110.382 31.3014C108.553 31.3014 107.204 30.7323 106.337 29.5941C105.613 28.4715 105.256 27.1665 105.313 25.8477C105.371 24.5289 105.839 23.2568 106.658 22.1956C107.088 21.735 107.619 21.3701 108.212 21.1263C108.805 20.8825 109.446 20.7657 110.091 20.7842C110.781 20.7509 111.471 20.8661 112.109 21.1211C112.747 21.3761 113.318 21.7646 113.779 22.2582C114.67 23.2428 115.121 24.7794 115.091 26.8111H108.137C108.118 27.4837 108.357 28.1396 108.808 28.655C109.013 28.8641 109.262 29.0297 109.538 29.1414C109.814 29.2531 110.112 29.3084 110.411 29.3038C110.805 29.323 111.193 29.2013 111.498 28.9624C111.83 28.6791 112.064 28.306 112.169 27.8924ZM112.336 25.1891C112.36 24.5559 112.15 23.9349 111.742 23.4363C111.557 23.2454 111.334 23.0924 111.086 22.9868C110.838 22.8811 110.57 22.8249 110.299 22.8216C110.013 22.8139 109.73 22.8683 109.47 22.9807C109.209 23.093 108.979 23.2605 108.796 23.4704C108.384 23.9493 108.173 24.5578 108.202 25.1778L112.336 25.1891ZM119.385 24.1135L116.885 23.6867C117.092 22.8147 117.613 22.0408 118.358 21.5013C119.287 20.9729 120.362 20.7268 121.44 20.7956C122.38 20.752 123.319 20.8994 124.196 21.2281C124.725 21.4404 125.173 21.8041 125.478 22.2696C125.76 23.0381 125.879 23.8525 125.829 24.6656L125.799 27.7672C125.778 28.4164 125.82 29.0661 125.924 29.7079C126.032 30.1776 126.206 30.6313 126.441 31.0567H123.679C123.62 30.8746 123.519 30.6242 123.424 30.2884C123.378 30.1905 123.346 30.0871 123.329 29.9811C122.882 30.3958 122.361 30.7295 121.79 30.9657C121.255 31.1891 120.676 31.3035 120.092 31.3014C119.157 31.3492 118.239 31.0518 117.526 30.4705C117.167 30.1572 116.893 29.7643 116.73 29.3261C116.566 28.8879 116.516 28.4179 116.586 27.9573C116.656 27.4966 116.843 27.0594 117.13 26.684C117.417 26.3085 117.796 26.0063 118.233 25.8038C118.929 25.5106 119.662 25.304 120.413 25.1891C121.326 25.0425 122.225 24.8275 123.103 24.546V24.2672C123.125 24.0678 123.102 23.8664 123.036 23.6761C122.971 23.4857 122.864 23.3109 122.723 23.1631C122.273 22.8929 121.743 22.7728 121.214 22.8216C120.798 22.7991 120.385 22.8962 120.027 23.1005C119.732 23.3847 119.512 23.7319 119.385 24.1135ZM123.103 26.2648C122.753 26.3558 122.206 26.5095 121.44 26.6688C120.914 26.7369 120.404 26.8909 119.932 27.1241C119.763 27.2173 119.624 27.3519 119.528 27.5139C119.432 27.676 119.382 27.8597 119.385 28.0461C119.379 28.2294 119.414 28.4118 119.486 28.5815C119.559 28.7512 119.668 28.9042 119.807 29.0306C119.954 29.1671 120.13 29.2728 120.322 29.3414C120.514 29.4099 120.719 29.4398 120.923 29.429C121.433 29.4214 121.928 29.2601 122.337 28.9681C122.661 28.755 122.898 28.4414 123.008 28.0802C123.091 27.6545 123.123 27.221 123.103 26.7884V26.2648ZM131.417 31.0567L127.242 21.0005H130.123L132.112 26.1225L132.706 27.8298C132.78 27.5374 132.875 27.2502 132.991 26.9705C133.072 26.6792 133.169 26.3924 133.282 26.1111L135.272 20.9891H138.122L133.965 31.0339L131.417 31.0567ZM145.843 27.8924L148.599 28.325C148.309 29.2145 147.726 29.9896 146.936 30.5331C146.082 31.0738 145.072 31.3427 144.049 31.3014C142.22 31.3014 140.878 30.7323 140.011 29.5941C139.283 28.4725 138.925 27.167 138.982 25.8475C139.039 24.528 139.509 23.2555 140.332 22.1956C140.762 21.7344 141.292 21.369 141.885 21.1252C142.478 20.8814 143.119 20.765 143.764 20.7842C144.454 20.7518 145.142 20.8673 145.779 21.1223C146.416 21.3774 146.986 21.7654 147.447 22.2582C148.343 23.2428 148.795 24.7794 148.729 26.8111H141.822C141.808 27.4839 142.049 28.1388 142.499 28.655C142.701 28.8668 142.949 29.0343 143.224 29.1463C143.5 29.2582 143.798 29.312 144.097 29.3038C144.488 29.3221 144.872 29.2027 145.178 28.9681C145.513 28.6833 145.751 28.3085 145.861 27.8924H145.843ZM146.003 25.1891C146.03 24.5479 145.801 23.921 145.362 23.4363C145.177 23.2399 144.951 23.0835 144.698 22.9775C144.445 22.8715 144.172 22.8184 143.896 22.8216C143.62 22.8248 143.348 22.8844 143.098 22.9962C142.848 23.1081 142.626 23.2698 142.446 23.4704C142.037 23.9507 141.825 24.5582 141.852 25.1778L146.003 25.1891ZM150.012 28.2339L152.803 27.8298C152.894 28.2913 153.155 28.7058 153.54 28.9965C153.984 29.2792 154.51 29.4206 155.042 29.4006C155.609 29.4446 156.175 29.302 156.646 28.9965C156.77 28.9221 156.871 28.8176 156.938 28.6936C157.006 28.5697 157.038 28.4306 157.032 28.2908C157.036 28.1105 156.968 27.9355 156.842 27.8014C156.562 27.6222 156.243 27.5072 155.909 27.4656C153.665 26.9705 152.257 26.5436 151.645 26.1453C151.246 25.9048 150.921 25.5677 150.702 25.1679C150.483 24.7681 150.378 24.3199 150.398 23.8688C150.388 23.4451 150.481 23.0249 150.669 22.6416C150.858 22.2583 151.137 21.9224 151.485 21.6606C152.192 21.0915 153.314 20.7671 154.817 20.7671C156.319 20.7671 157.323 20.9834 157.994 21.4444C158.714 21.9182 159.228 22.6291 159.437 23.442L156.842 23.9029C156.803 23.7205 156.726 23.5474 156.616 23.394C156.505 23.2405 156.364 23.1098 156.2 23.0094C155.798 22.7676 155.327 22.6504 154.852 22.6737C154.31 22.6404 153.769 22.7465 153.284 22.981C153.176 23.0326 153.086 23.1148 153.028 23.2165C152.97 23.3182 152.945 23.4346 152.958 23.5501C152.963 23.644 152.992 23.7352 153.043 23.8157C153.094 23.8961 153.164 23.9633 153.249 24.0111C154.076 24.3723 154.948 24.6305 155.844 24.7794C156.947 24.9348 158 25.3236 158.926 25.9176C159.226 26.1557 159.464 26.4579 159.619 26.7999C159.775 27.1419 159.845 27.5142 159.823 27.8867C159.817 28.3465 159.704 28.7993 159.494 29.2125C159.283 29.6257 158.98 29.9892 158.606 30.277C157.576 30.9968 156.314 31.3454 155.042 31.2616C153.848 31.3228 152.663 31.0329 151.645 30.4307C150.845 29.9124 150.27 29.1309 150.03 28.2339H150.012ZM161.231 28.2339L164.022 27.8298C164.112 28.2913 164.374 28.7058 164.758 28.9965C165.203 29.2781 165.728 29.4194 166.261 29.4006C166.837 29.4452 167.412 29.3029 167.894 28.9965C168.01 28.9161 168.102 28.8096 168.165 28.6865C168.227 28.5634 168.256 28.4275 168.25 28.2908C168.254 28.1105 168.186 27.9355 168.06 27.8014C167.78 27.6233 167.461 27.5084 167.128 27.4656C164.883 26.9705 163.476 26.5436 162.864 26.1453C162.465 25.9048 162.14 25.5677 161.921 25.1679C161.702 24.7681 161.597 24.3199 161.617 23.8688C161.616 23.4465 161.712 23.0293 161.9 22.6473C162.088 22.2654 162.363 21.9284 162.704 21.6606C163.41 21.0915 164.533 20.7671 166.041 20.7671C167.154 20.688 168.267 20.9235 169.242 21.4444C169.946 21.9336 170.455 22.6382 170.685 23.442L168.06 23.9029C168.021 23.7205 167.944 23.5474 167.834 23.394C167.724 23.2405 167.583 23.1098 167.419 23.0094C167.02 22.76 166.546 22.6421 166.071 22.6737C165.529 22.6447 164.989 22.7506 164.503 22.981C164.401 23.0395 164.317 23.1231 164.259 23.2231C164.202 23.3231 164.173 23.436 164.176 23.5501C164.181 23.644 164.211 23.7352 164.261 23.8157C164.312 23.8961 164.383 23.9633 164.467 24.0111C165.295 24.3723 166.167 24.6305 167.063 24.7794C168.173 24.9427 169.234 25.3307 170.175 25.9176C170.465 26.1619 170.694 26.4659 170.844 26.8069C170.994 27.1479 171.062 27.5171 171.042 27.8867C171.037 28.3467 170.925 28.7999 170.714 29.2133C170.503 29.6267 170.2 29.99 169.824 30.277C168.795 30.9977 167.533 31.3464 166.261 31.2616C165.067 31.3185 163.883 31.0289 162.864 30.4307C162.062 29.914 161.486 29.1318 161.249 28.2339H161.231ZM179.03 17.2045H181.946V31.0567H179.03V17.2045ZM194.257 31.0567H191.501V25.9347C191.545 25.233 191.479 24.529 191.305 23.846C191.186 23.5498 190.98 23.2929 190.711 23.1062C190.427 22.9223 190.092 22.8251 189.749 22.8273C189.282 22.818 188.823 22.9494 188.437 23.2029C188.072 23.4562 187.794 23.8065 187.635 24.2103C187.475 24.9684 187.411 25.7423 187.445 26.5152V31.0681H184.654V21.0005H187.219V22.4745C187.612 21.9452 188.131 21.5139 188.734 21.2168C189.336 20.9197 190.004 20.7655 190.682 20.7671C191.263 20.7682 191.84 20.8744 192.38 21.0801C192.835 21.2509 193.233 21.536 193.532 21.9053C193.802 22.2276 193.989 22.6057 194.079 23.0094C194.197 23.5962 194.251 24.1932 194.239 24.7908L194.257 31.0567ZM206.663 31.0567H204.098V29.5827C203.757 30.0803 203.299 30.4943 202.76 30.7916C202.222 31.0888 201.619 31.2609 200.998 31.2941C200.378 31.3273 199.758 31.2207 199.189 30.9828C198.619 30.7449 198.116 30.3823 197.719 29.9242C196.804 28.8187 196.348 27.4284 196.437 26.02C196.437 24.3127 196.852 23.0094 197.684 22.1216C198.079 21.69 198.568 21.3474 199.118 21.1182C199.667 20.8889 200.262 20.7788 200.861 20.7956C201.446 20.799 202.024 20.9275 202.551 21.1716C203.078 21.4158 203.541 21.7695 203.908 22.207V17.2045H206.663V31.0567ZM199.287 25.8379C199.22 26.6403 199.376 27.4454 199.739 28.1713C199.917 28.4931 200.185 28.761 200.514 28.9449C200.842 29.1288 201.217 29.2216 201.597 29.2128C201.913 29.2161 202.226 29.1483 202.509 29.0149C202.793 28.8814 203.04 28.6861 203.231 28.4445C203.733 27.7553 203.972 26.9211 203.908 26.0826C203.977 25.2092 203.752 24.3376 203.266 23.5956C203.067 23.354 202.814 23.1588 202.525 23.0246C202.236 22.8903 201.919 22.8206 201.597 22.8206C201.276 22.8206 200.959 22.8903 200.67 23.0246C200.381 23.1588 200.128 23.354 199.929 23.5956C199.436 24.2434 199.2 25.0385 199.263 25.8379H199.287ZM209.383 17.2045H212.145V19.663H209.383V17.2045ZM209.383 21.0118H212.145V31.0567H209.383V21.0118ZM217.039 24.1135L214.532 23.6867C214.739 22.8147 215.261 22.0408 216.005 21.5013C216.935 20.9729 218.009 20.7268 219.088 20.7956C220.028 20.752 220.967 20.8994 221.843 21.2281C222.374 21.4387 222.822 21.8029 223.126 22.2696C223.407 23.0381 223.526 23.8525 223.476 24.6656L223.447 27.7672C223.426 28.4164 223.467 29.0661 223.571 29.7079C223.688 30.1716 223.851 30.6233 224.058 31.0567H221.332C221.267 30.8746 221.172 30.6242 221.041 30.2884C221.028 30.1815 220.996 30.0776 220.946 29.9811C220.516 30.4012 220.003 30.7358 219.438 30.9657C218.901 31.187 218.324 31.3012 217.739 31.3014C216.805 31.3492 215.887 31.0518 215.174 30.4705C214.676 30.0021 214.358 29.3867 214.271 28.7237C214.184 28.0607 214.332 27.3889 214.693 26.8168C214.978 26.3761 215.391 26.0242 215.881 25.8038C216.575 25.5066 217.308 25.2999 218.06 25.1891C218.973 25.0433 219.873 24.8283 220.75 24.546V24.2672C220.772 24.0678 220.75 23.8664 220.684 23.6761C220.618 23.4857 220.512 23.3109 220.37 23.1631C219.921 22.8929 219.39 22.7728 218.862 22.8216C218.458 22.8038 218.057 22.9008 217.71 23.1005C217.389 23.3693 217.156 23.721 217.039 24.1135ZM220.75 26.2648C220.4 26.3558 219.854 26.5095 219.088 26.6688C218.552 26.7447 218.031 26.8983 217.543 27.1241C217.385 27.2247 217.256 27.3619 217.168 27.5231C217.079 27.6842 217.035 27.8641 217.039 28.0461C217.032 28.229 217.065 28.4113 217.137 28.581C217.208 28.7507 217.316 28.9039 217.454 29.0306C217.603 29.1672 217.779 29.273 217.972 29.3416C218.165 29.4101 218.371 29.4399 218.577 29.429C219.085 29.4206 219.577 29.2593 219.984 28.9681C220.299 28.745 220.535 28.4353 220.661 28.0802C220.738 27.6538 220.768 27.2208 220.75 26.7884V26.2648ZM236.429 35.1145H234.535C233.543 33.7178 232.756 32.1974 232.195 30.5957C231.702 29.1236 231.443 27.5887 231.429 26.0428C231.419 24.2804 231.745 22.5311 232.391 20.881C232.942 19.505 233.662 18.1964 234.535 16.9825H236.429C235.661 18.5546 235.039 20.1886 234.57 21.8655C234.231 23.2555 234.058 24.6779 234.054 26.1054C234.054 27.1773 234.163 28.2466 234.38 29.2981C234.567 30.343 234.846 31.371 235.212 32.3714C235.566 33.3043 235.968 34.2198 236.417 35.1145H236.429ZM238.573 31.0567V17.2045H243.259C244.416 17.1508 245.575 17.2234 246.715 17.4207C247.556 17.6178 248.295 18.0961 248.8 18.7695C249.278 19.4802 249.562 20.2952 249.624 21.1388C249.686 21.9824 249.525 22.8274 249.156 23.5956C248.862 24.1438 248.439 24.6192 247.921 24.9843C247.462 25.3018 246.937 25.5229 246.383 25.6331C245.39 25.8067 244.381 25.8792 243.372 25.8493H241.483V31.0681L238.573 31.0567ZM241.495 19.5378V23.5216H243.093C243.862 23.5621 244.632 23.4794 245.373 23.2769C245.748 23.1522 246.072 22.9172 246.3 22.6054C246.505 22.2788 246.616 21.9054 246.62 21.5241C246.629 21.067 246.469 20.6217 246.169 20.2663C245.848 19.9495 245.434 19.7349 244.981 19.6517C244.29 19.5727 243.593 19.5422 242.897 19.5606L241.495 19.5378ZM251.205 35.1145C251.653 34.2762 252.05 33.4135 252.393 32.5307C252.63 31.8549 252.828 31.1672 252.987 30.4705C253.177 29.6738 253.308 28.9396 253.403 28.2624C253.507 27.5401 253.561 26.8118 253.563 26.0826C253.561 24.6554 253.389 23.233 253.052 21.8428C252.581 20.1667 251.959 18.5329 251.193 16.9597H253.052C254.055 18.2824 254.844 19.7425 255.392 21.2907C255.935 22.7703 256.216 24.3264 256.224 25.8948C256.208 27.3313 255.982 28.7584 255.552 30.1347C255.027 31.9098 254.205 33.5916 253.117 35.1145H251.205ZM264.443 31.0567V17.324H267.359V28.7063H274.604V31.0396L264.443 31.0567ZM281.452 21.0005V23.1233H279.563V27.1753C279.548 27.6555 279.558 28.1361 279.593 28.6152C279.636 28.7532 279.726 28.8735 279.848 28.9567C279.991 29.0471 280.159 29.091 280.33 29.0819C280.707 29.0658 281.078 28.9808 281.422 28.8315L281.678 30.8917C280.989 31.1717 280.246 31.3076 279.498 31.29C279.036 31.2952 278.578 31.212 278.15 31.0453C277.796 30.9266 277.485 30.7133 277.253 30.4307C277.045 30.1155 276.913 29.7596 276.867 29.3892C276.784 28.7665 276.753 28.1386 276.772 27.5111V23.1233H275.525V21.0005H276.772V19.0029L279.563 17.4378V21.0005H281.452ZM292.991 31.0453H290.432V29.5713C290.09 30.069 289.631 30.483 289.093 30.7802C288.554 31.0774 287.95 31.2495 287.329 31.2827C286.709 31.3159 286.088 31.2093 285.518 30.9714C284.948 30.7335 284.445 30.3709 284.047 29.9128C283.132 28.8073 282.675 27.417 282.764 26.0087C282.764 24.3013 283.18 22.9981 284.018 22.1102C284.411 21.6785 284.9 21.3356 285.448 21.1064C285.996 20.8771 286.591 20.7671 287.189 20.7842C287.774 20.7876 288.352 20.9161 288.879 21.1603C289.406 21.4044 289.869 21.7581 290.236 22.1956V17.1931H292.991V31.0453ZM285.621 25.8266C285.556 26.6282 285.71 27.4322 286.067 28.1599C286.235 28.451 286.476 28.6976 286.767 28.8781C287.059 29.0585 287.393 29.167 287.739 29.194C288.085 29.2211 288.433 29.1657 288.751 29.033C289.07 28.9002 289.349 28.6942 289.565 28.4331C290.062 27.742 290.299 26.9088 290.236 26.0713C290.312 25.1934 290.075 24.3168 289.565 23.5842C289.379 23.3359 289.132 23.1353 288.846 23.0003C288.56 22.8652 288.244 22.8 287.925 22.8102C287.604 22.8035 287.286 22.8702 286.996 23.0048C286.707 23.1394 286.456 23.338 286.263 23.5842C285.773 24.237 285.545 25.0372 285.621 25.8379V25.8266Z" fill="#304783"/>
</svg>
