<svg width="100" height="100" viewBox="0 0 100 100" fill="none" xmlns="http://www.w3.org/2000/svg">
<g clip-path="url(#clip0_2102_7932)">
<path d="M50.0214 84.2026C48.7575 84.2026 47.4935 83.7796 46.4361 82.9337C36.2693 74.7761 12.3906 54.3268 10.2555 40.615C8.96138 32.2863 13.0754 23.5949 20.4979 18.9924C28.7461 13.8663 38.9633 14.7978 48.5258 21.5354C49.4322 22.1749 50.6055 22.1749 51.5119 21.5354C61.0745 14.7978 71.2916 13.8663 79.5449 18.9924C86.9673 23.6 91.0814 32.2913 89.7873 40.6201C87.6522 54.3318 63.7735 74.7811 53.6067 82.9387C52.5492 83.7847 51.2853 84.2076 50.0214 84.2076V84.2026ZM31.9286 18.1515C28.3282 18.1515 24.8838 19.1083 21.7668 21.0419C15.1602 25.1459 11.4943 32.8603 12.6424 40.2474C14.7019 53.4859 40.1819 74.8265 47.9467 81.0504C49.1704 82.0323 50.8724 82.0323 52.096 81.0504C59.8558 74.8265 85.3408 53.4808 87.4004 40.2474C88.5485 32.8653 84.8826 25.1459 78.2709 21.0419C70.8837 16.4545 61.6384 17.3559 52.9068 23.5093C51.1544 24.743 48.8884 24.743 47.141 23.5093C42.0904 19.9492 36.8685 18.1465 31.9336 18.1465L31.9286 18.1515Z" fill="#19B494"/>
<path d="M50.767 64.3628L49.2664 63.9751C48.9895 63.9046 42.4533 62.1673 38.3393 56.8347C34.2252 51.5021 34.2101 44.7393 34.2151 44.4523L34.2252 42.9014L35.7258 43.2891C36.0028 43.3596 42.5389 45.0969 46.653 50.4295C50.767 55.7621 50.7821 62.5248 50.7771 62.8119L50.767 64.3628ZM36.7581 46.1896C37.0199 48.3649 37.8206 52.207 40.2528 55.3593C42.69 58.5216 46.1947 60.2689 48.2291 61.0746C47.9673 58.8993 47.1666 55.0571 44.7344 51.9049C42.2972 48.7426 38.7925 46.9953 36.7581 46.1896Z" fill="#19B494"/>
<path d="M48.8008 64.332L48.831 62.781C48.836 62.494 49.0173 55.7363 53.2573 50.5044C57.4972 45.2725 64.0787 43.7014 64.3556 43.6359L65.8663 43.2834L65.8361 44.8344C65.8311 45.1214 65.6498 51.8791 61.4098 57.111C57.1699 62.3429 50.5884 63.914 50.3115 63.9795L48.8008 64.332ZM63.2478 46.5112C61.1883 47.2716 57.6382 48.9333 55.1355 52.0251C52.6228 55.127 51.7315 58.9389 51.4142 61.1042C53.4738 60.3438 57.0239 58.6821 59.5316 55.5903C62.0342 52.5035 62.9306 48.6815 63.2478 46.5112Z" fill="#19B494"/>
<path d="M51.0264 61.5339H48.6094V82.9601H51.0264V61.5339Z" fill="#19B494"/>
<path d="M49.8133 47.3629C47.1898 47.3629 45.0547 45.2278 45.0547 42.6043C45.0547 39.9808 47.1898 37.8457 49.8133 37.8457C52.4368 37.8457 54.5719 39.9808 54.5719 42.6043C54.5719 45.2278 52.4368 47.3629 49.8133 47.3629ZM49.8133 40.2678C48.5242 40.2678 47.4718 41.3202 47.4718 42.6093C47.4718 43.8984 48.5192 44.9508 49.8133 44.9508C51.1074 44.9508 52.1548 43.8984 52.1548 42.6093C52.1548 41.3202 51.1074 40.2678 49.8133 40.2678Z" fill="#19B494"/>
</g>
<defs>
<clipPath id="clip0_2102_7932">
<rect width="80" height="68.4833" fill="white" transform="translate(10 15.7197)"/>
</clipPath>
</defs>
</svg>
