<svg width="44" height="44" viewBox="0 0 44 44" fill="none" xmlns="http://www.w3.org/2000/svg">
<rect x="0.5" y="0.5" width="43" height="43" stroke="#F0EDED"/>
<g clip-path="url(#clip0_1787_556)">
<path d="M32.1623 15.6559C31.3989 15.9936 30.5893 16.2154 29.7603 16.3139C30.634 15.7914 31.288 14.9689 31.6003 13.9999C30.7803 14.4879 29.8813 14.8299 28.9443 15.0149C28.3149 14.3415 27.4807 13.8949 26.5713 13.7445C25.6618 13.5941 24.7282 13.7484 23.9156 14.1834C23.1029 14.6183 22.4567 15.3096 22.0774 16.1497C21.6981 16.9898 21.607 17.9317 21.8183 18.8289C20.1554 18.7456 18.5286 18.3135 17.0436 17.5606C15.5585 16.8077 14.2484 15.751 13.1983 14.4589C12.8266 15.0974 12.6313 15.8232 12.6323 16.5619C12.6323 18.0119 13.3703 19.2929 14.4923 20.0429C13.8283 20.022 13.1789 19.8427 12.5983 19.5199V19.5719C12.5985 20.5376 12.9327 21.4735 13.5441 22.221C14.1556 22.9684 15.0068 23.4814 15.9533 23.6729C15.3369 23.84 14.6906 23.8646 14.0633 23.7449C14.3302 24.5762 14.8503 25.3031 15.5509 25.824C16.2515 26.3449 17.0974 26.6337 17.9703 26.6499C17.1028 27.3313 16.1095 27.8349 15.0472 28.1321C13.9849 28.4293 12.8744 28.5142 11.7793 28.3819C13.691 29.6114 15.9164 30.264 18.1893 30.2619C25.8823 30.2619 30.0893 23.8889 30.0893 18.3619C30.0893 18.1819 30.0843 17.9999 30.0763 17.8219C30.8952 17.2301 31.6019 16.4969 32.1633 15.6569L32.1623 15.6559Z" fill="#009DE0"/>
</g>
<defs>
<clipPath id="clip0_1787_556">
<rect width="24" height="24" fill="white" transform="translate(10 10)"/>
</clipPath>
</defs>
</svg>
