<svg width="132" height="133" viewBox="0 0 132 133" fill="none" xmlns="http://www.w3.org/2000/svg">
<g clip-path="url(#clip0_1395_3924)">
<path d="M24.7834 114.264L26.7952 112.279L27.6458 113.141L22.7312 117.993L19.7312 114.953L20.5251 114.169L22.6772 116.349L24.0166 115.028L22.2101 113.2L22.9824 112.436L24.7888 114.264H24.7834Z" fill="#020031"/>
<path d="M20.8505 105.152C22.0035 106.756 21.6092 108.717 19.8972 109.948C18.1934 111.174 16.1952 110.923 15.0421 109.319C13.8891 107.715 14.2725 105.738 15.9818 104.507C17.6857 103.281 19.6893 103.54 20.8477 105.152H20.8505ZM15.9872 108.639C16.7271 109.667 17.9611 109.781 19.1574 108.919C20.3536 108.058 20.6398 106.851 19.8999 105.825C19.1601 104.796 17.9098 104.693 16.7298 105.544C15.5336 106.405 15.2473 107.612 15.9872 108.639Z" fill="#020031"/>
<path d="M10.9643 102.695L10.4324 101.609L14.3046 99.7138C15.1957 99.2764 15.4522 98.5527 15.0201 97.6697C14.5881 96.7867 13.8455 96.5383 12.9625 96.9703L9.09031 98.866L8.55835 97.7804L12.4981 95.8524C13.9508 95.1423 15.3334 95.6445 16.0706 97.1567C16.805 98.6607 16.3622 100.054 14.9013 100.77L10.9616 102.698L10.9643 102.695Z" fill="#020031"/>
<path d="M13.4014 91.3102L6.78302 93.2949L6.43738 92.1446L10.1962 87.6324L5.50578 89.0393L5.16284 87.8997L11.7813 85.915L12.1242 87.0546L8.36809 91.5748L13.0585 90.168L13.4014 91.3075V91.3102Z" fill="#020031"/>
<path d="M11.0269 82.2718L4.17353 83.1332L3.87109 80.7326C3.61727 78.7074 4.8378 77.1358 6.88192 76.8793C8.89904 76.6255 10.4679 77.819 10.7163 79.8064L11.0269 82.2718ZM5.12943 81.7938L9.77123 81.2106L9.62541 80.0575C9.4526 78.6885 8.46699 77.9648 7.04123 78.143C5.58848 78.324 4.81349 79.2907 4.99171 80.7056L5.12673 81.7938H5.12943Z" fill="#020031"/>
<path d="M10.2171 73.1082L3.3125 72.9084L3.43671 68.6204L4.55193 68.6528L4.46282 71.7311L6.23962 71.7824L6.32063 69.0227L7.38724 69.0551L7.30623 71.8121L9.13973 71.8661L9.22884 68.7878L10.3441 68.8202L10.2198 73.1082H10.2171Z" fill="#020031"/>
<path d="M10.6865 65.3077L3.88989 64.0574L4.32734 61.6785C4.69728 59.6695 6.33636 58.5407 8.36428 58.9134C10.3625 59.2806 11.4993 60.8927 11.1348 62.8639L10.6838 65.3077H10.6865ZM5.20764 63.0691L9.80893 63.917L10.0196 62.7748C10.268 61.4165 9.547 60.4309 8.13475 60.169C6.6928 59.9044 5.66398 60.5876 5.40746 61.9917L5.20764 63.0691Z" fill="#020031"/>
<path d="M14.0147 52.3435L8.76807 47.2022L9.28382 46.0762L16.6043 46.6783L16.0751 47.8395L14.3901 47.6828L13.3181 50.0294L14.5386 51.2013L14.0147 52.3435ZM12.5377 49.2787L13.3154 47.5775L10.958 47.3723C10.7717 47.348 10.553 47.3237 10.4179 47.2805C10.526 47.3615 10.6907 47.4992 10.8365 47.6369L12.5404 49.2787H12.5377Z" fill="#020031"/>
<path d="M13.3933 38.4498C14.1548 37.2752 15.2889 36.9538 16.3555 37.5992L15.6966 38.6145C15.1809 38.3148 14.657 38.4795 14.2871 39.052C13.8821 39.6784 13.9199 40.2779 14.4032 40.5911C14.8164 40.8585 15.189 40.7856 15.6156 40.3751L16.4041 39.592C17.2601 38.7387 18.0837 38.5848 18.9478 39.1465C20.0252 39.8459 20.1791 41.1393 19.3501 42.4165C18.5482 43.6533 17.3654 44.034 16.3096 43.3859L16.9685 42.3706C17.4653 42.6812 18.0162 42.4759 18.4374 41.8252C18.8749 41.1501 18.8587 40.5317 18.3753 40.2185C17.9865 39.9674 17.6274 40.016 17.2169 40.4237L16.4149 41.2095C15.5643 42.0547 14.6651 42.2032 13.7767 41.628C12.7614 40.9692 12.6021 39.6703 13.3933 38.4498Z" fill="#020031"/>
<path d="M25.3613 34.3944L22.4126 27.668L23.3091 26.8147L29.8762 30.1064L28.95 30.9839L27.4459 30.209L25.5746 31.9858L26.2713 33.5276L25.3586 34.3944H25.3613ZM25.1345 31.0001L26.4927 29.7121L24.3811 28.6428C24.2164 28.551 24.0247 28.4457 23.914 28.3566C23.9842 28.4727 24.0868 28.6617 24.1678 28.8453L25.1345 31.0028V31.0001Z" fill="#020031"/>
<path d="M32.4468 19.5623L33.5593 18.9763L36.2326 21.6901C36.4999 21.9764 36.7726 22.2707 37.148 22.7567C36.9617 22.16 36.8861 21.7927 36.8077 21.385L36.0652 17.6505L37.2452 17.0294L39.8942 19.7567C40.175 20.0456 40.4531 20.3481 40.8258 20.8152C40.6422 20.1861 40.553 19.8134 40.4828 19.457L39.7619 15.7009L40.8474 15.1284L42.2164 22.2194L41.1795 22.7675L37.5287 19.0087L38.5467 24.1582L37.4936 24.7144L32.4468 19.565V19.5623Z" fill="#020031"/>
<path d="M47.0198 20.2572L44.9055 13.682L48.9911 12.3696L49.3313 13.4308L46.3988 14.3732L46.9415 16.0636L49.5689 15.2184L49.8957 16.2337L47.2683 17.0789L47.8299 18.8233L50.7625 17.8809L51.1027 18.9421L47.0171 20.2545L47.0198 20.2572Z" fill="#020031"/>
<path d="M53.8811 18.2053L55.2205 10.9821L56.441 10.7795L60.027 17.19L58.7686 17.398L57.9585 15.9128L55.4122 16.3313L55.1205 17.9974L53.8811 18.2026V18.2053ZM55.6012 15.2674L57.4482 14.9623L56.3033 12.8912C56.2196 12.7237 56.1196 12.5293 56.0764 12.3916C56.071 12.5266 56.0467 12.74 56.0143 12.9371L55.6039 15.2647L55.6012 15.2674Z" fill="#020031"/>
<path d="M61.2971 10.1458L62.5825 10.1161L64.1837 14.0585C64.3457 14.4717 64.4862 14.874 64.6509 15.4276C64.8075 14.82 64.9398 14.3907 65.064 14.0369L66.4655 10.0297L67.7211 10L65.307 16.9667L64.0595 16.9938L61.2971 10.1458Z" fill="#020031"/>
<path d="M72.1894 17.3163L70.9851 17.1921L71.6899 10.3198L72.8942 10.444L72.1894 17.3163Z" fill="#020031"/>
<path d="M75.9568 17.8033L77.5419 11.0796L78.7111 11.355L80.7417 16.8636L81.865 12.0976L83.0235 12.3703L81.4384 19.0941L80.28 18.8213L78.2385 13.31L77.1152 18.076L75.9568 17.8033Z" fill="#020031"/>
<path d="M87.0974 17.4552C86.4952 18.8729 86.9867 19.9935 88.1613 20.493C89.2657 20.9602 90.1946 20.6362 90.6267 19.6182L90.6375 19.5911L88.7149 18.7757L89.1307 17.7928L92.0902 19.0457L90.5754 22.6209L89.6357 22.2239L89.876 21.4625C89.3225 21.8027 88.4557 21.8351 87.5943 21.4706C85.8121 20.7145 85.1154 18.8918 85.9444 16.9341C86.7626 15.0034 88.6069 14.1636 90.5214 14.9737C91.9741 15.5893 92.7383 16.9098 92.3711 18.2815L91.1965 17.7847C91.3126 16.9503 90.8157 16.3319 90.0515 16.0052C88.7905 15.4705 87.6807 16.0781 87.0974 17.4525V17.4552Z" fill="#020031"/>
<path d="M99.5752 23.9084C100.885 22.21 102.826 21.9048 104.428 23.1416C105.721 24.1407 106.105 25.6393 105.384 26.9598L104.374 26.1794C104.676 25.399 104.42 24.6024 103.693 24.0435C102.683 23.2631 101.482 23.5061 100.58 24.6726C99.6859 25.831 99.7507 27.0759 100.753 27.8509C101.492 28.4233 102.362 28.4719 103.01 28.0048L104.006 28.7717C102.907 29.7627 101.317 29.7519 100.023 28.7528C98.4303 27.5241 98.2521 25.6177 99.5752 23.9057V23.9084Z" fill="#020031"/>
<path d="M106.915 35.0787C105.578 33.6232 105.737 31.6304 107.287 30.2046C108.832 28.7843 110.846 28.7978 112.183 30.2532C113.52 31.7087 113.374 33.715 111.821 35.1408C110.276 36.5611 108.257 36.5422 106.915 35.0787ZM111.327 31.039C110.471 30.1074 109.231 30.1398 108.146 31.1389C107.06 32.1353 106.92 33.3667 107.776 34.301C108.632 35.2353 109.885 35.1867 110.957 34.2011C112.042 33.2047 112.183 31.9733 111.324 31.039H111.327Z" fill="#020031"/>
<path d="M111.266 40.1058L117.114 36.4307L117.738 37.4244L114.268 42.239L120.112 41.2021L120.746 42.2093L114.898 45.8844L114.274 44.8934L116.075 43.762C117.252 43.0221 117.595 42.8061 118.046 42.6008L113.375 43.4595L112.78 42.5144L115.581 38.6908C115.265 38.9689 114.717 39.3227 113.988 39.7817L111.889 41.0995L111.266 40.1085V40.1058Z" fill="#020031"/>
<path d="M119.183 49.4382L116.982 50.3509L116.518 49.2329L122.899 46.5894L123.944 49.1114C124.476 50.3941 123.981 51.5714 122.734 52.0898C121.503 52.6002 120.293 52.1195 119.764 50.845L119.18 49.4382H119.183ZM122.369 48.1177L120.177 49.025L120.663 50.1942C120.981 50.9611 121.562 51.2014 122.259 50.9125C122.955 50.6236 123.169 50.0457 122.861 49.3031L122.369 48.115V48.1177Z" fill="#020031"/>
<path d="M119.175 55.9719L126.487 56.6848L126.792 57.8837L120.711 62.0071L120.395 60.7703L121.805 59.836L121.167 57.3356L119.482 57.1898L119.172 55.9719H119.175ZM122.248 57.4328L122.709 59.2474L124.675 57.9269C124.834 57.827 125.021 57.7136 125.153 57.6596C125.018 57.665 124.802 57.6596 124.602 57.6434L122.248 57.4328Z" fill="#020031"/>
<path d="M121.205 65.0465L128.088 64.4443L128.193 65.6406L123.597 69.2968L128.474 68.8701L128.576 70.0555L121.693 70.6577L121.591 69.4723L126.184 65.808L121.307 66.2346L121.205 65.0492V65.0465Z" fill="#020031"/>
<path d="M128.61 74.218L128.512 75.5655L125.907 76.7428C125.709 76.8319 125.556 76.8886 125.38 76.9507C125.545 77.0479 125.653 77.0938 125.871 77.2316L128.28 78.7599L128.186 80.0696L124.178 77.4476L121.465 77.2505L121.551 76.0434L124.265 76.2405L128.61 74.2153V74.218Z" fill="#020031"/>
<path d="M122.63 88.0893L121.752 91.0029L120.775 90.7085L121.652 87.7949L122.63 88.0893Z" fill="#020031"/>
<path d="M120.917 100.297L121.875 100.811L120.614 103.171L114.52 99.9141L115.068 98.8879L120.204 101.634L120.917 100.3V100.297Z" fill="#020031"/>
<path d="M111.308 104.974L112.107 103.848L112.944 106.47C113.004 106.306 113.085 106.141 113.185 106.003C114.011 104.839 115.385 104.634 116.525 105.442C117.726 106.295 117.932 107.785 117.078 108.987C116.214 110.205 114.675 110.48 113.519 109.659C112.842 109.179 112.507 108.604 112.099 107.364L111.305 104.972L111.308 104.974ZM116.201 108.366C116.66 107.718 116.506 106.924 115.82 106.438C115.142 105.957 114.348 106.079 113.889 106.724C113.414 107.394 113.565 108.174 114.246 108.658C114.932 109.144 115.731 109.028 116.204 108.366H116.201Z" fill="#020031"/>
<path d="M109.817 117.393L109.005 116.628L106.501 110.834L107.363 109.918L109.836 115.745L112.407 113.013L113.22 113.777L109.82 117.393H109.817Z" fill="#020031"/>
<path d="M106.421 119.017L107.115 119.854L105.058 121.563L100.645 116.246L101.539 115.504L105.257 119.986L106.421 119.02V119.017Z" fill="#020031"/>
<path d="M50.8801 44.8816H67.5382C77.9127 59.4227 75.0018 80.3148 90.4313 93.8541H71.5401C60.8172 79.313 60.8172 54.446 50.8801 44.8816Z" fill="#ED8222"/>
<path d="M37.0386 55.0698H54.685C60.4177 65.1095 60.5635 88.6425 77.5241 103.991H57.6985C47.8721 91.0647 44.5022 64.0996 37.0386 55.0698Z" fill="#234B8A"/>
</g>
<rect x="61.0625" y="121.562" width="10.5" height="5.25" rx="2.625" fill="#19B494"/>
<defs>
<clipPath id="clip0_1395_3924">
<rect width="125.294" height="111.562" fill="white" transform="translate(3.3125 10)"/>
</clipPath>
</defs>
</svg>
