<svg width="70" height="68" viewBox="0 0 70 68" fill="none" xmlns="http://www.w3.org/2000/svg">
<g clip-path="url(#clip0_2102_7911)">
<path d="M-0.0117188 58.6615C0.516357 56.2911 1.05469 53.9224 1.57251 51.5503C2.18262 48.7544 2.77222 45.9551 3.37549 43.1591C3.56006 42.3012 3.94458 41.9594 4.81958 41.8757C5.06738 41.8517 5.32031 41.862 5.57153 41.862C15.0735 41.862 24.5737 41.862 34.0757 41.862C34.2585 41.862 34.4397 41.8586 34.6226 41.8654C35.665 41.9098 36.0564 42.2192 36.2734 43.2292C37.2766 47.8674 38.2729 52.5074 39.271 57.1473C39.4145 57.8138 39.5769 58.4769 39.6846 59.1486C39.823 60.0031 39.4658 60.5004 38.6147 60.661C38.3054 60.7191 37.9807 60.7243 37.6645 60.7243C33.3818 60.7277 29.0974 60.726 24.8147 60.7277C23.9192 60.7277 23.9192 60.7311 24.2063 61.5941C24.543 62.6076 24.8882 63.6193 25.2112 64.6362C25.3308 65.0139 25.5342 65.1813 25.9495 65.1796C31.3943 65.1694 36.8408 65.1694 42.2856 65.1796C42.73 65.1796 42.8667 65.0019 42.9128 64.5849C43.1606 62.3068 43.4375 60.0321 43.6973 57.754C44.0032 55.0709 44.3039 52.3877 44.6064 49.7046C44.897 47.1343 45.1841 44.5622 45.4763 41.9919C45.7805 39.3087 46.0864 36.6256 46.3923 33.9425C46.4145 33.7425 46.5205 33.4913 46.3564 33.358C46.1736 33.211 45.9753 33.4212 45.801 33.5084C42.8086 35.0089 39.8298 36.5333 36.646 37.61C35.5437 37.9826 34.426 38.2868 33.2725 38.4491C32.7051 38.5294 32.1394 38.538 31.5789 38.3756C30.5244 38.0731 30.0715 37.2631 30.4133 36.2223C30.8166 34.9918 31.6814 34.0775 32.5906 33.2127C36.0085 29.9588 39.9802 27.4602 43.9399 24.9411C45.1533 24.1687 45.8677 23.0954 45.9189 21.5488C46.0762 16.8285 46.2744 12.1065 47.3835 7.48367C47.6177 6.50783 47.9321 5.56104 48.4602 4.69628C49.4463 3.08298 50.9023 3.0864 51.8628 4.71166C52.7258 6.16944 53.0334 7.80838 53.3376 9.43706C53.7991 11.8929 54.0383 14.3795 54.1699 16.8746C54.2673 18.734 54.2366 20.6105 54.4861 22.4494C54.6143 23.4013 55.279 24.2558 56.1626 24.8078C59.4285 26.8467 62.6653 28.9265 65.6509 31.3653C66.8506 32.3445 68.0093 33.3699 68.9868 34.5816C69.4055 35.1012 69.7097 35.6822 69.99 36.2804V37.3724C69.4055 38.4013 68.4365 38.5636 67.3923 38.4713C66.5549 38.3978 65.7278 38.2338 64.916 37.9962C61.9748 37.1383 59.2063 35.8685 56.4788 34.4962C55.7268 34.1185 54.9714 33.7442 54.2195 33.3682C53.9255 33.2213 53.7375 33.2196 53.7905 33.64C53.8538 34.1578 53.8999 34.6773 53.9495 35.1969C54.2058 37.8851 54.4639 40.5717 54.7168 43.26C54.9167 45.3825 55.1047 47.5068 55.3047 49.6311C55.5627 52.3638 55.8242 55.0965 56.0857 57.8292C56.2959 60.0201 56.5403 62.2077 56.7078 64.4003C56.7607 65.0908 57.0598 65.1865 57.6562 65.1831C61.2092 65.1591 64.7622 65.1813 68.3169 65.1642C69.0039 65.1608 69.5696 65.3352 69.99 65.8923V66.9843C69.561 67.5312 68.9936 67.7055 68.3101 67.7055C46.0967 67.697 23.885 67.697 1.67163 67.7055C0.986328 67.7055 0.418945 67.5312 -0.00830078 66.9843V65.8923C0.412109 65.3352 0.977783 65.1608 1.66479 65.1642C5.62793 65.1796 9.59106 65.1711 13.5559 65.1745C13.9302 65.1745 14.2703 65.1933 14.4189 64.7199C14.7795 63.5715 15.1606 62.4281 15.5588 61.2934C15.7178 60.8388 15.54 60.7106 15.1248 60.7243C14.9419 60.7294 14.7607 60.7243 14.5779 60.7243C10.3174 60.7243 6.05859 60.7243 1.7981 60.7243C1.06836 60.7243 0.376221 60.6388 -0.0100098 59.8903C-0.0117188 59.4801 -0.0117188 59.0699 -0.0117188 58.6615ZM49.7778 65.1728C50.9861 65.1728 52.1926 65.1745 53.4009 65.1728C54.2349 65.1711 54.2776 65.0908 54.1956 64.2687C53.9204 61.5138 53.6641 58.7572 53.406 56.0023C53.2078 53.9019 53.0215 51.7998 52.8215 49.6978C52.5669 47.0317 52.2986 44.3691 52.0491 41.7031C51.8013 39.0592 51.5791 36.4137 51.3228 33.7716C51.2236 32.7496 51.1929 32.7547 50.1623 32.753C50.0051 32.753 49.8428 32.7325 49.689 32.6932C49.1831 32.5667 49.0122 32.7581 48.9643 33.2725C48.7952 35.079 48.5764 36.882 48.373 38.6867C48.0278 41.7526 47.6792 44.8186 47.3323 47.8845C47.0383 50.4771 46.7495 53.0713 46.4539 55.6639C46.1172 58.6171 45.7754 61.5702 45.4319 64.5217C45.3789 64.978 45.5207 65.1916 46.0215 65.1813C47.2742 65.1591 48.5269 65.1745 49.7795 65.1745L49.7778 65.1728ZM19.7783 58.2069C21.4395 58.2069 23.1006 58.1984 24.76 58.212C25.2351 58.2154 25.3923 58.0975 25.3035 57.5763C25.0608 56.1475 24.8694 54.7086 24.6968 53.2679C24.6318 52.7278 24.4062 52.5415 23.8628 52.5467C21.178 52.5689 18.4932 52.5706 15.8083 52.545C15.2649 52.5398 15.0222 52.7244 14.9556 53.2457C14.7676 54.7069 14.5813 56.1681 14.3489 57.6241C14.272 58.1026 14.4104 58.2189 14.8616 58.2154C16.4988 58.1984 18.1377 58.2086 19.7749 58.2086L19.7783 58.2069ZM7.23608 58.2069C8.51099 58.2069 9.78418 58.1881 11.0574 58.2154C11.5786 58.2274 11.782 58.0275 11.8435 57.5233C12.0212 56.0843 12.2024 54.6436 12.4519 53.2149C12.551 52.6441 12.3562 52.5467 11.8657 52.5501C9.43213 52.5621 6.99683 52.5706 4.56323 52.5433C4.03174 52.5364 3.85229 52.7518 3.7583 53.2234C3.47119 54.6693 3.17725 56.1134 2.83887 57.5472C2.70386 58.118 2.9209 58.2189 3.41309 58.212C4.68628 58.1949 5.96118 58.2069 7.23608 58.2069ZM32.4026 58.2069C33.6997 58.2069 34.9951 58.1984 36.2922 58.212C36.7366 58.2172 36.928 58.0753 36.8254 57.607C36.4939 56.1014 36.1692 54.5958 35.8564 53.085C35.771 52.6731 35.5522 52.5467 35.1421 52.5484C32.6623 52.5638 30.1843 52.5603 27.7046 52.5518C27.2688 52.5501 27.1064 52.6475 27.1885 53.1431C27.426 54.5958 27.6055 56.0587 27.8003 57.5182C27.8618 57.9864 28.0344 58.2377 28.583 58.2206C29.8562 58.1813 31.1294 58.2086 32.4043 58.2069H32.4026ZM8.68872 50.0276C9.89355 50.0276 11.0984 50.0174 12.3032 50.0327C12.71 50.0379 12.9185 49.9268 12.9766 49.4824C13.1714 47.9563 13.3987 46.4319 13.6311 44.9109C13.6978 44.4751 13.5354 44.3657 13.1201 44.3691C10.8472 44.3845 8.57251 44.3913 6.29956 44.3657C5.80566 44.3606 5.61084 44.552 5.52026 44.998C5.22803 46.4421 4.93408 47.8845 4.60083 49.3184C4.46582 49.8977 4.6709 50.043 5.20923 50.0327C6.36792 50.0105 7.52832 50.0259 8.68701 50.0259L8.68872 50.0276ZM30.9431 50.0276C32.1257 50.0276 33.3101 49.9951 34.491 50.0413C35.1079 50.0652 35.1677 49.8208 35.0549 49.3218C34.7302 47.8845 34.4175 46.4455 34.1201 45.0031C34.0278 44.5554 33.8296 44.3623 33.3408 44.3674C31.1123 44.3913 28.8838 44.393 26.6553 44.3674C26.0725 44.3605 25.9478 44.6066 26.0247 45.1108C26.2485 46.5652 26.4827 48.0195 26.6655 49.4807C26.7236 49.9353 26.9236 50.0396 27.3286 50.0344C28.5334 50.0191 29.7383 50.0293 30.9448 50.0293L30.9431 50.0276ZM19.8125 50.0276C21.0413 50.0276 22.2717 50.0054 23.5005 50.0379C24.085 50.0532 24.208 49.7952 24.1294 49.291C23.9055 47.8572 23.6714 46.4233 23.4902 44.9843C23.4321 44.5161 23.251 44.3691 22.8015 44.3725C20.8208 44.3879 18.8401 44.3862 16.8594 44.3725C16.4202 44.3691 16.21 44.5058 16.1501 44.9792C15.9673 46.4421 15.7502 47.8999 15.5144 49.356C15.429 49.8875 15.6152 50.0447 16.1245 50.0361C17.3533 50.0139 18.5837 50.0293 19.8125 50.0293V50.0276ZM46.7734 26.8347C46.7734 28.7283 48.2432 30.2203 50.1248 30.2356C51.9705 30.2493 53.5325 28.7129 53.5427 26.8774C53.553 24.948 52.073 23.4697 50.1384 23.4731C48.2295 23.4782 46.7751 24.9292 46.7734 26.8347ZM50.0752 7.01711C50.0188 7.21023 49.9556 7.40164 49.9094 7.59646C49.5044 9.31914 49.2532 11.0657 49.0344 12.8209C48.708 15.434 48.6499 18.0641 48.4329 20.6823C48.3953 21.1369 48.6191 21.1779 48.9678 21.0771C49.571 20.9028 50.188 20.9267 50.7964 20.9831C51.8406 21.0788 51.8149 21.0959 51.7893 20.0619C51.7158 17.1139 51.4714 14.1778 51.0681 11.2589C50.8699 9.83184 50.6938 8.39115 50.0752 7.01711ZM55.9985 27.6516C55.761 28.7112 55.438 29.6272 54.8142 30.4048C54.5237 30.7654 54.8057 30.8697 55.0552 30.9961C58.3826 32.6795 61.727 34.327 65.2817 35.4959C65.7261 35.6412 66.1704 35.8121 66.8506 35.8087C63.5334 32.5616 59.801 30.157 55.9985 27.6499V27.6516ZM33.6638 35.8138C33.7886 35.8053 33.9031 35.819 34.0039 35.7899C38.0081 34.6449 41.6978 32.7667 45.3994 30.9158C45.7156 30.7586 45.6233 30.5809 45.4661 30.3792C44.9499 29.7246 44.6013 28.9846 44.4304 28.178C44.3279 27.6995 44.1467 27.7661 43.8374 27.9729C42.7043 28.7317 41.5457 29.4546 40.428 30.2391C38.2319 31.7806 36.0496 33.3426 34.0979 35.1969C33.927 35.3592 33.6792 35.4806 33.6638 35.8121V35.8138ZM19.8142 65.1728C20.6106 65.1728 21.407 65.1591 22.2017 65.1779C22.6152 65.1882 22.7297 65.06 22.5896 64.6584C22.1931 63.5236 21.8086 62.3837 21.4412 61.2387C21.3267 60.8832 21.1335 60.714 20.7541 60.7225C20.1406 60.7362 19.5254 60.7379 18.9119 60.7225C18.5342 60.7123 18.3308 60.8712 18.2163 61.2267C17.8557 62.3495 17.49 63.4723 17.0952 64.5832C16.9175 65.0822 17.1226 65.1848 17.5618 65.1762C18.312 65.1625 19.0623 65.1728 19.8142 65.1728Z" fill="#19B494"/>
<path d="M-0.0117188 14.7228C0.301025 14.1657 0.782959 13.9589 1.41016 13.9794C2.11426 14.0033 2.82178 13.9692 3.52417 13.9982C4.26245 14.029 4.70508 14.5143 4.69141 15.2253C4.67944 15.8935 4.23511 16.3686 3.5293 16.3942C2.73462 16.4233 1.93823 16.4011 1.14185 16.4028C0.603516 16.4045 0.258301 16.102 -0.0117188 15.6782V14.7228Z" fill="#19B494"/>
<path d="M24.5523 15.1996C24.5454 20.3916 20.3123 24.6043 15.1067 24.5838C10.354 24.565 5.74317 20.894 5.75001 15.1825C5.75684 9.37875 10.5181 5.76592 15.1921 5.80351C20.3601 5.84282 24.5591 10.0282 24.5523 15.1996ZM15.1614 8.33113C11.3555 8.32771 8.23145 11.4227 8.23145 15.1962C8.23145 18.9304 11.3555 22.051 15.1016 22.0596C18.9041 22.0698 22.0537 18.9833 22.0828 15.2201C22.1101 11.4808 18.9485 8.33284 15.1614 8.32942V8.33113Z" fill="#19B494"/>
<path d="M25.0231 4.06885C25.9767 4.08252 26.6107 5.13185 26.1083 5.89748C25.558 6.73489 24.8248 7.43217 24.0011 8.00981C23.5363 8.33452 23.0372 8.24053 22.6134 7.87993C22.1827 7.5142 22.0101 6.97415 22.2853 6.5281C22.892 5.53859 23.6918 4.69947 24.7411 4.14063C24.8385 4.08936 24.9598 4.08423 25.0248 4.06885H25.0231Z" fill="#19B494"/>
<path d="M23.3723 22.1965C24.2319 22.2119 26.269 24.2696 26.2759 25.0711C26.281 25.5496 26.0554 25.8982 25.6538 26.1324C25.218 26.3853 24.7566 26.3716 24.3669 26.0743C23.6235 25.5086 22.9587 24.8489 22.3948 24.1055C22.0974 23.7141 22.1196 23.2493 22.3606 22.8169C22.5913 22.4033 22.9656 22.2188 23.3723 22.1965Z" fill="#19B494"/>
<path d="M8.11138 6.89079C8.096 7.92302 7.11504 8.51605 6.31695 7.99993C5.47613 7.45647 4.77374 6.7233 4.20977 5.89615C3.90386 5.44839 3.97735 4.92714 4.35504 4.51185C4.70025 4.13245 5.15826 3.91028 5.63848 4.17005C6.65533 4.71864 7.40557 5.57144 8.03961 6.51993C8.11993 6.63956 8.09942 6.82584 8.10967 6.89079H8.11138Z" fill="#19B494"/>
<path d="M16.4314 2.3908C16.3972 2.86248 16.4775 3.33929 16.3442 3.80756C16.1665 4.43647 15.7495 4.79195 15.1138 4.76973C14.478 4.74751 14.0286 4.35957 13.9465 3.72895C13.8303 2.83172 13.8303 1.91911 13.9465 1.02188C14.032 0.384425 14.5002 0.0135712 15.1292 -0.000100842C15.7546 -0.0137729 16.1853 0.334864 16.3528 0.972322C16.4758 1.4423 16.3989 1.91911 16.4331 2.3908H16.4314Z" fill="#19B494"/>
<path d="M8.10626 23.4403C8.10285 24.2606 6.09137 26.3097 5.27448 26.2995C4.81647 26.2944 4.43536 26.0842 4.20465 25.6774C3.97565 25.2724 3.95343 24.8263 4.22687 24.4521C4.8045 23.6608 5.50177 22.9738 6.28619 22.3893C6.66388 22.1073 7.09796 22.1278 7.50812 22.3722C7.91144 22.6132 8.12506 22.9635 8.10797 23.4403H8.10626Z" fill="#19B494"/>
<path d="M13.9077 27.9781C13.9077 27.614 13.8838 27.2483 13.9128 26.8877C13.9692 26.1614 14.4631 25.6487 15.104 25.6128C15.7141 25.5803 16.2695 26.0127 16.3721 26.7117C16.4985 27.5662 16.4917 28.4378 16.3772 29.294C16.2866 29.9759 15.7021 30.4339 15.1091 30.4048C14.458 30.3724 13.9675 29.8682 13.9128 29.1368C13.8838 28.7522 13.9077 28.3643 13.9077 27.9781Z" fill="#19B494"/>
<path d="M27.991 16.3975C27.5604 16.3975 27.1263 16.4248 26.6973 16.3923C26.0565 16.3445 25.6241 15.8523 25.6173 15.2131C25.6104 14.5705 26.0274 14.0407 26.6666 14.0117C27.5501 13.9707 28.4388 13.969 29.3206 14.0151C29.9615 14.0476 30.3853 14.5842 30.3768 15.2165C30.3682 15.8472 29.9307 16.3411 29.2847 16.3923C28.8558 16.4265 28.4234 16.3992 27.991 16.3992V16.3975Z" fill="#19B494"/>
</g>
<defs>
<clipPath id="clip0_2102_7911">
<rect width="70" height="67.7056" fill="white"/>
</clipPath>
</defs>
</svg>
