<svg width="70" height="60" viewBox="0 0 70 60" fill="none" xmlns="http://www.w3.org/2000/svg">
<path d="M35.0155 59.9996C33.9096 59.9996 32.8037 59.629 31.8784 58.8878C22.9824 51.7408 2.0886 33.8246 0.220404 21.8114C-0.911969 14.5143 2.68783 6.89961 9.18245 2.86726C16.3997 -1.62392 25.3397 -0.807743 33.7069 5.0952C34.5 5.65549 35.5266 5.65549 36.3197 5.0952C44.687 -0.807743 53.627 -1.62392 60.8486 2.86726C67.3432 6.90402 70.943 14.5187 69.8107 21.8158C67.9425 33.829 47.0486 51.7452 38.1527 58.8923C37.2274 59.6334 36.1215 60.004 35.0155 60.004V59.9996ZM19.1843 2.13049C16.034 2.13049 13.0202 2.96873 10.2928 4.66285C4.51197 8.25843 1.30431 15.0173 2.30891 21.4893C4.11101 33.0878 26.406 51.7849 33.2002 57.2379C34.2709 58.0981 35.7602 58.0981 36.8309 57.2379C43.6207 51.7849 65.9201 33.0834 67.7222 21.4893C68.7268 15.0217 65.5191 8.25843 59.7339 4.66285C53.2701 0.643728 45.1805 1.43343 37.5402 6.82461C36.0069 7.90549 34.0242 7.90549 32.4952 6.82461C28.0759 3.70549 23.5067 2.12608 19.1888 2.12608L19.1843 2.13049Z" fill="#19B494"/>
<path d="M35.6651 42.6175L34.352 42.2778C34.1097 42.216 28.3905 40.6939 24.7907 36.0219C21.1909 31.3498 21.1777 25.4248 21.1821 25.1734L21.1909 23.8145L22.504 24.1542C22.7463 24.216 28.4655 25.7381 32.0653 30.4101C35.665 35.0822 35.6783 41.0072 35.6739 41.2587L35.6651 42.6175ZM23.4072 26.6954C23.6363 28.6013 24.3369 31.9675 26.4651 34.7292C28.5976 37.4998 31.6643 39.0307 33.4444 39.7366C33.2152 37.8307 32.5147 34.4645 30.3865 31.7028C28.254 28.9322 25.1873 27.4013 23.4072 26.6954Z" fill="#19B494"/>
<path d="M33.9429 42.5905L33.9693 41.2317C33.9737 40.9802 34.1323 35.0596 37.8423 30.4758C41.5522 25.892 47.311 24.5155 47.5534 24.4581L48.8752 24.1493L48.8488 25.5081C48.8444 25.7596 48.6857 31.6802 44.9758 36.264C41.2658 40.8479 35.507 42.2243 35.2647 42.2817L33.9429 42.5905ZM46.584 26.9773C44.7819 27.6434 41.6756 29.0993 39.4858 31.8081C37.2871 34.5258 36.5072 37.8655 36.2296 39.7626C38.0317 39.0964 41.1381 37.6405 43.3323 34.9317C45.5221 32.2273 46.3064 28.8787 46.584 26.9773Z" fill="#19B494"/>
<path d="M35.8903 40.1391H33.7754V58.9112H35.8903V40.1391Z" fill="#19B494"/>
<path d="M34.8305 27.7234C32.5349 27.7234 30.6667 25.8528 30.6667 23.5542C30.6667 21.2557 32.5349 19.3851 34.8305 19.3851C37.1261 19.3851 38.9943 21.2557 38.9943 23.5542C38.9943 25.8528 37.1261 27.7234 34.8305 27.7234ZM34.8305 21.5072C33.7026 21.5072 32.7817 22.4292 32.7817 23.5586C32.7817 24.6881 33.6982 25.6101 34.8305 25.6101C35.9629 25.6101 36.8794 24.6881 36.8794 23.5586C36.8794 22.4292 35.9629 21.5072 34.8305 21.5072Z" fill="#19B494"/>
</svg>
