<svg width="180" height="40" viewBox="0 0 180 40" fill="none" xmlns="http://www.w3.org/2000/svg">
<path d="M37.6953 4.92718L37.4495 3.95786C37.2829 3.32378 36.8955 2.78662 36.2416 2.78662H9.50921C8.8511 2.78662 8.46373 3.34397 8.30546 3.95786L8.04721 4.92718H37.6953ZM38.5033 7.98857L37.916 5.72282H7.84312L7.26415 7.98857H38.5033ZM39.3364 11.1388L38.7407 8.85288H7.02673L6.43111 11.1348L39.3364 11.1388ZM40.1403 14.2204L39.5446 11.9425H6.22284L5.63138 14.2204H40.1403ZM40.9483 17.3262L40.3485 15.0241H5.42729L4.82333 17.3262H40.9483ZM41.748 20.3997L41.1566 18.134H4.61507L4.02777 20.3997H41.748ZM42.5811 23.5217L41.9771 21.2035H3.81535L3.21555 23.5217H42.5811ZM43.3808 26.5993L42.7893 24.3295H3.00313L2.41583 26.5993H43.3808ZM44.2138 29.8303L43.5807 27.407H2.20757L1.57029 29.8303H44.2138ZM45.0177 32.92L44.4221 30.63H1.35786L0.770569 32.92H45.0177ZM45.7883 35.8723L45.2302 33.7237H0.558142L0 35.8723H45.7883Z" fill="#194786"/>
<path d="M27.9243 28.5866C26.1207 29.9315 23.809 31.3329 22.0055 32.6859C10.7094 28.6472 7.15233 22.4113 9.32241 14.782C12.1173 7.10834 23.5925 3.34823 31.0607 4.34177C21.2183 5.23434 13.9291 9.80624 13.4793 16.2683C13.6126 22.9848 19.3106 27.3628 27.9243 28.5704" fill="#B92F29"/>
<path d="M27.9243 28.5866C26.1207 29.9315 23.809 31.3329 22.0055 32.6859C10.7094 28.6471 7.15233 22.4113 9.32241 14.782C12.1173 7.10834 23.5925 3.34823 31.0607 4.34177C21.2183 5.23434 13.9291 9.80624 13.4793 16.2683C13.6126 22.9848 19.3439 27.3749 27.9243 28.5866Z" stroke="white" stroke-width="0.0916349" stroke-linecap="round" stroke-linejoin="round"/>
<path d="M18.1888 34.7699C26.7525 32.2336 32.4755 28.1262 30.0805 23.8652C29.1808 22.2497 27.6813 21.5147 25.7029 20.61C20.2672 18.1302 19.1884 15.824 19.8715 12.8192C20.4339 11.3733 21.3585 10.1738 23.3828 9.86682C26.8691 9.12772 36.0618 13.5381 37.3905 21.4016C38.2235 30.0688 27.8563 34.1843 18.168 34.7821" fill="#B3B4B5"/>
<path d="M18.1914 34.7699C26.7551 32.2336 32.4781 28.1261 30.0831 23.8652C29.1834 22.2497 27.6839 21.5147 25.7055 20.61C20.2699 18.1302 19.1911 15.824 19.8742 12.8192C20.4365 11.3733 21.3611 10.1738 23.3854 9.86682C26.8717 9.12772 36.0644 13.5381 37.3931 21.4016C38.2261 30.0567 27.8797 34.1722 18.1914 34.7699Z" stroke="white" stroke-width="0.0916349" stroke-linecap="round" stroke-linejoin="round"/>
<path d="M31.2515 5.00823C31.6681 4.92341 32.0846 4.3701 30.835 4.23682C24.4664 4.97995 15.0072 9.54781 14.4782 15.9493C14.2949 21.5309 18.6892 24.9638 24.4747 26.9146C26.3199 27.27 29.3397 27.484 29.3564 25.4485C29.398 21.5995 20.676 20.4727 19.0474 16.2078C17.3813 11.3895 23.1044 7.12051 31.239 5.02843" fill="white"/>
<path d="M31.2515 5.00823C31.6681 4.92341 32.0846 4.3701 30.835 4.23682C24.4664 4.97995 15.0072 9.54781 14.4782 15.9493C14.2949 21.5309 18.6892 24.9638 24.4747 26.9146C26.3199 27.27 29.3397 27.484 29.3564 25.4485C29.398 21.5995 20.676 20.4727 19.0474 16.2078C17.398 11.3693 23.1169 7.10031 31.2515 5.00823Z" stroke="white" stroke-width="0.0916349" stroke-linecap="round" stroke-linejoin="round"/>
<path d="M9.07422 39.9152H36.6688L35.1193 36.979H10.6278L9.07422 39.9152Z" fill="#194786"/>
<path d="M14.0391 2.04766H31.8454L30.8457 0H15.0429L14.0391 2.04766Z" fill="#194786"/>
<path d="M172.957 15.7997L170.175 8.85303L167.297 15.7997H172.957ZM180 22.9039H175.86L174.169 18.8288H166.034L164.252 22.9039H160.128L168.734 3.24316H171.649L180 22.9039ZM153.801 15.7997L151.015 8.85303L148.136 15.7997H153.801ZM160.845 22.9039H156.704L155.009 18.8288H146.879L145.092 22.9039H140.993L149.594 3.24316H152.51L160.845 22.9039ZM143.226 3.65512L134.654 23.3886H132.571L124.178 3.65512H128.385L133.679 16.5792L139.031 3.65512H143.226ZM119.255 15.7997L116.477 8.85303L113.599 15.7997H119.255ZM126.302 22.9039H122.162L120.471 18.8288H112.341L110.562 22.9039H106.447L115.06 3.24316H117.976L126.302 22.9039ZM105.739 22.9039H95.7714V3.65512H99.6409V19.6406H105.739V22.9039ZM93.8762 22.9039H83.9046V3.65512H87.7741V19.6406H93.8804L93.8762 22.9039ZM75.2951 15.7997L72.5086 8.85303L69.6304 15.7997H75.2951ZM82.3427 22.9039H78.1983L76.5072 18.8288H68.3725L66.5898 22.9039H62.4871L71.0883 3.24316H74.0039L82.3427 22.9039ZM59.9047 9.68502C59.9047 7.83526 58.6148 6.90903 56.0352 6.90634H54.6981V12.5081H56.2684C58.6926 12.5081 59.9047 11.5671 59.9047 9.68502ZM63.8908 9.68502C63.8908 11.6236 63.3118 13.1301 62.1539 14.1842C60.9959 15.2383 59.3382 15.7715 57.1931 15.7715H54.694V22.9039H50.8203V3.65512H56.6225C58.9633 3.65512 60.7127 4.13574 61.8623 5.11716C62.5329 5.68276 63.0648 6.38631 63.4193 7.17654C63.7738 7.96677 63.942 8.82376 63.9116 9.68502H63.8908Z" fill="#194786"/>
<path d="M92.2043 31.3851C92.2043 30.5249 91.6003 30.0968 90.4007 30.0968H89.7843V32.7018H90.5174C91.6281 32.7018 92.1904 32.2629 92.2043 31.3851ZM94.0495 31.3851C94.0738 31.7696 94.0149 32.1547 93.8764 32.5158C93.738 32.8768 93.5231 33.2057 93.2456 33.4813C92.6029 34.0024 91.7783 34.2641 90.9422 34.2123H89.7843V37.5241H87.9849V28.5863H90.6798C91.7711 28.5863 92.5791 28.8205 93.1164 29.2688C93.4233 29.533 93.6661 29.8598 93.8274 30.2257C93.9887 30.5916 94.0645 30.9875 94.0495 31.3851ZM86.2355 34.0346C86.289 34.8851 86.0502 35.7287 85.5566 36.4336C84.8818 37.2939 83.8905 37.7301 82.5285 37.7301C81.1664 37.7301 80.1751 37.2939 79.5003 36.4336C79.0082 35.7282 78.7709 34.8846 78.8256 34.0346V28.5863H80.625V33.7034C80.5824 34.2501 80.6812 34.7984 80.9124 35.2987C81.0895 35.557 81.3298 35.7688 81.6117 35.9153C81.8937 36.0618 82.2086 36.1384 82.5285 36.1384C82.8483 36.1384 83.1633 36.0618 83.4452 35.9153C83.7272 35.7688 83.9674 35.557 84.1446 35.2987C84.3775 34.7989 84.4777 34.2504 84.4361 33.7034V28.5863H86.2355V34.0346ZM75.6767 33.0491C75.6838 32.6471 75.6079 32.2477 75.4534 31.8745C75.2989 31.5013 75.0689 31.1619 74.777 30.8763C74.5004 30.5878 74.1641 30.3592 73.7902 30.2054C73.4163 30.0516 73.013 29.976 72.6069 29.9837C72.1996 29.9767 71.7954 30.0525 71.4202 30.2062C71.045 30.3599 70.7072 30.5882 70.4285 30.8763C69.8489 31.4608 69.5252 32.2402 69.5252 33.0511C69.5252 33.862 69.8489 34.6415 70.4285 35.226C70.7057 35.517 71.0428 35.7483 71.4181 35.9049C71.7934 36.0614 72.1984 36.1397 72.6069 36.1348C73.014 36.1386 73.4174 36.0597 73.7912 35.9032C74.1649 35.7467 74.5007 35.516 74.777 35.226C75.0685 34.9392 75.2981 34.5991 75.4526 34.2253C75.6071 33.8516 75.6832 33.4517 75.6767 33.0491ZM77.5302 33.0491C77.5427 33.6693 77.4218 34.2852 77.1751 34.8575C76.9283 35.4298 76.5613 35.946 76.0974 36.373C75.1501 37.2446 73.894 37.7305 72.5882 37.7305C71.2823 37.7305 70.0262 37.2446 69.079 36.373C68.6149 35.9339 68.2493 35.4067 68.0049 34.8244C67.7605 34.242 67.6427 33.6171 67.6586 32.9885C67.6501 32.3787 67.7736 31.7739 68.0211 31.2132C68.2687 30.6525 68.6347 30.1483 69.0956 29.7333C70.0404 28.8649 71.2926 28.3809 72.5944 28.3809C73.8962 28.3809 75.1484 28.8649 76.0932 29.7333C76.5564 30.1594 76.9234 30.6741 77.1707 31.2449C77.4181 31.8157 77.5405 32.4301 77.5302 33.0491ZM64.7888 31.3165C64.7888 30.436 64.214 29.9918 63.0602 29.9918H62.5063V32.7018H63.0311C64.2057 32.7018 64.7888 32.2414 64.7888 31.3165ZM67.442 37.5241H65.2261L62.727 33.9296H62.4938V37.5241H60.6985V28.5863H63.3643C64.2253 28.5369 65.077 28.7813 65.7718 29.2769C66.0593 29.5155 66.286 29.8154 66.4342 30.1532C66.5823 30.4909 66.6478 30.8572 66.6257 31.2236C66.6257 32.6399 65.9315 33.484 64.543 33.7559L67.442 37.5241ZM59.4032 33.0289C59.4032 34.4748 58.9866 35.6259 58.1869 36.474C57.766 36.9006 57.2555 37.2346 56.69 37.4534C56.1245 37.6722 55.5171 37.7707 54.9089 37.7422C54.2684 37.7625 53.6304 37.6566 53.0333 37.431C52.4362 37.2053 51.8926 36.8647 51.4351 36.4296C50.9833 35.996 50.6287 35.4766 50.3936 34.9039C50.1585 34.3313 50.048 33.7177 50.0689 33.1016C50.0497 32.4749 50.1633 31.8509 50.4029 31.2685C50.6425 30.6861 51.0029 30.1576 51.4617 29.7157C51.9205 29.2738 52.468 28.928 53.0703 28.6997C53.6726 28.4714 54.3168 28.3654 54.963 28.3884C55.759 28.3517 56.5499 28.5292 57.2482 28.9013C57.9466 29.2733 58.5252 29.8255 58.92 30.4966L57.3372 31.3044C57.1008 30.8893 56.7501 30.546 56.3243 30.3129C55.8985 30.0797 55.4142 29.9657 54.9255 29.9837C54.5227 29.9745 54.1224 30.0491 53.7517 30.2023C53.381 30.3556 53.0484 30.584 52.7763 30.8722C52.205 31.4771 51.8988 32.2737 51.9224 33.0936C51.9002 33.9047 52.2068 34.692 52.7763 35.2866C53.0563 35.5661 53.3929 35.7864 53.7649 35.9337C54.1369 36.0811 54.5363 36.1523 54.9381 36.1428C55.5391 36.1629 56.1284 35.9786 56.6041 35.6218C56.823 35.4575 57.0044 35.251 57.137 35.0154C57.2696 34.7797 57.3505 34.5201 57.3747 34.2527H55.1963V32.7341H59.4157L59.4032 33.0289Z" fill="#B92F29"/>
</svg>
