<svg width="447" height="438" viewBox="0 0 447 438" fill="none" xmlns="http://www.w3.org/2000/svg">
<path d="M313.81 1.32027C315.52 2.52027 316.95 4.35027 318.58 6.07027C326.81 14.7503 335.2 23.2203 343.66 31.6803C354.13 42.1603 364.6 52.6303 375.04 63.1303C383.25 71.3903 383.21 75.0503 374.94 83.3503C356.18 102.17 337.4 120.97 318.54 139.69C312.13 146.05 306.04 146.34 302.27 140.72C298.49 135.09 301.23 130.66 305.26 126.62C317.71 114.15 330.19 101.72 342.64 89.2403C344.19 87.6903 345.58 85.9903 348.01 83.2903C344.86 82.9203 342.87 82.4803 340.87 82.4803C260 82.4503 179.14 82.3303 98.2697 82.5103C57.6497 82.6003 23.1697 113.59 19.2797 152.88C15.1997 194.13 41.8897 231.31 82.0197 239.65C89.0697 241.12 96.4897 240.91 103.74 241.21C110.11 241.47 115.16 243.69 115.09 250.71C115.02 257.6 110.1 259.95 103.68 260.21C50.2597 262.42 5.38966 223.07 0.399657 169.54C-4.32034 118.9 33.2997 72.1803 85.0697 64.6403C90.5697 63.8403 96.2397 63.9603 101.83 63.9603C180.74 63.9203 259.64 63.9303 338.55 63.9203C341.25 63.9203 343.94 63.9203 349.19 63.9203C344.98 59.5603 342.43 56.8403 339.8 54.2003C329.33 43.7003 318.85 33.2003 308.36 22.7303C305.25 19.6303 299.8 15.4403 300.56 10.4303C300.93 7.94027 302.52 5.62027 303.83 3.53027C304.85 1.91027 306.13 0.660271 308.03 0.220271C310.45 -0.339729 312.26 0.220272 313.83 1.31027L313.81 1.32027Z" fill="#EE8122"/>
<path d="M155.07 327.96C163.29 338.7 156.98 344.85 150.24 351.46C132.46 368.87 115.02 386.62 97.4097 404.2C88.8397 412.75 85.3598 412.68 76.5898 403.95C72.2297 399.61 67.8097 395.33 63.5397 390.91C58.6297 385.84 58.3697 380.62 63.4997 375.47C83.6397 355.27 103.89 335.18 123.88 314.83C130.15 308.45 135.76 311.82 142.43 315.05C125.51 290.65 117.42 264.45 122.96 235.25C128.55 205.81 144.57 183.45 170.62 168.66C208.29 147.28 255.76 154.25 286.4 185.27C316.28 215.52 322.6 263.3 301.43 299.89C286.42 325.83 264.11 341.74 234.66 347.3C205.71 352.76 179.82 344.63 155.08 327.94L155.07 327.96ZM295.08 255.57C297.34 214.7 264.11 177.36 223.44 175.05C179.51 172.56 142.27 205.15 140.04 248.03C137.78 291.51 170.48 327.89 214.22 330.55C256.06 333.1 292.67 299.14 295.08 255.57ZM136.32 339.4C136.51 338.8 136.51 338.19 136.21 337.63C135.86 336.99 135.17 336.62 134.47 336.39C129.33 334.73 125.48 339.88 122.29 342.99C118.16 347.04 114.04 351.11 109.95 355.19C104.78 360.35 99.6097 365.51 94.4297 370.66C90.8397 374.23 84.3597 378.32 84.5697 384.06C84.5897 384.68 84.9097 385.33 85.4897 385.55C85.8697 385.7 86.2997 385.64 86.6997 385.55C90.6397 384.69 93.6397 381.64 96.3897 378.9C99.6997 375.6 103.06 372.36 106.42 369.1C111.58 364.09 116.74 359.08 121.91 354.07C126.24 349.87 131.1 346.11 135.04 341.52C135.57 340.91 136.09 340.16 136.33 339.4H136.32Z" fill="#224A89"/>
<path d="M295.05 437.27C274.63 437.27 254.2 437.18 233.78 437.32C227.24 437.37 221.81 436.14 221.01 428.52C220.38 422.53 225.44 418.73 233.75 418.73C272.08 418.72 310.41 418.94 348.74 418.74C386.89 418.54 418.35 392.5 426.53 354.83C432.92 325.43 420.49 292.62 395.42 275.74C387.68 270.52 380.01 266.65 370.87 264.42C361.22 262.06 350.55 260.41 340.6 260.39C335.38 260.38 325.33 257.7 325.16 250.77C324.96 242.94 334.32 241.41 340.39 241.03C345.8 240.69 351.27 241.28 356.65 241.78C370.22 243.03 383.61 246.65 395.66 253.09C412.75 262.23 426.13 276.77 435.16 293.81C469.43 358.47 423.58 435.61 350.46 437.15C332 437.54 313.53 437.21 295.07 437.26L295.05 437.27Z" fill="#EE8122"/>
<path d="M160.458 260.06C165.627 260.06 169.818 255.87 169.818 250.7C169.818 245.531 165.627 241.34 160.458 241.34C155.288 241.34 151.098 245.531 151.098 250.7C151.098 255.87 155.288 260.06 160.458 260.06Z" fill="#224A89"/>
<path d="M189.258 260.06C194.428 260.06 198.618 255.87 198.618 250.7C198.618 245.531 194.428 241.34 189.258 241.34C184.089 241.34 179.898 245.531 179.898 250.7C179.898 255.87 184.089 260.06 189.258 260.06Z" fill="#224A89"/>
<path d="M220.419 260.06C225.588 260.06 229.779 255.87 229.779 250.7C229.779 245.531 225.588 241.34 220.419 241.34C215.249 241.34 211.059 245.531 211.059 250.7C211.059 255.87 215.249 260.06 220.419 260.06Z" fill="#224A89"/>
<path d="M244.149 260.06C249.318 260.06 253.509 255.87 253.509 250.7C253.509 245.531 249.318 241.34 244.149 241.34C238.98 241.34 234.789 245.531 234.789 250.7C234.789 255.87 238.98 260.06 244.149 260.06Z" fill="#224A89"/>
<path d="M277.18 260.06C282.35 260.06 286.54 255.87 286.54 250.7C286.54 245.531 282.35 241.34 277.18 241.34C272.011 241.34 267.82 245.531 267.82 250.7C267.82 255.87 272.011 260.06 277.18 260.06Z" fill="#224A89"/>
</svg>
