<svg width="512" height="512" viewBox="0 0 512 512" fill="none" xmlns="http://www.w3.org/2000/svg">
<path d="M145.886 353.981C144.049 353.981 142.202 353.944 140.318 353.87C117.635 352.969 99.4725 345.519 84.7714 331.12C60.8266 307.645 49.3647 277.239 52.5109 245.487C55.4344 216.011 71.3605 189.173 95.129 173.678C114.786 160.868 137.339 155.87 162.174 158.824C190.416 162.187 213.758 174.115 231.568 194.273C235.782 199.039 239.355 204.139 242.594 208.932C244.71 212.072 244.524 214.989 242.037 217.628C235.253 224.818 227.104 233.216 218.166 241.01C216.579 242.394 215.02 242.998 213.396 242.886C211.234 242.738 209.758 241.353 208.607 240.016L206.844 237.972C202.175 232.556 197.758 227.428 192.495 222.997C178.973 211.589 165.042 205.83 149.924 205.393C129.895 204.817 115.092 213.596 105.941 231.516C95.8807 251.21 96.1684 269.687 106.795 286.427C114.341 298.318 125.376 305.554 139.575 307.942C149.079 309.54 158.406 306.799 166.267 303.91C181.005 298.494 193.396 288.759 203.558 279.943C213.377 271.433 222.426 262.079 230.733 253.235C232.505 251.349 234.278 249.463 236.051 247.577C253.759 228.692 272.079 209.165 292.804 192.583C312.646 176.716 329.565 168.095 347.682 164.63C380.221 158.406 408.156 165.252 430.7 184.965C443.591 196.233 452.148 211.896 456.863 232.835C463.035 260.258 460.093 285.721 448.102 308.518C433.92 335.486 410.356 350.108 378.077 351.993C355.719 353.294 334.002 346.178 313.537 330.813C313.203 330.562 312.962 330.395 312.795 330.302C312.683 330.404 312.526 330.553 312.331 330.767C308.665 334.752 304.795 338.616 301.045 342.351C299.876 343.512 298.716 344.673 297.546 345.844C297.453 345.937 297.37 346.039 297.277 346.141C296.525 346.968 294.753 348.919 292.024 348.259C290.483 347.887 288.627 346.726 288.581 343.28C288.581 343.168 288.581 343.057 288.581 342.955L288.34 341.524C285.045 321.718 281.648 301.244 279.792 280.835C279.541 278.038 279.3 275.391 281.138 273.589C282.975 271.786 285.611 272.074 288.395 272.372C307.375 274.443 326.382 278.001 344.749 281.448L351.404 282.692C352.165 282.832 352.786 283.073 353.51 283.352C353.835 283.473 354.206 283.621 354.661 283.779L359.775 285.591L355.766 289.251C353.947 290.914 352.165 292.53 350.42 294.119C346.345 297.816 342.494 301.318 338.689 304.876C338.652 304.913 338.614 304.951 338.568 304.988C338.614 305.016 338.661 305.043 338.698 305.071L338.893 305.192C352.629 313.608 370.29 313.961 386.151 306.14C401.985 298.327 412.454 284.114 414.143 268.117C417.159 239.626 402.115 215.853 376.713 208.96C361.724 204.891 346.448 207.363 330.02 216.504C319.551 222.328 310.447 229.946 303.681 235.938C295.616 243.072 287.653 251.266 278.604 261.707C276.311 264.355 274.028 267.002 271.745 269.65C259.272 284.132 246.38 299.098 232.478 312.819C220.784 324.357 210.389 332.829 199.753 339.49C184.189 349.234 166.509 354 145.868 354L145.886 353.981ZM148.606 164.5C130.35 164.5 113.598 169.396 98.6743 179.122C76.5392 193.549 61.699 218.594 58.9704 246.119C56.0284 275.865 66.8035 304.393 89.3098 326.456C102.804 339.685 119.575 346.522 140.568 347.358C162.277 348.222 180.504 343.837 196.319 333.944C206.537 327.552 216.579 319.359 227.93 308.155C241.647 294.62 254.455 279.748 266.845 265.367C269.128 262.71 271.42 260.063 273.713 257.406C282.947 246.741 291.115 238.362 299.393 231.023C306.41 224.818 315.867 216.903 326.883 210.781C344.87 200.776 361.733 198.11 378.439 202.643C407.033 210.4 423.99 236.978 420.63 268.758C418.7 286.984 406.894 303.12 389.047 311.927C371.172 320.743 351.162 320.278 335.515 310.692L335.32 310.571C332.897 309.084 331.143 308.016 330.911 305.731C330.679 303.427 332.257 301.95 334.262 300.083C338.104 296.488 341.965 292.976 346.058 289.26C346.364 288.982 346.661 288.712 346.967 288.433L343.561 287.792C325.306 284.374 306.428 280.835 287.69 278.791C287.356 278.754 286.725 278.689 286.14 278.642C286.177 279.227 286.233 279.868 286.261 280.203C288.061 300.083 291.374 320.139 294.604 339.564C295.226 338.941 295.848 338.328 296.47 337.706C300.163 334.018 303.987 330.2 307.56 326.326C311.495 322.044 314.911 323.679 317.445 325.583C336.907 340.196 356.619 346.708 377.706 345.472C407.562 343.726 429.317 330.265 442.366 305.461C453.615 284.067 456.362 260.109 450.543 234.238C446.078 214.413 438.422 200.312 426.44 189.833C405.177 171.244 379.822 165.085 348.916 170.984C331.895 174.236 315.848 182.457 296.869 197.627C276.506 213.912 258.353 233.271 240.793 251.99C239.021 253.876 237.248 255.771 235.475 257.657C227.039 266.621 217.851 276.125 207.818 284.82C197.201 294.017 184.235 304.198 168.513 309.976C159.845 313.163 149.506 316.163 138.508 314.315C122.638 311.648 109.774 303.204 101.31 289.873C89.3655 271.053 88.9757 250.411 100.15 228.515C110.396 208.459 127.631 198.184 150.109 198.853C166.759 199.336 181.989 205.597 196.681 217.981C202.333 222.746 207.122 228.311 211.763 233.68L213.517 235.715C213.656 235.873 213.767 235.993 213.86 236.095C213.869 236.086 213.888 236.068 213.897 236.058C222.631 228.45 230.631 220.192 237.313 213.113C237.378 213.048 237.424 212.992 237.461 212.946C237.406 212.843 237.322 212.704 237.202 212.528C234.092 207.92 230.659 203.034 226.696 198.537C209.981 179.605 188.013 168.411 161.404 165.243C157.061 164.723 152.782 164.472 148.596 164.472L148.606 164.5Z" fill="#25B899"/>
</svg>
