<svg width="512" height="512" viewBox="0 0 512 512" fill="none" xmlns="http://www.w3.org/2000/svg">
<path d="M394.63 348.19C393.58 349.65 392.72 351.24 391.51 352.47C378.33 365.79 365.03 379 351.92 392.4C349.14 395.24 347.17 394.51 344.41 392.48C335.68 386.08 326.68 380.03 317.96 373.61C314.57 371.12 311.85 371.06 307.58 372.16C297.79 374.68 294.62 380.74 293.86 389.97C293.18 398.25 291.18 406.41 289.94 414.66C289.42 418.12 287.96 419.79 284.23 419.77C265.25 419.67 246.26 419.67 227.28 419.79C223.39 419.82 222.32 417.82 221.81 414.48C220.17 403.76 218.14 393.1 216.7 382.36C216.14 378.22 214.06 376.68 210.59 374.71C202.09 369.9 195.39 371.23 188.24 377.5C181.82 383.13 174.38 387.58 167.48 392.67C164.67 394.74 162.56 394.92 159.89 392.18C146.96 378.95 133.92 365.82 120.72 352.85C117.73 349.91 117.3 347.81 119.97 344.32C125.99 336.44 131.55 328.2 137.27 320.09C144.42 309.97 139.15 297.21 126.81 295C117.25 293.29 107.67 291.68 98.0696 290.27C93.7796 289.64 91.9696 287.79 91.9996 283.25C92.1196 265.17 92.0096 247.09 91.8096 229.01C91.7596 224.82 93.4897 222.91 97.5097 222.27C107.99 220.61 118.47 218.9 128.9 216.95C138.82 215.09 143.84 201.58 137.93 193.35C131.87 184.92 126.15 176.25 119.89 167.97C117.49 164.79 117.37 162.86 120.25 160.01C133.72 146.69 146.91 133.1 160.5 119.91C161.69 118.75 165.61 118.85 167.23 119.91C176.44 126.02 185.46 132.44 194.28 139.11C197.85 141.81 200.88 142.33 204.66 139.87C206.52 138.67 209.14 138.54 210.83 137.19C213 135.47 215.7 133.25 216.23 130.82C218.58 120.02 220.43 109.09 222.05 98.15C222.67 93.96 224.46 92.23 228.58 92.24C246.89 92.3 265.19 92.33 283.5 92.2C288.24 92.17 289.49 94.56 290.1 98.78C291.66 109.48 293.52 120.15 295.63 130.76C297.12 138.25 310.83 143.6 317.07 139.28C326.35 132.86 335.62 126.42 344.7 119.72C347.67 117.53 349.54 117.54 352.16 120.2C365 133.23 377.94 146.16 391.01 158.95C394.41 162.28 394.6 164.85 391.64 168.71C385.19 177.12 379.38 186.01 373.06 194.52C370.48 198 370.85 200.84 371.95 204.98C374.54 214.75 380.67 217.71 389.93 218.29C398 218.79 405.98 220.82 414.02 222.07C418.17 222.71 420.24 224.48 420.18 229.16C419.95 247.24 419.99 265.32 420.17 283.4C420.21 287.69 418.42 289.44 414.44 290.07C403.52 291.81 392.64 293.86 381.71 295.53C377.89 296.11 376.55 298.26 374.56 301.4C368.74 310.56 371.52 317.4 377.87 324.74C383.16 330.85 387.39 337.88 392.09 344.51C392.86 345.6 393.62 346.7 394.64 348.16L394.63 348.19ZM131.98 164.22C134.84 168.34 137.12 171.65 139.43 174.94C141.77 178.26 143.8 181.89 146.57 184.8C154.88 193.55 156.94 202.57 149.2 212.81C147.91 214.52 147.35 216.99 147.06 219.19C146.25 225.18 142.62 227.17 137.01 227.92C126.08 229.37 115.23 231.41 103.83 233.29C103.83 247.68 103.69 261.67 104.04 275.64C104.08 277.11 106.84 279.38 108.67 279.78C116.39 281.45 124.19 283.25 132.04 283.7C141.81 284.26 147.23 288.38 148.87 298.18C149.48 301.84 151.59 305.37 153.54 308.64C156.06 312.85 155 316.07 152.25 319.69C146.25 327.59 140.47 335.68 134.91 343.9C133.95 345.32 133.63 348.6 134.56 349.62C144.09 360.09 153.93 370.27 163.77 380.62C172.68 374.15 180.15 369.1 187.21 363.51C193.78 358.31 199.89 354.74 208.08 360.83C211.57 363.42 216.22 364.75 220.55 365.82C225.05 366.94 226.77 369.57 227.42 373.79C228.95 383.61 230.83 393.38 232.27 403.21C232.78 406.7 233.95 408.41 237.75 408.37C249.95 408.24 262.16 408.28 274.36 408.41C277.99 408.45 279.41 407.09 279.91 403.38C281.33 392.86 283.08 382.38 285.09 371.96C285.48 369.96 287.24 367.48 289.04 366.63C295.54 363.55 302.44 361.34 308.94 358.28C312.78 356.47 315.52 356.98 318.8 359.48C326.7 365.5 334.92 371.1 342.92 376.99C345.95 379.21 348.08 379.31 350.95 376.26C358.84 367.88 367.02 359.75 375.4 351.86C378.69 348.76 379.2 346.27 376.43 342.71C372.28 337.37 368.75 331.51 364.28 326.46C357.47 318.77 354.53 311.22 361.61 302.06C363.34 299.83 364.39 296.78 364.9 293.95C366.03 287.62 369.54 285.2 375.85 284.45C386.73 283.15 397.49 280.87 408.2 279.02V233.76C405.81 233.23 403.65 232.67 401.46 232.28C391.68 230.55 381.84 229.06 372.13 227C369.97 226.54 367.44 224.49 366.46 222.5C363.39 216.25 361.33 209.49 358.18 203.28C356.22 199.4 356.73 196.69 359.18 193.44C365.01 185.69 370.5 177.68 376.29 169.89C378.86 166.44 379.04 163.91 375.58 160.67C367.18 152.8 359 144.66 351.12 136.27C348.03 132.98 345.77 133.26 342.56 135.65C334.59 141.58 326.35 147.14 318.5 153.22C315.13 155.83 312.34 155.96 308.66 154.11C303.24 151.39 297.75 148.32 291.92 147C286.56 145.79 285.08 143.1 284.44 138.34C283.15 128.72 281.22 119.18 280.02 109.54C279.51 105.48 277.8 104.15 273.96 104.18C261.98 104.29 250 104.29 238.02 104.16C234.4 104.12 232.76 105.52 232.24 109.12C231.17 116.5 229.16 123.78 228.68 131.18C228.05 140.86 224.72 147.2 214.27 148.85C210.42 149.46 206.74 151.88 203.26 153.94C199.64 156.09 196.99 155.82 193.54 153.14C185.53 146.92 177.01 141.36 168.8 135.39C166.01 133.36 163.8 133.07 161.15 135.7C151.56 145.22 141.84 154.6 131.97 164.22H131.98Z" fill="#25B899"/>
<path d="M256.842 159.49C310.612 159.96 353.702 203.62 353.052 256.98C352.402 310.83 308.702 353.76 255.282 353.04C200.552 352.3 158.712 309.24 159.152 254.11C159.582 201.47 203.412 159.02 256.842 159.49ZM170.702 256.3C170.702 302.99 209.402 341.44 256.312 341.37C302.832 341.3 341.292 302.64 341.092 256.14C340.892 209.29 302.622 171.02 256.092 171.17C208.962 171.32 170.692 209.46 170.692 256.29L170.702 256.3Z" fill="#25B899"/>
<path d="M215.881 256.27C217.001 229.01 228.501 208.19 250.521 193.07C254.451 190.37 257.621 190.59 261.591 193.14C307.471 222.62 307.241 290.07 261.171 319.57C257.361 322.01 254.471 322 250.751 319.48C228.161 304.15 216.651 282.9 215.871 256.27H215.881ZM228.991 267.14C232.151 281.48 237.431 293.72 249.151 302.81C252.871 285.69 249.891 280.41 228.991 267.14ZM282.811 267.75C263.851 277.64 259.241 285.88 262.911 303.18C273.511 293.54 280.071 282.12 282.811 267.75ZM229.211 237.14C229.721 243.24 228.461 248.97 230.761 251.63C235.851 257.51 242.721 261.83 249.121 267C252.021 253.33 249.271 249.02 229.201 237.14H229.211ZM280.841 238.63C264.621 246.53 260.451 252.91 262.981 266.54C267.511 263.01 271.801 259.51 276.261 256.24C284.731 250.04 285.021 249.17 280.841 238.63ZM249.671 236.84V210.15C249.201 209.91 248.731 209.66 248.271 209.42C244.031 214.61 239.791 219.8 235.391 225.19C240.391 229.27 244.651 232.74 249.681 236.84H249.671ZM276.541 225.48C271.911 219.69 267.711 214.44 262.491 207.92V236.83C267.681 232.64 271.761 229.34 276.541 225.48Z" fill="#25B899"/>
</svg>
