<svg width="512" height="512" viewBox="0 0 512 512" fill="none" xmlns="http://www.w3.org/2000/svg">
<path d="M389.514 239.499C415.409 239.25 418.865 242.804 417.846 268.612C415.181 335.742 349.361 410.468 282.577 422.029C278.384 422.755 271.97 425.68 270.713 419.342C269.262 412.039 276.759 412.993 281.277 411.638C348.234 391.724 390.944 348.603 405.701 279.793C412.007 250.41 407.911 248.178 377.921 251.601C317.735 258.47 254.223 322.427 244.537 378.853C243.757 383.382 244.57 390.912 236.845 388.962C230.636 387.401 233.518 381.02 234.364 376.903C243.844 330.91 271.147 296.803 307.778 269.489C333.77 250.117 363.836 239.738 389.503 239.488L389.514 239.499Z" fill="#25B899"/>
<path d="M390.391 199.65C394.269 194.081 397.823 188.88 401.485 183.756C403.49 180.96 405.765 177.927 409.709 180.364C413.544 182.737 412.45 186.063 410.445 189.14C403.999 199.054 397.606 208.989 391.008 218.794C388.159 223.031 384.204 223.594 380.033 220.669C371.051 214.363 362.112 207.992 353.239 201.546C350.801 199.78 348.472 197.58 350.433 194.168C352.676 190.267 355.763 190.863 359.068 192.878C364.442 196.15 369.881 199.303 375.959 202.911C376.728 193.669 373.695 186.085 370.791 178.815C349.826 126.354 294.169 93.9589 235.966 99.9613C181.522 105.574 135.129 148.489 124.143 202.759C123.059 208.112 125.465 219.044 116.754 217.364C107.62 215.609 113.081 205.966 114.272 200.029C126.786 137.579 181.208 91.0878 243.713 89.0834C311.472 86.9057 368.169 127.546 385.667 190.787C386.425 193.539 386.263 196.757 390.401 199.671L390.391 199.65Z" fill="#25B899"/>
<path d="M94.0021 265.513C93.9154 241.861 96.3857 238.838 119.875 239.553C170.483 241.092 208.393 267.095 240.518 303.672C242.814 306.283 244.83 309.588 241.373 312.556C237.224 316.132 234.364 312.665 231.882 309.804C219.889 295.98 206.486 283.758 191.242 273.617C171.133 260.247 149.161 251.991 125.021 250.063C105.855 248.535 103.276 250.843 104.663 269.673C107.87 313.261 129.919 346.956 161.458 375.321C176.355 388.723 193.225 399.168 212.044 406.318C215.923 407.792 221.373 408.67 219.726 414.347C217.971 420.382 212.835 417.641 209.043 416.481C149.367 398.247 94.2513 325.84 94.0238 265.513H94.0021Z" fill="#25B899"/>
<path d="M286.912 183.138C289.87 183.149 292.839 183.03 295.797 183.171C302.937 183.517 305.439 187.168 301.062 192.987C282.492 217.668 263.586 242.1 244.777 266.596C242.87 269.088 240.508 270.919 237.193 269.294C233.845 267.658 233.996 264.56 234.657 261.58C237.203 250.02 239.229 238.286 242.642 226.985C245.459 217.668 241.862 215.891 233.769 216.573C229.143 216.963 224.462 216.703 219.803 216.606C210.68 216.411 209.37 212.131 214.429 205.381C232.22 181.697 250.151 158.121 268.049 134.513C270.368 131.457 272.817 127.914 277.345 130.352C281.17 132.411 279.924 136.214 279.241 139.453C277.324 148.554 275.233 157.623 273.239 166.713C270.834 177.656 275.388 183.127 286.901 183.127L286.912 183.138ZM227.084 206.248C235.632 206.248 241.039 206.454 246.413 206.205C254.983 205.804 257.746 209.054 255.568 217.722C253.986 224.028 251.147 230.344 252.523 239.185C264.236 223.833 274.962 209.78 287.378 193.517C280.455 193.517 276.782 193.539 273.098 193.517C256.781 193.409 256.803 193.355 260.14 176.876C261.094 172.141 263.661 167.515 261.408 160.992C250.227 175.738 239.663 189.66 227.084 206.248Z" fill="#25B899"/>
<path d="M330.885 316.273C345.393 302.329 358.893 289.078 372.761 276.228C375.914 273.303 378.969 265.87 384.679 271.483C389.749 276.467 384.235 281.05 380.952 284.333C355.003 310.379 328.794 336.165 302.683 362.049C300.917 363.793 299.259 365.646 296.735 368.311C305.836 372.406 314.601 369.644 322.976 370.532C326.628 370.922 331.481 370.055 331.416 375.603C331.351 380.771 326.844 381.518 323.03 380.847C295.056 375.906 272.899 384.682 256.506 408.074C254.372 411.129 250.786 414.044 246.972 410.046C243.137 406.026 246.734 403.079 249.345 400.446C267.514 382.147 284.85 362.861 304.308 346.035C318.187 334.031 322.034 320.563 319.813 303.672C319.217 299.1 319.184 294.398 319.466 289.782C319.661 286.467 320.376 282.317 324.742 282.382C329.412 282.447 330.864 286.207 330.875 290.422C330.907 298.807 330.885 307.183 330.885 316.262V316.273Z" fill="#25B899"/>
<path d="M204.906 356.469C194.797 346.956 184.58 337.574 174.645 327.877C171.21 324.518 167.321 324.171 163.019 324.215C155.413 324.301 147.786 324.475 140.191 324.171C135.575 323.987 128.414 325.991 128.533 318.559C128.641 312.188 135.261 313.716 139.671 313.564C145.359 313.38 151.058 313.521 160.842 313.521C148.057 300.985 138.132 291.429 128.436 281.646C125.391 278.579 119.876 275.058 125.272 270.324C129.606 266.521 132.91 271.169 135.803 274.094C152.423 290.931 169 307.822 186.704 325.84C190.507 316.251 188.199 307.952 188.892 299.967C189.261 295.774 188.73 290.465 194.678 290.638C199.9 290.79 199.174 295.817 199.337 299.501C199.488 302.881 199.77 306.316 199.315 309.642C196.628 329.058 201.482 345.201 218.351 356.826C221.58 359.048 225.827 362.211 223.747 367.206C221.656 372.212 216.574 370.662 212.555 370.738C204.104 370.901 195.642 370.825 187.191 370.738C183.432 370.695 178.719 371.063 178.459 365.83C178.134 359.351 183.637 360.434 187.625 360.261C192.587 360.044 197.56 360.207 202.533 360.207C203.324 358.961 204.115 357.715 204.895 356.469H204.906Z" fill="#25B899"/>
</svg>
