<?xml version="1.0" encoding="UTF-8"?>
<svg id="Layer_1" data-name="Layer 1" xmlns="http://www.w3.org/2000/svg" viewBox="0 0 512 512">
  <defs>
    <style>
      .cls-1 {
        fill: #ee8122;
      }

      .cls-2 {
        stroke: #ee8122;
      }

      .cls-2, .cls-3 {
        fill: none;
        stroke-linecap: round;
        stroke-linejoin: round;
        stroke-width: 11.29px;
      }

      .cls-3 {
        stroke: #224a89;
      }
    </style>
  </defs>
  <path class="cls-3" d="M241.24,375.7c32.22,0,64.46,.45,96.67-.11,42.35-.73,76.21-18.46,100.14-53.6,39.93-58.6,17.99-141.62-45.77-172.69-43.8-21.34-86.25-17.44-125.51,11.09-40.42,29.36-56.87,80.88-42.88,129.16,4.6,15.87,12.1,30.19,22.64,42.89,6.12,7.38,6.28,15.95,.17,21.37-6.52,5.78-15.58,4.68-21.98-3.02-14.57-17.55-24.71-37.4-30.02-59.6-10.75-44.99-2.4-86.54,25.04-123.4,26.52-35.62,62.5-55.64,107.19-59.42,74.33-6.3,144.68,45.25,157.57,123.32,7.41,44.84-3.84,85.49-33.71,120.35-24.34,28.4-55.18,45.12-92.15,50.52-9.32,1.36-18.72,1.6-28.14,1.59-62.46-.06-124.91-.02-187.37,.02-4.82,0-9.4-.42-12.96-4.26-4.15-4.49-5.86-9.47-3.51-15.41,2.27-5.75,6.41-8.68,13.03-8.7,33.85-.05,67.71-.03,101.56-.03v-.06Z"/>
  <path class="cls-2" d="M291.13,196.38c3.95-.23,7.28,1.96,10.37,5.04,12.05,11.97,23.81,24.24,36.5,35.56,2.56,2.29,3.88,1.97,6.1-.36,7.37-7.71,14.99-15.19,22.51-22.75,5.54-5.57,14.97-5.72,20.53-.34,5.44,5.27,5.55,15.13,.09,20.6-11.5,11.51-23.05,22.98-34.63,34.42-7.82,7.72-15.94,8.1-23.85,.36-14.21-13.91-28.05-28.19-42.05-42.31-1.91-1.93-3.79-3.87-5.76-5.74-4.5-4.27-5.84-10.21-3.51-15.85,2.39-5.76,6.83-8.69,13.69-8.63Z"/>
  <path class="cls-3" d="M92.16,281.41c-15.73,0-31.46,.01-47.19,0-2.17,0-4.36,.06-6.5-.2-7.86-.94-13.35-6.51-13.17-13.19,.25-9.38,5.16-14.72,14.29-14.95,10.66-.27,21.33-.22,32-.24,22.59-.02,45.18,0,67.77,.02,2.17,0,4.34-.02,6.5,.16,8.18,.66,13.39,6.22,13.37,14.15-.02,8.17-5.46,13.94-13.91,14.23-7.22,.25-14.46,.02-21.69,.02-10.49,0-20.97,0-31.46,0Z"/>
  <path class="cls-3" d="M119.51,333.38c13.02,0,26.05-.08,39.07,.04,6.11,.06,10.81,2.71,13.22,8.6,2.4,5.85,.9,10.96-3.13,15.53-2.72,3.09-6.39,4.11-10.26,4.12-26.05,.08-52.1,.19-78.14-.02-9.07-.07-14.73-5.88-14.78-14.03-.05-8.72,5.38-14.1,14.94-14.23,13.02-.18,26.05-.04,39.07-.04v.04Z"/>
  <path class="cls-3" d="M145.98,293.12c8.86,0,17.72-.1,26.57,.03,6.86,.1,12.91,5.64,13.67,12.18,.85,7.34-3.26,14.71-10.54,15.37-19.78,1.81-39.7,1.82-59.47-.05-7.32-.69-11.28-7.95-10.45-15.43,.77-6.96,6.27-11.91,13.66-12.01,8.86-.12,17.71-.03,26.57-.03,0-.02,0-.05,0-.07Z"/>
  <path class="cls-3" d="M149.23,241.42c-4.7,0-9.41-.15-14.11,.03-8.53,.33-15.9-5.94-16.24-13.99-.34-8.23,5.83-14.5,14.81-14.64,10.67-.17,21.35-.15,32.02,0,7.81,.12,13.73,6.13,13.98,13.74,.25,7.89-5.5,14.23-13.64,14.61-5.6,.26-11.21,.05-16.82,.05,0,.07,0,.13,0,.2Z"/>
  <path class="cls-1" d="M434.19,248.49c.18,0,.36-.01,.54,0,8.55,.36,11.95,2.73,12.09,8.41,.14,5.95-3.69,8.89-12.12,9.2-1.97,.07-4,.13-5.92-.26-4.76-.96-7.65-5.31-6.95-10.06,.63-4.29,4.68-7.68,9.13-7.61,1.08,.02,2.15,.22,3.23,.32Z"/>
  <path class="cls-1" d="M301.17,336.75c-.21,6.82-7.61,15.59-12.88,15.26-4.33-.27-8.59-4.84-8.43-9.04,.25-6.25,7.71-14.91,12.82-14.87,4.78,.03,8.64,3.96,8.49,8.65Z"/>
  <path class="cls-1" d="M253.87,315.15c-5.2,.22-7.99-1.57-9.5-5.02-1.53-3.49-.83-6.9,1.95-9.44,2.94-2.68,6.38-4.88,10.25-5.88,3.76-.96,7.26,.09,9.52,3.48,2.1,3.14,2.3,6.75-.11,9.63-3.42,4.1-8.02,6.58-12.11,7.24Z"/>
  <path class="cls-1" d="M347.24,161.63c-.14,1.8-.05,3.65-.46,5.38-.93,3.93-3.54,6.36-7.58,6.65-3.96,.29-7.09-1.38-8.61-5.24-1.66-4.18-1.56-8.55-.46-12.8,1.17-4.55,4.22-7.23,9.14-6.67,4.78,.55,7.34,3.56,7.77,8.32,.13,1.43,.02,2.89,.02,4.34,.06,0,.13,0,.19,0Z"/>
  <path class="cls-1" d="M292.43,185.93c-6.01,0-7.91-4.83-10.45-8.95-2.15-3.49-2.83-7.01-.55-10.7,1.55-2.49,3.93-3.83,6.73-4.02,7-.47,8.64,5.44,11.37,9.95,2.32,3.82,2.12,7.6-.78,11.03-1.6,1.89-3.86,2.58-6.33,2.68Z"/>
  <path class="cls-1" d="M347.11,353.48c.17,4.63-.11,9.62-6.15,11.32-3.76,1.05-7.19,.02-9.63-3.25-2.65-3.55-2.64-13.33,0-17.14,2.32-3.36,5.53-4.47,9.47-3.53,4.84,1.16,6.33,4.04,6.32,12.6Z"/>
  <path class="cls-1" d="M384.95,328.1c7.23,.24,14.35,13.54,10.54,19.66-2.62,4.21-7.84,5.83-11.67,2.86-4.68-3.62-7.82-8.54-7.64-14.77,.13-4.52,4.23-7.91,8.78-7.76Z"/>
  <path class="cls-1" d="M397,171.53c-1.32,4.57-3.31,9.45-7.51,12.83-2.88,2.32-6.45,2.19-9.69,.32-2.99-1.73-4.1-4.64-3.66-7.87,.68-4.97,3.1-9.26,6.76-12.6,2.58-2.35,5.8-2.76,9.08-1.06,3.17,1.64,4.78,4.26,5.03,8.38Z"/>
  <path class="cls-1" d="M252.52,198.76c6.37,.1,15.09,7.43,14.99,12.59-.1,4.69-4.14,8.43-8.89,8.23-7.03-.31-15.11-7.03-14.92-12.43,.16-4.75,4.07-8.47,8.82-8.39Z"/>
  <path class="cls-1" d="M242.63,248.53c9.09,0,12.74,2.91,12.14,9.69-.54,6.07-6.01,8.85-15.31,7.76-6.53-.76-9.71-4.52-8.8-10.4,.82-5.27,3.84-7.05,11.98-7.05Z"/>
  <path class="cls-1" d="M433.28,307.34c-.24,.83-.44,2.51-1.17,3.89-2.83,5.3-9.85,5.25-17.57-.02-5.03-3.43-6.4-9.33-3.11-13.45,.44-.55,.99-1.06,1.56-1.47,3.73-2.68,7.38-1.97,11.1,.13,4.21,2.38,9.05,4.1,9.19,10.92Z"/>
  <path class="cls-1" d="M433.01,207.32c.06,7.29-12.18,14.78-18.64,11.36-3.35-1.78-4.91-4.66-4.62-8.49,.49-6.69,12.36-13.62,18.41-10.68,3.19,1.55,4.86,4.2,4.86,7.81Z"/>
</svg>