<?xml version="1.0" encoding="UTF-8"?>
<svg id="Layer_1" data-name="Layer 1" xmlns="http://www.w3.org/2000/svg" viewBox="0 0 512 512">
  <defs>
    <style>
      .cls-1 {
        stroke: #224a89;
        stroke-width: 11.29px;
      }

      .cls-1, .cls-2 {
        fill: none;
        stroke-linecap: round;
        stroke-linejoin: round;
      }

      .cls-2 {
        stroke: #ee8122;
        stroke-width: 8px;
      }
    </style>
  </defs>
  <path class="cls-2" d="M400.05,168.56c.1,40.74-32.66,73.56-73.52,73.66-40.42,.09-73.5-32.85-73.51-73.2,0-40.77,32.52-73.77,72.82-73.88,41.26-.11,74.11,32.39,74.22,73.42Zm-69.75-12.28c-3.31,6.98-8.2,10.17-14.94,10.43-4.92,.19-9.85,.12-14.78,.04-3.48-.06-6.27,.93-7.73,4.34-1.5,3.52,.15,6.11,2.61,8.44,12.36,11.68,24.7,23.39,37.08,35.04,3.77,3.55,7.68,3.89,10.49,1.11,2.96-2.93,2.49-7.06-1.39-10.79-7.33-7.05-14.68-14.08-22.14-21-1.07-.99-2.76-1.32-4.16-1.96,.53-.57,1.06-1.15,1.59-1.72,9.85-1.27,18.58-5.28,23.01-14.21,3.41-6.87,6.59-11.25,15.09-10.01,3.33,.48,5.69-2.75,5.68-6.4,0-3.64-2.18-6-5.75-6.51-2.65-.38-5.41,.02-8.09-.22-1.06-.09-2.52-.71-2.98-1.54-1.32-2.4-2.23-5.03-3.46-7.92,2.61,0,4.66,0,6.72,0,2.07,0,4.13,.06,6.2-.02,4.39-.17,7.29-2.74,7.41-6.46,.13-3.89-2.9-6.82-7.5-6.84-17.8-.07-35.6-.07-53.4,0-4.63,.02-7.65,2.86-7.58,6.75,.07,3.88,3.06,6.48,7.79,6.56,5.24,.09,10.5-.16,15.73,.1,6.23,.31,11.01,3.14,14.35,9.46-10.21,0-19.69-.02-29.18,0-5.5,.02-8.66,2.46-8.69,6.62-.03,4.16,3.15,6.7,8.59,6.72,9.53,.03,19.06,0,29.41,0Z"/>
  <g>
    <path class="cls-1" d="M134.55,385.75c-2.39-13.27-4.65-25.7-6.86-38.14-2.26-12.77-4.32-25.58-6.78-38.3-.98-5.03-.19-8.58,4.1-12.02,23.9-19.15,51.01-27.59,80.59-19.39,24.63,6.83,48.34,5.95,72.69,.83,13.59-2.85,27.33-5.04,41.07-7.07,14.09-2.08,30.84,7.34,35.45,20.45-8.87,1.66-17.61,3.38-26.38,4.91-19.84,3.46-39.71,6.8-59.55,10.24-8.03,1.39-11.64,5.45-10.69,11.77,.91,6.1,5.61,8.88,13.94,7.46,32.18-5.49,64.34-11.12,96.48-16.82,7.45-1.32,10.97-6.4,8.43-13.66-2.29-6.56-.12-9.75,5.03-13.45,18.06-12.99,35.69-26.56,53.59-39.77,8.76-6.47,17.13-7.1,27.98-.23-2.26,1.19-4.96,1.94-6.71,3.65-36.34,35.45-72.62,70.97-108.83,106.56-19.44,19.11-43.16,26.46-69.76,24.77-33.99-2.16-67.93-5.1-101.9-7.63-13.02-.97-24.74,2.55-35.02,10.7-1.96,1.55-4,3-6.87,5.14Z"/>
    <path class="cls-1" d="M96.22,280.47c7.49,42.88,14.86,84.98,22.37,127.98-16.07,2.83-31.65,5.56-47.83,8.41-7.47-42.65-14.84-84.76-22.4-127.9,15.71-2.79,31.29-5.55,47.86-8.49Z"/>
  </g>
</svg>