<?xml version="1.0" encoding="UTF-8"?>
<svg id="Layer_1" data-name="Layer 1" xmlns="http://www.w3.org/2000/svg" viewBox="0 0 512 512">
  <defs>
    <style>
      .cls-1 {
        fill: #ee8122;
      }

      .cls-2 {
        fill: none;
        stroke: #224a89;
        stroke-linecap: round;
        stroke-linejoin: round;
        stroke-width: 11.29px;
      }
    </style>
  </defs>
  <path class="cls-1" d="M323.35,317.98c17.12,0,33.2-.69,49.17,.33,6.59,.42,13.99,3.17,19.18,7.22,9.44,7.36,11.53,18.17,7.91,29.56-3.59,11.29-13.64,18.68-26.01,18.81-25.33,.27-50.66,0-75.99,.16-19.77,.12-33.59,13.23-33.41,31.34,.17,17.47,14.38,30.39,33.56,30.4,41.94,.03,83.89,.06,125.83-.05,5.04-.01,12.67,2.14,12.45-6.18-.22-8.11-7.9-5.82-12.86-5.84-41.94-.15-83.87,.02-125.81-.12-12.93-.04-21.27-7.74-21.15-18.75,.12-11.16,8.36-18.23,21.45-18.25,24.24-.04,48.48,.18,72.72-.15,5.86-.08,12.05-1.01,17.48-3.11,17.06-6.59,27.63-24.34,25.48-41.39-2.36-18.75-16.98-33.73-36-35.57-11.07-1.07-22.37,.15-33.44-.94-9.95-.98-15.64,3.48-20.56,12.53ZM126.83,110.62c-5.41,5.29-14.43,7.61-13.44,16.99,2.88,27.55,10.1,53.91,23.44,78.33,32.97,60.36,83.15,97.02,151.04,109.07,16.63,2.95,20.74,1.21,28.49-12.17-51.68-2.67-96.5-21.13-132.71-58.25-36.11-37.03-54.08-82.07-56.82-133.96Zm207.7,166.73c-108.04,7.31-189.31-85.84-180.13-184.49-13.27,3.42-15.48,5.9-15.13,18.33,1.13,40.35,13.29,77.04,38.22,108.89,33.47,42.74,77.46,66.47,131.79,70.65,20.49,1.58,16.82,2.88,25.25-13.37ZM181.85,82.55c-13.75,1.43-15.15,2.14-16.04,14.5-2.22,30.82,3.43,60.25,19.09,87.04,32.59,55.75,81.58,82.65,146.1,80.96,11.6-.3,13.34-2.85,13.6-15.72-47.75,6.02-89.67-6.52-123.64-41.09-34.16-34.77-45.47-77.26-39.11-125.7Zm135.53,41.69c-21.09,36.16-51.13,60.06-88.9,74.71,8.55,10.5,9.86,11.54,14.8,9.4,35.18-15.22,63.01-38.98,83.54-71.69-3-3.95-5.77-7.6-9.43-12.43Zm-105.91,52.93c7.13,13.41,7.18,13.52,19.92,8.19,23.76-9.95,44.17-24.65,60.54-44.55,6.42-7.8,11.74-16.51,17.52-24.75-3.92-3.4-6.56-5.75-9.27-8.01-.57-.48-1.39-.66-2.65-1.24-19.01,34.86-47.76,58-86.05,70.36Zm39.48,40.45q13.99,10.81,27.16,3.1c21.14-12.36,39.39-28.15,55.05-46.92,9.15-10.96,9.09-13.09-.32-25.19-20.79,30.44-47.9,53.32-81.89,69.01Zm-52.54-68.46c20.56-13.56,42.48-21.87,66.15-25.44,10.3-1.55,15.16-5.81,17.53-16.33-26.97,1.48-52.52,7.75-76.52,20.31-13.12,6.86-13.34,6.73-7.16,21.47Zm-5.44-27.28c27.23-15.98,56.62-22.74,89.29-26.5-13.35-5.56-23.58-14.47-36.96-10.45-14.8,4.45-29.42,9.61-43.78,15.32-12.01,4.77-12.82,7.82-8.54,21.62Zm-114.07,89.6c-1.64,16.04-1.71,16.2,11.51,21.87,7.43,3.18,14.95,6.43,22.75,8.43,12,3.07,24.28,5.09,37.25,7.72-5.68-12.72-13.75-18.91-25.98-21.44-11.8-2.44-23.1-7.4-34.54-11.46-3.7-1.32-7.17-3.31-10.98-5.11Zm55.63,47.07c0,18.52-1.09,35.88,.32,53.03,1.33,16.23,6.2,20.47,20.08,23.55-7.76-24.28-9.54-48.9-4.29-74.5-5.03-.65-9.25-1.2-16.1-2.08Zm36.61,86.02c11.39,1.64,21.77,6.13,30.2,3.74,18.52-5.24,34.49-16.39,48.69-30.01-8.64-5.95-15.96-7.01-23.96,.72-4.76,4.6-11.17,7.82-17.33,10.55-11.58,5.12-23.51,9.44-37.6,15Zm53.51-39.79c-9.29-2.38-17.11-4.58-25.02-6.36-13.33-3-26.72-5.73-40.08-8.57-1.41,13.78-1.39,14.45,11.19,17.46,11.03,2.63,22.35,4.1,33.55,6.01,7.15,1.22,13.45-.35,20.36-8.53Zm-114.4-52.06c-1.02,11.02-1.37,21.05-3,30.86-2.35,14.16,5.01,22.72,15.78,30.76v-58.23c-3.31-.88-7.2-1.91-12.78-3.39Zm18.03-33.42c.63-.77,1.25-1.55,1.88-2.32-3.33-5.46-5.38-13.18-10.23-15.92-11.91-6.71-25.12-11.13-37.8-16.47-4.62,11.81-4.2,13.92,7.21,18.99,12.78,5.68,25.95,10.51,38.95,15.72Zm209.31,20.29c3.58-1.91,10.92-3.57,11.42-6.44,3.25-18.43,2.12-36.9-4.02-57.73-3.19,6.11-6.93,10.07-7.11,14.19-.71,15.89-.29,31.83-.29,49.98Zm-79.12-102.55c-20.37,3.82-39.23,11.03-58.14,24.56,3.84,1.93,6.61,4.6,8.45,4.06,18.81-5.5,35.66-14.64,49.69-28.62Zm65.16,102.59c1.32-13.79,2.56-26.79,3.86-40.43-19.37,8.02-15.71,24.8-18.82,39.73,5.06,.24,9.5,.45,14.96,.7Zm-94.4,110.03c19.56-3.09,38.11-5.7,49.45-24.26-3.19-.82-6.19-2.02-9.26-2.25-2.87-.21-6.57-.39-8.6,1.14-10.34,7.81-20.26,16.17-31.59,25.37ZM84.72,171.73c9.78,5,19.27,9.86,29.03,14.86,.38-17.5-11.56-22.72-23.52-28.62-1.69,4.21-3.36,8.39-5.51,13.76Zm.2,72.74c-4.1,13.77,5.5,23.23,10.63,36.56,.92-7.74,1.43-12.87,2.14-17.96q1.95-14.08-11.5-18.73c-.21-.07-.49,.04-1.27,.14Zm101.09,40.55c.18-.48,.36-.96,.53-1.44-7.91-7.04-15.81-14.07-24.25-21.58-.83,3.83-1.91,6.71-1.91,9.59,0,1.94,1.05,5.09,2.44,5.63,7.59,2.95,15.43,5.27,23.19,7.8Zm-19.97,47.45c9.06-2.51,17.62-4.88,26.18-7.25-.14-.47-.28-.94-.42-1.41-9.66-2.07-19.32-4.14-29.84-6.4,1.38,5.1,2.55,9.41,4.08,15.06Zm116.92-101.05c.14,.77,.28,1.54,.43,2.3,4.33,1.04,8.65,2.07,13.66,3.27,.89-5.32,1.66-9.95,2.74-16.4-6.7,4.31-11.77,7.57-16.83,10.83ZM105.84,153.85c-1.28-6.64-2.17-11.28-3.36-17.47-2.86,4.47-4.68,7.32-6.82,10.66,3.24,2.17,6.03,4.04,10.18,6.81Z"/>
  <path class="cls-2" d="M342.35,294.32c10.08,0,20.37-.29,30.64,.06,27.19,.91,48.09,19.85,51.69,46.51,3.09,22.86-12.43,46.84-35.72,54.19-6.12,1.93-12.82,2.66-19.27,2.74-23.7,.31-47.4,.15-71.1,.11-5.19,0-10.59,.32-10.69,7.01-.1,6.67,5.24,7.33,10.46,7.33,41.13,0,82.26,0,123.4,.01,2.45,0,4.91-.09,7.35,.04,11.81,.61,19.12,7.71,18.68,18.07-.42,9.97-8.09,16.76-19.28,16.82-15.53,.08-31.05-.02-46.58-.02-28.88,0-57.75,.17-86.63-.02-20.53-.14-38.96-15.56-41.9-34.51-3.29-21.21,7.69-40.56,27.5-47.26,5.55-1.87,11.72-2.55,17.62-2.62,24.79-.29,49.58-.01,74.37-.24,8.91-.08,15.23-5.83,16.53-13.97,1.24-7.73-2.49-14.71-9.91-17.72-2.42-.98-5.26-1.31-7.9-1.32-19.34-.11-38.68-.19-58.02,.06-2.66,.03-5.68,1.44-7.88,3.08-63.41,47.41-149.15,40.53-201.8-18.32-39.24-43.87-49.93-95.68-29.77-151.21,20.03-55.17,60.79-88.38,119.01-96.8,82.7-11.96,156.78,43.56,169.35,125.48,5.12,33.34-1.1,64.97-17.18,94.64-1.16,2.13-2.28,4.28-3.38,6.45-.09,.18,.13,.51,.4,1.41Z"/>
</svg>